<svg width="161" height="161" viewBox="0 0 161 161" fill="none" xmlns="http://www.w3.org/2000/svg">
<rect width="161" height="161" rx="5.33574" fill="#FAFAFB"/>
<path fill-rule="evenodd" clip-rule="evenodd" d="M130.59 42.4865C130.59 29.6428 120.178 19.2309 107.335 19.2309C94.491 19.2309 84.0791 29.6428 84.0791 42.4865V83.1837H95.7069V42.4865C95.7069 36.0646 100.913 30.8587 107.335 30.8587C113.757 30.8587 118.962 36.0646 118.962 42.4865V59.1828H130.59V42.4865Z" fill="#111217"/>
<rect x="73.7924" y="62.6108" width="44.7222" height="79.1583" rx="3.55716" fill="#10B981"/>
<mask id="mask0_1_16832" style="mask-type:alpha" maskUnits="userSpaceOnUse" x="73" y="62" width="46" height="80">
<rect x="73.7919" y="62.6108" width="44.7222" height="79.1583" rx="3.55716" fill="url(#paint0_linear_1_16832)"/>
</mask>
<g mask="url(#mask0_1_16832)">
<circle cx="73.1246" cy="63.7314" r="0.673944" fill="#111217"/>
<circle cx="73.1246" cy="66.4153" r="0.673944" fill="#111217"/>
<circle cx="73.1246" cy="69.0985" r="0.673944" fill="#111217"/>
<circle cx="73.1246" cy="71.7812" r="0.673944" fill="#111217"/>
<circle cx="73.1246" cy="74.4644" r="0.673944" fill="#111217"/>
<circle cx="73.1246" cy="77.1488" r="0.673944" fill="#111217"/>
<circle cx="73.1246" cy="79.832" r="0.673944" fill="#111217"/>
<circle cx="73.1246" cy="82.5154" r="0.673944" fill="#111217"/>
<circle cx="73.1246" cy="85.1988" r="0.673944" fill="#111217"/>
<circle cx="73.1246" cy="87.8815" r="0.673944" fill="#111217"/>
<circle cx="73.1246" cy="90.5657" r="0.673944" fill="#111217"/>
<circle cx="73.1246" cy="93.2484" r="0.673944" fill="#111217"/>
<circle cx="73.1246" cy="95.9316" r="0.673944" fill="#111217"/>
<circle cx="73.1246" cy="98.614" r="0.673944" fill="#111217"/>
<circle cx="73.1246" cy="101.298" r="0.673944" fill="#111217"/>
<circle cx="73.1246" cy="103.982" r="0.673944" fill="#111217"/>
<circle cx="73.1246" cy="106.665" r="0.673944" fill="#111217"/>
<circle cx="73.1246" cy="109.349" r="0.673944" fill="#111217"/>
<circle cx="73.1246" cy="112.031" r="0.673944" fill="#111217"/>
<circle cx="73.1246" cy="114.714" r="0.673944" fill="#111217"/>
<circle cx="73.1246" cy="117.399" r="0.673944" fill="#111217"/>
<circle cx="73.1246" cy="120.082" r="0.673944" fill="#111217"/>
<circle cx="73.1246" cy="122.765" r="0.673944" fill="#111217"/>
<circle cx="73.1246" cy="125.448" r="0.673944" fill="#111217"/>
<circle cx="73.1246" cy="128.133" r="0.673944" fill="#111217"/>
<circle cx="73.1246" cy="130.816" r="0.673944" fill="#111217"/>
<circle cx="73.1246" cy="133.498" r="0.673944" fill="#111217"/>
<circle cx="73.1246" cy="136.182" r="0.673944" fill="#111217"/>
<circle cx="73.1246" cy="138.864" r="0.673944" fill="#111217"/>
<circle cx="73.1246" cy="141.548" r="0.673944" fill="#111217"/>
<circle cx="75.8062" cy="63.7314" r="0.673944" fill="#111217"/>
<circle cx="75.8062" cy="66.4153" r="0.673944" fill="#111217"/>
<circle cx="75.8062" cy="69.0985" r="0.673944" fill="#111217"/>
<circle cx="75.8062" cy="71.7812" r="0.673944" fill="#111217"/>
<circle cx="75.8062" cy="74.4644" r="0.673944" fill="#111217"/>
<circle cx="75.8062" cy="77.1488" r="0.673944" fill="#111217"/>
<circle cx="75.8062" cy="79.832" r="0.673944" fill="#111217"/>
<circle cx="75.8062" cy="82.5154" r="0.673944" fill="#111217"/>
<circle cx="75.8062" cy="85.1988" r="0.673944" fill="#111217"/>
<circle cx="75.8062" cy="87.8815" r="0.673944" fill="#111217"/>
<circle cx="75.8062" cy="90.5657" r="0.673944" fill="#111217"/>
<circle cx="75.8062" cy="93.2484" r="0.673944" fill="#111217"/>
<circle cx="75.8062" cy="95.9316" r="0.673944" fill="#111217"/>
<circle cx="75.8062" cy="98.614" r="0.673944" fill="#111217"/>
<circle cx="75.8062" cy="101.298" r="0.673944" fill="#111217"/>
<circle cx="75.8062" cy="103.982" r="0.673944" fill="#111217"/>
<circle cx="75.8062" cy="106.665" r="0.673944" fill="#111217"/>
<circle cx="75.8062" cy="109.349" r="0.673944" fill="#111217"/>
<circle cx="75.8062" cy="112.031" r="0.673944" fill="#111217"/>
<circle cx="75.8062" cy="114.714" r="0.673944" fill="#111217"/>
<circle cx="75.8062" cy="117.399" r="0.673944" fill="#111217"/>
<circle cx="75.8062" cy="120.082" r="0.673944" fill="#111217"/>
<circle cx="75.8062" cy="122.765" r="0.673944" fill="#111217"/>
<circle cx="75.8062" cy="125.448" r="0.673944" fill="#111217"/>
<circle cx="75.8062" cy="128.133" r="0.673944" fill="#111217"/>
<circle cx="75.8062" cy="130.816" r="0.673944" fill="#111217"/>
<circle cx="75.8062" cy="133.498" r="0.673944" fill="#111217"/>
<circle cx="75.8062" cy="136.182" r="0.673944" fill="#111217"/>
<circle cx="75.8062" cy="138.864" r="0.673944" fill="#111217"/>
<circle cx="75.8062" cy="141.548" r="0.673944" fill="#111217"/>
<circle cx="78.4897" cy="63.7314" r="0.673944" fill="#111217"/>
<circle cx="78.4897" cy="66.4153" r="0.673944" fill="#111217"/>
<circle cx="78.4897" cy="69.0985" r="0.673944" fill="#111217"/>
<circle cx="78.4897" cy="71.7812" r="0.673944" fill="#111217"/>
<circle cx="78.4897" cy="74.4644" r="0.673944" fill="#111217"/>
<circle cx="78.4897" cy="77.1488" r="0.673944" fill="#111217"/>
<circle cx="78.4897" cy="79.832" r="0.673944" fill="#111217"/>
<circle cx="78.4897" cy="82.5154" r="0.673944" fill="#111217"/>
<circle cx="78.4897" cy="85.1988" r="0.673944" fill="#111217"/>
<circle cx="78.4897" cy="87.8815" r="0.673944" fill="#111217"/>
<circle cx="78.4897" cy="90.5657" r="0.673944" fill="#111217"/>
<circle cx="78.4897" cy="93.2484" r="0.673944" fill="#111217"/>
<circle cx="78.4897" cy="95.9316" r="0.673944" fill="#111217"/>
<circle cx="78.4897" cy="98.614" r="0.673944" fill="#111217"/>
<circle cx="78.4897" cy="101.298" r="0.673944" fill="#111217"/>
<circle cx="78.4897" cy="103.982" r="0.673944" fill="#111217"/>
<circle cx="78.4897" cy="106.665" r="0.673944" fill="#111217"/>
<circle cx="78.4897" cy="109.349" r="0.673944" fill="#111217"/>
<circle cx="78.4897" cy="112.031" r="0.673944" fill="#111217"/>
<circle cx="78.4897" cy="114.714" r="0.673944" fill="#111217"/>
<circle cx="78.4897" cy="117.399" r="0.673944" fill="#111217"/>
<circle cx="78.4897" cy="120.082" r="0.673944" fill="#111217"/>
<circle cx="78.4897" cy="122.765" r="0.673944" fill="#111217"/>
<circle cx="78.4897" cy="125.448" r="0.673944" fill="#111217"/>
<circle cx="78.4897" cy="128.133" r="0.673944" fill="#111217"/>
<circle cx="78.4897" cy="130.816" r="0.673944" fill="#111217"/>
<circle cx="78.4897" cy="133.498" r="0.673944" fill="#111217"/>
<circle cx="78.4897" cy="136.182" r="0.673944" fill="#111217"/>
<circle cx="78.4897" cy="138.864" r="0.673944" fill="#111217"/>
<circle cx="78.4897" cy="141.548" r="0.673944" fill="#111217"/>
<circle cx="81.1732" cy="63.7314" r="0.673944" fill="#111217"/>
<circle cx="81.1732" cy="66.4153" r="0.673944" fill="#111217"/>
<circle cx="81.1732" cy="69.0985" r="0.673944" fill="#111217"/>
<circle cx="81.1732" cy="71.7812" r="0.673944" fill="#111217"/>
<circle cx="81.1732" cy="74.4644" r="0.673944" fill="#111217"/>
<circle cx="81.1732" cy="77.1488" r="0.673944" fill="#111217"/>
<circle cx="81.1732" cy="79.832" r="0.673944" fill="#111217"/>
<circle cx="81.1732" cy="82.5154" r="0.673944" fill="#111217"/>
<circle cx="81.1732" cy="85.1988" r="0.673944" fill="#111217"/>
<circle cx="81.1732" cy="87.8815" r="0.673944" fill="#111217"/>
<circle cx="81.1732" cy="90.5657" r="0.673944" fill="#111217"/>
<circle cx="81.1732" cy="93.2484" r="0.673944" fill="#111217"/>
<circle cx="81.1732" cy="95.9316" r="0.673944" fill="#111217"/>
<circle cx="81.1732" cy="98.614" r="0.673944" fill="#111217"/>
<circle cx="81.1732" cy="101.298" r="0.673944" fill="#111217"/>
<circle cx="81.1732" cy="103.982" r="0.673944" fill="#111217"/>
<circle cx="81.1732" cy="106.665" r="0.673944" fill="#111217"/>
<circle cx="81.1732" cy="109.349" r="0.673944" fill="#111217"/>
<circle cx="81.1732" cy="112.031" r="0.673944" fill="#111217"/>
<circle cx="81.1732" cy="114.714" r="0.673944" fill="#111217"/>
<circle cx="81.1732" cy="117.399" r="0.673944" fill="#111217"/>
<circle cx="81.1732" cy="120.082" r="0.673944" fill="#111217"/>
<circle cx="81.1732" cy="122.765" r="0.673944" fill="#111217"/>
<circle cx="81.1732" cy="125.448" r="0.673944" fill="#111217"/>
<circle cx="81.1732" cy="128.133" r="0.673944" fill="#111217"/>
<circle cx="81.1732" cy="130.816" r="0.673944" fill="#111217"/>
<circle cx="81.1732" cy="133.498" r="0.673944" fill="#111217"/>
<circle cx="81.1732" cy="136.182" r="0.673944" fill="#111217"/>
<circle cx="81.1732" cy="138.864" r="0.673944" fill="#111217"/>
<circle cx="81.1732" cy="141.548" r="0.673944" fill="#111217"/>
<circle cx="83.8582" cy="63.7314" r="0.673944" fill="#111217"/>
<circle cx="83.8582" cy="66.4153" r="0.673944" fill="#111217"/>
<circle cx="83.8582" cy="69.0985" r="0.673944" fill="#111217"/>
<circle cx="83.8582" cy="71.7812" r="0.673944" fill="#111217"/>
<circle cx="83.8582" cy="74.4644" r="0.673944" fill="#111217"/>
<circle cx="83.8582" cy="77.1488" r="0.673944" fill="#111217"/>
<circle cx="83.8582" cy="79.832" r="0.673944" fill="#111217"/>
<circle cx="83.8582" cy="82.5154" r="0.673944" fill="#111217"/>
<circle cx="83.8582" cy="85.1988" r="0.673944" fill="#111217"/>
<circle cx="83.8582" cy="87.8815" r="0.673944" fill="#111217"/>
<circle cx="83.8582" cy="90.5657" r="0.673944" fill="#111217"/>
<circle cx="83.8582" cy="93.2484" r="0.673944" fill="#111217"/>
<circle cx="83.8582" cy="95.9316" r="0.673944" fill="#111217"/>
<circle cx="83.8582" cy="98.614" r="0.673944" fill="#111217"/>
<circle cx="83.8582" cy="101.298" r="0.673944" fill="#111217"/>
<circle cx="83.8582" cy="103.982" r="0.673944" fill="#111217"/>
<circle cx="83.8582" cy="106.665" r="0.673944" fill="#111217"/>
<circle cx="83.8582" cy="109.349" r="0.673944" fill="#111217"/>
<circle cx="83.8582" cy="112.031" r="0.673944" fill="#111217"/>
<circle cx="83.8582" cy="114.714" r="0.673944" fill="#111217"/>
<circle cx="83.8582" cy="117.399" r="0.673944" fill="#111217"/>
<circle cx="83.8582" cy="120.082" r="0.673944" fill="#111217"/>
<circle cx="83.8582" cy="122.765" r="0.673944" fill="#111217"/>
<circle cx="83.8582" cy="125.448" r="0.673944" fill="#111217"/>
<circle cx="83.8582" cy="128.133" r="0.673944" fill="#111217"/>
<circle cx="83.8582" cy="130.816" r="0.673944" fill="#111217"/>
<circle cx="83.8582" cy="133.498" r="0.673944" fill="#111217"/>
<circle cx="83.8582" cy="136.182" r="0.673944" fill="#111217"/>
<circle cx="83.8582" cy="138.864" r="0.673944" fill="#111217"/>
<circle cx="83.8582" cy="141.548" r="0.673944" fill="#111217"/>
<circle cx="86.5422" cy="63.7314" r="0.673944" fill="#111217"/>
<circle cx="86.5422" cy="66.4153" r="0.673944" fill="#111217"/>
<circle cx="86.5422" cy="69.0985" r="0.673944" fill="#111217"/>
<circle cx="86.5422" cy="71.7812" r="0.673944" fill="#111217"/>
<circle cx="86.5422" cy="74.4644" r="0.673944" fill="#111217"/>
<circle cx="86.5422" cy="77.1488" r="0.673944" fill="#111217"/>
<circle cx="86.5422" cy="79.832" r="0.673944" fill="#111217"/>
<circle cx="86.5422" cy="82.5154" r="0.673944" fill="#111217"/>
<circle cx="86.5422" cy="85.1988" r="0.673944" fill="#111217"/>
<circle cx="86.5422" cy="87.8815" r="0.673944" fill="#111217"/>
<circle cx="86.5422" cy="90.5657" r="0.673944" fill="#111217"/>
<circle cx="86.5422" cy="93.2484" r="0.673944" fill="#111217"/>
<circle cx="86.5422" cy="95.9316" r="0.673944" fill="#111217"/>
<circle cx="86.5422" cy="98.614" r="0.673944" fill="#111217"/>
<circle cx="86.5422" cy="101.298" r="0.673944" fill="#111217"/>
<circle cx="86.5422" cy="103.982" r="0.673944" fill="#111217"/>
<circle cx="86.5422" cy="106.665" r="0.673944" fill="#111217"/>
<circle cx="86.5422" cy="109.349" r="0.673944" fill="#111217"/>
<circle cx="86.5422" cy="112.031" r="0.673944" fill="#111217"/>
<circle cx="86.5422" cy="114.714" r="0.673944" fill="#111217"/>
<circle cx="86.5422" cy="117.399" r="0.673944" fill="#111217"/>
<circle cx="86.5422" cy="120.082" r="0.673944" fill="#111217"/>
<circle cx="86.5422" cy="122.765" r="0.673944" fill="#111217"/>
<circle cx="86.5422" cy="125.448" r="0.673944" fill="#111217"/>
<circle cx="86.5422" cy="128.133" r="0.673944" fill="#111217"/>
<circle cx="86.5422" cy="130.816" r="0.673944" fill="#111217"/>
<circle cx="86.5422" cy="133.498" r="0.673944" fill="#111217"/>
<circle cx="86.5422" cy="136.182" r="0.673944" fill="#111217"/>
<circle cx="86.5422" cy="138.864" r="0.673944" fill="#111217"/>
<circle cx="86.5422" cy="141.548" r="0.673944" fill="#111217"/>
<circle cx="89.2228" cy="63.7314" r="0.673944" fill="#111217"/>
<circle cx="89.2228" cy="66.4153" r="0.673944" fill="#111217"/>
<circle cx="89.2228" cy="69.0985" r="0.673944" fill="#111217"/>
<circle cx="89.2228" cy="71.7812" r="0.673944" fill="#111217"/>
<circle cx="89.2228" cy="74.4644" r="0.673944" fill="#111217"/>
<circle cx="89.2228" cy="77.1488" r="0.673944" fill="#111217"/>
<circle cx="89.2228" cy="79.832" r="0.673944" fill="#111217"/>
<circle cx="89.2228" cy="82.5154" r="0.673944" fill="#111217"/>
<circle cx="89.2228" cy="85.1988" r="0.673944" fill="#111217"/>
<circle cx="89.2228" cy="87.8815" r="0.673944" fill="#111217"/>
<circle cx="89.2228" cy="90.5657" r="0.673944" fill="#111217"/>
<circle cx="89.2228" cy="93.2484" r="0.673944" fill="#111217"/>
<circle cx="89.2228" cy="95.9316" r="0.673944" fill="#111217"/>
<circle cx="89.2228" cy="98.614" r="0.673944" fill="#111217"/>
<circle cx="89.2228" cy="101.298" r="0.673944" fill="#111217"/>
<circle cx="89.2228" cy="103.982" r="0.673944" fill="#111217"/>
<circle cx="89.2228" cy="106.665" r="0.673944" fill="#111217"/>
<circle cx="89.2228" cy="109.349" r="0.673944" fill="#111217"/>
<circle cx="89.2228" cy="112.031" r="0.673944" fill="#111217"/>
<circle cx="89.2228" cy="114.714" r="0.673944" fill="#111217"/>
<circle cx="89.2228" cy="117.399" r="0.673944" fill="#111217"/>
<circle cx="89.2228" cy="120.082" r="0.673944" fill="#111217"/>
<circle cx="89.2228" cy="122.765" r="0.673944" fill="#111217"/>
<circle cx="89.2228" cy="125.448" r="0.673944" fill="#111217"/>
<circle cx="89.2228" cy="128.133" r="0.673944" fill="#111217"/>
<circle cx="89.2228" cy="130.816" r="0.673944" fill="#111217"/>
<circle cx="89.2228" cy="133.498" r="0.673944" fill="#111217"/>
<circle cx="89.2228" cy="136.182" r="0.673944" fill="#111217"/>
<circle cx="89.2228" cy="138.864" r="0.673944" fill="#111217"/>
<circle cx="89.2228" cy="141.548" r="0.673944" fill="#111217"/>
<circle cx="91.9078" cy="63.7314" r="0.673944" fill="#111217"/>
<circle cx="91.9078" cy="66.4153" r="0.673944" fill="#111217"/>
<circle cx="91.9078" cy="69.0985" r="0.673944" fill="#111217"/>
<circle cx="91.9078" cy="71.7812" r="0.673944" fill="#111217"/>
<circle cx="91.9078" cy="74.4644" r="0.673944" fill="#111217"/>
<circle cx="91.9078" cy="77.1488" r="0.673944" fill="#111217"/>
<circle cx="91.9078" cy="79.832" r="0.673944" fill="#111217"/>
<circle cx="91.9078" cy="82.5154" r="0.673944" fill="#111217"/>
<circle cx="91.9078" cy="85.1988" r="0.673944" fill="#111217"/>
<circle cx="91.9078" cy="87.8815" r="0.673944" fill="#111217"/>
<circle cx="91.9078" cy="90.5657" r="0.673944" fill="#111217"/>
<circle cx="91.9078" cy="93.2484" r="0.673944" fill="#111217"/>
<circle cx="91.9078" cy="95.9316" r="0.673944" fill="#111217"/>
<circle cx="91.9078" cy="98.614" r="0.673944" fill="#111217"/>
<circle cx="91.9078" cy="101.298" r="0.673944" fill="#111217"/>
<circle cx="91.9078" cy="103.982" r="0.673944" fill="#111217"/>
<circle cx="91.9078" cy="106.665" r="0.673944" fill="#111217"/>
<circle cx="91.9078" cy="109.349" r="0.673944" fill="#111217"/>
<circle cx="91.9078" cy="112.031" r="0.673944" fill="#111217"/>
<circle cx="91.9078" cy="114.714" r="0.673944" fill="#111217"/>
<circle cx="91.9078" cy="117.399" r="0.673944" fill="#111217"/>
<circle cx="91.9078" cy="120.082" r="0.673944" fill="#111217"/>
<circle cx="91.9078" cy="122.765" r="0.673944" fill="#111217"/>
<circle cx="91.9078" cy="125.448" r="0.673944" fill="#111217"/>
<circle cx="91.9078" cy="128.133" r="0.673944" fill="#111217"/>
<circle cx="91.9078" cy="130.816" r="0.673944" fill="#111217"/>
<circle cx="91.9078" cy="133.498" r="0.673944" fill="#111217"/>
<circle cx="91.9078" cy="136.182" r="0.673944" fill="#111217"/>
<circle cx="91.9078" cy="138.864" r="0.673944" fill="#111217"/>
<circle cx="91.9078" cy="141.548" r="0.673944" fill="#111217"/>
<circle cx="94.5913" cy="63.7314" r="0.673944" fill="#111217"/>
<circle cx="94.5913" cy="66.4153" r="0.673944" fill="#111217"/>
<circle cx="94.5913" cy="69.0985" r="0.673944" fill="#111217"/>
<circle cx="94.5913" cy="71.7812" r="0.673944" fill="#111217"/>
<circle cx="94.5913" cy="74.4644" r="0.673944" fill="#111217"/>
<circle cx="94.5913" cy="77.1488" r="0.673944" fill="#111217"/>
<circle cx="94.5913" cy="79.832" r="0.673944" fill="#111217"/>
<circle cx="94.5913" cy="82.5154" r="0.673944" fill="#111217"/>
<circle cx="94.5913" cy="85.1988" r="0.673944" fill="#111217"/>
<circle cx="94.5913" cy="87.8815" r="0.673944" fill="#111217"/>
<circle cx="94.5913" cy="90.5657" r="0.673944" fill="#111217"/>
<circle cx="94.5913" cy="93.2484" r="0.673944" fill="#111217"/>
<circle cx="94.5913" cy="95.9316" r="0.673944" fill="#111217"/>
<circle cx="94.5913" cy="98.614" r="0.673944" fill="#111217"/>
<circle cx="94.5913" cy="101.298" r="0.673944" fill="#111217"/>
<circle cx="94.5913" cy="103.982" r="0.673944" fill="#111217"/>
<circle cx="94.5913" cy="106.665" r="0.673944" fill="#111217"/>
<circle cx="94.5913" cy="109.349" r="0.673944" fill="#111217"/>
<circle cx="94.5913" cy="112.031" r="0.673944" fill="#111217"/>
<circle cx="94.5913" cy="114.714" r="0.673944" fill="#111217"/>
<circle cx="94.5913" cy="117.399" r="0.673944" fill="#111217"/>
<circle cx="94.5913" cy="120.082" r="0.673944" fill="#111217"/>
<circle cx="94.5913" cy="122.765" r="0.673944" fill="#111217"/>
<circle cx="94.5913" cy="125.448" r="0.673944" fill="#111217"/>
<circle cx="94.5913" cy="128.133" r="0.673944" fill="#111217"/>
<circle cx="94.5913" cy="130.816" r="0.673944" fill="#111217"/>
<circle cx="94.5913" cy="133.498" r="0.673944" fill="#111217"/>
<circle cx="94.5913" cy="136.182" r="0.673944" fill="#111217"/>
<circle cx="94.5913" cy="138.864" r="0.673944" fill="#111217"/>
<circle cx="94.5913" cy="141.548" r="0.673944" fill="#111217"/>
<circle cx="97.2743" cy="63.7314" r="0.673944" fill="#111217"/>
<circle cx="97.2743" cy="66.4153" r="0.673944" fill="#111217"/>
<circle cx="97.2743" cy="69.0985" r="0.673944" fill="#111217"/>
<circle cx="97.2743" cy="71.7812" r="0.673944" fill="#111217"/>
<circle cx="97.2743" cy="74.4644" r="0.673944" fill="#111217"/>
<circle cx="97.2743" cy="77.1488" r="0.673944" fill="#111217"/>
<circle cx="97.2743" cy="79.832" r="0.673944" fill="#111217"/>
<circle cx="97.2743" cy="82.5154" r="0.673944" fill="#111217"/>
<circle cx="97.2743" cy="85.1988" r="0.673944" fill="#111217"/>
<circle cx="97.2743" cy="87.8815" r="0.673944" fill="#111217"/>
<circle cx="97.2743" cy="90.5657" r="0.673944" fill="#111217"/>
<circle cx="97.2743" cy="93.2484" r="0.673944" fill="#111217"/>
<circle cx="97.2743" cy="95.9316" r="0.673944" fill="#111217"/>
<circle cx="97.2743" cy="98.614" r="0.673944" fill="#111217"/>
<circle cx="97.2743" cy="101.298" r="0.673944" fill="#111217"/>
<circle cx="97.2743" cy="103.982" r="0.673944" fill="#111217"/>
<circle cx="97.2743" cy="106.665" r="0.673944" fill="#111217"/>
<circle cx="97.2743" cy="109.349" r="0.673944" fill="#111217"/>
<circle cx="97.2743" cy="112.031" r="0.673944" fill="#111217"/>
<circle cx="97.2743" cy="114.714" r="0.673944" fill="#111217"/>
<circle cx="97.2743" cy="117.399" r="0.673944" fill="#111217"/>
<circle cx="97.2743" cy="120.082" r="0.673944" fill="#111217"/>
<circle cx="97.2743" cy="122.765" r="0.673944" fill="#111217"/>
<circle cx="97.2743" cy="125.448" r="0.673944" fill="#111217"/>
<circle cx="97.2743" cy="128.133" r="0.673944" fill="#111217"/>
<circle cx="97.2743" cy="130.816" r="0.673944" fill="#111217"/>
<circle cx="97.2743" cy="133.498" r="0.673944" fill="#111217"/>
<circle cx="97.2743" cy="136.182" r="0.673944" fill="#111217"/>
<circle cx="97.2743" cy="138.864" r="0.673944" fill="#111217"/>
<circle cx="97.2743" cy="141.548" r="0.673944" fill="#111217"/>
<circle cx="99.9584" cy="63.7314" r="0.673944" fill="#111217"/>
<circle cx="99.9584" cy="66.4153" r="0.673944" fill="#111217"/>
<circle cx="99.9584" cy="69.0985" r="0.673944" fill="#111217"/>
<circle cx="99.9584" cy="71.7812" r="0.673944" fill="#111217"/>
<circle cx="99.9584" cy="74.4644" r="0.673944" fill="#111217"/>
<circle cx="99.9584" cy="77.1488" r="0.673944" fill="#111217"/>
<circle cx="99.9584" cy="79.832" r="0.673944" fill="#111217"/>
<circle cx="99.9584" cy="82.5154" r="0.673944" fill="#111217"/>
<circle cx="99.9584" cy="85.1988" r="0.673944" fill="#111217"/>
<circle cx="99.9584" cy="87.8815" r="0.673944" fill="#111217"/>
<circle cx="99.9584" cy="90.5657" r="0.673944" fill="#111217"/>
<circle cx="99.9584" cy="93.2484" r="0.673944" fill="#111217"/>
<circle cx="99.9584" cy="95.9316" r="0.673944" fill="#111217"/>
<circle cx="99.9584" cy="98.614" r="0.673944" fill="#111217"/>
<circle cx="99.9584" cy="101.298" r="0.673944" fill="#111217"/>
<circle cx="99.9584" cy="103.982" r="0.673944" fill="#111217"/>
<circle cx="99.9584" cy="106.665" r="0.673944" fill="#111217"/>
<circle cx="99.9584" cy="109.349" r="0.673944" fill="#111217"/>
<circle cx="99.9584" cy="112.031" r="0.673944" fill="#111217"/>
<circle cx="99.9584" cy="114.714" r="0.673944" fill="#111217"/>
<circle cx="99.9584" cy="117.399" r="0.673944" fill="#111217"/>
<circle cx="99.9584" cy="120.082" r="0.673944" fill="#111217"/>
<circle cx="99.9584" cy="122.765" r="0.673944" fill="#111217"/>
<circle cx="99.9584" cy="125.448" r="0.673944" fill="#111217"/>
<circle cx="99.9584" cy="128.133" r="0.673944" fill="#111217"/>
<circle cx="99.9584" cy="130.816" r="0.673944" fill="#111217"/>
<circle cx="99.9584" cy="133.498" r="0.673944" fill="#111217"/>
<circle cx="99.9584" cy="136.182" r="0.673944" fill="#111217"/>
<circle cx="99.9584" cy="138.864" r="0.673944" fill="#111217"/>
<circle cx="99.9584" cy="141.548" r="0.673944" fill="#111217"/>
<circle cx="102.641" cy="63.7314" r="0.673944" fill="#111217"/>
<circle cx="102.641" cy="66.4153" r="0.673944" fill="#111217"/>
<circle cx="102.641" cy="69.0985" r="0.673944" fill="#111217"/>
<circle cx="102.641" cy="71.7812" r="0.673944" fill="#111217"/>
<circle cx="102.641" cy="74.4644" r="0.673944" fill="#111217"/>
<circle cx="102.641" cy="77.1488" r="0.673944" fill="#111217"/>
<circle cx="102.641" cy="79.832" r="0.673944" fill="#111217"/>
<circle cx="102.641" cy="82.5154" r="0.673944" fill="#111217"/>
<circle cx="102.641" cy="85.1988" r="0.673944" fill="#111217"/>
<circle cx="102.641" cy="87.8815" r="0.673944" fill="#111217"/>
<circle cx="102.641" cy="90.5657" r="0.673944" fill="#111217"/>
<circle cx="102.641" cy="93.2484" r="0.673944" fill="#111217"/>
<circle cx="102.641" cy="95.9316" r="0.673944" fill="#111217"/>
<circle cx="102.641" cy="98.614" r="0.673944" fill="#111217"/>
<circle cx="102.641" cy="101.298" r="0.673944" fill="#111217"/>
<circle cx="102.641" cy="103.982" r="0.673944" fill="#111217"/>
<circle cx="102.641" cy="106.665" r="0.673944" fill="#111217"/>
<circle cx="102.641" cy="109.349" r="0.673944" fill="#111217"/>
<circle cx="102.641" cy="112.031" r="0.673944" fill="#111217"/>
<circle cx="102.641" cy="114.714" r="0.673944" fill="#111217"/>
<circle cx="102.641" cy="117.399" r="0.673944" fill="#111217"/>
<circle cx="102.641" cy="120.082" r="0.673944" fill="#111217"/>
<circle cx="102.641" cy="122.765" r="0.673944" fill="#111217"/>
<circle cx="102.641" cy="125.448" r="0.673944" fill="#111217"/>
<circle cx="102.641" cy="128.133" r="0.673944" fill="#111217"/>
<circle cx="102.641" cy="130.816" r="0.673944" fill="#111217"/>
<circle cx="102.641" cy="133.498" r="0.673944" fill="#111217"/>
<circle cx="102.641" cy="136.182" r="0.673944" fill="#111217"/>
<circle cx="102.641" cy="138.864" r="0.673944" fill="#111217"/>
<circle cx="102.641" cy="141.548" r="0.673944" fill="#111217"/>
<circle cx="105.323" cy="63.7314" r="0.673944" fill="#111217"/>
<circle cx="105.323" cy="66.4153" r="0.673944" fill="#111217"/>
<circle cx="105.323" cy="69.0985" r="0.673944" fill="#111217"/>
<circle cx="105.323" cy="71.7812" r="0.673944" fill="#111217"/>
<circle cx="105.323" cy="74.4644" r="0.673944" fill="#111217"/>
<circle cx="105.323" cy="77.1488" r="0.673944" fill="#111217"/>
<circle cx="105.323" cy="79.832" r="0.673944" fill="#111217"/>
<circle cx="105.323" cy="82.5154" r="0.673944" fill="#111217"/>
<circle cx="105.323" cy="85.1988" r="0.673944" fill="#111217"/>
<circle cx="105.323" cy="87.8815" r="0.673944" fill="#111217"/>
<circle cx="105.323" cy="90.5657" r="0.673944" fill="#111217"/>
<circle cx="105.323" cy="93.2484" r="0.673944" fill="#111217"/>
<circle cx="105.323" cy="95.9316" r="0.673944" fill="#111217"/>
<circle cx="105.323" cy="98.614" r="0.673944" fill="#111217"/>
<circle cx="105.323" cy="101.298" r="0.673944" fill="#111217"/>
<circle cx="105.323" cy="103.982" r="0.673944" fill="#111217"/>
<circle cx="105.323" cy="106.665" r="0.673944" fill="#111217"/>
<circle cx="105.323" cy="109.349" r="0.673944" fill="#111217"/>
<circle cx="105.323" cy="112.031" r="0.673944" fill="#111217"/>
<circle cx="105.323" cy="114.714" r="0.673944" fill="#111217"/>
<circle cx="105.323" cy="117.399" r="0.673944" fill="#111217"/>
<circle cx="105.323" cy="120.082" r="0.673944" fill="#111217"/>
<circle cx="105.323" cy="122.765" r="0.673944" fill="#111217"/>
<circle cx="105.323" cy="125.448" r="0.673944" fill="#111217"/>
<circle cx="105.323" cy="128.133" r="0.673944" fill="#111217"/>
<circle cx="105.323" cy="130.816" r="0.673944" fill="#111217"/>
<circle cx="105.323" cy="133.498" r="0.673944" fill="#111217"/>
<circle cx="105.323" cy="136.182" r="0.673944" fill="#111217"/>
<circle cx="105.323" cy="138.864" r="0.673944" fill="#111217"/>
<circle cx="105.323" cy="141.548" r="0.673944" fill="#111217"/>
<circle cx="108.008" cy="63.7314" r="0.673944" fill="#111217"/>
<circle cx="108.008" cy="66.4153" r="0.673944" fill="#111217"/>
<circle cx="108.008" cy="69.0985" r="0.673944" fill="#111217"/>
<circle cx="108.008" cy="71.7812" r="0.673944" fill="#111217"/>
<circle cx="108.008" cy="74.4644" r="0.673944" fill="#111217"/>
<circle cx="108.008" cy="77.1488" r="0.673944" fill="#111217"/>
<circle cx="108.008" cy="79.832" r="0.673944" fill="#111217"/>
<circle cx="108.008" cy="82.5154" r="0.673944" fill="#111217"/>
<circle cx="108.008" cy="85.1988" r="0.673944" fill="#111217"/>
<circle cx="108.008" cy="87.8815" r="0.673944" fill="#111217"/>
<circle cx="108.008" cy="90.5657" r="0.673944" fill="#111217"/>
<circle cx="108.008" cy="93.2484" r="0.673944" fill="#111217"/>
<circle cx="108.008" cy="95.9316" r="0.673944" fill="#111217"/>
<circle cx="108.008" cy="98.614" r="0.673944" fill="#111217"/>
<circle cx="108.008" cy="101.298" r="0.673944" fill="#111217"/>
<circle cx="108.008" cy="103.982" r="0.673944" fill="#111217"/>
<circle cx="108.008" cy="106.665" r="0.673944" fill="#111217"/>
<circle cx="108.008" cy="109.349" r="0.673944" fill="#111217"/>
<circle cx="108.008" cy="112.031" r="0.673944" fill="#111217"/>
<circle cx="108.008" cy="114.714" r="0.673944" fill="#111217"/>
<circle cx="108.008" cy="117.399" r="0.673944" fill="#111217"/>
<circle cx="108.008" cy="120.082" r="0.673944" fill="#111217"/>
<circle cx="108.008" cy="122.765" r="0.673944" fill="#111217"/>
<circle cx="108.008" cy="125.448" r="0.673944" fill="#111217"/>
<circle cx="108.008" cy="128.133" r="0.673944" fill="#111217"/>
<circle cx="108.008" cy="130.816" r="0.673944" fill="#111217"/>
<circle cx="108.008" cy="133.498" r="0.673944" fill="#111217"/>
<circle cx="108.008" cy="136.182" r="0.673944" fill="#111217"/>
<circle cx="108.008" cy="138.864" r="0.673944" fill="#111217"/>
<circle cx="108.008" cy="141.548" r="0.673944" fill="#111217"/>
<circle cx="110.692" cy="63.7314" r="0.673944" fill="#111217"/>
<circle cx="110.692" cy="66.4153" r="0.673944" fill="#111217"/>
<circle cx="110.692" cy="69.0985" r="0.673944" fill="#111217"/>
<circle cx="110.692" cy="71.7812" r="0.673944" fill="#111217"/>
<circle cx="110.692" cy="74.4644" r="0.673944" fill="#111217"/>
<circle cx="110.692" cy="77.1488" r="0.673944" fill="#111217"/>
<circle cx="110.692" cy="79.832" r="0.673944" fill="#111217"/>
<circle cx="110.692" cy="82.5154" r="0.673944" fill="#111217"/>
<circle cx="110.692" cy="85.1988" r="0.673944" fill="#111217"/>
<circle cx="110.692" cy="87.8815" r="0.673944" fill="#111217"/>
<circle cx="110.692" cy="90.5657" r="0.673944" fill="#111217"/>
<circle cx="110.692" cy="93.2484" r="0.673944" fill="#111217"/>
<circle cx="110.692" cy="95.9316" r="0.673944" fill="#111217"/>
<circle cx="110.692" cy="98.614" r="0.673944" fill="#111217"/>
<circle cx="110.692" cy="101.298" r="0.673944" fill="#111217"/>
<circle cx="110.692" cy="103.982" r="0.673944" fill="#111217"/>
<circle cx="110.692" cy="106.665" r="0.673944" fill="#111217"/>
<circle cx="110.692" cy="109.349" r="0.673944" fill="#111217"/>
<circle cx="110.692" cy="112.031" r="0.673944" fill="#111217"/>
<circle cx="110.692" cy="114.714" r="0.673944" fill="#111217"/>
<circle cx="110.692" cy="117.399" r="0.673944" fill="#111217"/>
<circle cx="110.692" cy="120.082" r="0.673944" fill="#111217"/>
<circle cx="110.692" cy="122.765" r="0.673944" fill="#111217"/>
<circle cx="110.692" cy="125.448" r="0.673944" fill="#111217"/>
<circle cx="110.692" cy="128.133" r="0.673944" fill="#111217"/>
<circle cx="110.692" cy="130.816" r="0.673944" fill="#111217"/>
<circle cx="110.692" cy="133.498" r="0.673944" fill="#111217"/>
<circle cx="110.692" cy="136.182" r="0.673944" fill="#111217"/>
<circle cx="110.692" cy="138.864" r="0.673944" fill="#111217"/>
<circle cx="110.692" cy="141.548" r="0.673944" fill="#111217"/>
<circle cx="113.374" cy="63.7314" r="0.673944" fill="#111217"/>
<circle cx="113.374" cy="66.4153" r="0.673944" fill="#111217"/>
<circle cx="113.374" cy="69.0985" r="0.673944" fill="#111217"/>
<circle cx="113.374" cy="71.7812" r="0.673944" fill="#111217"/>
<circle cx="113.374" cy="74.4644" r="0.673944" fill="#111217"/>
<circle cx="113.374" cy="77.1488" r="0.673944" fill="#111217"/>
<circle cx="113.374" cy="79.832" r="0.673944" fill="#111217"/>
<circle cx="113.374" cy="82.5154" r="0.673944" fill="#111217"/>
<circle cx="113.374" cy="85.1988" r="0.673944" fill="#111217"/>
<circle cx="113.374" cy="87.8815" r="0.673944" fill="#111217"/>
<circle cx="113.374" cy="90.5657" r="0.673944" fill="#111217"/>
<circle cx="113.374" cy="93.2484" r="0.673944" fill="#111217"/>
<circle cx="113.374" cy="95.9316" r="0.673944" fill="#111217"/>
<circle cx="113.374" cy="98.614" r="0.673944" fill="#111217"/>
<circle cx="113.374" cy="101.298" r="0.673944" fill="#111217"/>
<circle cx="113.374" cy="103.982" r="0.673944" fill="#111217"/>
<circle cx="113.374" cy="106.665" r="0.673944" fill="#111217"/>
<circle cx="113.374" cy="109.349" r="0.673944" fill="#111217"/>
<circle cx="113.374" cy="112.031" r="0.673944" fill="#111217"/>
<circle cx="113.374" cy="114.714" r="0.673944" fill="#111217"/>
<circle cx="113.374" cy="117.399" r="0.673944" fill="#111217"/>
<circle cx="113.374" cy="120.082" r="0.673944" fill="#111217"/>
<circle cx="113.374" cy="122.765" r="0.673944" fill="#111217"/>
<circle cx="113.374" cy="125.448" r="0.673944" fill="#111217"/>
<circle cx="113.374" cy="128.133" r="0.673944" fill="#111217"/>
<circle cx="113.374" cy="130.816" r="0.673944" fill="#111217"/>
<circle cx="113.374" cy="133.498" r="0.673944" fill="#111217"/>
<circle cx="113.374" cy="136.182" r="0.673944" fill="#111217"/>
<circle cx="113.374" cy="138.864" r="0.673944" fill="#111217"/>
<circle cx="113.374" cy="141.548" r="0.673944" fill="#111217"/>
<circle cx="116.059" cy="63.7314" r="0.673944" fill="#111217"/>
<circle cx="116.059" cy="66.4153" r="0.673944" fill="#111217"/>
<circle cx="116.059" cy="69.0985" r="0.673944" fill="#111217"/>
<circle cx="116.059" cy="71.7812" r="0.673944" fill="#111217"/>
<circle cx="116.059" cy="74.4644" r="0.673944" fill="#111217"/>
<circle cx="116.059" cy="77.1488" r="0.673944" fill="#111217"/>
<circle cx="116.059" cy="79.832" r="0.673944" fill="#111217"/>
<circle cx="116.059" cy="82.5154" r="0.673944" fill="#111217"/>
<circle cx="116.059" cy="85.1988" r="0.673944" fill="#111217"/>
<circle cx="116.059" cy="87.8815" r="0.673944" fill="#111217"/>
<circle cx="116.059" cy="90.5657" r="0.673944" fill="#111217"/>
<circle cx="116.059" cy="93.2484" r="0.673944" fill="#111217"/>
<circle cx="116.059" cy="95.9316" r="0.673944" fill="#111217"/>
<circle cx="116.059" cy="98.614" r="0.673944" fill="#111217"/>
<circle cx="116.059" cy="101.298" r="0.673944" fill="#111217"/>
<circle cx="116.059" cy="103.982" r="0.673944" fill="#111217"/>
<circle cx="116.059" cy="106.665" r="0.673944" fill="#111217"/>
<circle cx="116.059" cy="109.349" r="0.673944" fill="#111217"/>
<circle cx="116.059" cy="112.031" r="0.673944" fill="#111217"/>
<circle cx="116.059" cy="114.714" r="0.673944" fill="#111217"/>
<circle cx="116.059" cy="117.399" r="0.673944" fill="#111217"/>
<circle cx="116.059" cy="120.082" r="0.673944" fill="#111217"/>
<circle cx="116.059" cy="122.765" r="0.673944" fill="#111217"/>
<circle cx="116.059" cy="125.448" r="0.673944" fill="#111217"/>
<circle cx="116.059" cy="128.133" r="0.673944" fill="#111217"/>
<circle cx="116.059" cy="130.816" r="0.673944" fill="#111217"/>
<circle cx="116.059" cy="133.498" r="0.673944" fill="#111217"/>
<circle cx="116.059" cy="136.182" r="0.673944" fill="#111217"/>
<circle cx="116.059" cy="138.864" r="0.673944" fill="#111217"/>
<circle cx="116.059" cy="141.548" r="0.673944" fill="#111217"/>
<circle cx="118.741" cy="63.7314" r="0.673944" fill="#111217"/>
<circle cx="118.741" cy="66.4153" r="0.673944" fill="#111217"/>
<circle cx="118.741" cy="69.0985" r="0.673944" fill="#111217"/>
<circle cx="118.741" cy="71.7812" r="0.673944" fill="#111217"/>
<circle cx="118.741" cy="74.4644" r="0.673944" fill="#111217"/>
<circle cx="118.741" cy="77.1488" r="0.673944" fill="#111217"/>
<circle cx="118.741" cy="79.832" r="0.673944" fill="#111217"/>
<circle cx="118.741" cy="82.5154" r="0.673944" fill="#111217"/>
<circle cx="118.741" cy="85.1988" r="0.673944" fill="#111217"/>
<circle cx="118.741" cy="87.8815" r="0.673944" fill="#111217"/>
<circle cx="118.741" cy="90.5657" r="0.673944" fill="#111217"/>
<circle cx="118.741" cy="93.2484" r="0.673944" fill="#111217"/>
<circle cx="118.741" cy="95.9316" r="0.673944" fill="#111217"/>
<circle cx="118.741" cy="98.614" r="0.673944" fill="#111217"/>
<circle cx="118.741" cy="101.298" r="0.673944" fill="#111217"/>
<circle cx="118.741" cy="103.982" r="0.673944" fill="#111217"/>
<circle cx="118.741" cy="106.665" r="0.673944" fill="#111217"/>
<circle cx="118.741" cy="109.349" r="0.673944" fill="#111217"/>
<circle cx="118.741" cy="112.031" r="0.673944" fill="#111217"/>
<circle cx="118.741" cy="114.714" r="0.673944" fill="#111217"/>
<circle cx="118.741" cy="117.399" r="0.673944" fill="#111217"/>
<circle cx="118.741" cy="120.082" r="0.673944" fill="#111217"/>
<circle cx="118.741" cy="122.765" r="0.673944" fill="#111217"/>
<circle cx="118.741" cy="125.448" r="0.673944" fill="#111217"/>
<circle cx="118.741" cy="128.133" r="0.673944" fill="#111217"/>
<circle cx="118.741" cy="130.816" r="0.673944" fill="#111217"/>
<circle cx="118.741" cy="133.498" r="0.673944" fill="#111217"/>
<circle cx="118.741" cy="136.182" r="0.673944" fill="#111217"/>
<circle cx="118.741" cy="138.864" r="0.673944" fill="#111217"/>
<circle cx="118.741" cy="141.548" r="0.673944" fill="#111217"/>
</g>
<path d="M54.1174 80.4996L73.5716 62.6108H103.759C105.735 62.6108 107.337 64.2126 107.337 66.1885V138.191C107.337 140.167 105.735 141.769 103.759 141.769H39.8063C37.8303 141.769 36.2285 140.167 36.2285 138.191V97.0469L54.1174 80.4996Z" fill="#10B981"/>
<circle cx="73.3474" cy="96.6001" r="7.15555" fill="#111217"/>
<rect x="70.215" y="100.625" width="7.15555" height="17.8889" fill="#111217"/>
<path d="M55.012 78.2635L64.4037 68.8719L70.6648 62.6108H73.7953V97.0469H36.2286L55.012 78.2635Z" fill="#111217"/>
<rect x="53.6685" y="87.6555" width="3.13721" height="3.13721" fill="white"/>
<rect x="65.742" y="84.5259" width="3.13721" height="3.13721" fill="#7FF4CD"/>
<rect x="45.618" y="65.7423" width="3.13721" height="3.13721" fill="#111217"/>
<rect x="58.1383" y="65.7423" width="3.13721" height="3.13721" fill="#111217"/>
<rect x="33.0958" y="90.7858" width="3.13721" height="3.13721" fill="#7FF4CD"/>
<rect x="26.8353" y="99.7294" width="3.13721" height="3.13721" fill="#7FF4CD"/>
<rect x="73.7925" y="59.4802" width="3.13721" height="3.13721" fill="#7FF4CD"/>
<rect x="39.3571" y="72.0023" width="3.13721" height="3.13721" fill="#111217"/>
<rect x="55.0089" y="62.6108" width="3.13721" height="3.13721" fill="#111217"/>
<rect x="36.2286" y="87.6555" width="3.13721" height="3.13721" fill="#111217"/>
<rect x="33.0958" y="84.5259" width="3.13721" height="3.13721" fill="#111217"/>
<rect x="29.9658" y="81.3943" width="3.13721" height="3.13721" fill="#7FF4CD"/>
<rect x="36.2286" y="68.8719" width="3.13721" height="3.13721" fill="#111217"/>
<rect x="61.2702" y="56.3496" width="3.13721" height="3.13721" fill="#111217"/>
<rect x="58.1383" y="59.4802" width="3.13721" height="3.13721" fill="#7FF4CD"/>
<rect x="39.3571" y="65.7423" width="3.13721" height="3.13721" fill="#7FF4CD"/>
<rect x="36.2286" y="75.1336" width="3.13721" height="3.13721" fill="#7FF4CD"/>
<rect x="65.742" y="75.58" width="3.13721" height="3.13721" fill="white"/>
<rect x="56.7995" y="90.7858" width="3.13721" height="3.13721" fill="#7FF4CD"/>
<rect x="53.6685" y="93.9166" width="3.13721" height="3.13721" fill="white"/>
<rect x="68.8738" y="72.4504" width="3.13721" height="3.13721" fill="white"/>
<rect x="59.4806" y="81.3943" width="6.26267" height="6.26267" fill="white"/>
<rect x="48.7499" y="68.8719" width="6.26267" height="6.26267" fill="#7FF4CD"/>
<rect x="39.3571" y="78.2642" width="6.26267" height="6.26267" fill="#111217"/>
<rect x="23.702" y="84.5259" width="6.26267" height="6.26267" fill="#111217"/>
<rect x="36.2286" y="93.9166" width="3.13721" height="3.13721" fill="#111217"/>
<rect x="33.0958" y="93.9166" width="3.13721" height="3.13721" fill="#111217"/>
<rect x="29.9658" y="96.6006" width="3.13721" height="3.13721" fill="#111217"/>
<rect x="55.0089" y="75.1336" width="3.13721" height="3.13721" fill="#111217"/>
<rect x="39.3571" y="90.7858" width="3.13721" height="3.13721" fill="#111217"/>
<rect x="58.1383" y="72.0023" width="3.13721" height="3.13721" fill="#111217"/>
<rect x="42.4885" y="87.6555" width="3.13721" height="3.13721" fill="#111217"/>
<rect x="61.2702" y="68.8719" width="3.13721" height="3.13721" fill="#111217"/>
<rect x="45.618" y="84.5259" width="3.13721" height="3.13721" fill="#111217"/>
<rect x="64.3997" y="65.7423" width="3.13721" height="3.13721" fill="#111217"/>
<rect x="48.7499" y="81.3943" width="3.13721" height="3.13721" fill="#111217"/>
<rect x="67.5297" y="62.6108" width="3.13721" height="3.13721" fill="#111217"/>
<rect x="76.9225" y="56.3496" width="3.13721" height="3.13721" fill="#111217"/>
<rect x="51.8784" y="78.2642" width="3.13721" height="3.13721" fill="#111217"/>
<rect x="48.7499" y="84.5259" width="3.13721" height="3.13721" fill="white"/>
<rect x="67.5297" y="65.7423" width="3.13721" height="3.13721" fill="white"/>
<rect x="58.1383" y="75.1336" width="3.13721" height="3.13721" fill="#7FF4CD"/>
<rect x="42.4885" y="90.7858" width="3.13721" height="3.13721" fill="white"/>
<path d="M66.1901 97.0463C66.1901 96.0479 66.3867 95.0593 66.7688 94.1369C67.1509 93.2145 67.7109 92.3764 68.4169 91.6704C69.1229 90.9644 69.961 90.4044 70.8834 90.0223C71.8058 89.6402 72.7944 89.4436 73.7929 89.4436L73.7929 97.0463L66.1901 97.0463Z" fill="white"/>
<defs>
<linearGradient id="paint0_linear_1_16832" x1="74.3962" y1="102.19" x2="118.514" y2="102.19" gradientUnits="userSpaceOnUse">
<stop stop-color="#8000FF"/>
<stop offset="1" stop-color="#FF53F8"/>
</linearGradient>
</defs>
</svg>
