<svg width="25" height="24" viewBox="0 0 25 24" fill="none" xmlns="http://www.w3.org/2000/svg">
<path d="M12.3046 0C5.50631 0 0 5.50938 0 12.3046C0 17.7422 3.52527 22.3533 8.41327 23.9786C9.0285 24.0944 9.25408 23.714 9.25408 23.3869C9.25408 23.0947 9.24383 22.3205 9.2387 21.2952C5.81597 22.0375 5.0941 19.6443 5.0941 19.6443C4.53424 18.2241 3.72522 17.8447 3.72522 17.8447C2.61063 17.0819 3.81135 17.0972 3.81135 17.0972C5.04694 17.1834 5.696 18.3646 5.696 18.3646C6.79316 20.2462 8.5763 19.7027 9.27972 19.3879C9.39046 18.5922 9.7073 18.0498 10.059 17.7422C7.32636 17.4346 4.45426 16.3764 4.45426 11.6617C4.45426 10.3184 4.93107 9.22127 5.72061 8.35995C5.58219 8.04925 5.16691 6.79829 5.82828 5.10333C5.82828 5.10333 6.85879 4.77316 9.21204 6.36455C10.1964 6.09077 11.2423 5.95542 12.2882 5.94927C13.3341 5.95542 14.38 6.09077 15.3643 6.36455C17.7022 4.77316 18.7327 5.10333 18.7327 5.10333C19.3941 6.79829 18.9788 8.04925 18.8558 8.35995C19.6402 9.22127 20.117 10.3184 20.117 11.6617C20.117 16.3887 17.2408 17.4295 14.503 17.7319C14.9337 18.1011 15.3336 18.8558 15.3336 20.0083C15.3336 21.6551 15.3182 22.9778 15.3182 23.3777C15.3182 23.7007 15.5335 24.0852 16.1641 23.9622C21.087 22.3482 24.6092 17.734 24.6092 12.3046C24.6092 5.50938 19.0998 0 12.3046 0Z" fill="#666F89"/>
</svg>
