<svg width="41" height="40" viewBox="0 0 41 40" fill="none" xmlns="http://www.w3.org/2000/svg">
<path d="M4.05486 20.6597L4.16183 17.898C4.1233 19.0089 5.6686 23.0336 12.3196 25.1108C19.0294 27.2062 23.4435 26.3916 28.7416 24.7013C32.9802 23.349 34.7554 19.9984 35.1132 18.4921C35.2813 20.8386 34.4975 23.1028 34.0846 23.9416C31.034 28.4706 27.2663 28.7127 25.32 29.3869C23.3738 30.0611 14.6595 30.863 8.98446 27.4904C4.44439 24.7923 3.80637 21.8124 4.05486 20.6597Z" fill="#FFAE00"/>
<path fill-rule="evenodd" clip-rule="evenodd" d="M13.5856 29.2873C11.9652 28.8988 10.3826 28.3213 8.98449 27.4904C4.44443 24.7923 3.8064 21.8124 4.05489 20.6598L4.16186 17.898C4.12334 19.0089 5.66864 23.0337 12.3196 25.1108C13.0065 25.3253 13.6693 25.5093 14.3115 25.665L13.5856 29.2873Z" fill="#F69503"/>
<path fill-rule="evenodd" clip-rule="evenodd" d="M23.047 29.7756C25.181 29.5601 27.326 29.0679 29.2133 28.1517C34.2654 25.6992 35.191 22.5758 35.0223 21.3207L35.1375 18.3599C35.0864 19.5504 33.1093 23.7042 25.8636 25.2934C24.9431 25.4952 24.0652 25.6513 23.2227 25.7652L23.047 29.7756Z" fill="#FFCC00"/>
<path opacity="0.2" d="M32.2648 22.4474L31.5289 23.4552L30.4716 22.6831L31.2075 21.6753L32.2648 22.4474Z" fill="#FB82B5"/>
<g style="mix-blend-mode:multiply" opacity="0.3">
<path d="M26.1391 29.1693L26.5418 25.4611L27.0881 25.3028L26.6853 29.011L26.1391 29.1693Z" fill="#FFA200"/>
</g>
<g style="mix-blend-mode:multiply" opacity="0.3">
<path d="M23.8703 29.64L24.2654 25.9769L24.804 25.8636L24.3969 29.5432L24.1275 29.5999L23.8703 29.64Z" fill="#FFA200"/>
</g>
<g style="mix-blend-mode:multiply" opacity="0.3">
<path d="M33.2603 25.3503L33.6833 21.3023C33.8886 21.0558 34.078 20.7964 34.2503 20.5258L34.3347 20.4101L33.8153 24.5904C33.6469 24.8554 33.4616 25.1093 33.2603 25.3503Z" fill="#FFA200"/>
</g>
<g style="mix-blend-mode:multiply" opacity="0.3">
<path d="M30.821 27.2673L31.2345 23.4403L31.8023 23.0443L31.3812 26.9164L31.089 27.1083L30.821 27.2673Z" fill="#FFA200"/>
</g>
<g style="mix-blend-mode:multiply" opacity="0.3">
<path d="M28.443 28.4447L28.8412 24.708L28.9136 24.6088L29.3125 24.4442L28.9022 28.1975L28.443 28.4447Z" fill="#FFA200"/>
</g>
<g style="mix-blend-mode:multiply" opacity="0.3">
<path d="M12.7695 28.955L13.1583 25.4393L13.34 25.572L13.6272 25.6297L13.2549 29.1575C13.0886 29.1013 12.9264 29.0336 12.7695 28.955Z" fill="#FFA200"/>
</g>
<g style="mix-blend-mode:multiply" opacity="0.3">
<path d="M8.50274 27.133L8.87634 23.7075C9.02503 23.8161 9.17372 23.9246 9.33893 24.0453L8.95327 27.4873C8.81525 27.3991 8.68283 27.3024 8.55676 27.1978L8.50274 27.133Z" fill="#FFA200"/>
</g>
<g style="mix-blend-mode:multiply" opacity="0.3">
<path d="M21.6239 29.8747L21.9949 26.2447L22.3709 26.2153L21.9714 29.8498L21.8888 29.7895L21.6239 29.8747Z" fill="#FFA200"/>
</g>
<g style="mix-blend-mode:multiply" opacity="0.3">
<path d="M19.3783 29.9318L19.7658 26.3138C19.8815 26.3983 20.1177 26.3175 20.2937 26.3194L19.9665 29.8547L19.3783 29.9318Z" fill="#FFA200"/>
</g>
<g style="mix-blend-mode:multiply" opacity="0.3">
<path d="M17.1465 29.7963L17.5385 26.2069C17.6707 26.3034 17.8949 26.2391 18.0588 26.2575L17.6668 29.8469L17.1916 29.8039L17.1465 29.7963Z" fill="#FFA200"/>
</g>
<g style="mix-blend-mode:multiply" opacity="0.3">
<path d="M14.9452 29.48L15.3416 25.9192L15.4738 26.0158C15.5896 26.023 15.7048 26.0393 15.8181 26.0646L15.4337 29.6088L15.0443 29.5524L14.9452 29.48Z" fill="#FFA200"/>
</g>
<g style="mix-blend-mode:multiply" opacity="0.3">
<path d="M6.9266 26.0316L6.53008 25.742L6.75945 22.2366L6.85857 22.309C6.99074 22.4055 7.12292 22.502 7.25509 22.5985L6.9266 26.0316Z" fill="#FFA200"/>
</g>
<g style="mix-blend-mode:multiply" opacity="0.3">
<path d="M4.93641 23.7942C4.87385 23.7 4.8192 23.6008 4.77304 23.4975C4.62435 23.389 4.58423 23.1317 4.49586 22.9405L4.82958 19.9165C4.94207 20.1237 5.06622 20.3243 5.20142 20.5174C5.22884 20.5484 5.26266 20.5731 5.30054 20.5897L4.93641 23.7942Z" fill="#FFA200"/>
</g>
<g style="mix-blend-mode:multiply" opacity="0.3">
<path d="M10.6809 28.1398L11.0455 24.6571C11.2203 24.7139 11.3919 24.78 11.5595 24.8552L11.0939 28.4414L10.6809 28.1398Z" fill="#FFA200"/>
</g>
<path d="M30.5536 23.8559C27.1249 25.531 23.3502 26.3759 19.5345 26.3223C15.7189 26.2687 11.9694 25.3181 8.58913 23.5473C2.55282 19.95 2.65693 14.3266 8.64057 10.9195C12.0662 9.24521 15.8374 8.3997 19.6499 8.45121C23.4624 8.50272 27.2094 9.44979 30.5885 11.216C36.661 14.7637 36.623 20.4354 30.5536 23.8559Z" fill="#FFD950"/>
<path d="M6.34446 14.512C7.15276 13.4604 8.17511 12.5924 9.34391 11.9654C12.5677 10.391 16.1171 9.59857 19.7043 9.65226C23.2915 9.70596 26.8156 10.6043 29.9908 12.2745C30.8878 12.7193 31.6853 13.3415 32.335 14.1033C32.9847 14.8651 33.4732 15.7507 33.7709 16.7067C33.885 17.3136 33.8668 17.938 33.7177 18.5372C33.5686 19.1365 33.2921 19.6966 32.907 20.1793C32.1006 21.2091 31.085 22.056 29.9272 22.6643C26.6933 24.2549 23.1288 25.0573 19.5253 25.0059C15.9218 24.9545 12.3817 24.0508 9.1945 22.3686C8.29683 21.9247 7.49881 21.3029 6.84896 20.541C6.19912 19.779 5.71103 18.8929 5.41437 17.9364C5.31655 17.3323 5.34892 16.7143 5.50932 16.1237C5.66973 15.5331 5.95446 14.9836 6.34446 14.512Z" fill="#FFC100"/>
<path d="M13.5683 12.0107L13.4638 13.125L14.6413 14.0102L14.7743 12.8914L13.5683 12.0107Z" fill="#D78400"/>
<path d="M11.1306 13.0928L10.9976 14.2115L12.2037 15.0922L12.3201 13.9614L11.1306 13.0928Z" fill="#D78400"/>
<path d="M20.6437 16.2646L20.7602 15.1338C20.8808 14.9686 20.537 14.6416 20.1901 14.3882C19.9595 14.1618 19.6684 14.0068 19.3518 13.9419C19.0352 13.877 18.7066 13.9049 18.4055 14.0223L18.3011 15.1366C18.6017 15.0166 18.931 14.9873 19.2481 15.0523C19.5653 15.1173 19.8565 15.2738 20.0857 15.5025C20.4161 15.7438 20.6652 16.027 20.6437 16.2646Z" fill="#D78400"/>
<path d="M18.4055 14.0223L18.3011 15.1366C18.6017 15.0166 18.931 14.9873 19.2481 15.0523C19.5653 15.1173 19.8565 15.2738 20.0857 15.5025C20.4161 15.7438 20.7135 15.9609 20.6437 16.2646L20.7602 15.1338C20.8808 14.9686 20.537 14.6416 20.1901 14.3882C19.9595 14.1618 19.6684 14.0068 19.3518 13.9419C19.0352 13.877 18.7066 13.9049 18.4055 14.0223Z" fill="#D78400"/>
<path d="M23.9573 15.5436L24.0782 14.4414C24.0419 14.6474 23.9588 14.8423 23.8354 15.0113C23.712 15.1803 23.5516 15.3187 23.3664 15.4161L23.2455 16.5183C23.4307 16.421 23.5911 16.2825 23.7145 16.1135C23.8378 15.9446 23.9209 15.7496 23.9573 15.5436Z" fill="#D78400"/>
<path d="M23.3829 15.4282L23.262 16.5304C23.4472 16.433 23.6076 16.2946 23.731 16.1256C23.8543 15.9566 23.9374 15.7617 23.9738 15.5557L24.0947 14.4534C24.0583 14.6594 23.9753 14.8544 23.8519 15.0234C23.7285 15.1923 23.5681 15.3308 23.3829 15.4282Z" fill="#D78400"/>
<path d="M16.4888 14.8787L16.3679 15.981L18.2842 15.1258L18.4051 14.0236L16.4888 14.8787Z" fill="#D78400"/>
<path d="M24.2482 19.0996L24.3526 17.9853C24.425 17.8862 24.2706 17.6467 23.9402 17.4054C23.7366 17.2487 23.4956 17.1479 23.241 17.1132C22.9865 17.0784 22.7273 17.1108 22.4891 17.2071L22.3186 18.2732C22.5575 18.1808 22.8159 18.1505 23.0697 18.1852C23.3235 18.2199 23.5643 18.3184 23.7696 18.4715C24.088 18.7293 24.205 18.916 24.2482 19.0996Z" fill="#D78400"/>
<path d="M22.4396 17.1709L22.3186 18.2732C22.5575 18.1808 22.8159 18.1505 23.0697 18.1852C23.3235 18.2199 23.5643 18.3184 23.7696 18.4715C24.0835 18.7007 24.1884 18.904 24.1821 19.0514L24.2866 17.9371C24.3589 17.8379 24.2045 17.5985 23.8741 17.3572C23.6705 17.2005 23.4295 17.0997 23.1749 17.0649C22.9204 17.0301 22.6612 17.0625 22.423 17.1589L22.4396 17.1709Z" fill="#D78400"/>
<path d="M8.67803 15.5844L8.57362 16.6987L9.8953 17.6639L10.0163 16.5617L8.67803 15.5844Z" fill="#D78400"/>
<path d="M10.0161 16.5615L9.89511 17.6637L12.2389 16.6395L12.3554 15.5087L10.0161 16.5615Z" fill="#D78400"/>
<path d="M20.6851 17.9423L20.5521 19.0611L22.3344 18.2854L22.4388 17.1711L20.6851 17.9423Z" fill="#D78400"/>
<path d="M28.3934 19.2155L28.5099 18.0847C28.444 18.6952 27.8623 19.2837 26.646 19.8394L26.5415 20.9537C27.782 20.365 28.3275 19.8261 28.3934 19.2155Z" fill="#D78400"/>
<path d="M26.646 19.8394L26.5415 20.9537C27.7458 20.4145 28.3758 19.76 28.3934 19.2155L28.5099 18.0847C28.444 18.6952 27.8623 19.2837 26.646 19.8394Z" fill="#D78400"/>
<path d="M24.2097 20.9224L24.1053 22.0367L25.0206 21.6158L25.1415 20.5136L24.2097 20.9224Z" fill="#D78400"/>
<path d="M26.3469 21.394L26.2139 22.5128L27.7358 21.8509L27.8523 20.7201L26.3469 21.394Z" fill="#D78400"/>
<path d="M25.1405 20.5131L25.0196 21.6153L26.2136 22.5126L26.3466 21.3938L25.1405 20.5131Z" fill="#D78400"/>
<path d="M12.3552 15.5078L12.2387 16.6386L19.9586 22.3012L20.0795 21.1989L12.3552 15.5078Z" fill="#D78400"/>
<path d="M21.7838 21.9883L21.6794 23.1026L22.5826 22.6983L22.7036 21.5961L21.7838 21.9883Z" fill="#D78400"/>
<path d="M21.4015 22.1643L21.2971 23.2786L21.6794 23.1018L21.7839 21.9875L21.4015 22.1643Z" fill="#D78400"/>
<path d="M22.7046 21.5963L22.5836 22.6986L23.7776 23.5958L23.8941 22.465L22.7046 21.5963Z" fill="#D78400"/>
<path d="M23.8931 22.4643L23.7766 23.5951L25.2819 22.9212L25.415 21.8024L23.8931 22.4643Z" fill="#D78400"/>
<path d="M17.725 22.2402L17.604 23.3425L18.9422 24.3197L19.0467 23.2054L17.725 22.2402Z" fill="#D78400"/>
<path d="M23.3822 15.4278C24.4213 14.768 24.2685 13.6939 23.1946 12.9097C22.2356 12.1311 21.0696 11.6505 19.8405 11.5273C18.6115 11.4041 17.3732 11.6437 16.2788 12.2165L15.0728 11.3358L13.5674 12.0097L14.7735 12.8904L13.8417 13.2992L12.6356 12.4186L11.1303 13.0925L12.3198 13.9611L11.4166 14.3654L11.0343 14.5422L8.67841 15.5829L10.0166 16.5602L12.3559 15.5073L20.1044 21.1654L17.7486 22.2062L19.0702 23.1713L21.4261 22.1306L21.8085 21.9538L22.7282 21.5615L23.9177 22.4302L25.4396 21.7683L24.2335 20.8876L25.1653 20.4788L26.3714 21.3595L27.8767 20.6856L26.6707 19.8049C29.0913 18.7101 29.0305 17.4752 27.2958 16.2084C26.7386 15.8032 26.1002 15.5236 25.4246 15.3889C24.749 15.2541 24.0522 15.2674 23.3822 15.4278ZM18.4051 14.0225C18.7062 13.9051 19.0348 13.8772 19.3514 13.9421C19.6679 14.007 19.959 14.162 20.1897 14.3884C20.7183 14.7744 21.0514 15.2203 20.4206 15.4943L18.5044 16.3494L16.4888 14.8776L18.4051 14.0225ZM22.2756 19.1286L20.7392 18.0067L22.4929 17.2355C22.731 17.1391 22.9902 17.1067 23.2448 17.1415C23.4993 17.1763 23.7403 17.2771 23.9439 17.4338C24.5717 17.8922 24.3876 18.2137 24.0293 18.3574L22.2636 19.1452L22.2756 19.1286Z" fill="#FFD950"/>
<path d="M19.0465 23.2052L18.9421 24.3195L21.2979 23.2788L21.4023 22.1645L19.0465 23.2052Z" fill="#D78400"/>
<g style="mix-blend-mode:screen" opacity="0.15">
<path d="M17.316 24.8801C17.7754 19.8454 18.0544 14.7803 18.2114 9.77819C15.3349 9.84365 12.5058 10.5244 9.9143 11.7746C9.86537 15.3105 9.73197 18.9621 9.35969 22.4898C11.8149 23.8356 14.5256 24.65 17.316 24.8801Z" fill="#F5EBCB"/>
</g>
<g style="mix-blend-mode:screen" opacity="0.15">
<path d="M28.4425 23.3797C28.7568 19.4803 28.8081 15.4902 28.6638 11.5599C27.4537 11.003 26.1895 10.5722 24.8911 10.2742C25.0218 15.0558 24.8412 19.8127 24.5627 24.5995C25.8983 24.3425 27.2001 23.9332 28.4425 23.3797Z" fill="#F5EBCB"/>
</g>
<path d="M9.10798 13.2624C10.4291 12.538 11.8408 11.993 13.3059 11.6416L13.4497 10.404C12.0218 10.7519 10.6429 11.2767 9.34511 11.9663C8.18822 12.5865 7.17455 13.4428 6.36979 14.4799C5.78612 15.2331 5.45299 16.1503 5.41718 17.1026C5.5916 16.6057 5.83939 16.1378 6.15232 15.7143C6.9551 14.6991 7.96203 13.8638 9.10798 13.2624Z" fill="#FFCC00"/>
<path d="M29.7384 13.5588C30.6417 14.0003 31.4448 14.6225 32.0979 15.387C32.7509 16.1514 33.2401 17.0419 33.535 18.0031C33.5917 18.2732 33.6199 18.5485 33.6192 18.8244C33.8417 18.1525 33.8861 17.4343 33.748 16.7401C33.4503 15.7841 32.9618 14.8985 32.312 14.1367C31.6623 13.3749 30.8649 12.7528 29.9679 12.3079C29.5714 12.0184 29.119 11.84 28.6742 11.6166L28.5394 12.9113C28.9511 13.1106 29.3508 13.3265 29.7384 13.5588Z" fill="#F69503"/>
<path d="M28.5389 12.9122L28.6737 11.6174C23.8712 9.54642 18.519 9.11998 13.4492 10.4044L13.3054 11.6419C18.3847 10.3781 23.739 10.8246 28.5389 12.9122Z" fill="#FFB300"/>
</svg>
