<svg width="12" height="12" viewBox="0 0 12 12" fill="none" xmlns="http://www.w3.org/2000/svg">
<path d="M6.93721 9.41255C6.62814 9.47099 6.31427 9.50029 5.99972 9.50005C3.76073 9.50005 1.86574 8.02856 1.22825 6.00007C1.39988 5.45412 1.66424 4.94181 2.00974 4.48558M4.93872 4.93958C5.22005 4.65825 5.60161 4.5002 5.99947 4.5002C6.39732 4.5002 6.77888 4.65825 7.06021 4.93958C7.34154 5.2209 7.49959 5.60246 7.49959 6.00032C7.49959 6.39817 7.34154 6.77974 7.06021 7.06106M4.93872 4.93908L7.05971 7.06006M4.93972 4.94008L3.29474 3.29509M7.06071 7.06106L8.7057 8.70605M1.49975 1.5001L3.29474 3.29509M3.29474 3.29509C4.10091 2.77487 5.04027 2.49879 5.99972 2.50009C8.2387 2.50009 10.1337 3.97158 10.7712 6.00007C10.4192 7.11529 9.68838 8.07234 8.7052 8.70555M8.7052 8.70555L10.4997 10.5" stroke="#90949E" stroke-width="0.529412" stroke-linecap="round" stroke-linejoin="round"/>
</svg>
