<svg width="36" height="40" viewBox="0 0 36 40" fill="none" xmlns="http://www.w3.org/2000/svg">
<path d="M24.1974 36.0781L21.4254 36.8937C22.5389 36.5611 26.0178 33.6816 25.8835 26.3772C25.748 19.0082 23.4856 14.8926 20.0639 10.1906C17.3266 6.42898 13.4211 5.78292 11.8106 5.93009C14.0803 4.97966 16.5825 5.00291 17.5498 5.13333C23.0434 6.65369 24.5255 10.3179 25.8352 12.0274C27.1448 13.7369 30.8123 22.1311 29.3411 28.8979C28.1641 34.3113 25.4215 35.9403 24.1974 36.0781Z" fill="#FFAE00"/>
<path fill-rule="evenodd" clip-rule="evenodd" d="M29.6048 23.7245C29.754 25.4649 29.7034 27.2307 29.341 28.8978C28.164 34.3113 25.4215 35.9402 24.1973 36.078L21.4253 36.8936C22.5388 36.5611 26.0177 33.6815 25.8834 26.3771C25.8696 25.6228 25.8334 24.9025 25.776 24.2123L29.6048 23.7245Z" fill="#F69503"/>
<path fill-rule="evenodd" clip-rule="evenodd" d="M26.9493 14.1499C26.0309 12.1053 24.8364 10.142 23.3092 8.57394C19.2096 4.36486 15.811 4.48301 14.6241 5.06821L11.6546 5.93831C12.8502 5.59323 17.6169 6.17822 21.5872 12.8561C22.0887 13.6995 22.5314 14.5162 22.9212 15.3119L26.9493 14.1499Z" fill="#FFCC00"/>
<path opacity="0.2" d="M16.669 7.44094L17.9102 7.83601L17.4937 9.14476L16.2524 8.74969L16.669 7.44094Z" fill="#FB82B5"/>
<g style="mix-blend-mode:multiply" opacity="0.3">
<path d="M25.3494 11.2859L21.542 12.1235L21.205 11.6334L25.0124 10.7958L25.3494 11.2859Z" fill="#FFA200"/>
</g>
<g style="mix-blend-mode:multiply" opacity="0.3">
<path d="M26.5638 13.384L22.8036 14.2141L22.5138 13.7165L26.2943 12.8929L26.4393 13.1417L26.5638 13.384Z" fill="#FFA200"/>
</g>
<g style="mix-blend-mode:multiply" opacity="0.3">
<path d="M19.2174 5.48236L15.0665 6.41332C14.7546 6.29148 14.4351 6.18981 14.1102 6.10893L13.9677 6.06359L18.2813 5.18445C18.5995 5.26331 18.9121 5.36283 19.2174 5.48236Z" fill="#FFA200"/>
</g>
<g style="mix-blend-mode:multiply" opacity="0.3">
<path d="M21.9212 7.26713L17.9925 8.13367L17.413 7.70148L21.3888 6.82744L21.6753 7.05375L21.9212 7.26713Z" fill="#FFA200"/>
</g>
<g style="mix-blend-mode:multiply" opacity="0.3">
<path d="M23.8719 9.23784L20.0377 10.0894L19.9156 10.0505L19.6209 9.70902L23.4755 8.86394L23.8719 9.23784Z" fill="#FFA200"/>
</g>
<g style="mix-blend-mode:multiply" opacity="0.3">
<path d="M29.5446 24.6466L25.9326 25.4338L26.0041 25.2089L25.9667 24.9042L29.5852 24.0966C29.5843 24.2806 29.5707 24.4644 29.5446 24.6466Z" fill="#FFA200"/>
</g>
<g style="mix-blend-mode:multiply" opacity="0.3">
<path d="M29.1457 29.496L25.628 30.2682C25.6866 30.0842 25.7452 29.9001 25.8103 29.6956L29.3483 28.9299C29.3063 29.0966 29.2541 29.2605 29.192 29.4207L29.1457 29.496Z" fill="#FFA200"/>
</g>
<g style="mix-blend-mode:multiply" opacity="0.3">
<path d="M27.5369 15.5385L23.8174 16.3815L23.6643 16.0175L27.3976 15.2014L27.3651 15.3036L27.5369 15.5385Z" fill="#FFA200"/>
</g>
<g style="mix-blend-mode:multiply" opacity="0.3">
<path d="M28.3338 17.7515L24.6209 18.5741C24.6664 18.431 24.5085 18.2231 24.4523 18.0475L28.0636 17.1925L28.3338 17.7515Z" fill="#FFA200"/>
</g>
<g style="mix-blend-mode:multiply" opacity="0.3">
<path d="M28.9352 20.0152L25.2491 20.8238C25.3012 20.6602 25.1636 20.4588 25.1278 20.2897L28.8139 19.4811L28.9279 19.9678L28.9352 20.0152Z" fill="#FFA200"/>
</g>
<g style="mix-blend-mode:multiply" opacity="0.3">
<path d="M29.3476 22.3089L25.6883 23.1035L25.7404 22.9399C25.7094 22.8223 25.6876 22.7024 25.6752 22.5814L29.3141 21.7802L29.3866 22.1862L29.3476 22.3089Z" fill="#FFA200"/>
</g>
<g style="mix-blend-mode:multiply" opacity="0.3">
<path d="M28.5739 31.4304L28.4177 31.9211L24.8683 32.8634L24.9074 32.7407C24.9594 32.5771 25.0115 32.4135 25.0636 32.2499L28.5739 31.4304Z" fill="#FFA200"/>
</g>
<g style="mix-blend-mode:multiply" opacity="0.3">
<path d="M27.0128 34.1555C26.9401 34.2491 26.8598 34.3365 26.7728 34.4169C26.7142 34.6009 26.4725 34.7267 26.3122 34.8783L23.2055 35.5561C23.3737 35.3751 23.5316 35.1848 23.6784 34.9859C23.7 34.9483 23.7134 34.9065 23.7174 34.8632L27.0128 34.1555Z" fill="#FFA200"/>
</g>
<g style="mix-blend-mode:multiply" opacity="0.3">
<path d="M29.4253 26.9949L25.8539 27.795C25.8525 27.6024 25.8615 27.4097 25.8807 27.218L29.588 26.4837L29.4253 26.9949Z" fill="#FFA200"/>
</g>
<path d="M18.6288 8.67178C21.419 11.5207 23.5007 14.9906 24.7054 18.8012C25.9102 22.6118 26.2043 26.6561 25.5639 30.6072C23.9892 37.808 18.3824 39.5818 13.0335 34.7715C10.2451 31.9254 8.164 28.4591 6.95819 24.6524C5.75238 20.8456 5.45563 16.805 6.09185 12.8566C7.60554 5.63629 13.2384 3.78074 18.6288 8.67178Z" fill="#FFD950"/>
<path d="M17.3505 35.8545C16.042 35.4021 14.8448 34.6757 13.8382 33.7232C11.2153 31.0444 9.25991 27.7809 8.13053 24.1973C7.00115 20.6137 6.72959 16.8109 7.33788 13.0973C7.48301 12.0572 7.83661 11.0569 8.37732 10.1567C8.91803 9.25661 9.63461 8.4754 10.4837 7.86033C11.0476 7.54436 11.6723 7.35398 12.3153 7.30213C12.9583 7.25028 13.6045 7.33818 14.2098 7.55987C15.496 8.01762 16.6701 8.74441 17.6546 9.69222C20.2968 12.3757 22.2671 15.6508 23.4041 19.2498C24.5411 22.8488 24.8126 26.6693 24.1964 30.3989C24.0525 31.4394 23.6994 32.4402 23.1586 33.3404C22.6178 34.2407 21.9006 35.0217 21.0505 35.6359C20.4842 35.9348 19.861 36.1089 19.2229 36.1466C18.5848 36.1843 17.9464 36.0847 17.3505 35.8545Z" fill="#FFC100"/>
<path d="M12.4905 29.5092L13.6291 29.241L14.1181 27.7751L12.9656 28.0164L12.4905 29.5092Z" fill="#D78400"/>
<path d="M14.3664 31.571L15.5188 31.3297L15.994 29.8369L14.835 30.0986L14.3664 31.571Z" fill="#D78400"/>
<path d="M14.3733 21.0562L13.2143 21.3179C13.0108 21.2531 12.8001 21.7041 12.6634 22.1335C12.515 22.4383 12.4574 22.7794 12.4975 23.1157C12.5375 23.4521 12.6735 23.7694 12.8891 24.0295L14.0277 23.7613C13.8097 23.5025 13.6721 23.185 13.632 22.8481C13.5919 22.5111 13.651 22.1695 13.802 21.8653C13.9322 21.4563 14.1307 21.1141 14.3733 21.0562Z" fill="#D78400"/>
<path d="M12.8891 24.0295L14.0277 23.7613C13.8097 23.5025 13.6721 23.185 13.632 22.8481C13.5919 22.5111 13.651 22.1695 13.802 21.8653C13.9322 21.4563 14.0493 21.0882 14.3733 21.0562L13.2143 21.3179C13.0108 21.2531 12.8001 21.7041 12.6634 22.1335C12.515 22.4383 12.4574 22.7794 12.4975 23.1157C12.5375 23.4521 12.6735 23.7694 12.8891 24.0295Z" fill="#D78400"/>
<path d="M12.5663 18.0032L11.4342 18.2509C11.6503 18.2183 11.8709 18.2358 12.079 18.302C12.2871 18.3683 12.4772 18.4815 12.6348 18.6331L13.7669 18.3853C13.6093 18.2338 13.4192 18.1205 13.2111 18.0543C13.003 17.9881 12.7825 17.9706 12.5663 18.0032Z" fill="#D78400"/>
<path d="M12.6414 18.6126L13.7735 18.3649C13.616 18.2133 13.4259 18.1001 13.2178 18.0339C13.0097 17.9677 12.7891 17.9502 12.5729 17.9828L11.4408 18.2305C11.657 18.1979 11.8775 18.2154 12.0856 18.2816C12.2937 18.3478 12.4838 18.4611 12.6414 18.6126Z" fill="#D78400"/>
<path d="M14.3697 25.6487L15.5018 25.401L14.0227 23.7817L12.8906 24.0294L14.3697 25.6487Z" fill="#D78400"/>
<path d="M15.9943 16.527L14.8556 16.7951C14.7335 16.7563 14.5472 16.9897 14.417 17.3987C14.3288 17.6534 14.3084 17.9266 14.3579 18.1912C14.4073 18.4558 14.5248 18.7027 14.6988 18.9072L15.8114 18.7208C15.6411 18.5142 15.5259 18.2675 15.4766 18.0036C15.4273 17.7398 15.4456 17.4676 15.5296 17.2123C15.6801 16.8098 15.8266 16.6312 15.9943 16.527Z" fill="#D78400"/>
<path d="M14.6794 18.9686L15.8115 18.7208C15.6412 18.5142 15.526 18.2675 15.4767 18.0036C15.4274 17.7398 15.4456 17.4676 15.5297 17.2124C15.6533 16.8238 15.8201 16.6517 15.9683 16.6088L14.8296 16.8769C14.7076 16.8381 14.5212 17.0715 14.391 17.4805C14.3028 17.7352 14.2824 18.0084 14.3319 18.273C14.3813 18.5376 14.4989 18.7845 14.6729 18.989L14.6794 18.9686Z" fill="#D78400"/>
<path d="M17.6439 33.177L18.7825 32.9088L19.3032 31.2729L18.1711 31.5206L17.6439 33.177Z" fill="#D78400"/>
<path d="M18.1711 31.5209L19.3032 31.2731L17.5156 29.2854L16.3566 29.5471L18.1711 31.5209Z" fill="#D78400"/>
<path d="M16.0221 20.455L17.1746 20.2137L15.8184 18.7011L14.6798 18.9693L16.0221 20.455Z" fill="#D78400"/>
<path d="M14.7426 12.368L13.5837 12.6298C14.2104 12.4914 14.9853 12.8731 15.9369 13.8967L17.0755 13.6285C16.0832 12.592 15.3693 12.2297 14.7426 12.368Z" fill="#D78400"/>
<path d="M15.9369 13.8967L17.0755 13.6285C16.1442 12.6114 15.2879 12.2038 14.7426 12.368L13.5837 12.6298C14.2104 12.4914 14.9853 12.8731 15.9369 13.8967Z" fill="#D78400"/>
<path d="M17.8133 15.9568L18.9519 15.6886L18.2331 14.9193L17.101 15.167L17.8133 15.9568Z" fill="#D78400"/>
<path d="M17.576 13.675L18.7285 13.4337L17.5709 12.142L16.4119 12.4037L17.576 13.675Z" fill="#D78400"/>
<path d="M17.1008 15.1681L18.2329 14.9204L18.7284 13.4341L17.5759 13.6753L17.1008 15.1681Z" fill="#D78400"/>
<path d="M16.3556 29.5475L17.5146 29.2858L20.5809 19.7221L19.4488 19.9698L16.3556 29.5475Z" fill="#D78400"/>
<path d="M19.6693 18.0122L20.808 17.744L20.1095 16.9812L18.9774 17.2289L19.6693 18.0122Z" fill="#D78400"/>
<path d="M19.9698 18.3335L21.1084 18.0654L20.8072 17.7443L19.6686 18.0125L19.9698 18.3335Z" fill="#D78400"/>
<path d="M18.9772 17.2279L20.1093 16.9802L20.6048 15.4938L19.4458 15.7555L18.9772 17.2279Z" fill="#D78400"/>
<path d="M19.4456 15.7567L20.6046 15.495L19.4405 14.2237L18.2881 14.465L19.4456 15.7567Z" fill="#D78400"/>
<path d="M21.257 21.9626L22.3891 21.7149L22.9163 20.0585L21.7777 20.3267L21.257 21.9626Z" fill="#D78400"/>
<path d="M12.6412 18.6135C11.6449 17.8009 10.6308 18.3114 10.2078 19.6406C9.75233 20.8537 9.6605 22.1732 9.9436 23.436C10.2267 24.6988 10.8724 25.8496 11.8007 26.7462L11.3256 28.239L12.4897 29.5103L12.9648 28.0175L13.6771 28.8072L13.202 30.3L14.366 31.5713L14.8347 30.099L15.5331 30.8618L15.8343 31.1829L17.6423 33.1771L18.1695 31.5207L16.355 29.5469L19.4074 19.9563L21.2154 21.9505L21.7361 20.3146L19.9281 18.3203L19.6269 17.9993L18.935 17.216L19.4036 15.7437L18.246 14.4519L17.7709 15.9447L17.0586 15.155L17.5338 13.6622L16.3697 12.3909L15.8946 13.8836C14.0117 11.8431 12.808 12.3157 12.1246 14.4629C11.9067 15.152 11.8401 15.8798 11.9293 16.5964C12.0185 17.3129 12.2614 18.0011 12.6412 18.6135ZM12.8894 24.0299C12.6738 23.7698 12.5378 23.4525 12.4977 23.1161C12.4577 22.7797 12.5153 22.4387 12.6637 22.1339C12.8719 21.4795 13.2039 20.9996 13.6834 21.5351L15.1625 23.1544L14.3685 25.6492L12.8894 24.0299ZM16.6733 18.478L16.068 20.3798L14.7257 18.8941C14.5517 18.6895 14.4341 18.4427 14.3847 18.178C14.3353 17.9134 14.3556 17.6402 14.4439 17.3856C14.6912 16.6085 15.0705 16.6842 15.331 16.9923L16.6937 18.4845L16.6733 18.478Z" fill="#FFD950"/>
<path d="M21.7776 20.3269L22.9162 20.0587L21.1083 18.0645L19.9696 18.3326L21.7776 20.3269Z" fill="#D78400"/>
<g style="mix-blend-mode:screen" opacity="0.15">
<path d="M24.0077 21.4879C18.8672 22.7119 13.7561 24.1254 8.74746 25.6392C9.76061 28.4765 11.3679 31.0614 13.4611 33.2199C16.9811 32.0882 20.6435 31.0018 24.2621 30.1942C24.7863 27.3046 24.6996 24.3382 24.0077 21.4879Z" fill="#F5EBCB"/>
</g>
<g style="mix-blend-mode:screen" opacity="0.15">
<path d="M18.8529 10.9292C14.8853 11.9184 10.9144 13.1994 7.06719 14.6549C6.9143 16.0436 6.90412 17.4441 7.03684 18.8341C11.7321 17.108 16.5055 15.6996 21.3407 14.3784C20.6457 13.1366 19.811 11.9793 18.8529 10.9292Z" fill="#F5EBCB"/>
</g>
<path d="M15.2011 33.5247C14.0478 32.4534 13.0423 31.2321 12.2111 29.8931L10.9374 30.1633C11.7528 31.4665 12.7275 32.6619 13.8386 33.7217C14.8346 34.6646 16.0173 35.3863 17.3103 35.84C18.2491 36.1687 19.2678 36.1937 20.2233 35.9114C19.6734 35.9039 19.128 35.8138 18.6052 35.6441C17.3346 35.185 16.1749 34.463 15.2011 33.5247Z" fill="#FFCC00"/>
<path d="M8.69382 12.9195C8.83346 11.8742 9.1853 10.8682 9.72755 9.96387C10.2698 9.05953 10.9909 8.27608 11.8462 7.66206C12.0952 7.51556 12.3587 7.39561 12.6324 7.30422C11.8932 7.30734 11.1669 7.50296 10.5244 7.87195C9.67529 8.48702 8.95871 9.26823 8.41801 10.1684C7.8773 11.0685 7.5237 12.0688 7.37857 13.1089C7.22236 13.5997 7.19476 14.1089 7.11995 14.6256L8.44741 14.3274C8.5092 13.8516 8.59133 13.3823 8.69382 12.9195Z" fill="#F69503"/>
<path d="M8.44842 14.3277L7.12097 14.6258C6.65194 20.0908 7.99379 25.5532 10.9379 30.1638L12.2117 29.8936C9.28483 25.2667 7.96211 19.7955 8.44842 14.3277Z" fill="#FFB300"/>
</svg>
