<svg width="36" height="46" viewBox="0 0 36 46" fill="none" xmlns="http://www.w3.org/2000/svg">
<path d="M24.7227 20.3295C24.9299 20.2632 24.9683 19.9395 24.7971 19.6109C23.8643 17.8208 22.6975 16.1528 21.3824 14.7331C19.9218 13.1564 18.325 11.9365 16.7387 11.1856C15.1523 10.4346 13.6273 10.1767 12.3036 10.4354C10.9799 10.6941 9.90007 11.4612 9.16316 12.6663C8.42626 13.8713 8.05594 15.4757 8.08622 17.332C8.11651 19.1883 8.54641 21.2371 9.33646 23.2902C10.1265 25.3433 11.2514 27.3349 12.6078 29.0821C13.829 30.6552 15.2027 31.9848 16.6253 32.9739C16.8865 33.1555 17.1102 33.0506 17.1238 32.7557C17.1374 32.4608 16.9356 32.0878 16.6746 31.9046C15.4111 31.0179 14.1917 29.8334 13.1061 28.435C11.8854 26.8625 10.873 25.07 10.1619 23.2223C9.45089 21.3745 9.06398 19.5306 9.03672 17.8599C9.00947 16.1892 9.34276 14.7453 10.006 13.6607C10.6692 12.5762 11.6411 11.8858 12.8324 11.653C14.0237 11.4201 15.3962 11.6523 16.8239 12.3281C18.2516 13.004 19.6887 14.1018 21.0033 15.5209C22.1723 16.7829 23.2111 18.2629 24.0454 19.8514C24.2177 20.1796 24.5154 20.3959 24.7227 20.3295Z" fill="#00B4D8"/>
<path d="M23.7275 22.1355C23.9524 22.1239 24.0366 21.8462 23.8997 21.5172C23.1408 19.6942 22.0381 17.9627 20.7304 16.55C19.2807 14.9837 17.6619 13.8985 16.1298 13.466C14.5977 13.0335 13.2398 13.2783 12.2707 14.1617C11.3016 15.0451 10.7767 16.5168 10.7789 18.344C10.7811 20.1712 11.3103 22.2498 12.2829 24.251C13.2554 26.2523 14.6158 28.0621 16.149 29.3944C17.6822 30.7267 19.3007 31.5054 20.7486 31.6075C22.0547 31.6995 23.1547 31.2363 23.9102 30.2851C24.0466 30.1135 23.9615 29.7383 23.7363 29.4675C23.5111 29.1967 23.2311 29.1331 23.0927 29.302C22.4368 30.1019 21.493 30.4904 20.3758 30.4116C19.1167 30.3229 17.7093 29.6457 16.3761 28.4872C15.0429 27.3287 13.8599 25.7549 13.0142 24.0146C12.1685 22.2743 11.7083 20.4669 11.7064 18.878C11.7045 17.2891 12.1609 16.0093 13.0036 15.2411C13.8463 14.4729 15.0271 14.26 16.3594 14.6361C17.6916 15.0123 19.0994 15.9559 20.36 17.3179C21.4785 18.5263 22.4246 20.0029 23.0833 21.5597C23.2224 21.8883 23.5026 22.1472 23.7275 22.1355Z" fill="#00B4D8"/>
<path d="M16.1707 26.7183C16.086 26.9291 16.1994 27.2866 16.4305 27.4963C17.4209 28.3948 18.4756 28.992 19.4654 29.2089C20.5941 29.4562 21.5739 29.1946 22.2499 28.4655C22.9259 27.7364 23.2595 26.5814 23.198 25.1831C23.1364 23.7847 22.6833 22.2229 21.9102 20.7443C21.137 19.2658 20.088 17.9551 18.929 17.0192C17.7699 16.0834 16.567 15.5759 15.5103 15.5769C14.4536 15.578 13.6035 16.0875 13.0943 17.025C12.6478 17.847 12.4857 18.957 12.623 20.215C12.6551 20.5086 12.889 20.8153 13.1238 20.8915C13.3586 20.9677 13.505 20.7843 13.4768 20.4923C13.3786 19.4761 13.5168 18.58 13.8798 17.9116C14.3056 17.1277 15.0165 16.7016 15.9001 16.7007C16.7837 16.6998 17.7897 17.1242 18.7589 17.9068C19.7281 18.6894 20.6053 19.7854 21.2518 21.0218C21.8983 22.2581 22.2772 23.5642 22.3287 24.7335C22.3801 25.9028 22.1011 26.8686 21.5359 27.4783C20.9706 28.088 20.1513 28.3067 19.2074 28.0999C18.4026 27.9236 17.5465 27.4465 16.7383 26.7295C16.5062 26.5235 16.2555 26.5074 16.1707 26.7183Z" fill="#0077B6"/>
<path d="M28.6176 29.0634C28.9359 29.2472 29.1955 29.0989 29.1796 28.7226C29.0851 26.4884 28.5277 24.0434 27.5527 21.603C26.4787 18.9148 24.9384 16.3331 23.0962 14.1337C21.2541 11.9343 19.1793 10.1997 17.0935 9.11524C15.2 8.13073 13.3619 7.71564 11.7407 7.90142C11.4677 7.93271 11.3975 8.3071 11.5745 8.7148C11.7516 9.12249 12.1088 9.40889 12.3828 9.37987C13.8298 9.22664 15.4659 9.60173 17.1508 10.4778C19.028 11.4538 20.8953 13.0149 22.5532 14.9944C24.2112 16.9739 25.5975 19.2974 26.564 21.7167C27.4316 23.8883 27.9318 26.0639 28.0252 28.0561C28.0429 28.4333 28.2992 28.8796 28.6176 29.0634Z" fill="#00B4D8"/>
<path d="M6.11035 22.3831C5.82023 22.3709 5.69299 22.6958 5.83993 23.1086C6.92493 26.1568 8.54682 29.1446 10.5445 31.7666C12.7052 34.6027 15.2149 36.8918 17.7764 38.3628C20.3379 39.8338 22.8438 40.4251 24.9971 40.0666C27.1505 39.7081 28.8612 38.4148 29.9264 36.34C30.9917 34.2652 31.3669 31.4958 31.0076 28.3598C30.6484 25.2239 29.5697 21.8528 27.8994 18.6461C26.229 15.4393 24.0371 12.5312 21.5832 10.2663C19.3144 8.1723 16.9097 6.7092 14.6136 6.01993C14.3026 5.92658 14.1249 6.19566 14.2129 6.60147C14.3009 7.00728 14.6213 7.39601 14.9326 7.491C17.0155 8.12667 19.1945 9.4574 21.2511 11.3556C23.4929 13.4248 25.4954 16.0816 27.0214 19.0112C28.5474 21.9408 29.5328 25.0205 29.861 27.8854C30.1892 30.7503 29.8464 33.2803 28.8732 35.1758C27.9001 37.0713 26.3373 38.2528 24.37 38.5804C22.4027 38.9079 20.1134 38.3677 17.7733 37.0238C15.4332 35.6799 13.1404 33.5887 11.1664 30.9977C9.35555 28.6209 7.88267 25.9149 6.89159 23.1526C6.74349 22.7398 6.40046 22.3952 6.11035 22.3831Z" fill="#03045E"/>
<path d="M27.2 14.9571C27.4094 14.7776 27.369 14.3135 27.1009 13.9287C25.6107 11.7901 23.9332 9.86012 22.147 8.23153C20.167 6.42623 18.0928 5.02716 16.0448 4.11549C13.9968 3.20381 12.0158 2.79767 10.2166 2.92064C8.41743 3.0436 6.83593 3.69322 5.56387 4.83181C4.29181 5.97039 3.35452 7.57528 2.80635 9.55336C2.25819 11.5314 2.11007 13.8433 2.37059 16.3549C2.63112 18.8665 3.29509 21.5278 4.32401 24.1844C5.25221 26.581 6.46073 28.9307 7.89109 31.1229C8.14843 31.5173 8.52877 31.6771 8.73151 31.4877C8.93425 31.2983 8.88253 30.8313 8.62589 30.4364C7.32242 28.4304 6.22031 26.2826 5.37205 24.0924C4.42306 21.6422 3.81066 19.1876 3.57037 16.8711C3.33009 14.5546 3.4667 12.4223 3.97228 10.5979C4.47786 8.77347 5.34235 7.29325 6.5156 6.24311C7.68885 5.19297 9.14749 4.59381 10.8069 4.4804C12.4663 4.36699 14.2935 4.74158 16.1824 5.58243C18.0713 6.42329 19.9844 7.71368 21.8106 9.37874C23.4429 10.8671 24.9769 12.6283 26.3418 14.5793C26.6106 14.9634 26.9906 15.1366 27.2 14.9571Z" fill="#023E8A"/>
<path d="M34.9853 32.9129C35.3422 33.1189 35.6327 33.6208 35.6197 34.0251C35.486 38.2064 34.2095 41.582 31.9589 43.6753C29.5772 45.8905 26.2371 46.5462 22.4555 45.5407C18.6739 44.5352 14.6615 41.9247 11.0392 38.1131C7.41682 34.3014 4.38637 29.5011 2.41668 24.4547C0.446988 19.4083 -0.352164 14.3972 0.142864 10.1965C0.637892 5.99594 2.39951 2.83999 5.15517 1.21698C7.91083 -0.406038 11.5069 -0.405659 15.3871 1.21805C19.0536 2.75235 22.7807 5.65529 26.053 9.51485C26.3693 9.88803 26.4774 10.4072 26.301 10.6636C26.1247 10.9199 25.7308 10.8164 25.4139 10.444C22.389 6.88878 18.9483 4.21443 15.5633 2.79792C11.9645 1.29197 8.62924 1.29162 6.07345 2.79692C3.51766 4.30221 1.88381 7.22925 1.42469 11.1252C0.965567 15.0211 1.70676 19.6688 3.53359 24.3492C5.36042 29.0295 8.17106 33.4817 11.5307 37.0169C14.8903 40.5521 18.6116 42.9733 22.119 43.9058C25.6263 44.8383 28.7241 44.2303 30.9331 42.1757C33.011 40.2431 34.1935 37.132 34.3266 33.2785C34.3406 32.8748 34.6285 32.7069 34.9853 32.9129Z" fill="#00B4D8"/>
</svg>
