<svg width="9" height="9" viewBox="0 0 9 9" fill="none" xmlns="http://www.w3.org/2000/svg">
<g clip-path="url(#clip0_1_30513)">
<path d="M6.74991 0.656272H2.24997C1.36978 0.656272 0.656239 1.36981 0.656239 2.25V6.74994C0.656239 7.63013 1.36978 8.34367 2.24997 8.34367H6.74991C7.6301 8.34367 8.34364 7.63013 8.34364 6.74994V2.25C8.34364 1.36981 7.6301 0.656272 6.74991 0.656272Z" stroke="#D3D6DE" stroke-width="0.529412"/>
<path d="M3.41926 2.85024L4.26704 3.69801M3.41926 5.78307V2.85024V5.78307ZM3.41926 2.85024L2.57149 3.69801L3.41926 2.85024Z" stroke="#D3D6DE" stroke-width="0.529412" stroke-linecap="round" stroke-linejoin="round"/>
<path d="M5.52716 6.14962L4.67937 5.30183M5.52716 3.21677V6.14962V3.21677ZM5.52716 6.14962L6.37491 5.30183L5.52716 6.14962Z" stroke="#D3D6DE" stroke-width="0.529412" stroke-linecap="round" stroke-linejoin="round"/>
</g>
<defs>
<clipPath id="clip0_1_30513">
<rect width="8.47059" height="8.47059" fill="white" transform="scale(1.06249)"/>
</clipPath>
</defs>
</svg>
