<svg width="25" height="27" viewBox="0 0 25 27" fill="none" xmlns="http://www.w3.org/2000/svg">
<path d="M21.4336 0C23.0154 0 24.2911 1.27913 24.3665 2.78439V27.0002L21.3549 24.443L19.7011 22.9378L17.8966 21.365L18.6504 23.8456H2.85752C1.28026 23.8456 0 22.6475 0 21.0601V2.79002C0 1.28476 1.28251 0.00337502 2.86314 0.00337502H21.4258L21.4336 0ZM14.5508 6.39341H14.5171L14.2898 6.61841C16.622 7.29342 17.7504 8.34755 17.7504 8.34755C16.2473 7.59604 14.8928 7.22029 13.5383 7.06842C12.5596 6.91654 11.5808 6.99642 10.7539 7.06842H10.5289C10.0002 7.06842 8.87518 7.29342 7.36767 7.8953C6.84229 8.12367 6.54079 8.2733 6.54079 8.2733C6.54079 8.2733 7.66805 7.14604 10.1521 6.54416L10.0002 6.39229C10.0002 6.39229 8.11917 6.32029 6.08854 7.82105C6.08854 7.82105 4.0579 11.3581 4.0579 15.7186C4.0579 15.7186 5.18291 17.6761 8.2688 17.7504C8.2688 17.7504 8.7188 17.1507 9.17443 16.6231C7.44192 16.0966 6.76692 15.0436 6.76692 15.0436C6.76692 15.0436 6.91767 15.1178 7.14379 15.2686H7.21129C7.24504 15.2686 7.26079 15.2855 7.27879 15.3023V15.3091C7.29679 15.3271 7.31254 15.3428 7.34629 15.3428C7.71755 15.4958 8.0888 15.6466 8.39255 15.7928C9.04216 16.0709 9.72165 16.2733 10.4176 16.3958C11.4638 16.5477 12.6631 16.6208 14.0288 16.3958C14.7038 16.244 15.3788 16.0955 16.0538 15.794C16.4926 15.569 17.0326 15.344 17.6255 14.9648C17.6255 14.9648 16.9505 16.0178 15.1448 16.5443C15.5161 17.0686 16.0392 17.6694 16.0392 17.6694C19.1262 17.6019 20.3255 15.6443 20.393 15.7276C20.393 11.3738 18.3511 7.83005 18.3511 7.83005C16.5117 6.46429 14.7905 6.41254 14.4867 6.41254L14.5497 6.39004L14.5508 6.39341ZM14.7398 11.3581C15.5307 11.3581 16.1686 12.0331 16.1686 12.86C16.1686 13.6925 15.5273 14.3675 14.7398 14.3675C13.9523 14.3675 13.3111 13.6925 13.3111 12.8667C13.3133 12.0342 13.9557 11.3614 14.7398 11.3614V11.3581ZM9.62893 11.3581C10.4164 11.3581 11.0532 12.0331 11.0532 12.86C11.0532 13.6925 10.4119 14.3675 9.62443 14.3675C8.83693 14.3675 8.19567 13.6925 8.19567 12.8667C8.19567 12.0342 8.83693 11.3614 9.62443 11.3614L9.62893 11.3581Z" fill="#666F89"/>
</svg>
