<svg width="55" height="52" viewBox="0 0 55 52" fill="none" xmlns="http://www.w3.org/2000/svg">
<path d="M8.05454 47.495C18.7939 53.4453 36.2061 53.4453 46.9455 47.495C57.6848 41.5447 57.6848 31.8962 46.9455 25.9459C36.2061 19.9956 18.7939 19.9956 8.05454 25.9446C-2.68485 31.8936 -2.68485 41.5434 8.05454 47.495Z" fill="#F5F5F5"/>
<path d="M47.5699 25.6049C47.6454 24.6651 48.3705 23.0626 49.4431 21.921C50.5158 20.7794 52.2328 20.2287 53.2924 20.6896C54.2778 21.1178 54.0617 22.4391 52.76 23.2214C51.4582 24.0038 49.5199 24.9632 48.8548 26.4446L47.5686 28.2228L47.5699 25.6049Z" fill="#10B981"/>
<path opacity="0.1" d="M47.5699 25.6049C47.6454 24.6651 48.3705 23.0626 49.4431 21.921C50.5158 20.7794 52.2328 20.2287 53.2924 20.6896C54.2778 21.1178 54.0617 22.4391 52.76 23.2214C51.4582 24.0038 49.5199 24.9632 48.8548 26.4446L47.5686 28.2228L47.5699 25.6049Z" fill="black"/>
<path d="M47.4353 26.8352H47.4157C47.4075 26.8326 47.3998 26.8283 47.3932 26.8227C47.3866 26.817 47.3813 26.8101 47.3774 26.8024C47.3735 26.7946 47.3712 26.7861 47.3706 26.7775C47.3701 26.7688 47.3712 26.7601 47.3741 26.7519C48.4298 23.5653 51.4251 21.4291 52.6683 21.2247C52.6767 21.2232 52.6853 21.2235 52.6936 21.2254C52.7019 21.2272 52.7097 21.2308 52.7166 21.2358C52.7236 21.2407 52.7294 21.247 52.7339 21.2543C52.7383 21.2616 52.7412 21.2697 52.7425 21.2781C52.744 21.2866 52.7438 21.2952 52.7419 21.3036C52.74 21.312 52.7365 21.32 52.7315 21.327C52.7266 21.334 52.7203 21.34 52.713 21.3445C52.7057 21.3491 52.6976 21.3522 52.6891 21.3536C51.4733 21.5528 48.5378 23.6538 47.4978 26.7936C47.4929 26.8061 47.4843 26.8169 47.4731 26.8243C47.4619 26.8318 47.4487 26.8356 47.4353 26.8352Z" fill="white"/>
<path d="M47.7114 29.4842C47.9053 28.9635 48.6226 28.1486 49.7213 27.512C50.9397 26.8078 52.4302 26.5592 52.8168 25.9669C53.2815 25.2548 52.7101 24.5011 51.5151 24.5519C50.3201 24.6026 48.1032 26.0541 47.5734 28.4571L47.7114 29.4842Z" fill="#10B981"/>
<path d="M47.6564 28.5053C47.6461 28.505 47.6359 28.5028 47.6264 28.4988C47.6114 28.4907 47.6 28.4771 47.5946 28.4609C47.5893 28.4446 47.5904 28.427 47.5978 28.4115C48.6288 26.3587 50.804 25.3993 51.9274 25.1572C51.9447 25.1536 51.9627 25.1569 51.9774 25.1666C51.9922 25.1762 52.0025 25.1913 52.0062 25.2086C52.0098 25.2259 52.0064 25.2439 51.9968 25.2586C51.9871 25.2734 51.972 25.2837 51.9547 25.2874C50.8548 25.5256 48.7225 26.4654 47.715 28.474C47.7088 28.4839 47.7001 28.492 47.6899 28.4975C47.6796 28.503 47.668 28.5057 47.6564 28.5053Z" fill="white"/>
<path d="M9.95323 32.3428L11.0102 31.7322C11.0102 31.7322 11.57 29.242 10.7369 26.0788C9.90376 22.9155 7.50985 20.5503 6.25107 21.0475C4.99228 21.5448 5.03263 22.4794 5.72256 23.4271C6.29532 24.216 8.15291 26.1087 9.04721 28.2982C9.57982 29.5842 9.88633 30.9525 9.95323 32.3428Z" fill="#E0E0E0"/>
<path d="M10.5163 32.0823H10.5045C10.496 32.0812 10.4877 32.0784 10.4802 32.0741C10.4727 32.0697 10.4662 32.0639 10.461 32.057C10.4558 32.0501 10.452 32.0422 10.4498 32.0338C10.4477 32.0254 10.4473 32.0167 10.4486 32.0081C11.1723 26.8012 7.94401 22.5913 6.47564 21.714C6.46826 21.7095 6.46183 21.7037 6.45671 21.6968C6.4516 21.6899 6.4479 21.682 6.44584 21.6737C6.44379 21.6653 6.4434 21.6566 6.44472 21.6481C6.44604 21.6396 6.44903 21.6315 6.45351 21.6241C6.4578 21.6168 6.46351 21.6104 6.47032 21.6053C6.47712 21.6002 6.48487 21.5965 6.49311 21.5944C6.50136 21.5924 6.50994 21.592 6.51834 21.5933C6.52674 21.5946 6.53479 21.5975 6.54203 21.602C8.03253 22.4937 11.309 26.7582 10.5774 32.0264C10.5751 32.0413 10.5678 32.0549 10.5567 32.0651C10.5455 32.0753 10.5313 32.0813 10.5163 32.0823Z" fill="white"/>
<path d="M9.95394 32.3426L8.36712 33.2538C8.03636 33.0883 7.67813 32.9847 7.3101 32.9479C6.63449 32.8633 6.18539 32.2124 6.25178 31.7269C6.29734 31.3989 6.40148 31.0253 6.35202 30.6946C6.30645 30.3978 6.01877 30.1297 5.75061 30.0268C5.52233 29.9556 5.28415 29.9214 5.04506 29.9253C4.66365 29.9084 4.26402 29.8641 3.94249 29.6649C3.62096 29.4658 3.38404 29.0674 3.48948 28.7003C3.5588 28.5089 3.67257 28.3367 3.82143 28.1979C3.9693 28.059 4.08946 27.8934 4.1755 27.7097C4.31609 27.3413 4.06876 27.1083 3.77196 26.9378C2.73056 26.3377 2.26194 25.8651 2.63684 25.4121C3.01174 24.9591 4.04272 24.7613 5.09844 25.3158C6.15415 25.8704 7.02892 25.2755 7.72536 25.3926C8.81622 25.5749 8.88131 26.3455 8.74592 27.0159C8.61054 27.6863 9.95655 27.9688 10.2963 28.7693C10.5423 29.3564 10.748 31.2739 9.95394 32.3426Z" fill="#EBEBEB"/>
<path d="M9.42305 32.7122C9.40623 32.7122 9.39006 32.7057 9.37792 32.6941C9.36579 32.6824 9.35864 32.6665 9.35796 32.6497C9.22779 28.9332 4.46471 25.6919 3.3413 25.507C3.33282 25.5056 3.32471 25.5025 3.31743 25.498C3.31015 25.4934 3.30384 25.4874 3.29888 25.4804C3.29392 25.4734 3.2904 25.4655 3.28852 25.4571C3.28664 25.4487 3.28644 25.44 3.28793 25.4315C3.28919 25.4231 3.29213 25.415 3.29656 25.4078C3.301 25.4005 3.30685 25.3942 3.31377 25.3892C3.32068 25.3842 3.32853 25.3807 3.33683 25.3788C3.34514 25.3769 3.35374 25.3767 3.36213 25.3782C4.54542 25.5734 9.35796 28.79 9.48814 32.6458C9.48849 32.6543 9.48714 32.6628 9.48417 32.6707C9.4812 32.6787 9.47668 32.686 9.47086 32.6921C9.46504 32.6983 9.45804 32.7033 9.45028 32.7067C9.44252 32.7102 9.43414 32.712 9.42566 32.7122H9.42305Z" fill="white"/>
<path d="M51.7902 15.0126C51.5585 14.9696 51.3658 14.8589 51.0352 14.8238C50.8069 14.8175 50.5836 14.7558 50.3843 14.6442C50.124 14.5023 49.5786 13.8423 49.1334 13.1758C48.661 12.4145 48.3224 11.578 48.1323 10.7025C47.9436 9.64286 47.9071 8.09899 47.8342 7.47806C47.7613 6.85713 47.5023 6.67618 47.1651 6.5356C46.7681 6.37027 46.3528 6.60979 46.3489 7.508C46.3665 8.74455 46.5215 9.97531 46.811 11.1776C47.0504 12.0639 47.4348 12.9045 47.9488 13.6652C48.4174 14.3734 48.9003 14.8368 49.5109 15.4278C49.6788 15.5879 49.7634 15.748 50.0485 16.0904C50.1588 16.2391 50.2904 16.3706 50.439 16.4809C50.6291 16.6069 50.8365 16.7047 51.0547 16.7712C51.3304 16.8567 51.624 16.8666 51.9048 16.7998C52.059 16.7625 52.2025 16.6899 52.3239 16.5877C52.4452 16.4843 52.5259 16.3413 52.5517 16.1841C52.5595 16.1533 52.5591 16.121 52.5504 16.0904C52.5223 16.04 52.4756 16.0027 52.4203 15.9863C52.1235 15.8561 51.7837 15.7676 51.5025 15.6101C51.2656 15.4799 51.112 15.3497 51.168 15.3328C51.224 15.3159 51.3528 15.4031 51.5897 15.4096C51.8267 15.4161 52.0428 15.2885 52.0362 15.1623C52.0297 15.036 52.0219 15.0555 51.7902 15.0126Z" fill="#FFA8A7"/>
<path d="M46.4763 10.3965C46.4763 10.3965 46.2602 8.67428 46.2042 7.7175C46.1482 6.76072 46.4411 6.48345 46.8004 6.24392C47.5932 6.18274 48.0475 7.01195 48.1816 7.5652C48.3156 8.11844 48.3846 9.49698 48.3846 10.3939C48.3846 11.2908 49.6382 13.8774 49.6382 13.8774C49.6382 13.8774 49.0056 14.1702 48.8142 14.7443C48.8142 14.7443 47.808 13.5571 47.4344 12.9518C46.7496 11.8388 46.5622 11.158 46.4763 10.3965Z" fill="#10B981"/>
<path opacity="0.1" d="M46.4763 10.3965C46.4763 10.3965 46.2602 8.67428 46.2042 7.7175C46.1482 6.76072 46.4411 6.48345 46.8004 6.24392C47.5932 6.18274 48.0475 7.01195 48.1816 7.5652C48.3156 8.11844 48.3846 9.49698 48.3846 10.3939C48.3846 11.2908 49.6382 13.8774 49.6382 13.8774C49.6382 13.8774 49.0056 14.1702 48.8142 14.7443C48.8142 14.7443 47.808 13.5571 47.4344 12.9518C46.7496 11.8388 46.5622 11.158 46.4763 10.3965Z" fill="black"/>
<path d="M43.1774 30.5215H44.2566V28.6756H43.1774V30.5215Z" fill="#FFA8A7"/>
<path d="M46.6951 29.1794L47.7729 29.2171L47.8276 27.2632L46.7497 27.2255L46.6951 29.1794Z" fill="#FFA8A7"/>
<path d="M44.257 29.9892V29.8343C44.3599 29.8799 44.5994 30.795 45.0277 31.1842C45.3674 31.4953 45.8321 31.8533 45.9506 32.1996C46.0691 32.5458 45.2997 32.758 44.986 32.702C44.6163 32.6356 43.9772 32.3766 43.8144 32.1358C43.6517 31.895 43.5788 31.5383 43.4486 31.3612C43.3185 31.1842 43.0165 30.9876 42.9462 30.7833C42.9071 30.6713 42.9462 30.4253 43.0074 30.217C43.0685 30.0087 43.1115 29.8174 43.1766 29.8343V29.9528C43.3309 30.0728 43.5213 30.137 43.7168 30.135C43.8756 30.1402 44.2583 30.109 44.257 29.9892Z" fill="#263238"/>
<path d="M47.7849 28.884C47.8409 28.884 47.8865 28.9647 48.0101 29.0988C48.1948 29.285 48.409 29.4394 48.6441 29.5557C49.0489 29.7575 49.8339 30.0686 50.1892 30.2287C50.4105 30.3289 50.4001 30.5971 50.171 30.7494C49.9419 30.9017 49.39 31.0097 48.7222 30.864C48.3603 30.7819 47.8878 30.4474 47.5897 30.4656C47.2916 30.4838 46.7318 30.4799 46.5118 30.3276C46.2918 30.1753 46.3817 29.8512 46.4415 29.5726C46.5092 29.268 46.6069 28.802 46.7084 28.8228V28.9191C46.8386 29.1157 47.4985 29.1951 47.7836 29.0493L47.7849 28.884Z" fill="#263238"/>
<path d="M43.2494 14.039C43.2494 15.0687 43.2494 21.4993 43.2494 21.4993C43.2247 21.7948 43.0047 22.309 42.9461 23.5704C42.8732 25.1168 42.8159 29.3566 42.8159 29.3566C42.8159 29.3566 43.6217 29.8773 44.3351 29.3748C44.3351 29.3748 45.2932 23.2957 45.4858 21.7635C45.655 20.4266 45.9401 16.7935 45.9401 16.7935L46.591 22.2608C46.591 22.2608 46.4153 23.2657 46.3775 23.9752C46.3398 24.6846 46.3775 28.3582 46.3775 28.3582C46.3775 28.3582 47.2288 28.8476 47.855 28.5131C47.855 28.5131 48.5931 22.8401 48.705 22.1996C48.817 21.5592 48.3002 14.0325 48.3002 14.0325L43.2494 14.039Z" fill="#263238"/>
<path d="M45.9324 16.7933C46.4901 16.6193 47.0029 16.3252 47.4346 15.9315C47.4346 15.9315 47.1456 16.4743 46.2838 16.9794L46.3021 19.9188L45.9324 16.7933Z" fill="black"/>
<path d="M44.2854 6.5878C44.1341 6.60808 43.9851 6.64251 43.8402 6.69064C43.5434 6.8065 43.408 7.17098 43.3377 7.49251C43.2781 7.76179 43.2484 8.03682 43.2492 8.31261V14.0403C44.0055 14.863 46.6416 15.2457 48.2935 14.0403C48.2935 14.0403 48.2609 8.98171 48.1373 8.1512C47.9225 6.70756 47.226 6.19858 46.5374 6.24675L44.8699 6.48366L44.2854 6.5878Z" fill="#10B981"/>
<path d="M44.9226 9.0832C44.9226 9.0832 45.826 9.04675 46.197 8.90226V8.72131C45.826 8.86581 44.9226 8.90226 44.9226 8.90226V9.0832Z" fill="#37474F"/>
<path d="M46.4496 7.31664L44.8706 6.15418L44.8641 5.8678C44.8641 5.8678 44.5296 5.91857 44.4476 6.55902C44.6956 7.11148 45.1213 7.56512 45.6569 7.84775L45.9849 7.26327L46.4496 7.31664Z" fill="#10B981"/>
<path opacity="0.1" d="M46.4496 7.31664L44.8706 6.15418L44.8641 5.8678C44.8641 5.8678 44.5296 5.91857 44.4476 6.55902C44.6956 7.11148 45.1213 7.56512 45.6569 7.84775L45.9849 7.26327L46.4496 7.31664Z" fill="black"/>
<path d="M46.5364 5.93689C46.638 5.95207 46.7355 5.98713 46.8236 6.04007C46.9116 6.09301 46.9883 6.16278 47.0493 6.2454C47.2055 6.50575 47.169 7.48857 47.169 7.48857L46.7538 7.01213L46.4492 7.31674C46.4817 6.9874 46.5377 6.43546 46.5377 6.43546L46.5364 5.93689Z" fill="#10B981"/>
<path opacity="0.1" d="M46.5364 5.93689C46.638 5.95207 46.7355 5.98713 46.8236 6.04007C46.9116 6.09301 46.9883 6.16278 47.0493 6.2454C47.2055 6.50575 47.169 7.48857 47.169 7.48857L46.7538 7.01213L46.4492 7.31674C46.4817 6.9874 46.5377 6.43546 46.5377 6.43546L46.5364 5.93689Z" fill="black"/>
<path d="M44.1981 3.854C44.1981 3.854 44.4454 5.02557 44.5457 5.21172C44.6113 5.33024 44.7206 5.4185 44.8503 5.45775L44.8333 4.63765L44.1981 3.854Z" fill="#263238"/>
<path d="M44.5101 2.18389C44.4235 2.17383 44.3357 2.18361 44.2533 2.21247C44.171 2.24134 44.0964 2.28854 44.035 2.35052C43.8306 2.5601 43.9439 3.21357 44.199 3.85403L44.6663 3.9074L44.5101 2.18389Z" fill="#263238"/>
<path d="M44.8059 3.90752C44.7122 3.9635 44.5781 3.77735 44.4623 3.66279C44.3464 3.54824 43.9689 3.37641 43.7815 3.77344C43.594 4.17047 43.9468 4.712 44.2449 4.80442C44.7565 4.96584 44.8333 4.6378 44.8333 4.6378L44.8723 6.48367C44.8723 6.48367 45.5401 7.19312 46.4487 7.31679L46.5373 6.43551V5.87316C46.7653 5.90953 46.9966 5.92132 47.2272 5.9083C47.6047 5.84972 47.8416 5.55293 47.9549 5.14548C48.1384 4.49461 48.2087 3.96219 48.0525 2.67217C47.882 1.26107 46.2405 1.24025 45.3553 1.8039C44.4701 2.36756 44.8059 3.90752 44.8059 3.90752Z" fill="#FFA8A7"/>
<path d="M44.806 4.06615C44.7578 4.06615 44.5795 3.76935 44.4623 3.66261C44.3009 3.51551 44.5092 2.18383 44.5092 2.18383C44.7032 1.27261 46.2874 1.14243 47.1726 1.43272C47.6321 1.57461 47.9289 1.78159 47.9119 2.16951C47.8534 2.42986 47.2923 2.56003 47.0788 2.58737C46.48 2.66026 45.5571 2.49885 45.4295 2.48193C45.2564 2.45849 45.2082 2.51317 45.1145 2.97399C45.0325 3.37753 44.9635 4.06224 44.806 4.06615Z" fill="#263238"/>
<path d="M44.5114 2.29194L43.9439 1.98734C43.962 1.9491 43.9876 1.91494 44.0193 1.88693C44.051 1.85891 44.0881 1.83762 44.1283 1.82436C44.1684 1.81109 44.2109 1.80612 44.253 1.80974C44.2952 1.81337 44.3361 1.82551 44.3734 1.84544C44.4494 1.88786 44.5062 1.95791 44.5319 2.04106C44.5576 2.1242 44.5502 2.21405 44.5114 2.29194Z" fill="#263238"/>
<path d="M46.5362 5.87306C46.5362 5.87306 45.6966 5.70383 45.4024 5.54763C45.2312 5.45664 45.0912 5.31656 45.0002 5.14539C45.0442 5.31727 45.1226 5.47846 45.2306 5.61922C45.4454 5.89389 46.5401 6.09696 46.5401 6.09696L46.5362 5.87306Z" fill="#F28F8F"/>
<path d="M46.3877 3.85408C46.3864 3.8873 46.3753 3.91941 46.3559 3.94639C46.3365 3.97338 46.3096 3.99405 46.2785 4.00582C46.2474 4.0176 46.2135 4.01996 46.1811 4.01261C46.1487 4.00525 46.1192 3.98852 46.0962 3.96448C46.0732 3.94045 46.0579 3.91018 46.052 3.87746C46.0461 3.84474 46.05 3.81102 46.0632 3.7805C46.0764 3.74998 46.0982 3.72401 46.1261 3.70585C46.1539 3.68768 46.1865 3.67812 46.2197 3.67835C46.2423 3.67886 46.2646 3.6838 46.2852 3.69291C46.3059 3.70202 46.3245 3.71511 46.3401 3.73142C46.3557 3.74774 46.3679 3.76698 46.3761 3.78802C46.3842 3.80907 46.3882 3.83152 46.3877 3.85408Z" fill="#263238"/>
<path d="M46.2099 3.21617L45.8493 3.41533C45.8235 3.36594 45.818 3.30847 45.8337 3.25503C45.8495 3.20159 45.8855 3.15639 45.934 3.12895C45.9577 3.11598 45.9838 3.10794 46.0107 3.10532C46.0376 3.10269 46.0648 3.10554 46.0905 3.11369C46.1163 3.12184 46.1402 3.13512 46.1607 3.15273C46.1812 3.17034 46.198 3.19192 46.2099 3.21617Z" fill="#263238"/>
<path d="M46.4605 4.86157L46.8445 5.00607C46.8366 5.03213 46.8234 5.05631 46.8059 5.07713C46.7883 5.09795 46.7667 5.11497 46.7423 5.12715C46.718 5.13933 46.6914 5.14642 46.6642 5.14798C46.637 5.14955 46.6097 5.14555 46.5841 5.13624C46.5314 5.11611 46.4888 5.07591 46.4656 5.02444C46.4424 4.97296 46.4406 4.9144 46.4605 4.86157Z" fill="#F28F8F"/>
<path d="M47.8897 3.35673L47.5604 3.10419C47.5758 3.08184 47.5956 3.06287 47.6185 3.04844C47.6415 3.03401 47.6672 3.02443 47.694 3.02028C47.7209 3.01614 47.7482 3.01752 47.7745 3.02433C47.8008 3.03115 47.8254 3.04327 47.8468 3.05993C47.8901 3.0948 47.9187 3.1448 47.9267 3.19988C47.9346 3.25495 47.9214 3.311 47.8897 3.35673Z" fill="#263238"/>
<path d="M47.7889 3.80452C47.7876 3.83774 47.7766 3.86985 47.7572 3.89683C47.7378 3.92382 47.7109 3.94449 47.6798 3.95627C47.6487 3.96804 47.6148 3.9704 47.5824 3.96305C47.55 3.9557 47.5204 3.93896 47.4975 3.91492C47.4745 3.89089 47.4591 3.86062 47.4533 3.8279C47.4474 3.79518 47.4513 3.76146 47.4645 3.73094C47.4776 3.70042 47.4995 3.67446 47.5273 3.65629C47.5552 3.63812 47.5878 3.62856 47.621 3.62879C47.6436 3.6293 47.6658 3.63424 47.6865 3.64335C47.7071 3.65246 47.7258 3.66555 47.7414 3.68187C47.757 3.69819 47.7692 3.71742 47.7773 3.73846C47.7855 3.75951 47.7894 3.78196 47.7889 3.80452Z" fill="#263238"/>
<path d="M46.8777 3.48962L46.9336 4.50238L47.4622 4.32274L46.8777 3.48962Z" fill="#F28F8F"/>
<path d="M45.252 2.79578C45.252 2.79578 46.9261 3.73043 48.0898 3.01837C49.2536 2.30632 47.7462 1.6958 47.7462 1.6958L45.252 2.79578Z" fill="#263238"/>
<path d="M47.7328 0.0998138C46.7357 -0.0550938 45.6501 -0.101956 44.3978 0.50726C43.1455 1.11648 42.8682 1.93007 42.8682 1.93007C42.8682 1.93007 44.1465 2.27763 45.1866 1.97953C46.2267 1.68143 47.7328 0.0998138 47.7328 0.0998138Z" fill="#10B981"/>
<path opacity="0.4" d="M47.7328 0.0998138C46.7357 -0.0550938 45.6501 -0.101956 44.3978 0.50726C43.1455 1.11648 42.8682 1.93007 42.8682 1.93007C42.8682 1.93007 44.1465 2.27763 45.1866 1.97953C46.2267 1.68143 47.7328 0.0998138 47.7328 0.0998138Z" fill="white"/>
<path d="M43.5675 2.31537C43.5675 2.31537 42.927 2.09017 42.8685 1.92485C43.3765 1.91863 43.8795 1.82392 44.355 1.64497C45.1869 1.34297 46.0473 0.429141 46.9872 0.172698C47.927 -0.0837461 48.3228 0.343226 48.3228 0.343226C48.1993 0.744415 48.0205 1.12646 47.7917 1.47835C47.7917 1.47835 47.5014 2.14484 46.4001 2.42602C45.2988 2.70719 43.5675 2.31537 43.5675 2.31537Z" fill="#10B981"/>
<path d="M43.5679 2.31542L43.62 2.49115C43.6388 2.5493 43.6708 2.60233 43.7135 2.64612C43.7562 2.68992 43.8083 2.7233 43.866 2.74369C44.7092 2.97105 45.6003 2.94981 46.4317 2.68251C47.2128 2.44429 47.5551 2.20216 47.6944 2.03164C47.7453 1.98442 47.7838 1.92541 47.8065 1.8598C47.8292 1.79419 47.8354 1.72401 47.8246 1.65543L47.7986 1.4823C47.7986 1.4823 47.559 1.84419 46.2937 2.24773C45.0284 2.65127 43.5679 2.31542 43.5679 2.31542Z" fill="#37474F"/>
<path d="M47.0828 0.538452C47.075 0.729809 46.8694 1.12033 46.596 0.990158V1.48091C46.596 1.78813 46.7769 1.87144 47.0672 1.77381C47.2123 1.72647 47.3391 1.63509 47.4298 1.51237C47.5206 1.38965 47.5708 1.2417 47.5736 1.08909C47.5736 0.995364 47.5736 0.666023 47.5736 0.666023C47.3588 0.981045 47.0828 0.613953 47.0828 0.538452Z" fill="#FAFAFA"/>
<path d="M26.9057 5.86919L11.6414 14.682C11.4774 14.789 11.3409 14.9332 11.243 15.1028C11.145 15.2724 11.0884 15.4627 11.0778 15.6583V32.6734C11.0882 32.869 11.1448 33.0594 11.2427 33.229C11.3406 33.3987 11.4773 33.5428 11.6414 33.6497L26.9057 42.4638C27.0803 42.5524 27.2735 42.5986 27.4693 42.5986C27.6652 42.5986 27.8583 42.5524 28.033 42.4638L43.3076 33.6497C43.4718 33.5428 43.6084 33.3987 43.7064 33.229C43.8043 33.0594 43.8608 32.869 43.8713 32.6734V15.6583C43.8606 15.4627 43.804 15.2724 43.7061 15.1028C43.6082 14.9332 43.4717 14.789 43.3076 14.682L28.0421 5.86919C27.8662 5.77906 27.6715 5.73206 27.4739 5.73206C27.2763 5.73206 27.0815 5.77906 26.9057 5.86919Z" fill="#37474F"/>
<path d="M27.4744 24.281V42.5978C27.2785 42.6032 27.0844 42.5584 26.9107 42.4677L11.6452 33.6549C11.4811 33.5478 11.3446 33.4036 11.2467 33.234C11.1488 33.0644 11.0922 32.8741 11.0815 32.6785V15.6582C11.092 15.4741 11.1429 15.2945 11.2304 15.1321C11.3178 14.9697 11.4399 14.8285 11.5879 14.7184C11.3353 14.8993 11.3549 15.1649 11.6452 15.3328L26.9055 24.1456C27.0803 24.2389 27.2763 24.2855 27.4744 24.281Z" fill="#263238"/>
<path d="M43.3074 14.6821L28.0418 5.86931C27.8671 5.78068 27.674 5.7345 27.4781 5.7345C27.2823 5.7345 27.0892 5.78068 26.9145 5.86931L11.6502 14.6821C11.3391 14.8618 11.3391 15.1533 11.6502 15.333L26.9054 24.1458C27.0801 24.2344 27.2732 24.2806 27.469 24.2806C27.6649 24.2806 27.858 24.2344 28.0327 24.1458L43.3074 15.333C43.6133 15.1533 43.6133 14.8618 43.3074 14.6821Z" fill="#455A64"/>
<path d="M28.8128 24.9188L42.5266 17.0016C42.6815 16.9118 42.8078 16.9847 42.8078 17.1643V32.3947C42.8024 32.4924 42.7742 32.5875 42.7254 32.6723C42.6765 32.7571 42.6085 32.8292 42.5266 32.8829L28.8128 40.7936C28.6579 40.8834 28.5316 40.8118 28.5316 40.6308V25.407C28.5367 25.3092 28.5648 25.214 28.6136 25.1292C28.6625 25.0443 28.7307 24.9722 28.8128 24.9188Z" fill="#263238"/>
<path d="M28.7918 25.4068C28.7971 25.3552 28.8134 25.3053 28.8394 25.2605C28.8654 25.2156 28.9007 25.1767 28.9428 25.1465L42.546 17.2917V32.392C42.5404 32.4435 42.5241 32.4933 42.4981 32.5382C42.4721 32.583 42.437 32.6219 42.395 32.6523L28.7918 40.5058V25.4068Z" fill="#37474F"/>
<path d="M28.5793 26.274L31.5564 24.5517C31.5863 24.5351 31.6199 24.5264 31.6541 24.5264C31.6882 24.5264 31.7218 24.5351 31.7517 24.5517L32.2333 24.8303L29.1091 26.5747L28.5793 26.274Z" fill="#455A64"/>
<path d="M32.2817 24.9422V26.9937C32.2783 27.0522 32.2611 27.109 32.2318 27.1596C32.2024 27.2103 32.1615 27.2533 32.1125 27.2853L29.1081 29.0205V26.5785L32.1125 24.8445C32.2049 24.7912 32.2817 24.8341 32.2817 24.9422Z" fill="#263238"/>
<path d="M28.5793 26.2739L29.1078 26.5785V29.0219L28.5793 28.716V26.2739Z" fill="black"/>
<path d="M30.3818 26.7779C30.5276 26.6933 30.6421 26.761 30.6421 26.9302C30.6374 27.0216 30.6115 27.1106 30.5663 27.1901C30.5211 27.2697 30.4579 27.3376 30.3818 27.3884C30.236 27.4717 30.1214 27.404 30.1214 27.2348C30.1259 27.1435 30.1518 27.0546 30.197 26.9752C30.2423 26.8959 30.3056 26.8283 30.3818 26.7779Z" fill="#455A64"/>
<path d="M31.4393 26.1673C31.5851 26.0827 31.6996 26.1504 31.6996 26.3196C31.695 26.411 31.669 26.5 31.6238 26.5796C31.5786 26.6591 31.5154 26.727 31.4393 26.7778C31.2922 26.8611 31.1789 26.7934 31.1789 26.6242C31.1836 26.533 31.2096 26.4442 31.2548 26.3648C31.3 26.2855 31.3632 26.2178 31.4393 26.1673Z" fill="#455A64"/>
<path d="M28.5309 26.3024L27.7993 26.7254C27.7004 26.7826 27.5882 26.8126 27.4739 26.8126C27.3597 26.8126 27.2474 26.7826 27.1485 26.7254L26.6135 26.4169C26.5838 26.3997 26.5501 26.3906 26.5158 26.3906C26.4815 26.3906 26.4478 26.3997 26.4182 26.4169L25.9391 26.6929L27.1485 27.336C27.2474 27.3931 27.3597 27.4232 27.4739 27.4232C27.5882 27.4232 27.7004 27.3931 27.7993 27.336L29.0594 26.6083L28.5309 26.3024Z" fill="#455A64"/>
<path d="M26.0559 29.1482L27.148 29.7796C27.247 29.8367 27.3592 29.8668 27.4735 29.8668C27.5877 29.8668 27.6999 29.8367 27.7989 29.7796L29.059 29.0519V26.6085L27.7989 27.3362C27.6999 27.3933 27.5877 27.4234 27.4735 27.4234C27.3592 27.4234 27.247 27.3933 27.148 27.3362L26.0559 26.7062C25.9634 26.6528 25.8866 26.6957 25.8866 26.8038V28.8553C25.8899 28.914 25.9069 28.9711 25.9363 29.022C25.9657 29.0728 26.0067 29.1161 26.0559 29.1482Z" fill="#37474F"/>
<path d="M27.4777 29.8655C27.5911 29.8657 27.7026 29.8356 27.8005 29.7783L29.0606 29.0506V26.6085L27.8005 27.3362C27.7026 27.3935 27.5911 27.4236 27.4777 27.4234V29.8655Z" fill="#263238"/>
<path d="M28.5793 36.658L31.5564 34.9397C31.5861 34.9224 31.6197 34.9133 31.6541 34.9133C31.6884 34.9133 31.722 34.9224 31.7517 34.9397L32.2333 35.2183L29.1091 36.9626L28.5793 36.658Z" fill="#455A64"/>
<path d="M32.2817 35.3222V37.3738C32.2785 37.4324 32.2614 37.4895 32.232 37.5404C32.2026 37.5913 32.1617 37.6345 32.1125 37.6667L29.1081 39.4006V36.9585L32.1125 35.2259C32.2049 35.1712 32.2817 35.2142 32.2817 35.3222Z" fill="#263238"/>
<path d="M28.5793 36.6542L29.1078 36.9588V39.4009L28.5793 39.0962V36.6542Z" fill="black"/>
<path d="M30.3818 37.1564C30.5276 37.0718 30.6421 37.1408 30.6421 37.3087C30.6377 37.4002 30.6119 37.4893 30.5667 37.5689C30.5214 37.6485 30.4581 37.7164 30.3818 37.7669C30.236 37.8516 30.1214 37.7839 30.1214 37.6146C30.1261 37.5233 30.1521 37.4342 30.1973 37.3547C30.2425 37.2751 30.3057 37.2072 30.3818 37.1564Z" fill="#455A64"/>
<path d="M31.4393 36.5461C31.5851 36.4615 31.6996 36.5305 31.6996 36.6984C31.6952 36.7898 31.6693 36.8789 31.624 36.9585C31.5788 37.0381 31.5155 37.1059 31.4393 37.1566C31.2922 37.2412 31.1789 37.1735 31.1789 37.0043C31.1835 36.9129 31.2095 36.8238 31.2547 36.7443C31.2999 36.6647 31.3631 36.5968 31.4393 36.5461Z" fill="#455A64"/>
<path d="M28.5309 36.6826L27.7993 37.1057C27.7004 37.1628 27.5882 37.1929 27.4739 37.1929C27.3597 37.1929 27.2474 37.1628 27.1485 37.1057L26.6135 36.7972C26.5838 36.7799 26.5501 36.7708 26.5158 36.7708C26.4815 36.7708 26.4478 36.7799 26.4182 36.7972L25.9391 37.0731L27.1485 37.7162C27.2474 37.7733 27.3597 37.8034 27.4739 37.8034C27.5882 37.8034 27.7004 37.7733 27.7993 37.7162L29.0594 36.9885L28.5309 36.6826Z" fill="#455A64"/>
<path d="M26.0559 39.5283L27.148 40.1584C27.247 40.2155 27.3592 40.2456 27.4735 40.2456C27.5877 40.2456 27.6999 40.2155 27.7989 40.1584L29.059 39.4307V36.9886L27.7989 37.7163C27.6999 37.7734 27.5877 37.8035 27.4735 37.8035C27.3592 37.8035 27.247 37.7734 27.148 37.7163L26.0559 37.0863C25.9634 37.0316 25.8866 37.0759 25.8866 37.1839V39.2355C25.8901 39.2941 25.9072 39.3511 25.9366 39.4019C25.966 39.4528 26.0068 39.4961 26.0559 39.5283Z" fill="#37474F"/>
<path d="M27.4777 40.2456C27.591 40.2452 27.7023 40.2151 27.8005 40.1584L29.0606 39.4307V36.9886L27.8005 37.7163C27.7021 37.7725 27.591 37.8025 27.4777 37.8035V40.2456Z" fill="#263238"/>
<path d="M37.8043 26.7556L37.8928 26.602L37.3552 26.2908H37.3448C36.9152 26.0513 36.3268 26.0891 35.6759 26.4653C34.3625 27.2242 33.2963 29.0688 33.2963 30.5866C33.2963 31.3312 33.5567 31.8571 33.9706 32.1122L33.9863 32.1213L34.0019 32.1305L34.5395 32.4416L34.6293 32.2841C34.9985 32.2672 35.3572 32.1556 35.6707 31.9599C36.9855 31.201 38.0503 29.3564 38.0503 27.8386C38.0635 27.4624 37.9787 27.0892 37.8043 26.7556Z" fill="#263238"/>
<path d="M37.9657 30.5294C38.8949 28.9199 38.8951 27.1804 37.9662 26.6441C37.0372 26.1078 35.5309 26.9777 34.6017 28.5872C33.6725 30.1966 33.6722 31.9361 34.6012 32.4724C35.5301 33.0088 37.0365 32.1388 37.9657 30.5294Z" fill="#263238"/>
<path d="M37.8797 30.4807C38.809 28.8712 38.8092 27.1317 37.8802 26.5954C36.9513 26.059 35.445 26.929 34.5157 28.5385C33.5865 30.1479 33.5863 31.8874 34.5152 32.4237C35.4442 32.9601 36.9505 32.0901 37.8797 30.4807Z" fill="#37474F"/>
<path d="M36.442 27.6762C36.3886 27.6957 36.3561 27.6514 36.3691 27.5772L36.4784 26.9446C36.484 26.9091 36.4977 26.8753 36.5185 26.8459C36.5392 26.8166 36.5665 26.7924 36.5982 26.7754C36.6503 26.7558 36.6841 26.8001 36.6711 26.8743L36.5617 27.5056C36.5564 27.5414 36.5428 27.5754 36.522 27.605C36.5012 27.6346 36.4738 27.659 36.442 27.6762Z" fill="#10B981"/>
<path d="M35.5456 28.3594C35.5395 28.3626 35.5328 28.3644 35.5259 28.3648C35.5191 28.3652 35.5122 28.3642 35.5058 28.3617C35.4994 28.3592 35.4936 28.3554 35.4888 28.3505C35.4839 28.3456 35.4802 28.3398 35.4779 28.3333L35.3008 27.9194C35.2931 27.8847 35.2939 27.8487 35.3032 27.8145C35.3125 27.7802 35.33 27.7488 35.3542 27.7228C35.405 27.6629 35.4622 27.6551 35.4844 27.7033L35.6614 28.1172C35.6691 28.1517 35.6683 28.1875 35.659 28.2215C35.6497 28.2555 35.6322 28.2868 35.608 28.3125C35.5922 28.3338 35.5705 28.3501 35.5456 28.3594Z" fill="#10B981"/>
<path d="M34.8609 29.5373C34.8514 29.5391 34.8417 29.5391 34.8322 29.5373L34.4417 29.4996C34.3949 29.4996 34.3805 29.4293 34.4092 29.3525C34.4378 29.2757 34.499 29.2223 34.5393 29.2223L34.9299 29.26C34.9754 29.26 34.991 29.3303 34.9624 29.4071C34.955 29.4345 34.9422 29.4601 34.9247 29.4824C34.9073 29.5048 34.8856 29.5234 34.8609 29.5373Z" fill="#10B981"/>
<path d="M34.1859 31.1138C34.1442 31.1294 34.113 31.1072 34.1104 31.0552C34.1103 31.0183 34.1185 30.9819 34.1342 30.9486C34.15 30.9153 34.173 30.8859 34.2015 30.8625L34.6636 30.5097C34.7183 30.4681 34.7664 30.4863 34.7704 30.5514C34.7701 30.5882 34.7618 30.6245 34.7461 30.6578C34.7304 30.6911 34.7075 30.7205 34.6792 30.7441L34.2158 31.0968C34.2069 31.1041 34.1967 31.1099 34.1859 31.1138Z" fill="#10B981"/>
<path d="M34.6369 32.1709C34.629 32.1754 34.62 32.1778 34.6109 32.1778C34.6017 32.1778 34.5927 32.1754 34.5848 32.1709C34.5497 32.1435 34.5549 32.0628 34.5965 31.9912L34.9506 31.382C34.9923 31.3104 35.0548 31.2753 35.0899 31.3026C35.1251 31.3299 35.1198 31.4119 35.0782 31.4835L34.7254 32.0915C34.705 32.1266 34.674 32.1544 34.6369 32.1709Z" fill="#10B981"/>
<path d="M35.6483 32.2659C35.5949 32.2854 35.5623 32.2412 35.5754 32.167L35.6847 31.5356C35.69 31.5 35.7035 31.4661 35.724 31.4365C35.7446 31.4069 35.7716 31.3825 35.8032 31.3651C35.8565 31.3456 35.8891 31.3898 35.8761 31.464L35.7667 32.0967C35.7611 32.132 35.7475 32.1656 35.727 32.195C35.7065 32.2243 35.6796 32.2485 35.6483 32.2659Z" fill="#10B981"/>
<path d="M36.831 31.365C36.8249 31.3682 36.8181 31.37 36.8112 31.3703C36.8043 31.3706 36.7974 31.3694 36.7909 31.3668C36.7845 31.3642 36.7787 31.3603 36.7739 31.3553C36.7692 31.3502 36.7656 31.3442 36.7633 31.3376L36.5863 30.9302C36.5786 30.8958 36.5794 30.86 36.5887 30.8259C36.598 30.7919 36.6155 30.7607 36.6397 30.7349C36.6904 30.6751 36.749 30.6659 36.7699 30.7154L36.9456 31.1281C36.9533 31.1627 36.9525 31.1987 36.9432 31.2329C36.9339 31.2672 36.9164 31.2987 36.8922 31.3246C36.8752 31.3426 36.8543 31.3564 36.831 31.365Z" fill="#10B981"/>
<path d="M37.7338 29.8109C37.7243 29.8128 37.7146 29.8128 37.7051 29.8109L37.3146 29.7731C37.269 29.7731 37.2547 29.7028 37.2834 29.626C37.312 29.5492 37.3719 29.4958 37.4135 29.4958L37.8041 29.5336C37.8509 29.5336 37.8652 29.6039 37.8366 29.6807C37.8205 29.7358 37.7836 29.7825 37.7338 29.8109Z" fill="#10B981"/>
<path d="M37.5506 28.5494C37.5102 28.565 37.479 28.5416 37.4751 28.4895C37.4753 28.4529 37.4836 28.4167 37.4993 28.3837C37.5151 28.3506 37.5379 28.3214 37.5662 28.2981L38.0296 27.944C38.0843 27.9024 38.1311 27.9219 38.1363 27.987C38.1354 28.0235 38.1268 28.0594 38.1111 28.0924C38.0954 28.1253 38.073 28.1546 38.0452 28.1784L37.5805 28.5324C37.5714 28.5395 37.5613 28.5452 37.5506 28.5494Z" fill="#10B981"/>
<path d="M37.2079 27.7486C37.2 27.7532 37.191 27.7556 37.1818 27.7556C37.1727 27.7556 37.1637 27.7532 37.1558 27.7486C37.1207 27.7213 37.1259 27.6406 37.1675 27.569L37.5203 26.9598C37.5619 26.8882 37.6244 26.853 37.6609 26.8804C37.6973 26.9077 37.6908 26.9897 37.6492 27.0613L37.2951 27.6692C37.2751 27.7042 37.2446 27.732 37.2079 27.7486Z" fill="#10B981"/>
<path d="M37.3526 28.0978C37.1261 27.762 36.6939 27.6943 36.1979 27.9807C35.4689 28.4024 34.8766 29.4282 34.8766 30.2704C34.8766 30.8731 35.1787 31.2168 35.6173 31.2129L36.634 31.2363L37.9136 28.8932L37.3526 28.0978Z" fill="#263238"/>
<path d="M37.0589 28.8278C36.7723 29.016 36.5341 29.269 36.3636 29.5664C36.193 29.8638 36.095 30.1972 36.0774 30.5396C36.0774 31.1683 36.5187 31.4222 37.0628 31.1085C37.3496 30.9214 37.5882 30.6694 37.7594 30.3729C37.9307 30.0764 38.0296 29.7437 38.0482 29.4019C38.0482 28.7692 37.6069 28.5141 37.0589 28.8278Z" fill="#455A64"/>
<path d="M41.7638 24.5686C41.7725 24.355 41.7227 24.1432 41.6197 23.956C41.5166 23.7687 41.3644 23.6133 41.1793 23.5063L39.4168 22.4897H39.409C39.3249 22.4529 39.2327 22.4386 39.1414 22.4482C39.0501 22.4578 38.9629 22.4909 38.8883 22.5444C38.6698 22.687 38.4883 22.8793 38.3584 23.1055C38.2286 23.3318 38.1541 23.5856 38.1411 23.8461C38.1411 24.1065 38.2452 24.2913 38.4105 24.3538H38.4209L40.1132 24.8901C40.2964 24.9482 40.4576 25.0608 40.5751 25.213C40.6925 25.3651 40.7608 25.5495 40.7706 25.7414L40.9646 29.3564C40.9696 29.4339 41.004 29.5066 41.0607 29.5597C41.1174 29.6128 41.1921 29.6424 41.2698 29.6424C41.3475 29.6424 41.4223 29.6128 41.479 29.5597C41.5356 29.5066 41.57 29.4339 41.5751 29.3564L41.7638 24.5686Z" fill="#263238"/>
<path d="M42.2786 8.1925C42.2786 8.1925 40.0851 11.456 39.7168 12.2592C39.5931 12.5312 39.4863 12.6744 39.9315 13.1326C40.3767 13.5908 42.0143 14.9551 42.1744 15.1594C42.3346 15.3638 42.3281 15.6801 42.4517 15.96C42.5754 16.2399 42.4335 16.9884 42.5454 17.4492C42.6574 17.91 43.8654 17.2331 43.8654 16.055C43.8654 15.3938 43.8875 15.0136 43.484 14.7025C43.0805 14.3914 41.4012 12.4232 41.4012 12.4232L42.9269 10.123L42.2786 8.1925Z" fill="#FFA8A7"/>
<path d="M42.7306 10.7779C43.2513 10.0919 44.1065 9.07519 44.1065 9.07519C44.5048 8.51934 44.829 7.08092 44.1989 6.60187C43.7719 6.53809 43.3684 6.5498 42.767 7.297C42.1656 8.04421 41.5759 8.86951 40.9511 9.78724C40.3262 10.705 39.4944 12.0406 39.4944 12.5209C39.4944 13.0012 40.4629 13.8031 41.3364 14.398C41.3971 14.1648 41.5291 13.9563 41.7139 13.8016C41.8987 13.6469 42.1271 13.5537 42.3674 13.535L41.5473 12.3881C41.5473 12.3881 42.2112 11.4639 42.7306 10.7779Z" fill="#10B981"/>
<path opacity="0.05" d="M42.7306 10.7779C43.2513 10.0919 44.1065 9.07519 44.1065 9.07519C44.5048 8.51934 44.829 7.08092 44.1989 6.60187C43.7719 6.53809 43.3684 6.5498 42.767 7.297C42.1656 8.04421 41.5759 8.86951 40.9511 9.78724C40.3262 10.705 39.4944 12.0406 39.4944 12.5209C39.4944 13.0012 40.4629 13.8031 41.3364 14.398C41.3971 14.1648 41.5291 13.9563 41.7139 13.8016C41.8987 13.6469 42.1271 13.5537 42.3674 13.535L41.5473 12.3881C41.5473 12.3881 42.2112 11.4639 42.7306 10.7779Z" fill="black"/>
<path d="M42.7861 7.60819C42.9032 7.62441 43.0159 7.664 43.1174 7.7246C43.219 7.7852 43.3073 7.86558 43.3771 7.96097L43.3993 7.92582C43.4111 7.90824 43.4165 7.88714 43.4146 7.86605C43.4127 7.84496 43.4036 7.82516 43.3888 7.80996C43.2623 7.66768 43.095 7.56771 42.9098 7.52358C42.8921 7.52023 42.8737 7.52214 42.8571 7.52908C42.8404 7.53602 42.8262 7.54768 42.8161 7.56263L42.7861 7.60819Z" fill="#37474F"/>
<path d="M43.0637 8.30981C42.9452 8.49076 42.7396 8.57016 42.6029 8.47644C42.4662 8.38271 42.4519 8.16922 42.5703 7.98698C42.6888 7.80474 42.8958 7.72663 43.0312 7.82036C43.1665 7.91408 43.177 8.12887 43.0637 8.30981Z" fill="#37474F"/>
<path d="M25.7508 40.7976L11.2207 32.4092L3.95569 36.6034L18.4858 44.9918L25.7508 40.7976Z" fill="#10B981"/>
<path opacity="0.15" d="M4.71957 36.6034L18.4855 44.544L24.9864 40.7911L11.2205 32.8505L4.71957 36.6034ZM5.10229 36.6034L11.2205 33.0705L24.6037 40.7963L18.4855 44.3292L5.10229 36.6034Z" fill="black"/>
<g opacity="0.15">
<path d="M15.1248 40.8718C14.1342 40.8718 13.1188 40.644 12.3352 40.191C11.5723 39.751 11.1362 39.1496 11.1362 38.5443C11.1362 37.9871 11.4942 37.4743 12.1438 37.0981C13.5328 36.2975 15.8772 36.347 17.3716 37.2087C18.1331 37.6487 18.5705 38.2501 18.5705 38.8567C18.5705 39.4126 18.2125 39.9267 17.563 40.3016C16.9134 40.6766 16.0243 40.8718 15.1248 40.8718ZM14.582 36.6581C13.7059 36.6581 12.8519 36.8416 12.2089 37.2126C11.601 37.5641 11.2664 38.0366 11.2664 38.5456C11.2664 39.104 11.6791 39.6638 12.4002 40.0804C13.8582 40.9213 16.1454 40.972 17.4979 40.191C18.1058 39.8395 18.4403 39.3657 18.4403 38.858C18.4403 38.2983 18.0277 37.7398 17.3065 37.3233C16.5411 36.8807 15.5479 36.6581 14.582 36.6581Z" fill="black"/>
</g>
<g opacity="0.1">
<path d="M15.1239 40.4032C14.1828 40.4032 13.252 40.178 12.5699 39.7835C11.9568 39.4295 11.6053 38.9778 11.6053 38.5443C11.6053 38.1629 11.88 37.7945 12.3786 37.5029C12.9474 37.1748 13.7298 36.9939 14.5811 36.9939C15.5223 36.9939 16.453 37.2204 17.1351 37.6135C17.7482 37.9676 18.0997 38.4193 18.0997 38.8541C18.0997 39.2355 17.8251 39.6039 17.3265 39.8955C16.7576 40.2222 15.9701 40.4032 15.1239 40.4032Z" fill="black"/>
</g>
<path opacity="0.1" d="M17.7201 43.557L13.7263 41.236L14.0465 41.2777C14.3323 41.3142 14.6202 41.3325 14.9083 41.3323C15.8795 41.3148 16.8323 41.0639 17.6862 40.6008C18.3931 40.1933 19.1064 39.463 19.1064 38.7523C19.1049 38.5044 19.0498 38.2597 18.945 38.035L18.8591 37.8489L23.2329 40.3886L22.7539 40.6659C22.6732 40.7127 22.6237 40.77 22.6237 40.8299C22.629 40.8663 22.6438 40.9006 22.6667 40.9294C22.6896 40.9582 22.7197 40.9805 22.7539 40.9939L23.2342 41.2712L19.2496 43.557L18.8343 43.3136C18.7257 43.2591 18.6058 43.2307 18.4842 43.2307C18.3626 43.2307 18.2427 43.2591 18.134 43.3136L17.7201 43.557Z" fill="black"/>
<path d="M19.4858 41.9314C19.2534 41.9349 19.024 41.8789 18.8193 41.7687C18.7365 41.7309 18.6651 41.6721 18.6121 41.5981C18.5591 41.5241 18.5264 41.4375 18.5173 41.3469C18.5227 41.2665 18.5498 41.1891 18.5956 41.1229C18.6415 41.0567 18.7044 41.0041 18.7777 40.9707C18.9738 40.8765 19.1892 40.8296 19.4068 40.8339C19.6243 40.8382 19.8377 40.8935 20.0299 40.9954C20.1129 41.0333 20.1845 41.0923 20.2375 41.1666C20.2905 41.2408 20.3231 41.3277 20.332 41.4185C20.3267 41.4989 20.2996 41.5763 20.2538 41.6426C20.2079 41.7088 20.145 41.7614 20.0716 41.7947C19.8911 41.8891 19.6895 41.9362 19.4858 41.9314Z" fill="#10B981"/>
<path opacity="0.1" d="M10.8569 39.5504L6.49215 37.0354L6.97119 36.7595C7.00741 36.7497 7.0394 36.7283 7.06222 36.6985C7.08504 36.6688 7.09741 36.6323 7.09741 36.5948C7.09741 36.5573 7.08504 36.5208 7.06222 36.4911C7.0394 36.4613 7.00741 36.4399 6.97119 36.4301L6.49084 36.1529L10.469 33.8878L10.8829 34.1273C10.9914 34.1816 11.1111 34.2099 11.2324 34.2099C11.3538 34.2099 11.4735 34.1816 11.582 34.1273L11.9972 33.8878L15.9897 36.1854L15.6668 36.1437C15.3806 36.1071 15.0923 36.0889 14.8038 36.0891C13.8574 36.0891 12.7275 36.3741 11.9907 36.7998C11.0717 37.3309 10.6057 37.8998 10.6057 38.4921C10.6086 38.791 10.6655 39.0869 10.7736 39.3656L10.8569 39.5504Z" fill="black"/>
<path d="M10.3359 36.6735C10.103 36.6769 9.87323 36.6209 9.66806 36.5108C9.58531 36.4728 9.514 36.4137 9.46124 36.3394C9.40847 36.2652 9.3761 36.1784 9.36736 36.0878C9.37274 36.0076 9.3998 35.9303 9.44565 35.8643C9.49151 35.7983 9.55443 35.7459 9.6277 35.7129C9.82371 35.6183 10.0392 35.5713 10.2568 35.5756C10.4744 35.5799 10.6879 35.6354 10.88 35.7376C10.9627 35.7757 11.034 35.8348 11.0868 35.909C11.1396 35.9832 11.1719 36.07 11.1807 36.1607C11.1752 36.2408 11.148 36.318 11.1022 36.384C11.0564 36.45 10.9935 36.5024 10.9203 36.5356C10.7405 36.6308 10.5393 36.6783 10.3359 36.6735Z" fill="#10B981"/>
<path d="M25.7513 40.7975V42.5627L18.4863 46.7569V44.9917L25.7513 40.7975Z" fill="#10B981"/>
<g opacity="0.4">
<path d="M25.7525 40.7975V42.5627L18.4875 46.7569V44.9917L25.7525 40.7975Z" fill="white"/>
</g>
<path d="M18.4863 45.3847L20.78 44.109L18.4863 45.4915V45.3847Z" fill="#10B981"/>
<path d="M25.7507 41.6361L24.9853 42.1217L25.7507 41.7246V41.6361Z" fill="#10B981"/>
<path d="M25.7518 42.0563L21.9286 44.3291L25.7518 42.1864V42.0563Z" fill="#10B981"/>
<path d="M18.4863 45.8053L22.3095 43.6665L18.4863 45.9446V45.8053Z" fill="#10B981"/>
<path d="M18.4858 46.757L3.95569 38.3686V36.6034L18.4858 44.9918V46.757Z" fill="#10B981"/>
<g opacity="0.15">
<path d="M18.4858 46.757L3.95569 38.3686V36.6034L18.4858 44.9918V46.757Z" fill="black"/>
</g>
<g style="mix-blend-mode:multiply" opacity="0.3">
<path d="M18.4866 45.385L17.7212 44.9918L18.4866 45.4917V45.385Z" fill="black"/>
</g>
<g style="mix-blend-mode:multiply" opacity="0.3">
<path d="M18.4871 45.8053L14.6418 43.6561L18.4871 45.9446V45.8053Z" fill="black"/>
</g>
<g style="mix-blend-mode:multiply" opacity="0.3">
<path d="M3.95569 37.434L6.63208 39.0312L3.95569 37.5381V37.434Z" fill="black"/>
</g>
<g style="mix-blend-mode:multiply" opacity="0.3">
<path d="M3.95569 37.8778L5.48524 38.8112L3.95569 37.9767V37.8778Z" fill="black"/>
</g>
<path d="M19.7515 37.0409L12.234 41.3822L9.94028 40.0583L17.4579 35.7157L19.7515 37.0409Z" fill="#FAFAFA"/>
<path d="M9.94028 40.0582V41.9796L12.234 43.3035V41.3821L9.94028 40.0582Z" fill="#EBEBEB"/>
<path d="M12.2331 43.3033L12.3672 43.2252L12.2331 43.1484V43.3033Z" fill="#E0E0E0"/>
<path d="M19.7511 37.0409V37.3338L19.4972 37.1867L19.7511 37.0409Z" fill="#E0E0E0"/>
<g style="mix-blend-mode:multiply" opacity="0.3">
<path d="M12.3684 43.2242V41.4603L12.2343 41.3822V43.1474L12.3684 43.2242Z" fill="black"/>
</g>
<g style="mix-blend-mode:multiply" opacity="0.2">
<path d="M12.3684 41.4603L19.6334 37.2648L19.4981 37.1866L12.2343 41.3822L12.3684 41.4603Z" fill="black"/>
</g>
<path d="M19.5053 36.8976L11.9851 41.2389L11.7951 41.1282L19.3127 36.7882L19.5053 36.8976Z" fill="#455A64"/>
<path d="M17.8975 35.9708L10.3786 40.3108L10.1885 40.2015L17.7061 35.8615L17.8975 35.9708Z" fill="#455A64"/>
<path d="M11.9851 41.2389V43.1603L11.7951 43.0497V41.1283L11.9851 41.2389Z" fill="#263238"/>
<path d="M10.3787 40.3108V42.2321L10.1873 42.1215L10.1886 40.2014L10.3787 40.3108Z" fill="#263238"/>
<path d="M25.7509 38.7174L11.2208 30.329L3.95576 34.5232L18.4858 42.9116L25.7509 38.7174Z" fill="#10B981"/>
<path opacity="0.15" d="M4.71957 34.5232L18.4855 42.4638L24.9864 38.7109L11.2205 30.7703L4.71957 34.5232ZM5.10229 34.5232L11.2205 30.9916L24.6037 38.7174L18.4855 42.2503L5.10229 34.5232Z" fill="black"/>
<g opacity="0.15">
<path d="M15.1248 38.793C14.1342 38.793 13.1188 38.5638 12.3352 38.1121C11.5723 37.6722 11.1362 37.0707 11.1362 36.4641C11.1362 35.9083 11.4942 35.3941 12.1438 35.0192C13.5328 34.2173 15.8772 34.2668 17.3716 35.1298C18.1331 35.5698 18.5705 36.1712 18.5705 36.7779C18.5705 37.3337 18.2125 37.8466 17.563 38.2228C16.9134 38.599 16.0243 38.793 15.1248 38.793ZM14.582 34.5753C13.7059 34.5753 12.8519 34.7588 12.2089 35.1311C11.601 35.4813 11.2664 35.9552 11.2664 36.4628C11.2664 37.0226 11.6791 37.5823 12.4002 37.9976C13.8582 38.8398 16.1454 38.8893 17.4979 38.1082C18.1058 37.7568 18.4403 37.2842 18.4403 36.7766C18.4403 36.2168 18.0277 35.6571 17.3065 35.2405C16.5411 34.8005 15.5479 34.5753 14.582 34.5753Z" fill="black"/>
</g>
<g opacity="0.1">
<path d="M15.1239 38.3245C14.1828 38.3245 13.252 38.098 12.5699 37.7049C11.9568 37.3508 11.6053 36.8991 11.6053 36.4643C11.6053 36.0829 11.88 35.7145 12.3786 35.4229C12.9474 35.0949 13.7298 34.9139 14.5811 34.9139C15.5223 34.9139 16.453 35.1391 17.1351 35.5336C17.7482 35.8876 18.0997 36.3394 18.0997 36.7741C18.0997 37.1555 17.8251 37.5239 17.3265 37.8155C16.7576 38.1436 15.9701 38.3245 15.1239 38.3245Z" fill="black"/>
</g>
<path opacity="0.1" d="M17.7201 41.4743L13.7263 39.1546L14.0465 39.1962C14.3323 39.2328 14.6202 39.251 14.9083 39.2509C15.8795 39.2334 16.8323 38.9825 17.6862 38.5193C18.3931 38.1119 19.1064 37.3816 19.1064 36.6696C19.1048 36.4221 19.0497 36.1779 18.945 35.9536L18.8591 35.7675L23.2329 38.3059L22.7539 38.5831C22.7198 38.5968 22.6899 38.6191 22.667 38.6478C22.6442 38.6766 22.6293 38.7108 22.6237 38.7471C22.6288 38.7838 22.6435 38.8184 22.6664 38.8475C22.6893 38.8765 22.7195 38.899 22.7539 38.9125L23.2342 39.1897L19.2496 41.4743L18.8343 41.2348C18.7257 41.1803 18.6058 41.1519 18.4842 41.1519C18.3626 41.1519 18.2427 41.1803 18.134 41.2348L17.7201 41.4743Z" fill="black"/>
<path d="M19.4858 39.8526C19.2534 39.8562 19.024 39.8001 18.8193 39.6899C18.7363 39.652 18.6648 39.593 18.6118 39.5188C18.5588 39.4445 18.5262 39.3576 18.5173 39.2668C18.523 39.1867 18.5501 39.1096 18.596 39.0436C18.6418 38.9776 18.7046 38.9252 18.7777 38.8919C18.9737 38.7974 19.1892 38.7504 19.4068 38.7547C19.6243 38.759 19.8378 38.8145 20.0299 38.9167C20.1129 38.9546 20.1845 39.0136 20.2375 39.0878C20.2905 39.1621 20.3231 39.2489 20.332 39.3397C20.3266 39.4199 20.2995 39.4972 20.2537 39.5632C20.2078 39.6292 20.1449 39.6816 20.0716 39.7146C19.8914 39.8101 19.6897 39.8576 19.4858 39.8526Z" fill="#10B981"/>
<path opacity="0.1" d="M10.8569 37.4715L6.49215 34.9565L6.97119 34.6793C7.00544 34.6659 7.03552 34.6436 7.05839 34.6148C7.08125 34.586 7.09608 34.5516 7.10136 34.5152C7.10136 34.4554 7.0571 34.3981 6.97119 34.3512L6.49084 34.0727L10.469 31.8076L10.8829 32.0484C10.9916 32.1021 11.1112 32.1299 11.2324 32.1299C11.3537 32.1299 11.4733 32.1021 11.582 32.0484L11.9972 31.8089L15.9897 34.1078L15.6668 34.0661C15.3806 34.0291 15.0924 34.0104 14.8038 34.0102C13.8574 34.0102 12.7275 34.2966 11.9907 34.7222C11.0717 35.2533 10.6057 35.8222 10.6057 36.4145C10.6089 36.7134 10.6658 37.0092 10.7736 37.288L10.8569 37.4715Z" fill="black"/>
<path d="M10.3359 34.5949C10.103 34.5982 9.87323 34.5422 9.66806 34.4322C9.58531 34.3941 9.514 34.335 9.46124 34.2608C9.40847 34.1865 9.3761 34.0998 9.36736 34.0091C9.37265 33.9287 9.39966 33.8513 9.44551 33.785C9.49136 33.7187 9.55433 33.6662 9.6277 33.6329C9.82381 33.5386 10.0394 33.4917 10.257 33.4963C10.4745 33.5008 10.688 33.5565 10.88 33.6589C10.9625 33.6969 11.0337 33.7558 11.0865 33.8298C11.1393 33.9038 11.1717 33.9903 11.1807 34.0807C11.1754 34.1611 11.1484 34.2386 11.1025 34.3048C11.0567 34.3711 10.9937 34.4236 10.9203 34.4569C10.7405 34.5522 10.5393 34.5997 10.3359 34.5949Z" fill="#10B981"/>
<path d="M25.7513 38.7173V40.4838L18.4863 44.678V42.9115L25.7513 38.7173Z" fill="#10B981"/>
<g opacity="0.4">
<path d="M25.7525 38.7173V40.4838L18.4875 44.678V42.9115L25.7525 38.7173Z" fill="white"/>
</g>
<path d="M18.4863 43.3058L20.78 42.0288L18.4863 43.4126V43.3058Z" fill="#10B981"/>
<path d="M25.7507 39.5569L24.9853 40.0424L25.7507 39.6454V39.5569Z" fill="#10B981"/>
<path d="M25.7518 39.9777L21.9286 42.2505L25.7518 40.1078V39.9777Z" fill="#10B981"/>
<path d="M18.4863 43.7264L22.3095 41.5876L18.4863 43.8644V43.7264Z" fill="#10B981"/>
<path d="M18.4858 44.6782L3.95569 36.2898V34.5233L18.4858 42.9118V44.6782Z" fill="#10B981"/>
<g opacity="0.15">
<path d="M18.4858 44.6782L3.95569 36.2898V34.5233L18.4858 42.9118V44.6782Z" fill="black"/>
</g>
<g style="mix-blend-mode:multiply" opacity="0.3">
<path d="M18.4866 43.306L17.7212 42.9116L18.4866 43.4128V43.306Z" fill="black"/>
</g>
<g style="mix-blend-mode:multiply" opacity="0.3">
<path d="M18.4871 43.7263L14.6418 41.5771L18.4871 43.8643V43.7263Z" fill="black"/>
</g>
<g style="mix-blend-mode:multiply" opacity="0.3">
<path d="M3.95569 35.3551L6.63208 36.9523L3.95569 35.4592V35.3551Z" fill="black"/>
</g>
<g style="mix-blend-mode:multiply" opacity="0.3">
<path d="M3.95569 35.799L5.48524 36.731L3.95569 35.8979V35.799Z" fill="black"/>
</g>
<path d="M19.7515 34.9605L12.234 39.3018L9.94028 37.9779L17.4579 33.6366L19.7515 34.9605Z" fill="#FAFAFA"/>
<path d="M9.94028 37.9779V39.8993L12.234 41.2232V39.3018L9.94028 37.9779Z" fill="#EBEBEB"/>
<path d="M12.2331 41.223L12.3672 41.1462L12.2331 41.0681V41.223Z" fill="#E0E0E0"/>
<path d="M19.7511 34.9604V35.2546L19.4972 35.1075L19.7511 34.9604Z" fill="#E0E0E0"/>
<g style="mix-blend-mode:multiply" opacity="0.3">
<path d="M12.3684 41.1452V39.38L12.2343 39.3019V41.0683L12.3684 41.1452Z" fill="black"/>
</g>
<g style="mix-blend-mode:multiply" opacity="0.2">
<path d="M12.3684 39.38L19.6334 35.1858L19.4981 35.1077L12.2343 39.3019L12.3684 39.38Z" fill="black"/>
</g>
<path d="M19.5053 34.8187L11.9851 39.1587L11.7951 39.0493L19.3127 34.708L19.5053 34.8187Z" fill="#455A64"/>
<path d="M17.8975 33.8919L10.3786 38.2319L10.1885 38.1213L17.7061 33.7812L17.8975 33.8919Z" fill="#455A64"/>
<path d="M11.9851 39.1587V41.0813L11.7951 40.9707V39.0493L11.9851 39.1587Z" fill="#263238"/>
<path d="M10.3787 38.2317V40.1531L10.1873 40.0425L10.1886 38.1211L10.3787 38.2317Z" fill="#263238"/>
</svg>
