<svg width="6" height="6" viewBox="0 0 6 6" fill="none" xmlns="http://www.w3.org/2000/svg">
<g clip-path="url(#clip0_1_30535)">
<path d="M2.99985 4.00024C3.26507 4.00024 3.51942 3.89488 3.70696 3.70735C3.89449 3.51981 3.99985 3.26546 3.99985 3.00024C3.99985 2.73503 3.89449 2.48067 3.70696 2.29314C3.51942 2.1056 3.26507 2.00024 2.99985 2.00024C2.73464 2.00024 2.48028 2.1056 2.29275 2.29314C2.10521 2.48067 1.99985 2.73503 1.99985 3.00024C1.99985 3.26546 2.10521 3.51981 2.29275 3.70735C2.48028 3.89488 2.73464 4.00024 2.99985 4.00024ZM2.99985 1.00024H3.00235H2.99985ZM4.99985 3.00024H5.00235H4.99985ZM2.99985 5.00024H3.00235H2.99985ZM0.999854 3.00024H1.00235H0.999854ZM4.4141 1.58599H4.4166H4.4141ZM4.4141 4.41449H4.4166H4.4141ZM1.5856 4.41449H1.5881H1.5856ZM1.5856 1.58599H1.5881H1.5856Z" fill="white"/>
<path d="M2.99985 1.00024H3.00235M4.99985 3.00024H5.00235M2.99985 5.00024H3.00235M0.999854 3.00024H1.00235M4.4141 1.58599H4.4166M4.4141 4.41449H4.4166M1.5856 4.41449H1.5881M1.5856 1.58599H1.5881M2.99985 4.00024C3.26507 4.00024 3.51942 3.89488 3.70696 3.70735C3.89449 3.51981 3.99985 3.26546 3.99985 3.00024C3.99985 2.73503 3.89449 2.48067 3.70696 2.29314C3.51942 2.1056 3.26507 2.00024 2.99985 2.00024C2.73464 2.00024 2.48028 2.1056 2.29275 2.29314C2.10521 2.48067 1.99985 2.73503 1.99985 3.00024C1.99985 3.26546 2.10521 3.51981 2.29275 3.70735C2.48028 3.89488 2.73464 4.00024 2.99985 4.00024Z" stroke="white" stroke-width="0.352941" stroke-linecap="round" stroke-linejoin="round"/>
</g>
<defs>
<clipPath id="clip0_1_30535">
<rect width="5.64706" height="5.64706" fill="white" transform="scale(1.0625)"/>
</clipPath>
</defs>
</svg>
