<svg width="32" height="32" viewBox="0 0 32 32" fill="none" xmlns="http://www.w3.org/2000/svg">
<path d="M4.18277 9.6001C3.52233 9.6001 2.99957 10.1164 2.99957 10.7618C2.99955 10.9162 3.03029 11.069 3.09001 11.2114C3.14973 11.3537 3.23723 11.4828 3.34739 11.5909C3.45755 11.6991 3.58817 11.7842 3.7316 11.8413C3.87503 11.8984 4.02841 11.9263 4.18277 11.9235C4.84966 11.9235 5.37672 11.4072 5.37672 10.7618C5.37672 10.1164 4.84966 9.6001 4.18277 9.6001ZM12.3683 9.62161C8.75419 9.62161 6.49537 12.0848 6.49537 16.0001C6.49537 19.9477 8.75419 22.4001 12.3683 22.4001C15.9609 22.4001 18.2305 19.9477 18.2305 16.0001C18.2305 12.0848 15.9609 9.62161 12.3683 9.62161ZM24.0281 9.62161C21.3391 9.62161 19.4244 11.106 19.4244 13.311C19.4244 15.0643 20.5108 16.1614 22.7912 16.6885L24.3939 17.0757C25.9535 17.4307 26.5881 17.947 26.5881 18.8398C26.5881 19.8724 25.5448 20.6038 24.0604 20.6038C22.5438 20.6038 21.4036 19.8616 21.2853 18.7214H19.134C19.2201 21.0018 21.0917 22.4001 23.9313 22.4001C26.9323 22.4001 28.8147 20.9265 28.8147 18.5816C28.8147 16.7423 27.7391 15.6989 25.2436 15.1288L23.813 14.8061C22.2964 14.4404 21.6725 13.9564 21.6725 13.1389C21.6725 12.1063 22.6191 11.4179 24.0174 11.4179C25.4265 11.4179 26.3945 12.1171 26.5021 13.268H28.6103C28.5565 11.0952 26.7602 9.62161 24.0281 9.62161ZM12.3683 11.504C14.5626 11.504 15.9717 13.2572 15.9717 16.0001C15.9717 18.7645 14.5626 20.5177 12.3683 20.5177C10.1525 20.5177 8.75419 18.7645 8.75419 16.0001C8.75419 13.2572 10.1525 11.504 12.3683 11.504ZM3.11897 13.1067V22.1957H5.2584V13.1067H3.11789H3.11897Z" fill="#111217"/>
</svg>
