<svg width="48" height="48" viewBox="0 0 48 48" fill="none" xmlns="http://www.w3.org/2000/svg">
<path d="M15 40H38L44 46V25C44 22.8 42.2 21 40 21H15C12.8 21 11 22.8 11 25V36C11 38.2 12.8 40 15 40Z" fill="#0A7451"/>
<path d="M28.8 32.7999H25.2L24.5 34.8999H22.3L26 24.8999H27.9L31.6 34.8999H29.4L28.8 32.7999ZM25.7 31.1999H28.2L27 27.3999L25.7 31.1999Z" fill="#7FF4CD"/>
<path d="M33 25H10L4 31V8C4 5.8 5.8 4 8 4H33C35.2 4 37 5.8 37 8V21C37 23.2 35.2 25 33 25Z" fill="#10B981"/>
<path d="M25.4 14.1999C25.4 15.1999 25.2 15.9999 24.9 16.6999C24.6 17.3999 24.2 17.9999 23.6 18.3999L25.3 19.6999L24 20.8999L21.8 19.1999C21.6 19.1999 21.3 19.2999 21 19.2999C20.4 19.2999 19.8 19.1999 19.2 18.9999C18.7 18.7999 18.2 18.3999 17.8 17.9999C17.4 17.5999 17.1 16.9999 16.9 16.3999C16.7 15.7999 16.6 15.0999 16.6 14.2999V13.8999C16.6 13.0999 16.7 12.3999 16.9 11.7999C17.1 11.1999 17.4 10.5999 17.8 10.1999C18.2 9.7999 18.6 9.3999 19.2 9.1999C19.7 8.9999 20.3 8.8999 21 8.8999C21.6 8.8999 22.2 8.9999 22.8 9.1999C23.3 9.3999 23.8 9.7999 24.2 10.1999C24.6 10.5999 24.9 11.1999 25.1 11.7999C25.3 12.3999 25.4 13.0999 25.4 13.8999V14.1999ZM23.2 13.6999C23.2 12.5999 23 11.7999 22.6 11.2999C22.2 10.6999 21.7 10.4999 21 10.4999C20.3 10.4999 19.7 10.7999 19.4 11.2999C19 11.8999 18.8 12.6999 18.8 13.6999V14.1999C18.8 14.6999 18.9 15.1999 19 15.5999C19.1 15.9999 19.2 16.3999 19.4 16.5999C19.6 16.8999 19.8 17.0999 20.1 17.1999C20.4 17.2999 20.7 17.3999 21 17.3999C21.7 17.3999 22.3 17.0999 22.6 16.5999C23 15.9999 23.2 15.1999 23.2 14.0999V13.6999Z" fill="white"/>
</svg>
