<svg width="25" height="25" viewBox="0 0 25 25" fill="none" xmlns="http://www.w3.org/2000/svg">
<path d="M18.1407 14.9813C17.8313 14.8261 16.3094 14.0782 16.0261 13.974C15.7417 13.8709 15.5355 13.8199 15.3282 14.1303C15.1229 14.4397 14.5292 15.1365 14.349 15.3428C14.1688 15.5501 13.9875 15.5751 13.6782 15.4209C13.3688 15.2647 12.3709 14.9386 11.1886 13.8844C10.2688 13.0636 9.6469 12.0501 9.46669 11.7397C9.28648 11.4303 9.44794 11.2626 9.6021 11.1084C9.74169 10.9699 9.91252 10.7469 10.0667 10.5667C10.2219 10.3855 10.2729 10.2563 10.3771 10.049C10.4802 9.84277 10.4292 9.66256 10.3511 9.50735C10.2729 9.35215 9.65419 7.82818 9.3969 7.20839C9.14481 6.60527 8.8896 6.68756 8.70002 6.67714C8.5022 6.66926 8.30424 6.66579 8.10627 6.66672C7.90002 6.66672 7.5646 6.74381 7.28127 7.05422C6.99793 7.3636 6.19793 8.11256 6.19793 9.63652C6.19793 11.1594 7.30731 12.6313 7.46147 12.8386C7.61668 13.0449 9.64481 16.172 12.75 17.5126C13.4886 17.8313 14.0646 18.022 14.5146 18.1636C15.2563 18.4001 15.9313 18.3667 16.4636 18.2865C17.0584 18.198 18.2948 17.5376 18.5532 16.8147C18.8115 16.0917 18.8115 15.472 18.7334 15.3428C18.6563 15.2136 18.45 15.1365 18.1396 14.9813M12.4927 22.6928H12.4886C10.6446 22.693 8.83448 22.1972 7.24793 21.2574L6.87189 21.0345L2.97501 22.0574L4.01459 18.2574L3.7698 17.8678C2.73901 16.2264 2.19369 14.3268 2.19688 12.3886C2.19792 6.71152 6.81772 2.09276 12.4969 2.09276C15.2469 2.09276 17.8323 3.16567 19.7761 5.11151C20.7351 6.06632 21.4953 7.20186 22.0126 8.4524C22.5298 9.70294 22.794 11.0437 22.7896 12.3969C22.7865 18.074 18.1677 22.6928 12.4927 22.6928ZM21.2563 3.63338C20.1086 2.47809 18.743 1.56206 17.2387 0.938378C15.7344 0.314693 14.1212 -0.0042461 12.4927 4.2685e-05C5.6646 4.2685e-05 0.107292 5.55735 0.104167 12.3876C0.104167 14.5709 0.67396 16.7022 1.75834 18.5803L0 25.0001L6.56772 23.2772C8.38397 24.2667 10.4192 24.7853 12.4875 24.7855H12.4927C19.3198 24.7855 24.8782 19.2282 24.8813 12.3969C24.8863 10.7691 24.5686 9.15642 23.9463 7.65218C23.3241 6.14794 22.4098 4.782 21.2563 3.63338Z" fill="#666F89"/>
</svg>
