<svg width="32" height="32" viewBox="0 0 32 32" fill="none" xmlns="http://www.w3.org/2000/svg">
<path d="M26.9257 22.4001H4.99976C5.21762 20.4163 5.91016 18.5142 7.01877 16.8547C7.87134 15.5375 9.01539 14.4341 10.3625 13.6297L10.737 13.4196L8.89161 10.3043C8.82755 10.1989 8.80793 10.0723 8.83705 9.95244C8.86616 9.83255 8.94164 9.72911 9.04692 9.66479C9.09897 9.63368 9.15669 9.61325 9.21672 9.60468C9.27675 9.59611 9.33789 9.59958 9.39657 9.61489C9.45524 9.6302 9.51029 9.65703 9.55848 9.69383C9.60668 9.73064 9.64706 9.77667 9.67729 9.82924L11.5775 13.0268C12.9832 12.4651 14.4857 12.1857 15.9993 12.2045C17.4861 12.1864 18.9616 12.466 20.3388 13.0268L22.2299 9.82924C22.2608 9.77617 22.3022 9.7299 22.3515 9.69319C22.4007 9.65648 22.4569 9.63008 22.5166 9.61558C22.5763 9.60108 22.6383 9.59878 22.6989 9.6088C22.7596 9.61883 22.8175 9.64098 22.8694 9.67393C22.9731 9.73972 23.0467 9.84383 23.0741 9.9636C23.1015 10.0834 23.0804 10.2091 23.0156 10.3134L21.1701 13.4379L21.6269 13.6937C22.9695 14.5295 24.1037 15.6606 24.9432 17.0008C25.992 18.6334 26.6688 20.4767 26.9257 22.4001ZM20.0738 18.3073C20.0738 18.5496 20.1701 18.7819 20.3414 18.9533C20.5127 19.1246 20.7451 19.2208 20.9874 19.2208C21.2297 19.2208 21.4621 19.1246 21.6334 18.9533C21.8047 18.7819 21.901 18.5496 21.901 18.3073C21.901 18.065 21.8047 17.8326 21.6334 17.6613C21.4621 17.4899 21.2297 17.3937 20.9874 17.3937C20.7451 17.3937 20.5127 17.4899 20.3414 17.6613C20.1701 17.8326 20.0738 18.065 20.0738 18.3073ZM10.0244 18.3073C10.0244 18.5496 10.1207 18.7819 10.292 18.9533C10.4634 19.1246 10.6957 19.2208 10.938 19.2208C11.1803 19.2208 11.4127 19.1246 11.584 18.9533C11.7554 18.7819 11.8516 18.5496 11.8516 18.3073C11.8516 18.065 11.7554 17.8326 11.584 17.6613C11.4127 17.4899 11.1803 17.3937 10.938 17.3937C10.6957 17.3937 10.4634 17.4899 10.292 17.6613C10.1207 17.8326 10.0244 18.065 10.0244 18.3073Z" fill="#111217"/>
</svg>
