<svg width="87" height="98" viewBox="0 0 87 98" fill="none" xmlns="http://www.w3.org/2000/svg">
<rect y="81.6072" width="3.20727" height="13.5418" rx="0.882353" fill="#EF4444"/>
<line x1="1.60353" y1="81.9639" x2="1.60353" y2="79.113" stroke="#EF4444" stroke-width="0.352941"/>
<line x1="1.60353" y1="98" x2="1.60353" y2="95.1491" stroke="#EF4444" stroke-width="0.352941"/>
<rect x="4.63226" y="69.1347" width="3.20727" height="13.5418" rx="0.882353" fill="#10B981"/>
<line x1="6.23579" y1="69.4913" x2="6.23579" y2="66.6404" stroke="#10B981" stroke-width="0.352941"/>
<line x1="6.23579" y1="85.5277" x2="6.23579" y2="82.6768" stroke="#10B981" stroke-width="0.352941"/>
<rect x="13.8975" y="53.0983" width="3.20727" height="13.5418" rx="0.882353" fill="#EF4444"/>
<line x1="15.501" y1="53.4548" x2="15.501" y2="50.6039" stroke="#EF4444" stroke-width="0.352941"/>
<line x1="15.501" y1="69.4911" x2="15.501" y2="66.6402" stroke="#EF4444" stroke-width="0.352941"/>
<rect x="32.7851" y="32.7858" width="3.20727" height="13.5418" rx="0.882353" fill="#EF4444"/>
<line x1="34.3887" y1="33.1423" x2="34.3887" y2="30.2914" stroke="#EF4444" stroke-width="0.352941"/>
<line x1="34.3887" y1="49.1786" x2="34.3887" y2="46.3277" stroke="#EF4444" stroke-width="0.352941"/>
<rect x="28.1525" y="25.4096" width="3.20727" height="6.38765" rx="0.882353" fill="#EF4444"/>
<line x1="29.7565" y1="25.5777" x2="29.7565" y2="24.2329" stroke="#EF4444" stroke-width="0.352941"/>
<line x1="29.7565" y1="33.142" x2="29.7565" y2="31.7972" stroke="#EF4444" stroke-width="0.352941"/>
<rect x="46.6835" y="50.247" width="3.20727" height="13.5418" rx="0.882353" fill="#EF4444"/>
<line x1="48.287" y1="50.6034" x2="48.287" y2="47.7525" stroke="#EF4444" stroke-width="0.352941"/>
<line x1="48.287" y1="66.64" x2="48.287" y2="63.7891" stroke="#EF4444" stroke-width="0.352941"/>
<rect x="69.8468" y="16.5003" width="3.20727" height="6.38765" rx="0.882353" fill="#EF4444"/>
<line x1="71.4503" y1="16.6681" x2="71.4503" y2="15.3234" stroke="#EF4444" stroke-width="0.352941"/>
<line x1="71.4503" y1="24.2327" x2="71.4503" y2="22.888" stroke="#EF4444" stroke-width="0.352941"/>
<rect x="83.7452" y="16.5003" width="3.20727" height="6.38765" rx="0.882353" fill="#EF4444"/>
<line x1="85.3487" y1="16.6681" x2="85.3487" y2="15.3234" stroke="#EF4444" stroke-width="0.352941"/>
<line x1="85.3487" y1="24.2327" x2="85.3487" y2="22.888" stroke="#EF4444" stroke-width="0.352941"/>
<rect x="37.4182" y="45.6143" width="3.20727" height="7.12727" rx="0.882353" fill="#EF4444"/>
<line x1="39.0218" y1="45.971" x2="39.0218" y2="43.1201" stroke="#EF4444" stroke-width="0.352941"/>
<line x1="39.0218" y1="55.5925" x2="39.0218" y2="52.7416" stroke="#EF4444" stroke-width="0.352941"/>
<rect x="9.26443" y="54.1339" width="3.20727" height="19.1629" rx="0.882353" fill="#10B981"/>
<line x1="10.868" y1="54.5236" x2="10.868" y2="45.2582" stroke="#10B981" stroke-width="0.352941"/>
<line x1="10.868" y1="77.331" x2="10.868" y2="73.2967" stroke="#10B981" stroke-width="0.352941"/>
<rect x="60.5806" y="14.9672" width="3.20727" height="2.85091" rx="0.882353" fill="#10B981"/>
<line x1="62.1841" y1="16.0363" x2="62.1841" y2="-2.88877e-05" stroke="#10B981" stroke-width="0.352941"/>
<line x1="62.1841" y1="21.7378" x2="62.1841" y2="17.7035" stroke="#10B981" stroke-width="0.352941"/>
<rect x="42.05" y="50.2472" width="3.20727" height="2.85091" rx="0.882353" fill="#10B981"/>
<line x1="43.6535" y1="51.3166" x2="43.6535" y2="35.2802" stroke="#10B981" stroke-width="0.352941"/>
<line x1="43.6535" y1="57.0183" x2="43.6535" y2="52.984" stroke="#10B981" stroke-width="0.352941"/>
<rect x="18.174" y="45.2576" width="3.20727" height="12.1164" rx="0.882353" fill="#10B981"/>
<line x1="19.778" y1="47.7523" x2="19.778" y2="38.4868" stroke="#10B981" stroke-width="0.352941"/>
<line x1="19.778" y1="61.2942" x2="19.778" y2="57.2599" stroke="#10B981" stroke-width="0.352941"/>
<rect x="65.2137" y="10.552" width="3.20727" height="5.49023" rx="0.882353" fill="#10B981"/>
<line x1="66.8172" y1="11.6825" x2="66.8172" y2="7.4841" stroke="#10B981" stroke-width="0.352941"/>
<line x1="66.8172" y1="17.8183" x2="66.8172" y2="15.9903" stroke="#10B981" stroke-width="0.352941"/>
<rect x="74.4799" y="21.5993" width="3.20727" height="5.49023" rx="0.882353" fill="#10B981"/>
<line x1="76.0834" y1="22.7295" x2="76.0834" y2="18.5311" stroke="#10B981" stroke-width="0.352941"/>
<line x1="76.0834" y1="28.8658" x2="76.0834" y2="27.0378" stroke="#10B981" stroke-width="0.352941"/>
<rect x="79.1125" y="15.0286" width="3.20727" height="7.76204" rx="0.882353" fill="#10B981"/>
<line x1="80.716" y1="16.6267" x2="80.716" y2="10.691" stroke="#10B981" stroke-width="0.352941"/>
<line x1="80.716" y1="22.8074" x2="80.716" y2="20.2229" stroke="#10B981" stroke-width="0.352941"/>
<rect x="23.5199" y="30.2909" width="3.20727" height="18.8873" rx="0.882353" fill="#10B981"/>
<line x1="25.1234" y1="37.0617" x2="25.1234" y2="27.7963" stroke="#10B981" stroke-width="0.352941"/>
<line x1="25.1234" y1="50.6037" x2="25.1234" y2="46.5694" stroke="#10B981" stroke-width="0.352941"/>
<rect x="55.9488" y="17.1054" width="3.20727" height="29.9345" rx="0.882353" fill="#10B981"/>
<line x1="57.5524" y1="28.1524" x2="57.5524" y2="15.6797" stroke="#10B981" stroke-width="0.352941"/>
<line x1="57.5524" y1="48.4654" x2="57.5524" y2="44.4311" stroke="#10B981" stroke-width="0.352941"/>
<rect x="51.3158" y="44.5457" width="3.20727" height="18.8873" rx="0.882353" fill="#10B981"/>
<line x1="52.9193" y1="51.3168" x2="52.9193" y2="42.0514" stroke="#10B981" stroke-width="0.352941"/>
<line x1="52.9193" y1="64.8587" x2="52.9193" y2="60.8244" stroke="#10B981" stroke-width="0.352941"/>
</svg>
