<svg width="9" height="9" viewBox="0 0 9 9" fill="none" xmlns="http://www.w3.org/2000/svg">
<g clip-path="url(#clip0_1_30507)">
<path d="M7.12492 3.65619H6.74992C6.28394 3.65619 5.90619 4.03394 5.90619 4.49992C5.90619 4.96591 6.28394 5.34366 6.74992 5.34366H7.12492C7.5909 5.34366 7.96866 4.96591 7.96866 4.49992C7.96866 4.03394 7.5909 3.65619 7.12492 3.65619Z" stroke="#D3D6DE" stroke-width="0.529412"/>
<path d="M7.17041 2.20459L7.17038 2.20456C7.03209 2.06631 6.83795 1.97601 6.47083 1.92665L6.44589 2.11222L6.47083 1.92665C6.09312 1.87587 5.59245 1.87508 4.87492 1.87508H3.74994C3.0324 1.87508 2.53173 1.87587 2.15402 1.92665C1.78691 1.97601 1.59275 2.06631 1.45448 2.20458L1.45447 2.20458C1.3162 2.34286 1.2259 2.53702 1.17655 2.90413L1.36161 2.92901L1.17655 2.90413C1.12577 3.28184 1.12497 3.78251 1.12497 4.50005C1.12497 5.21758 1.12577 5.71824 1.17655 6.09596L1.36186 6.07104L1.17655 6.09596C1.2259 6.46307 1.3162 6.65722 1.45445 6.7955L1.45448 6.79553C1.59276 6.93379 1.78692 7.02406 2.15401 7.07343C2.53173 7.12421 3.0324 7.12501 3.74994 7.12501H4.87492C5.59246 7.12501 6.09312 7.12421 6.47084 7.07343C6.83794 7.02406 7.03208 6.93379 7.17037 6.79555L7.17042 6.7955C7.30866 6.65721 7.39894 6.46306 7.4483 6.09596C7.47353 5.90839 7.48629 5.69247 7.49284 5.43753H7.68033C7.65888 6.25167 7.57447 6.65657 7.30296 6.92808L7.30295 6.92809C7.12394 7.10711 6.8835 7.20714 6.49582 7.25926C6.10275 7.31211 5.58731 7.31251 4.87492 7.31251H3.74994C3.03754 7.31251 2.5221 7.31211 2.12904 7.25926C1.74136 7.20714 1.50092 7.10711 1.32189 6.92808L1.32189 6.92808C1.14287 6.74907 1.04284 6.50863 0.990721 6.12095C0.937874 5.72788 0.937476 5.21244 0.937476 4.50005C0.937476 3.78765 0.937874 3.27221 0.990721 2.87914C1.04284 2.49147 1.14287 2.25102 1.32189 2.072C1.50092 1.89298 1.74136 1.79295 2.12904 1.74083C2.5221 1.68798 3.03754 1.68758 3.74994 1.68758H4.87492C5.58731 1.68758 6.10275 1.68798 6.49582 1.74083C6.8835 1.79295 7.12395 1.89298 7.30295 2.072L7.30296 2.072C7.57447 2.34351 7.65888 2.74842 7.68033 3.56256H7.49284C7.48629 3.30761 7.47353 3.09171 7.4483 2.90412C7.39894 2.53703 7.30866 2.34287 7.17041 2.20459Z" fill="#111217" stroke="#D3D6DE" stroke-width="0.352941"/>
<path d="M2.53122 3.46864H4.59369" stroke="#D3D6DE" stroke-width="0.529412" stroke-linecap="round"/>
</g>
<defs>
<clipPath id="clip0_1_30507">
<rect width="8.47059" height="8.47059" fill="white" transform="scale(1.06249)"/>
</clipPath>
</defs>
</svg>
