<svg width="161" height="161" viewBox="0 0 161 161" fill="none" xmlns="http://www.w3.org/2000/svg">
<rect width="161" height="161" rx="5.33574" fill="#FAFAFB"/>
<path d="M29.5166 35.7774H95.7637L109.122 48.2996V116.277H42.9333V48.2996L29.5166 35.7774Z" fill="#DFDFDF"/>
<path d="M29.7393 35.7774C22.453 35.7774 16.5463 41.3838 16.5463 48.2996H42.9324C42.9324 41.3838 37.0256 35.7774 29.7393 35.7774Z" fill="#111217"/>
<path d="M95.9306 35.7774C88.6443 35.7774 82.7376 41.3838 82.7376 48.2996H109.124C109.124 41.3838 103.217 35.7774 95.9306 35.7774Z" fill="#DFDFDF"/>
<mask id="mask0_1_19150" style="mask-type:alpha" maskUnits="userSpaceOnUse" x="50" y="48" width="53" height="5">
<rect x="50.5367" y="48.2988" width="52.325" height="4.47222" fill="black"/>
</mask>
<g mask="url(#mask0_1_19150)">
<circle cx="83.4111" cy="49.4204" r="0.673944" fill="#111217"/>
<circle cx="80.7277" cy="49.4204" r="0.673944" fill="#111217"/>
<circle cx="78.0437" cy="49.4204" r="0.673944" fill="#111217"/>
<circle cx="75.3581" cy="49.4204" r="0.673944" fill="#111217"/>
<circle cx="72.6775" cy="49.4204" r="0.673944" fill="#111217"/>
<circle cx="69.9936" cy="49.4204" r="0.673944" fill="#111217"/>
<circle cx="67.3115" cy="49.4204" r="0.673944" fill="#111217"/>
<circle cx="64.628" cy="49.4204" r="0.673944" fill="#111217"/>
<circle cx="61.9421" cy="49.4204" r="0.673944" fill="#111217"/>
<circle cx="59.26" cy="49.4204" r="0.673944" fill="#111217"/>
<circle cx="56.5775" cy="49.4204" r="0.673944" fill="#111217"/>
<circle cx="53.8934" cy="49.4204" r="0.673944" fill="#111217"/>
<circle cx="51.2105" cy="49.4204" r="0.673944" fill="#111217"/>
<circle cx="83.4111" cy="52.1043" r="0.673944" fill="#111217"/>
<circle cx="80.7277" cy="52.1043" r="0.673944" fill="#111217"/>
<circle cx="78.0437" cy="52.1043" r="0.673944" fill="#111217"/>
<circle cx="75.3581" cy="52.1043" r="0.673944" fill="#111217"/>
<circle cx="72.6775" cy="52.1043" r="0.673944" fill="#111217"/>
<circle cx="69.9936" cy="52.1043" r="0.673944" fill="#111217"/>
<circle cx="67.3115" cy="52.1043" r="0.673944" fill="#111217"/>
<circle cx="64.628" cy="52.1043" r="0.673944" fill="#111217"/>
<circle cx="61.9421" cy="52.1043" r="0.673944" fill="#111217"/>
<circle cx="59.26" cy="52.1043" r="0.673944" fill="#111217"/>
<circle cx="56.5775" cy="52.1043" r="0.673944" fill="#111217"/>
<circle cx="53.8934" cy="52.1043" r="0.673944" fill="#111217"/>
<circle cx="51.2105" cy="52.1043" r="0.673944" fill="#111217"/>
<circle cx="86.0937" cy="49.4204" r="0.673944" fill="#111217"/>
<circle cx="86.0937" cy="52.1043" r="0.673944" fill="#111217"/>
<circle cx="88.7773" cy="49.4204" r="0.673944" fill="#111217"/>
<circle cx="88.7773" cy="52.1043" r="0.673944" fill="#111217"/>
<circle cx="91.4582" cy="49.4204" r="0.673944" fill="#111217"/>
<circle cx="91.4582" cy="52.1043" r="0.673944" fill="#111217"/>
<circle cx="94.1433" cy="49.4204" r="0.673944" fill="#111217"/>
<circle cx="94.1433" cy="52.1043" r="0.673944" fill="#111217"/>
<circle cx="96.8268" cy="49.4204" r="0.673944" fill="#111217"/>
<circle cx="96.8268" cy="52.1043" r="0.673944" fill="#111217"/>
<circle cx="99.5088" cy="49.4204" r="0.673944" fill="#111217"/>
<circle cx="99.5088" cy="52.1043" r="0.673944" fill="#111217"/>
<circle cx="102.194" cy="49.4204" r="0.673944" fill="#111217"/>
<circle cx="102.194" cy="52.1043" r="0.673944" fill="#111217"/>
</g>
<mask id="mask1_1_19150" style="mask-type:alpha" maskUnits="userSpaceOnUse" x="50" y="62" width="53" height="6">
<rect x="50.5365" y="62.6107" width="52.325" height="4.47222" fill="black"/>
</mask>
<g mask="url(#mask1_1_19150)">
<circle cx="83.411" cy="63.7316" r="0.673944" fill="#111217"/>
<circle cx="80.7275" cy="63.7316" r="0.673944" fill="#111217"/>
<circle cx="78.0435" cy="63.7316" r="0.673944" fill="#111217"/>
<circle cx="75.358" cy="63.7316" r="0.673944" fill="#111217"/>
<circle cx="72.6774" cy="63.7316" r="0.673944" fill="#111217"/>
<circle cx="69.9935" cy="63.7316" r="0.673944" fill="#111217"/>
<circle cx="67.3114" cy="63.7316" r="0.673944" fill="#111217"/>
<circle cx="64.6279" cy="63.7316" r="0.673944" fill="#111217"/>
<circle cx="61.942" cy="63.7316" r="0.673944" fill="#111217"/>
<circle cx="59.2599" cy="63.7316" r="0.673944" fill="#111217"/>
<circle cx="56.5773" cy="63.7316" r="0.673944" fill="#111217"/>
<circle cx="53.8933" cy="63.7316" r="0.673944" fill="#111217"/>
<circle cx="51.2104" cy="63.7316" r="0.673944" fill="#111217"/>
<circle cx="83.411" cy="66.4162" r="0.673944" fill="#111217"/>
<circle cx="80.7275" cy="66.4162" r="0.673944" fill="#111217"/>
<circle cx="78.0435" cy="66.4162" r="0.673944" fill="#111217"/>
<circle cx="75.358" cy="66.4162" r="0.673944" fill="#111217"/>
<circle cx="72.6774" cy="66.4162" r="0.673944" fill="#111217"/>
<circle cx="69.9935" cy="66.4162" r="0.673944" fill="#111217"/>
<circle cx="67.3114" cy="66.4162" r="0.673944" fill="#111217"/>
<circle cx="64.6279" cy="66.4162" r="0.673944" fill="#111217"/>
<circle cx="61.942" cy="66.4162" r="0.673944" fill="#111217"/>
<circle cx="59.2599" cy="66.4162" r="0.673944" fill="#111217"/>
<circle cx="56.5773" cy="66.4162" r="0.673944" fill="#111217"/>
<circle cx="53.8933" cy="66.4162" r="0.673944" fill="#111217"/>
<circle cx="51.2104" cy="66.4162" r="0.673944" fill="#111217"/>
<circle cx="86.0936" cy="63.7316" r="0.673944" fill="#111217"/>
<circle cx="86.0936" cy="66.4162" r="0.673944" fill="#111217"/>
<circle cx="88.7771" cy="63.7316" r="0.673944" fill="#111217"/>
<circle cx="88.7771" cy="66.4162" r="0.673944" fill="#111217"/>
<circle cx="91.4581" cy="63.7316" r="0.673944" fill="#111217"/>
<circle cx="91.4581" cy="66.4162" r="0.673944" fill="#111217"/>
<circle cx="94.1431" cy="63.7316" r="0.673944" fill="#111217"/>
<circle cx="94.1431" cy="66.4162" r="0.673944" fill="#111217"/>
<circle cx="96.8267" cy="63.7316" r="0.673944" fill="#111217"/>
<circle cx="96.8267" cy="66.4162" r="0.673944" fill="#111217"/>
<circle cx="99.5088" cy="63.7316" r="0.673944" fill="#111217"/>
<circle cx="99.5088" cy="66.4162" r="0.673944" fill="#111217"/>
<circle cx="102.194" cy="63.7316" r="0.673944" fill="#111217"/>
<circle cx="102.194" cy="66.4162" r="0.673944" fill="#111217"/>
</g>
<mask id="mask2_1_19150" style="mask-type:alpha" maskUnits="userSpaceOnUse" x="50" y="76" width="53" height="6">
<rect x="50.5365" y="76.9212" width="52.325" height="4.47222" fill="black"/>
</mask>
<g mask="url(#mask2_1_19150)">
<circle cx="83.411" cy="78.0435" r="0.673944" fill="#111217"/>
<circle cx="80.7275" cy="78.0435" r="0.673944" fill="#111217"/>
<circle cx="78.0435" cy="78.0435" r="0.673944" fill="#111217"/>
<circle cx="75.358" cy="78.0435" r="0.673944" fill="#111217"/>
<circle cx="72.6774" cy="78.0435" r="0.673944" fill="#111217"/>
<circle cx="69.9935" cy="78.0435" r="0.673944" fill="#111217"/>
<circle cx="67.3114" cy="78.0435" r="0.673944" fill="#111217"/>
<circle cx="64.6279" cy="78.0435" r="0.673944" fill="#111217"/>
<circle cx="61.942" cy="78.0435" r="0.673944" fill="#111217"/>
<circle cx="59.2599" cy="78.0435" r="0.673944" fill="#111217"/>
<circle cx="56.5773" cy="78.0435" r="0.673944" fill="#111217"/>
<circle cx="53.8933" cy="78.0435" r="0.673944" fill="#111217"/>
<circle cx="51.2104" cy="78.0435" r="0.673944" fill="#111217"/>
<circle cx="83.411" cy="80.7262" r="0.673944" fill="#111217"/>
<circle cx="80.7275" cy="80.7262" r="0.673944" fill="#111217"/>
<circle cx="78.0435" cy="80.7262" r="0.673944" fill="#111217"/>
<circle cx="75.358" cy="80.7262" r="0.673944" fill="#111217"/>
<circle cx="72.6774" cy="80.7262" r="0.673944" fill="#111217"/>
<circle cx="69.9935" cy="80.7262" r="0.673944" fill="#111217"/>
<circle cx="67.3114" cy="80.7262" r="0.673944" fill="#111217"/>
<circle cx="64.6279" cy="80.7262" r="0.673944" fill="#111217"/>
<circle cx="61.942" cy="80.7262" r="0.673944" fill="#111217"/>
<circle cx="59.2599" cy="80.7262" r="0.673944" fill="#111217"/>
<circle cx="56.5773" cy="80.7262" r="0.673944" fill="#111217"/>
<circle cx="53.8933" cy="80.7262" r="0.673944" fill="#111217"/>
<circle cx="51.2104" cy="80.7262" r="0.673944" fill="#111217"/>
<circle cx="86.0936" cy="78.0435" r="0.673944" fill="#111217"/>
<circle cx="86.0936" cy="80.7262" r="0.673944" fill="#111217"/>
<circle cx="88.7771" cy="78.0435" r="0.673944" fill="#111217"/>
<circle cx="88.7771" cy="80.7262" r="0.673944" fill="#111217"/>
<circle cx="91.4581" cy="78.0435" r="0.673944" fill="#111217"/>
<circle cx="91.4581" cy="80.7262" r="0.673944" fill="#111217"/>
<circle cx="94.1431" cy="78.0435" r="0.673944" fill="#111217"/>
<circle cx="94.1431" cy="80.7262" r="0.673944" fill="#111217"/>
<circle cx="96.8267" cy="78.0435" r="0.673944" fill="#111217"/>
<circle cx="96.8267" cy="80.7262" r="0.673944" fill="#111217"/>
<circle cx="99.5088" cy="78.0435" r="0.673944" fill="#111217"/>
<circle cx="99.5088" cy="80.7262" r="0.673944" fill="#111217"/>
<circle cx="102.194" cy="78.0435" r="0.673944" fill="#111217"/>
<circle cx="102.194" cy="80.7262" r="0.673944" fill="#111217"/>
</g>
<mask id="mask3_1_19150" style="mask-type:alpha" maskUnits="userSpaceOnUse" x="50" y="55" width="53" height="5">
<rect x="50.5365" y="55.4555" width="52.325" height="4.47222" fill="black"/>
</mask>
<g mask="url(#mask3_1_19150)">
<circle cx="83.411" cy="56.5764" r="0.673944" fill="#111217"/>
<circle cx="80.7275" cy="56.5764" r="0.673944" fill="#111217"/>
<circle cx="78.0435" cy="56.5764" r="0.673944" fill="#111217"/>
<circle cx="75.358" cy="56.5764" r="0.673944" fill="#111217"/>
<circle cx="72.6774" cy="56.5764" r="0.673944" fill="#111217"/>
<circle cx="69.9935" cy="56.5764" r="0.673944" fill="#111217"/>
<circle cx="67.3114" cy="56.5764" r="0.673944" fill="#111217"/>
<circle cx="64.6279" cy="56.5764" r="0.673944" fill="#111217"/>
<circle cx="61.942" cy="56.5764" r="0.673944" fill="#111217"/>
<circle cx="59.2599" cy="56.5764" r="0.673944" fill="#111217"/>
<circle cx="56.5773" cy="56.5764" r="0.673944" fill="#111217"/>
<circle cx="53.8933" cy="56.5764" r="0.673944" fill="#111217"/>
<circle cx="51.2104" cy="56.5764" r="0.673944" fill="#111217"/>
<circle cx="83.411" cy="59.2598" r="0.673944" fill="#111217"/>
<circle cx="80.7275" cy="59.2598" r="0.673944" fill="#111217"/>
<circle cx="78.0435" cy="59.2598" r="0.673944" fill="#111217"/>
<circle cx="75.358" cy="59.2598" r="0.673944" fill="#111217"/>
<circle cx="72.6774" cy="59.2598" r="0.673944" fill="#111217"/>
<circle cx="69.9935" cy="59.2598" r="0.673944" fill="#111217"/>
<circle cx="67.3114" cy="59.2598" r="0.673944" fill="#111217"/>
<circle cx="64.6279" cy="59.2598" r="0.673944" fill="#111217"/>
<circle cx="61.942" cy="59.2598" r="0.673944" fill="#111217"/>
<circle cx="59.2599" cy="59.2598" r="0.673944" fill="#111217"/>
<circle cx="56.5773" cy="59.2598" r="0.673944" fill="#111217"/>
<circle cx="53.8933" cy="59.2598" r="0.673944" fill="#111217"/>
<circle cx="51.2104" cy="59.2598" r="0.673944" fill="#111217"/>
<circle cx="86.0936" cy="56.5764" r="0.673944" fill="#111217"/>
<circle cx="86.0936" cy="59.2598" r="0.673944" fill="#111217"/>
<circle cx="88.7771" cy="56.5764" r="0.673944" fill="#111217"/>
<circle cx="88.7771" cy="59.2598" r="0.673944" fill="#111217"/>
<circle cx="91.4581" cy="56.5764" r="0.673944" fill="#111217"/>
<circle cx="91.4581" cy="59.2598" r="0.673944" fill="#111217"/>
<circle cx="94.1431" cy="56.5764" r="0.673944" fill="#111217"/>
<circle cx="94.1431" cy="59.2598" r="0.673944" fill="#111217"/>
<circle cx="96.8267" cy="56.5764" r="0.673944" fill="#111217"/>
<circle cx="96.8267" cy="59.2598" r="0.673944" fill="#111217"/>
<circle cx="99.5088" cy="56.5764" r="0.673944" fill="#111217"/>
<circle cx="99.5088" cy="59.2598" r="0.673944" fill="#111217"/>
<circle cx="102.194" cy="56.5764" r="0.673944" fill="#111217"/>
<circle cx="102.194" cy="59.2598" r="0.673944" fill="#111217"/>
</g>
<mask id="mask4_1_19150" style="mask-type:alpha" maskUnits="userSpaceOnUse" x="50" y="69" width="53" height="6">
<rect x="50.5365" y="69.766" width="52.325" height="4.47222" fill="black"/>
</mask>
<g mask="url(#mask4_1_19150)">
<circle cx="83.411" cy="70.8871" r="0.673944" fill="#111217"/>
<circle cx="80.7275" cy="70.8871" r="0.673944" fill="#111217"/>
<circle cx="78.0435" cy="70.8871" r="0.673944" fill="#111217"/>
<circle cx="75.358" cy="70.8871" r="0.673944" fill="#111217"/>
<circle cx="72.6774" cy="70.8871" r="0.673944" fill="#111217"/>
<circle cx="69.9935" cy="70.8871" r="0.673944" fill="#111217"/>
<circle cx="67.3114" cy="70.8871" r="0.673944" fill="#111217"/>
<circle cx="64.6279" cy="70.8871" r="0.673944" fill="#111217"/>
<circle cx="61.942" cy="70.8871" r="0.673944" fill="#111217"/>
<circle cx="59.2599" cy="70.8871" r="0.673944" fill="#111217"/>
<circle cx="56.5773" cy="70.8871" r="0.673944" fill="#111217"/>
<circle cx="53.8933" cy="70.8871" r="0.673944" fill="#111217"/>
<circle cx="51.2104" cy="70.8871" r="0.673944" fill="#111217"/>
<circle cx="83.411" cy="73.5707" r="0.673944" fill="#111217"/>
<circle cx="80.7275" cy="73.5707" r="0.673944" fill="#111217"/>
<circle cx="78.0435" cy="73.5707" r="0.673944" fill="#111217"/>
<circle cx="75.358" cy="73.5707" r="0.673944" fill="#111217"/>
<circle cx="72.6774" cy="73.5707" r="0.673944" fill="#111217"/>
<circle cx="69.9935" cy="73.5707" r="0.673944" fill="#111217"/>
<circle cx="67.3114" cy="73.5707" r="0.673944" fill="#111217"/>
<circle cx="64.6279" cy="73.5707" r="0.673944" fill="#111217"/>
<circle cx="61.942" cy="73.5707" r="0.673944" fill="#111217"/>
<circle cx="59.2599" cy="73.5707" r="0.673944" fill="#111217"/>
<circle cx="56.5773" cy="73.5707" r="0.673944" fill="#111217"/>
<circle cx="53.8933" cy="73.5707" r="0.673944" fill="#111217"/>
<circle cx="51.2104" cy="73.5707" r="0.673944" fill="#111217"/>
<circle cx="86.0936" cy="70.8871" r="0.673944" fill="#111217"/>
<circle cx="86.0936" cy="73.5707" r="0.673944" fill="#111217"/>
<circle cx="88.7771" cy="70.8871" r="0.673944" fill="#111217"/>
<circle cx="88.7771" cy="73.5707" r="0.673944" fill="#111217"/>
<circle cx="91.4581" cy="70.8871" r="0.673944" fill="#111217"/>
<circle cx="91.4581" cy="73.5707" r="0.673944" fill="#111217"/>
<circle cx="94.1431" cy="70.8871" r="0.673944" fill="#111217"/>
<circle cx="94.1431" cy="73.5707" r="0.673944" fill="#111217"/>
<circle cx="96.8267" cy="70.8871" r="0.673944" fill="#111217"/>
<circle cx="96.8267" cy="73.5707" r="0.673944" fill="#111217"/>
<circle cx="99.5088" cy="70.8871" r="0.673944" fill="#111217"/>
<circle cx="99.5088" cy="73.5707" r="0.673944" fill="#111217"/>
<circle cx="102.194" cy="70.8871" r="0.673944" fill="#111217"/>
<circle cx="102.194" cy="73.5707" r="0.673944" fill="#111217"/>
</g>
<path fill-rule="evenodd" clip-rule="evenodd" d="M89.9802 95.2683C89.9802 95.0168 90.1841 94.8129 90.4355 94.8129C90.687 94.8129 90.8909 95.0168 90.8909 95.2683C90.8909 95.5198 90.687 95.7236 90.4355 95.7236C90.1841 95.7236 89.9802 95.5198 89.9802 95.2683ZM89.1982 95.8133L79.1598 95.8133L79.1598 118.96H102.308V110.592C102.308 110.57 102.309 110.55 102.312 110.529C101.838 110.319 101.508 109.844 101.508 109.293C101.508 108.546 102.113 107.941 102.859 107.941C103.606 107.941 104.211 108.546 104.211 109.293C104.211 109.921 103.783 110.449 103.202 110.601V119.855H78.7479C78.7362 119.856 78.7244 119.856 78.7126 119.856C78.7007 119.856 78.6889 119.856 78.6773 119.855H78.2649V112.078C78.2649 112.071 78.265 112.064 78.2653 112.057L78.2653 94.9189L89.1295 94.9189C89.2835 94.3417 89.8099 93.9166 90.4355 93.9166C91.1821 93.9166 91.7872 94.5218 91.7872 95.2683C91.7872 96.0148 91.1821 96.62 90.4355 96.62C89.883 96.62 89.4078 96.2884 89.1982 95.8133ZM82.5261 97.9234C82.3741 97.3432 81.8462 96.9151 81.2184 96.9151C80.4719 96.9151 79.8667 97.5202 79.8667 98.2668C79.8667 99.0133 80.4719 99.6185 81.2184 99.6185C81.7686 99.6185 82.2421 99.2897 82.453 98.8178L100.998 98.8178V94.7177L94.6183 94.7177C94.3713 94.7177 94.171 94.9179 94.171 95.1649C94.171 95.4119 94.3713 95.6121 94.6183 95.6121L100.103 95.6121V97.9234L82.5261 97.9234ZM92.2206 104.134H101.423C101.634 103.663 102.107 103.334 102.658 103.334C103.404 103.334 104.009 103.939 104.009 104.686C104.009 105.432 103.404 106.037 102.658 106.037C102.03 106.037 101.502 105.609 101.35 105.029L93.115 105.029V108.216L84.3688 108.216V114.152H92.9361C93.0904 113.575 93.6166 113.151 94.242 113.151C94.9885 113.151 95.5937 113.756 95.5937 114.502C95.5937 115.249 94.9885 115.854 94.242 115.854C93.6891 115.854 93.2138 115.522 93.0044 115.047H83.4743L83.4743 107.322L92.2206 107.322L92.2206 104.134ZM81.2184 98.7221C80.9669 98.7221 80.763 98.5182 80.763 98.2668C80.763 98.0153 80.9669 97.8114 81.2184 97.8114C81.4699 97.8114 81.6737 98.0153 81.6737 98.2668C81.6737 98.5182 81.4699 98.7221 81.2184 98.7221ZM102.658 104.23C102.406 104.23 102.202 104.434 102.202 104.686C102.202 104.937 102.406 105.141 102.658 105.141C102.909 105.141 103.113 104.937 103.113 104.686C103.113 104.434 102.909 104.23 102.658 104.23ZM81.7635 110.329C82.2385 110.12 82.5701 109.645 82.5701 109.092C82.5701 108.346 81.9649 107.74 81.2184 107.74C80.4719 107.74 79.8667 108.346 79.8667 109.092C79.8667 109.718 80.2918 110.244 80.869 110.398V117.451H97.7454C97.768 117.451 97.7902 117.449 97.812 117.446C98.0202 117.924 98.4969 118.258 99.0517 118.258C99.7983 118.258 100.403 117.653 100.403 116.907C100.403 116.16 99.7983 115.555 99.0517 115.555C98.4263 115.555 97.9001 115.98 97.7459 116.556H97.7454H81.7635V110.329ZM96.6474 109.043C97.2006 109.043 97.6763 108.71 97.8854 108.234H99.5036V110.145H88.7554C88.5129 109.783 88.1 109.544 87.6313 109.544C86.8848 109.544 86.2797 110.149 86.2797 110.896C86.2797 111.642 86.8848 112.247 87.6313 112.247C88.3294 112.247 88.9038 111.718 88.9755 111.039H100.398V107.34H97.953C97.7984 106.764 97.2724 106.339 96.6474 106.339C95.9009 106.339 95.2957 106.944 95.2957 107.691C95.2957 108.437 95.9009 109.043 96.6474 109.043ZM87.3885 103.935C87.5979 103.459 88.0732 103.127 88.626 103.127C89.3725 103.127 89.9777 103.733 89.9777 104.479C89.9777 105.226 89.3725 105.831 88.626 105.831C88.0005 105.831 87.4742 105.406 87.3201 104.829H84.8773V101.13H96.2972C96.3682 100.45 96.943 99.9199 97.6416 99.9199C98.3881 99.9199 98.9932 100.525 98.9932 101.272C98.9932 102.018 98.3881 102.623 97.6416 102.623C97.1735 102.623 96.7611 102.385 96.5185 102.024H85.7717V103.935H87.3885ZM102.755 94.7177C103.002 94.7177 103.202 94.918 103.202 95.1651V99.4411C103.678 99.6506 104.009 100.126 104.009 100.678C104.009 101.425 103.404 102.03 102.658 102.03C101.911 102.03 101.306 101.425 101.306 100.678C101.306 100.053 101.731 99.5267 102.308 99.3725V95.1651C102.308 94.918 102.508 94.7177 102.755 94.7177ZM99.0517 116.451C98.8003 116.451 98.5964 116.655 98.5964 116.907C98.5964 117.158 98.8003 117.362 99.0517 117.362C99.3032 117.362 99.5071 117.158 99.5071 116.907C99.5071 116.655 99.3032 116.451 99.0517 116.451ZM102.202 100.678C102.202 100.427 102.406 100.223 102.658 100.223C102.909 100.223 103.113 100.427 103.113 100.678C103.113 100.93 102.909 101.134 102.658 101.134C102.406 101.134 102.202 100.93 102.202 100.678ZM102.859 108.837C102.608 108.837 102.404 109.041 102.404 109.293C102.404 109.544 102.608 109.748 102.859 109.748C103.111 109.748 103.315 109.544 103.315 109.293C103.315 109.041 103.111 108.837 102.859 108.837ZM87.6313 110.44C87.3799 110.44 87.176 110.644 87.176 110.896C87.176 111.147 87.3799 111.351 87.6313 111.351C87.8828 111.351 88.0867 111.147 88.0867 110.896C88.0867 110.644 87.8828 110.44 87.6313 110.44ZM98.0969 101.272C98.0969 101.523 97.893 101.727 97.6416 101.727C97.3901 101.727 97.1862 101.523 97.1862 101.272C97.1862 101.02 97.3901 100.816 97.6416 100.816C97.893 100.816 98.0969 101.02 98.0969 101.272ZM96.6474 107.236C96.3959 107.236 96.192 107.439 96.192 107.691C96.192 107.942 96.3959 108.146 96.6474 108.146C96.8989 108.146 97.1027 107.942 97.1027 107.691C97.1027 107.439 96.8989 107.236 96.6474 107.236ZM89.0814 104.479C89.0814 104.731 88.8775 104.934 88.626 104.934C88.3745 104.934 88.1707 104.731 88.1707 104.479C88.1707 104.228 88.3745 104.024 88.626 104.024C88.8775 104.024 89.0814 104.228 89.0814 104.479ZM94.242 114.047C93.9905 114.047 93.7867 114.251 93.7867 114.502C93.7867 114.754 93.9905 114.958 94.242 114.958C94.4935 114.958 94.6974 114.754 94.6974 114.502C94.6974 114.251 94.4935 114.047 94.242 114.047ZM80.763 109.092C80.763 108.841 80.9669 108.637 81.2184 108.637C81.4699 108.637 81.6737 108.841 81.6737 109.092C81.6737 109.344 81.4699 109.547 81.2184 109.547C80.9669 109.547 80.763 109.344 80.763 109.092Z" fill="#10B981"/>
<path d="M122.316 128.799C115.03 128.799 109.123 123.192 109.123 116.277H135.509C135.509 123.192 129.603 128.799 122.316 128.799Z" fill="#111217"/>
<rect x="55.9047" y="116.277" width="66.6361" height="12.5222" fill="#111217"/>
<path d="M56.1282 128.799C48.8418 128.799 42.9351 123.192 42.9351 116.277H69.3212C69.3212 123.192 63.4145 128.799 56.1282 128.799Z" fill="#DFDFDF"/>
<path fill-rule="evenodd" clip-rule="evenodd" d="M142.981 51.4296H153.175V61.4244C153.175 65.1217 151.744 68.6714 149.19 71.3335H145.412L147.933 72.594L144.02 76.5075H140.236L142.759 77.7687L130.895 89.6321C128.211 92.3159 124.571 93.8237 120.776 93.8237H111.378L111.012 83.9384C110.865 79.9616 112.38 76.1031 115.194 73.2892L132.862 55.6212C135.546 52.9374 139.186 51.4296 142.981 51.4296Z" fill="#10B981"/>
<path d="M152.039 51.4299L153.165 52.5558L101.092 104.629L98.8399 104.629L152.039 51.4299Z" fill="#111217"/>
</svg>
