<svg width="9" height="9" viewBox="0 0 9 9" fill="none" xmlns="http://www.w3.org/2000/svg">
<g clip-path="url(#clip0_1_30524)">
<path d="M5.53869 4.50006C5.52369 4.51131 5.51244 4.52256 5.50119 4.53381L5.53869 4.50006ZM5.53869 4.50006C5.77118 4.32381 5.93618 4.21881 6.38243 4.21881C8.16365 4.21881 8.16365 5.1638 8.16365 6.00004V6.37504L5.53869 4.50006ZM5.25501 5.06755L5.63561 4.66455C5.64573 4.65447 5.64831 4.65222 5.65119 4.65006L5.65195 4.64948C5.76691 4.56234 5.84816 4.50646 5.94745 4.46845C6.04556 4.43088 6.17394 4.40631 6.38243 4.40631C7.24428 4.40631 7.6114 4.63417 7.78403 4.89839C7.97047 5.18374 7.97615 5.5675 7.97615 6.00004V6.37453C7.97248 7.06129 7.79747 7.54467 7.48375 7.85757C7.17005 8.17046 6.68669 8.34376 5.99993 8.34376H2.99997C1.95061 8.34376 1.48974 8.06621 1.27024 7.73027C1.03693 7.37321 1.03125 6.89571 1.03125 6.37504V6.00004C1.03125 5.5675 1.03693 5.18374 1.22337 4.89839C1.396 4.63417 1.76312 4.40631 2.62498 4.40631C2.83271 4.40631 2.96106 4.43162 3.05939 4.46963C3.15721 4.50745 3.23726 4.56201 3.34923 4.64489C3.35385 4.64893 3.35789 4.65222 3.36094 4.65465L3.36664 4.65909L3.3699 4.66255L3.7524 5.06755L3.75244 5.06759C4.14892 5.48712 4.85848 5.48712 5.25496 5.06759L5.25501 5.06755ZM3.37162 4.66296C3.37236 4.66354 3.37228 4.66352 3.3716 4.66294L3.37162 4.66296ZM5.77549 4.78464L5.76225 4.79449L5.75093 4.80651L5.38757 5.19235C5.38751 5.19241 5.38745 5.19248 5.38739 5.19254C5.15246 5.44042 4.83785 5.5763 4.49995 5.5763C4.16206 5.5763 3.84746 5.44043 3.61253 5.19256C3.61246 5.19249 3.6124 5.19242 3.61233 5.19235L3.24897 4.80651L3.23765 4.79449L3.22441 4.78464C3.14608 4.72635 3.06992 4.67017 2.97063 4.63593C2.87177 4.60184 2.7641 4.59381 2.62498 4.59381C2.01687 4.59381 1.62215 4.68399 1.40939 4.96353C1.30474 5.10102 1.2602 5.26465 1.23921 5.43374C1.21874 5.59876 1.21874 5.7892 1.21874 5.99131L1.21874 6.00004V6.37504L1.21874 6.3835C1.21874 6.63376 1.21874 6.87167 1.24512 7.08097C1.27202 7.29439 1.32824 7.4973 1.45458 7.66853C1.71235 8.01787 2.19833 8.15626 2.99997 8.15626H5.99993C6.58008 8.15626 7.03859 8.03338 7.34843 7.72354C7.65828 7.41369 7.78116 6.95518 7.78116 6.37504V6.00004V5.99132C7.78116 5.7892 7.78116 5.59876 7.76069 5.43374C7.7397 5.26465 7.69516 5.10102 7.59051 4.96353C7.37776 4.68399 6.98303 4.59381 6.37493 4.59381C6.2358 4.59381 6.12814 4.60184 6.02928 4.63593C5.92998 4.67017 5.85382 4.72635 5.77549 4.78464Z" fill="#D3D6DE" stroke="#D3D6DE" stroke-width="0.352941"/>
<path d="M7.1249 4.59367C7.07471 4.59367 7.03115 4.55012 7.03115 4.49992V2.24995V2.24124C7.03116 2.03912 7.03116 1.84867 7.01068 1.68365C6.9897 1.51456 6.94516 1.35093 6.84051 1.21344C6.62775 0.933907 6.23303 0.843723 5.62492 0.843723H3.37495C2.76685 0.843723 2.37212 0.933907 2.15936 1.21344C2.05472 1.35093 2.01018 1.51456 1.98919 1.68365C1.96872 1.84867 1.96872 2.03911 1.96872 2.24123L1.96872 2.24995V4.49992C1.96872 4.55012 1.92517 4.59367 1.87497 4.59367C1.82478 4.59367 1.78123 4.55012 1.78123 4.49992V2.24995C1.78123 1.81741 1.78691 1.43365 1.97335 1.14831C2.14598 0.884085 2.5131 0.656226 3.37495 0.656226H5.62492C6.48678 0.656226 6.8539 0.884085 7.02653 1.14831C7.21297 1.43365 7.21865 1.81741 7.21865 2.24995V4.49992C7.21865 4.55012 7.1751 4.59367 7.1249 4.59367Z" fill="#D3D6DE" stroke="#D3D6DE" stroke-width="0.352941"/>
<path d="M5.20484 3.74243H3.95611C3.80236 3.74243 3.67486 3.61493 3.67486 3.46118C3.67486 3.30743 3.80236 3.17993 3.95611 3.17993H5.20484C5.35859 3.17993 5.48609 3.30743 5.48609 3.46118C5.48609 3.61493 5.36234 3.74243 5.20484 3.74243Z" fill="#D3D6DE"/>
<path d="M5.5198 2.61743H3.64483C3.49108 2.61743 3.36359 2.48993 3.36359 2.33618C3.36359 2.18243 3.49108 2.05493 3.64483 2.05493H5.5198C5.67354 2.05493 5.80104 2.18243 5.80104 2.33618C5.80104 2.48993 5.67729 2.61743 5.5198 2.61743Z" fill="#D3D6DE"/>
</g>
<defs>
<clipPath id="clip0_1_30524">
<rect width="8.47059" height="8.47059" fill="white" transform="scale(1.06249)"/>
</clipPath>
</defs>
</svg>
