<svg width="32" height="32" viewBox="0 0 32 32" fill="none" xmlns="http://www.w3.org/2000/svg">
<path d="M4.00001 17.0533C4.20975 19.3229 5.06153 21.4859 6.45568 23.2891C7.84983 25.0922 9.72869 26.4611 11.8724 27.2354C14.0161 28.0097 16.336 28.1575 18.5607 27.6615C20.7853 27.1654 22.8227 26.0461 24.4344 24.4344C26.0461 22.8227 27.1654 20.7853 27.6615 18.5607C28.1575 16.336 28.0097 14.0161 27.2354 11.8724C26.4611 9.72868 25.0922 7.84982 23.2891 6.45567C21.4859 5.06152 19.3229 4.20974 17.0533 4C18.3821 5.79769 19.0215 8.0126 18.8553 10.2419C18.6891 12.4712 17.7282 14.5667 16.1475 16.1475C14.5668 17.7282 12.4712 18.689 10.2419 18.8553C8.01261 19.0215 5.7977 18.3821 4.00001 17.0533Z" fill="#444A5B"/>
</svg>
