<svg width="194" height="251" viewBox="0 0 194 251" fill="none" xmlns="http://www.w3.org/2000/svg">
<path style="mix-blend-mode:screen" d="M70.0382 209.176L92.5799 196.157V185.707H88.3292L70.0382 196.278V209.176Z" fill="url(#paint0_radial_1_9454)"/>
<path d="M193.989 218.338H192.881C192.227 217.548 191.428 216.89 190.528 216.398L40.5336 128.807C35.3812 125.922 26.4418 126.411 20.5251 129.915L4.90482 137.935C3.52096 138.715 2.30417 139.76 1.32389 141.01H0.0100365V149.322C0.173195 151.04 1.28955 152.645 3.44496 153.856L153.465 241.49C158.618 244.375 167.549 243.886 173.474 240.382L189.077 232.344C191.885 230.687 193.491 228.643 193.869 226.651H193.972L193.989 218.338Z" fill="url(#paint1_linear_1_9454)"/>
<path d="M153.466 233.959L3.48838 146.368C-1.66402 143.483 -1.00281 138.296 4.92244 134.801L20.5256 126.763C26.4423 123.259 35.4074 122.761 40.534 125.655L190.529 213.246C195.681 216.14 195.011 221.318 189.095 224.822L173.491 232.859C167.566 236.389 158.618 236.887 153.466 233.959Z" fill="url(#paint2_linear_1_9454)"/>
<path style="mix-blend-mode:color-dodge" d="M189.094 223.963L173.491 232.001C167.566 235.496 158.609 235.994 153.483 233.1L3.48789 145.509C1.42693 144.35 0.319168 142.821 0.0529611 141.216C-0.26477 143.345 0.842994 145.415 3.48789 146.883L153.465 234.44C158.618 237.334 167.549 236.835 173.474 233.34L189.077 225.303C192.624 223.207 194.229 220.511 193.912 218.064C193.628 220.125 191.997 222.246 189.094 223.963Z" fill="url(#paint3_radial_1_9454)"/>
<g opacity="0.2">
<path opacity="0.05" d="M22.5694 126.162C24.795 124.952 27.276 124.287 29.8085 124.221C31.8945 124.127 33.9683 124.587 35.8197 125.552C35.8969 125.552 39.7612 127.751 39.8127 127.777L112.341 169.434L117.279 172.267L188.871 213.349C189.876 213.882 190.73 214.659 191.355 215.609C191.979 216.559 192.354 217.652 192.444 218.785C192.504 221.198 191.096 223.508 188.416 225.045L182.663 228.059C182.603 228.059 177.674 230.592 177.588 230.592C175.357 231.779 172.858 232.371 170.331 232.31C168.232 232.315 166.165 231.792 164.32 230.79L92.8137 189.081L88.52 186.582L21.3071 147.407C20.2959 146.886 19.4365 146.113 18.8122 145.162C18.1878 144.211 17.8196 143.115 17.7434 141.98C17.7502 140.714 18.0983 139.473 18.7512 138.387C19.404 137.302 20.3374 136.413 21.4531 135.814L21.5819 134.26C21.4617 134.191 22.432 126.239 22.5694 126.162Z" fill="#ABB2E2"/>
<path opacity="0.1" d="M22.6121 126.815C24.8145 125.645 27.2418 124.96 29.731 124.805C31.8061 124.663 33.8815 125.078 35.7421 126.008C35.8881 126.008 39.6408 128.111 39.7438 128.172L111.972 169.665L116.892 172.499L188.167 213.435C190.168 214.594 191.739 216.733 191.842 218.759C191.963 221.138 190.666 223.439 187.978 224.994L182.259 227.991C182.13 228.068 177.356 230.464 177.201 230.472C174.995 231.608 172.536 232.161 170.056 232.078C167.979 232.047 165.94 231.514 164.114 230.524L93.0539 189.099L88.7602 186.608L21.9681 147.673C19.9672 146.514 18.3184 144.393 18.3184 142.366C18.2621 141.166 18.5327 139.973 19.1014 138.914C19.67 137.856 20.5154 136.971 21.5473 136.355L21.6074 134.835C21.4099 134.646 22.3459 126.969 22.6121 126.815Z" fill="#A7ADDF"/>
<path opacity="0.14" d="M22.6638 127.476C24.8369 126.345 27.207 125.643 29.6453 125.406C31.7074 125.215 33.783 125.58 35.6564 126.463C35.8711 126.463 39.5035 128.481 39.6581 128.567L111.594 169.915L116.506 172.731L187.472 213.521C189.369 214.612 191.095 216.81 191.241 218.725C191.422 221.061 190.245 223.371 187.549 224.925L181.881 227.939C181.692 228.051 177.081 230.343 176.849 230.361C174.666 231.435 172.247 231.94 169.816 231.829C167.757 231.744 165.745 231.179 163.942 230.18L93.3546 189.013L89.0609 186.548L22.6896 147.862C20.7918 146.763 18.9627 144.608 18.9627 142.71C18.9627 140.597 19.4178 138.141 21.702 136.819V135.342C21.3585 135.11 22.2602 127.699 22.6638 127.476Z" fill="#A3A9DC"/>
<path opacity="0.19" d="M22.7153 128.12C24.8661 127.021 27.19 126.301 29.5852 125.99C31.6352 125.742 33.7142 126.06 35.5963 126.909C35.8883 126.909 39.3919 128.833 39.6066 128.953L111.251 170.172L116.137 172.98L186.81 213.615C188.605 214.646 190.494 216.904 190.683 218.716C190.915 221.018 189.825 223.31 187.154 224.873L181.546 227.896C181.289 228.051 176.84 230.24 176.523 230.258C174.526 231.218 172.329 231.685 170.115 231.621C167.9 231.557 165.734 230.962 163.796 229.888L93.6122 189.004L89.4045 186.548L23.3938 148.086C21.599 147.055 19.5896 144.848 19.5896 143.028C19.5896 141.027 19.684 138.511 21.848 137.266L21.7708 135.84C21.2985 135.565 22.1743 128.429 22.7153 128.12Z" fill="#9FA4D8"/>
<path opacity="0.24" d="M22.7667 128.773C24.8853 127.708 27.1519 126.966 29.4906 126.574C31.5091 126.287 33.5679 126.56 35.4416 127.364C36.8145 127.946 38.1534 128.606 39.4519 129.339L110.804 170.413L115.673 173.212L186.089 213.684C187.806 214.663 189.824 216.973 190.048 218.673C190.348 220.949 189.404 223.233 186.69 224.796L181.134 227.836C180.816 228.016 176.531 230.112 176.136 230.137C174.009 231.103 171.673 231.517 169.344 231.34C167.323 231.162 165.362 230.559 163.59 229.571L93.8439 188.953L89.6533 186.514L24.1149 148.352C22.3974 147.373 20.2248 145.123 20.2248 143.405C20.2248 141.533 19.9758 138.957 22.0024 137.789L21.865 136.398C21.221 136.063 22.0797 129.193 22.7667 128.773Z" fill="#9BA0D5"/>
<path opacity="0.29" d="M22.8182 129.425C24.9082 128.387 27.1255 127.628 29.4133 127.167C31.4105 126.826 33.4634 127.052 35.3385 127.82C36.7189 128.362 38.059 129.002 39.3488 129.734L110.409 170.61L115.261 173.401L185.359 213.761C186.939 214.672 189.163 217.042 189.421 218.63C189.773 220.88 188.94 223.147 186.226 224.719L180.73 227.767C179.115 228.61 177.452 229.359 175.75 230.009C173.649 230.924 171.351 231.293 169.069 231.082C167.068 230.859 165.132 230.237 163.375 229.253L94.0757 188.893L89.9195 186.454L24.7933 148.541C23.2132 147.63 20.8259 145.329 20.8259 143.723C20.8259 142.006 20.2162 139.335 22.114 138.236L21.9079 136.888C21.2209 136.484 22.0024 129.898 22.8182 129.425Z" fill="#979BD2"/>
<path opacity="0.33" d="M22.8611 130.052C24.9241 129.041 27.0927 128.26 29.3273 127.725C31.3066 127.338 33.3552 127.519 35.2354 128.249C36.6223 128.756 37.9662 129.373 39.2542 130.095L110.022 170.825L114.848 173.598L184.655 213.77C186.132 214.629 188.811 217.033 188.811 218.527C189.67 220.648 188.51 223.01 185.788 224.581L180.344 227.647C178.741 228.486 177.082 229.215 175.38 229.828C173.306 230.684 171.05 231.006 168.82 230.764C167.274 230.764 164.294 229.51 163.195 228.875L94.3247 188.798L90.1942 186.394L25.5145 148.773C24.0461 147.914 21.4699 145.569 21.4699 144.067C21.4699 142.427 20.4996 139.773 22.2771 138.717L22.0023 137.42C21.1436 136.922 21.9165 130.628 22.8611 130.052Z" fill="#9397CF"/>
<path opacity="0.38" d="M22.9384 130.731C24.9724 129.74 27.094 128.941 29.2759 128.343C31.2328 127.901 33.276 128.035 35.1582 128.73C36.5513 129.197 37.8969 129.795 39.1771 130.516L109.67 171.082L114.479 173.856L183.951 213.864C185.325 214.654 188.244 217.119 188.244 218.51C189.18 220.58 188.115 222.95 185.385 224.521L179.992 227.587C178.404 228.422 176.753 229.131 175.054 229.708C173.006 230.514 170.788 230.792 168.605 230.515C167.171 230.515 164.071 229.158 163.041 228.566L94.6168 188.764L90.5034 186.376L26.2188 148.979C24.8448 148.189 22.0797 145.793 22.0797 144.402C22.0797 142.873 20.7573 140.108 22.406 139.189L22.0625 137.927C21.0922 137.403 21.8307 131.357 22.9384 130.731Z" fill="#8F92CC"/>
<path opacity="0.43" d="M22.9383 131.383C24.943 130.412 27.0185 129.594 29.1469 128.936C31.0809 128.439 33.1187 128.525 35.0035 129.185C35.6561 129.185 38.5586 130.636 39.0309 130.902L109.215 171.323L114.007 174.079L183.229 213.942C184.491 214.672 187.574 217.188 187.574 218.476C188.631 220.494 187.626 222.873 184.878 224.487L179.554 227.57C177.976 228.397 176.33 229.087 174.633 229.631C172.609 230.377 170.431 230.608 168.296 230.301C166.973 230.301 163.745 228.832 162.8 228.291L94.8055 188.789L90.7781 186.359L26.9056 149.219C25.6347 148.489 22.6893 146.05 22.6893 144.762C22.6893 143.474 20.9718 140.572 22.5261 139.687L22.0796 138.468C21.0319 137.858 21.7447 132.087 22.9383 131.383Z" fill="#8B8EC9"/>
<path opacity="0.48" d="M23.0158 132.036C24.9918 131.08 27.0219 130.24 29.0956 129.52C31.0049 128.978 33.0325 129.02 34.9178 129.64C35.6477 129.64 38.43 130.997 38.9538 131.297L108.812 171.555L113.586 174.303L182.517 214.01C183.676 214.68 186.965 217.256 186.965 218.433C188.141 220.399 187.188 222.795 184.432 224.384L179.159 227.475C177.596 228.306 175.953 228.976 174.256 229.476C172.261 230.172 170.123 230.355 168.038 230.009C166.828 230.009 163.47 228.446 162.603 227.939L95.072 188.686L91.0102 186.325L27.5756 149.451C26.4164 148.781 23.282 146.291 23.282 145.114C23.282 143.938 21.2382 140.975 22.6379 140.168L22.157 139C20.9806 138.322 21.6504 132.826 23.0158 132.036Z" fill="#8789C6"/>
<path opacity="0.52" d="M23.0674 132.689C24.0636 132.113 27.8248 130.567 29.0099 130.112C30.9002 129.524 32.9245 129.524 34.8149 130.112C35.6221 130.112 38.2498 131.375 38.8595 131.71L108.417 171.812L113.174 174.543L181.813 214.096C182.869 214.706 186.355 217.334 186.355 218.39C187.652 220.313 186.759 222.684 183.994 224.307L178.781 227.415C177.228 228.239 175.59 228.89 173.895 229.356C171.925 229.998 169.826 230.134 167.789 229.751C166.69 229.751 163.212 228.033 162.422 227.621L95.3125 188.643L91.2765 186.299L28.237 149.674C27.1808 149.065 23.8575 146.531 23.8575 145.458C23.8575 144.384 21.4616 141.387 22.7325 140.658L22.1915 139.524C20.9292 138.777 21.5646 133.556 23.0674 132.689Z" fill="#8385C2"/>
<path opacity="0.57" d="M23.1101 133.341C24.0118 132.826 27.8847 131.151 28.9323 130.696C30.7975 130.052 32.8163 130.001 34.7116 130.55C36.1265 130.862 37.4889 131.377 38.7562 132.079L108.064 172.027L112.796 174.758L181.143 214.156C182.096 214.697 185.788 217.385 185.788 218.347C187.197 220.219 186.364 222.641 183.59 224.229L178.438 227.346C176.897 228.169 175.262 228.801 173.569 229.227C171.62 229.824 169.551 229.916 167.557 229.493C166.57 229.493 162.963 227.716 162.25 227.304L95.5785 188.592L91.5682 186.265L28.9495 149.906C28.0049 149.356 24.4927 146.772 24.4927 145.81C24.4927 144.848 21.7362 141.8 22.8783 141.138L22.2686 140.056C20.8774 139.241 21.4786 134.286 23.1101 133.341Z" fill="#7F80BF"/>
<path opacity="0.62" d="M23.1617 134.002C23.9603 133.539 27.9363 131.727 28.8551 131.289C30.6155 130.43 32.7881 130.628 34.6086 131.005C36.0259 131.278 37.391 131.774 38.6532 132.474L107.67 172.267L112.384 174.981L180.447 214.208C181.306 214.697 185.179 217.437 185.179 218.296C186.707 220.116 185.934 222.529 183.152 224.135L178.051 227.269C176.52 228.085 174.889 228.697 173.199 229.09C171.284 229.629 169.263 229.673 167.326 229.219C166.467 229.219 162.714 227.338 162.087 226.969L95.8534 188.532L91.8688 186.213L29.6623 150.147C28.8036 149.657 25.1282 147.029 25.1282 146.179C25.1282 145.329 22.011 142.229 23.0329 141.645L22.3545 140.597C20.826 139.696 21.3927 135.016 23.1617 134.002Z" fill="#7B7CBC"/>
<path opacity="0.67" d="M23.2133 134.655C23.9089 134.251 27.9878 132.293 28.7779 131.881C30.4953 131.023 32.6679 131.126 34.5056 131.461C35.9261 131.694 37.2967 132.168 38.5588 132.86L107.257 172.499L111.955 175.204L179.743 214.294C180.481 214.723 184.569 217.514 184.569 218.27C186.218 220.039 185.505 222.469 182.714 224.083L177.665 227.218C176.15 228.035 174.524 228.628 172.839 228.978C170.949 229.468 168.966 229.468 167.077 228.978C166.312 228.978 162.457 226.986 161.924 226.668L96.1368 188.497L92.178 186.205L30.3494 150.353C29.6109 149.932 25.7294 147.253 25.7294 146.505C25.7294 145.758 22.2945 142.624 23.1532 142.109L22.4061 141.104C20.7659 140.151 21.3069 135.754 23.2133 134.655Z" fill="#7777B9"/>
<path opacity="0.71" d="M23.2647 135.308C23.8573 134.964 28.0393 132.852 28.6919 132.465C30.3493 131.503 32.5562 131.607 34.4025 131.907C35.8236 132.109 37.1967 132.566 38.4557 133.255L106.888 172.757L111.56 175.462L179.039 214.397C179.674 214.758 183.968 217.608 183.968 218.253C185.737 219.97 185.076 222.409 182.25 224.032L177.261 227.183C175.753 228 174.128 228.58 172.444 228.901C170.586 229.344 168.644 229.296 166.81 228.763C166.149 228.763 162.165 226.668 161.658 226.393L96.36 188.446L92.427 186.162L31.0534 150.576C30.4266 150.207 26.3562 147.484 26.3562 146.849C26.3562 146.214 22.5348 143.019 23.2905 142.555L22.4833 141.602C20.7143 140.615 21.2209 136.484 23.2647 135.308Z" fill="#7373B6"/>
<path opacity="0.76" d="M23.3164 135.96C23.8144 135.668 27.9793 133.058 28.6147 133.058C30.4226 132.358 32.3763 132.119 34.2995 132.362C35.7227 132.526 37.1015 132.96 38.3613 133.642L106.493 172.989L111.156 175.677L178.369 214.44C178.893 214.74 183.384 217.651 183.384 218.184C185.273 219.858 184.672 222.306 181.864 223.929L176.901 227.089C175.405 227.895 173.786 228.447 172.109 228.72C170.277 229.116 168.373 229.024 166.587 228.454C166.029 228.454 161.924 226.247 161.529 226.024L96.6177 188.446L92.7105 186.179L31.7405 150.851C31.2081 150.55 26.9488 147.776 26.9574 147.244C26.966 146.712 22.7753 143.483 23.4108 143.122L22.5521 142.203C20.6629 141.07 21.1352 137.214 23.3164 135.96Z" fill="#6F6EB3"/>
<path opacity="0.81" d="M23.3595 136.613C23.7631 136.381 28.031 133.642 28.5119 133.642C30.2977 132.89 32.2425 132.595 34.1709 132.783C35.5938 132.908 36.9762 133.323 38.2327 134.002L106.073 173.169L110.718 175.848L177.613 214.491C178.034 214.74 182.766 217.703 182.766 218.124C184.767 219.755 184.226 222.211 181.409 223.834L176.523 227.012C175.041 227.819 173.427 228.354 171.757 228.592C169.95 228.938 168.083 228.799 166.347 228.188C164.636 227.457 162.97 226.625 161.358 225.698L96.8755 188.343L92.994 186.093L32.462 151.022C32.0412 150.773 27.593 147.965 27.593 147.536C27.593 147.107 23.0589 143.835 23.5656 143.543L22.621 142.684C20.6115 141.533 21.0495 137.944 23.3595 136.613Z" fill="#6B6AB0"/>
<path opacity="0.86" d="M23.411 137.266C23.7116 137.094 28.074 134.234 28.4518 134.234C30.2228 133.448 32.1623 133.118 34.0937 133.272C35.5147 133.359 36.9002 133.752 38.1555 134.423L105.712 173.444L110.332 176.115L176.935 214.586C177.253 214.766 182.148 217.78 182.148 218.107C184.269 219.678 183.788 222.143 180.954 223.774L176.137 226.969C174.662 227.771 173.047 228.284 171.379 228.48C169.6 228.78 167.773 228.596 166.089 227.948C165.754 227.948 161.401 225.526 161.16 225.371L97.1246 188.291L93.2689 186.059L33.1577 151.246C32.8399 151.065 28.2114 148.206 28.2114 147.879C28.2114 147.553 23.3166 144.247 23.6944 144.024L22.6811 143.165C20.5601 141.989 20.9637 138.64 23.411 137.266Z" fill="#6765AC"/>
<path opacity="0.9" d="M23.4621 137.918C23.6596 137.807 28.125 134.827 28.374 134.827C30.1232 133.992 32.0553 133.614 33.9901 133.728C35.4123 133.776 36.8046 134.149 38.0605 134.818L105.316 173.676L109.919 176.338L176.23 214.654C176.445 214.775 181.546 217.849 181.546 218.089C183.779 219.618 183.358 222.091 180.516 223.723L175.793 226.9C174.33 227.7 172.72 228.197 171.061 228.36C169.314 228.608 167.533 228.377 165.908 227.69C165.685 227.69 161.203 225.165 161.048 225.071L97.4504 188.266L93.6119 186.042L33.8442 151.52C33.6295 151.392 28.812 148.489 28.8206 148.274C28.8292 148.06 23.5651 144.702 23.8228 144.556L22.7408 143.766C20.5081 142.452 20.8773 139.412 23.4621 137.918Z" fill="#6361A9"/>
<path opacity="0.95" d="M23.5139 138.571C23.6083 138.511 28.1682 135.411 28.297 135.411C30.0251 134.531 31.9496 134.108 33.8873 134.183C35.3068 134.197 36.7023 134.55 37.9577 135.213L104.939 173.916L109.516 176.561L175.535 214.723C175.638 214.783 180.937 217.918 180.937 218.021C183.289 219.498 182.929 221.979 180.078 223.628L175.372 226.84C173.917 227.633 172.31 228.11 170.658 228.24C168.927 228.443 167.173 228.164 165.591 227.432C165.479 227.432 160.877 224.796 160.791 224.753L97.6482 188.214L93.844 186.016L34.5915 151.718C34.4884 151.658 29.482 148.704 29.482 148.592C29.482 148.481 23.8745 145.089 24.0033 145.011L22.8612 144.264C20.4482 142.933 20.7917 140.142 23.5139 138.571Z" fill="#5F5CA6"/>
<path opacity="0.2" d="M165.342 227.175L94.0674 185.956L22.7927 144.737C20.3195 143.302 20.6287 140.812 23.4882 139.163L28.1426 135.943C30.9935 134.294 35.313 134.114 37.7861 135.539L109.018 176.759L180.293 217.978C182.766 219.403 182.457 221.902 179.597 223.551L174.943 226.771C172.135 228.42 167.815 228.6 165.342 227.175Z" fill="#5B58A3"/>
</g>
<path d="M165.745 226.23L26.5536 145.801C19.4433 141.688 13.6726 130.67 13.6726 121.181V14.6988C13.6726 5.25272 19.4433 0.847427 26.5536 4.95216L165.745 85.3982C172.856 89.5029 178.626 100.529 178.626 110.018V216.501C178.626 225.973 172.856 230.335 165.745 226.23Z" fill="url(#paint4_linear_1_9454)"/>
<path d="M169.498 222.031L28.0909 140.357C22.1828 136.604 18.5332 129.108 18.5332 121.465V10.9633C18.5394 10.5516 18.6535 10.1487 18.8641 9.79489C19.0747 9.4411 19.3745 9.14877 19.7335 8.94711C20.0925 8.74546 20.4981 8.64153 20.9098 8.64572C21.3215 8.64991 21.7249 8.76208 22.0797 8.971L22.4919 9.21145L164.08 91.0314C171.113 95.0846 173.637 102.281 173.637 109.924V220.013C173.627 220.454 173.504 220.886 173.28 221.266C173.055 221.646 172.736 221.962 172.354 222.184C171.973 222.405 171.54 222.525 171.099 222.531C170.657 222.538 170.221 222.43 169.833 222.22L169.498 222.031Z" fill="url(#paint5_linear_1_9454)"/>
<g style="mix-blend-mode:overlay" opacity="0.7">
<path d="M169.498 222.031L28.0909 140.357C22.1828 136.604 18.5332 129.108 18.5332 121.465V10.9633C18.5394 10.5516 18.6535 10.1487 18.8641 9.79489C19.0747 9.4411 19.3745 9.14877 19.7335 8.94711C20.0925 8.74546 20.4981 8.64153 20.9098 8.64572C21.3215 8.64991 21.7249 8.76208 22.0797 8.971L22.4919 9.21145L164.08 91.0314C171.113 95.0846 173.637 102.281 173.637 109.924V220.013C173.627 220.454 173.504 220.886 173.28 221.266C173.055 221.646 172.736 221.962 172.354 222.184C171.973 222.405 171.54 222.525 171.099 222.531C170.657 222.538 170.221 222.43 169.833 222.22L169.498 222.031Z" fill="url(#paint6_linear_1_9454)"/>
</g>
<path d="M164.054 90.9971L22.4662 9.17715L22.0797 8.97106C21.7224 8.76072 21.3159 8.64854 20.9013 8.64586C20.4867 8.64319 20.0787 8.75012 19.7187 8.95583C19.3587 9.16153 19.0595 9.45872 18.8513 9.81728C18.6431 10.1758 18.5334 10.583 18.5332 10.9977V121.405C18.5332 129.073 22.1828 136.57 28.0909 140.297L169.524 222.005L169.833 222.186C170.221 222.396 170.657 222.503 171.099 222.497C171.54 222.491 171.973 222.371 172.354 222.15C172.736 221.928 173.055 221.612 173.28 221.232C173.504 220.852 173.627 220.42 173.637 219.979V109.915C173.612 102.246 171.087 95.0503 164.054 90.9971ZM172.117 220.004C172.117 220.143 172.09 220.28 172.037 220.407C171.984 220.535 171.906 220.651 171.807 220.748C171.709 220.846 171.593 220.923 171.465 220.975C171.337 221.027 171.199 221.053 171.061 221.052C170.88 221.052 170.703 221.005 170.546 220.915L28.8036 139.026C23.4795 135.643 20.0016 128.721 20.0016 121.405V10.9633C20.0016 10.7356 20.0921 10.5171 20.2531 10.3561C20.4142 10.1951 20.6326 10.1046 20.8603 10.1046C21.0115 10.1062 21.1597 10.1476 21.2897 10.2248L163.307 92.268C170.589 96.4672 172.117 104.17 172.117 109.898V220.004Z" fill="#AFB6E5"/>
<path d="M171.67 81.9632L32.4871 1.543C29.6705 -0.0800068 27.0686 -0.380562 24.9475 0.443821C24.6813 0.546868 18.8076 3.95603 18.5499 4.09343C20.7569 3.02002 23.5392 3.2347 26.5705 4.95216L165.745 85.3982C172.855 89.5029 178.626 100.529 178.626 110.018V216.501C178.626 222.417 176.385 226.342 172.958 227.458C173.358 227.442 173.745 227.314 174.075 227.089C174.238 227.003 180.412 223.293 180.567 223.19C183.014 221.473 184.543 217.952 184.543 213.074V106.592C184.56 97.1027 178.789 86.0765 171.67 81.9632Z" fill="url(#paint7_linear_1_9454)"/>
<path d="M171.568 82.0404L32.3847 1.62014C29.5681 -0.0114458 26.9661 -0.303415 24.8451 0.51238C24.5788 0.615428 18.8339 3.9473 18.5591 4.09329C20.7661 3.01987 23.5484 3.23456 26.5797 4.95202L165.746 85.398C172.856 89.5027 178.627 100.529 178.627 110.018V216.501C178.627 222.417 176.385 226.342 172.959 227.458C173.358 227.442 173.745 227.314 174.075 227.089C174.239 227.003 180.31 223.37 180.464 223.259C182.912 221.541 184.432 218.021 184.432 213.143V106.66C184.449 97.1712 178.678 86.1537 171.568 82.0404Z" fill="url(#paint8_linear_1_9454)"/>
<path d="M171.499 82.1177L32.2725 1.68892C29.4558 0.0659148 26.8539 -0.234635 24.7328 0.58116C24.458 0.684207 18.8076 3.95597 18.5499 4.09337C20.7569 3.01995 23.5392 3.23464 26.5705 4.9521L165.745 85.3981C172.855 89.5028 178.626 100.529 178.626 110.018V216.501C178.626 222.417 176.385 226.342 172.959 227.458C173.358 227.442 173.745 227.314 174.075 227.089C174.238 227.003 180.198 223.439 180.352 223.328C182.8 221.61 184.328 218.098 184.328 213.22V106.738C184.38 97.2486 178.575 86.2568 171.499 82.1177Z" fill="url(#paint9_linear_1_9454)"/>
<path d="M171.353 82.1865L32.1608 1.75768C29.3442 0.134675 26.7422 -0.16588 24.6212 0.658503C24.355 0.761551 18.8076 3.95603 18.5499 4.09343C20.7569 3.02002 23.5392 3.2347 26.5705 4.95216L165.745 85.3981C172.855 89.5029 178.626 100.529 178.626 110.018V216.501C178.626 222.417 176.385 226.342 172.958 227.458C173.358 227.442 173.745 227.314 174.075 227.089C174.238 227.003 180.086 223.508 180.241 223.405C182.688 221.687 184.216 218.167 184.216 213.289V106.806C184.234 97.3173 178.463 86.2569 171.353 82.1865Z" fill="url(#paint10_linear_1_9454)"/>
<path d="M171.241 82.255L32.0492 1.83483C29.2411 0.203237 26.6306 -0.0887331 24.5095 0.727062C24.2433 0.83011 18.8076 3.95589 18.5499 4.09329C20.7569 3.01987 23.5392 3.23456 26.5705 4.95202L165.745 85.398C172.855 89.5027 178.626 100.529 178.626 110.018V216.501C178.626 222.417 176.385 226.342 172.958 227.458C173.358 227.442 173.745 227.314 174.075 227.089C174.238 227.003 179.983 223.585 180.137 223.473C182.585 221.756 184.105 218.235 184.105 213.358V106.866C184.122 97.4203 178.368 86.3684 171.241 82.255Z" fill="url(#paint11_linear_1_9454)"/>
<path d="M171.129 82.3324L31.9461 1.9036C29.1295 0.280597 26.5275 -0.0199532 24.4065 0.795842C24.1317 0.89889 18.8076 3.95597 18.5499 4.09337C20.7569 3.01995 23.5392 3.23464 26.5705 4.9521L165.745 85.3981C172.855 89.5028 178.626 100.529 178.626 110.018V216.501C178.626 222.417 176.385 226.342 172.958 227.458C173.358 227.442 173.745 227.314 174.075 227.089C174.238 227.003 179.871 223.654 180.026 223.542C182.473 221.825 184.002 218.313 184.002 213.435V106.952C184.019 97.4633 178.248 86.4371 171.129 82.3324Z" fill="url(#paint12_linear_1_9454)"/>
<path d="M171.026 82.4012L31.8345 1.97236C29.0179 0.349358 26.4159 0.0488028 24.2948 0.873185C24.0286 0.976233 18.8076 3.95603 18.5499 4.09343C20.7569 3.02001 23.5392 3.2347 26.5705 4.95216L165.745 85.3981C172.855 89.5029 178.626 100.529 178.626 110.018V216.501C178.626 222.417 176.385 226.342 172.958 227.458C173.358 227.442 173.745 227.314 174.075 227.089C174.238 227.003 179.76 223.723 179.923 223.654C182.37 221.936 183.89 218.416 183.89 213.538V107.055C183.907 97.532 178.137 86.5059 171.026 82.4012Z" fill="url(#paint13_linear_1_9454)"/>
<path d="M170.915 82.4697L31.7229 2.04951C28.9148 0.417919 26.3043 0.125949 24.1832 0.941744C23.917 1.04479 18.8076 3.95589 18.5499 4.09329C20.7569 3.01987 23.5392 3.23456 26.5705 4.95202L165.745 85.398C172.855 89.5027 178.626 100.529 178.626 110.018V216.501C178.626 222.417 176.385 226.342 172.959 227.458C173.358 227.442 173.745 227.314 174.075 227.089C174.238 227.003 179.657 223.8 179.811 223.654C182.259 221.936 183.779 218.416 183.779 213.538V107.055C183.796 97.6006 178.034 86.5831 170.915 82.4697Z" fill="url(#paint14_linear_1_9454)"/>
<path d="M170.803 82.5471L31.6198 2.10109C28.8032 0.478088 26.2012 0.177531 24.0802 0.993326C23.8054 1.09637 18.8076 3.93878 18.5499 4.07618C20.7569 3.00276 23.5392 3.21744 26.5705 4.93491L165.745 85.3981C172.855 89.5028 178.626 100.529 178.626 110.018V216.501C178.626 222.417 176.385 226.342 172.958 227.458C173.358 227.442 173.745 227.314 174.075 227.089C174.238 227.003 179.545 223.869 179.7 223.757C182.147 222.039 183.675 218.527 183.675 213.65V107.167C183.693 97.6779 177.922 86.6518 170.803 82.5471Z" fill="url(#paint15_linear_1_9454)"/>
<path d="M170.7 82.6158L31.5258 2.18704C28.7092 0.56404 26.1072 0.263485 23.9862 1.08787C23.72 1.19092 18.8338 3.95603 18.5676 4.09343C20.7745 3.02001 23.5568 3.2347 26.5881 4.95216L165.746 85.3981C172.856 89.5029 178.627 100.529 178.627 110.018V216.501C178.627 222.417 176.385 226.342 172.959 227.458C173.358 227.442 173.745 227.314 174.075 227.089C174.238 227.003 179.442 223.937 179.597 223.834C182.044 222.117 183.564 218.596 183.564 213.718V107.236C183.581 97.7467 177.811 86.7206 170.7 82.6158Z" fill="url(#paint16_linear_1_9454)"/>
<path d="M170.588 82.6844L31.4051 2.26419C28.5885 0.632601 25.978 0.340632 23.8655 1.15643C23.5907 1.25947 18.8076 3.95589 18.5499 4.09329C20.7569 3.01987 23.5392 3.23456 26.5705 4.95202L165.745 85.398C172.855 89.5027 178.626 100.529 178.626 110.018V216.501C178.626 222.417 176.385 226.342 172.959 227.458C173.358 227.442 173.745 227.314 174.075 227.089C174.238 227.003 179.33 224.014 179.485 223.903C181.932 222.185 183.452 218.665 183.452 213.787V107.304C183.469 97.8153 177.707 86.7977 170.588 82.6844Z" fill="url(#paint17_linear_1_9454)"/>
<path d="M170.477 82.7619L31.2942 2.33306C28.4775 0.710055 25.8756 0.38374 23.7974 1.24247C23.5312 1.34552 18.8511 3.97323 18.5935 4.11063C20.8005 3.03722 23.5827 3.2519 26.6141 4.96936L165.746 85.3982C172.856 89.5029 178.627 100.529 178.627 110.018V216.501C178.627 222.417 176.385 226.342 172.959 227.458C173.359 227.442 173.745 227.314 174.075 227.089C174.239 227.003 179.228 224.083 179.374 223.972C181.821 222.254 183.35 218.742 183.35 213.864V107.382C183.367 97.8927 177.596 86.8666 170.477 82.7619Z" fill="url(#paint18_linear_1_9454)"/>
<path d="M170.374 82.8219L31.1819 2.40173C28.3652 0.778722 25.7633 0.478167 23.6422 1.30255C23.376 1.4056 18.8076 3.95603 18.5499 4.09343C20.7569 3.02001 23.5392 3.2347 26.5705 4.95216L165.745 85.3981C172.855 89.5029 178.626 100.529 178.626 110.018V216.501C178.626 222.417 176.385 226.342 172.958 227.458C173.358 227.442 173.745 227.314 174.075 227.089C174.238 227.003 179.116 224.152 179.27 224.049C181.718 222.332 183.237 218.811 183.237 213.933V107.45C183.255 97.9614 177.51 86.9353 170.374 82.8219Z" fill="url(#paint19_linear_1_9454)"/>
<path d="M170.262 82.8991L31.0788 2.47887C28.2622 0.847283 25.6602 0.555314 23.5392 1.37111C23.2644 1.47416 18.8076 3.9473 18.5499 4.09329C20.7569 3.01987 23.5392 3.23456 26.5705 4.95202L165.745 85.398C172.855 89.5027 178.626 100.529 178.626 110.018V216.501C178.626 222.417 176.385 226.342 172.958 227.458C173.358 227.442 173.745 227.314 174.075 227.089C174.238 227.003 179.004 224.229 179.159 224.118C181.606 222.4 183.134 218.879 183.134 214.002V107.519C183.152 98.0299 177.381 87.0124 170.262 82.8991Z" fill="url(#paint20_linear_1_9454)"/>
<path d="M170.159 82.9765L30.9672 2.54765C28.1506 0.924644 25.5486 0.624094 23.4275 1.43989C23.1613 1.54294 18.8076 3.95597 18.5499 4.09337C20.7569 3.01995 23.5392 3.23464 26.5705 4.9521L165.745 85.3981C172.855 89.5028 178.626 100.529 178.626 110.018V216.501C178.626 222.417 176.385 226.342 172.958 227.458C173.358 227.442 173.745 227.314 174.075 227.089C174.238 227.003 178.892 224.298 179.047 224.186C181.494 222.469 183.023 218.957 183.023 214.079V107.596C183.04 98.1073 177.269 87.1155 170.159 82.9765Z" fill="url(#paint21_linear_1_9454)"/>
<path d="M170.047 83.0452L30.8556 2.61641C28.0475 0.993405 25.437 0.69285 23.3159 1.51723C23.0497 1.62028 18.8076 3.95603 18.5499 4.09343C20.7569 3.02001 23.5392 3.2347 26.5705 4.95216L165.745 85.3981C172.855 89.5029 178.626 100.529 178.626 110.018V216.501C178.626 222.417 176.385 226.342 172.959 227.458C173.358 227.442 173.745 227.314 174.075 227.089C174.238 227.003 178.789 224.367 178.944 224.264C181.391 222.546 182.911 219.025 182.911 214.148V107.665C182.928 98.1761 177.166 87.1156 170.047 83.0452Z" fill="url(#paint22_linear_1_9454)"/>
<path d="M169.936 83.1138L30.7525 2.69356C27.9359 1.06197 25.3339 0.769996 23.2129 1.58579C22.9381 1.68884 18.8076 3.95589 18.5499 4.09329C20.7569 3.01987 23.5392 3.23455 26.5705 4.95202L165.745 85.398C172.855 89.5027 178.626 100.529 178.626 110.018V216.501C178.626 222.417 176.385 226.342 172.958 227.458C173.358 227.442 173.745 227.314 174.075 227.089C174.238 227.003 178.678 224.444 178.832 224.332C181.28 222.615 182.808 219.094 182.808 214.216V107.725C182.825 98.279 177.055 87.2271 169.936 83.1138Z" fill="url(#paint23_linear_1_9454)"/>
<path d="M169.833 83.1911L30.6668 2.76233C27.8502 1.13933 25.2482 0.838776 23.1272 1.65457C22.861 1.75762 18.8335 3.95597 18.5759 4.09337C20.7828 3.01995 23.5651 3.23463 26.5964 4.9521L165.745 85.3981C172.856 89.5028 178.626 100.529 178.626 110.018V216.501C178.626 222.417 176.385 226.342 172.959 227.458C173.358 227.442 173.745 227.314 174.075 227.089C174.238 227.003 178.566 224.513 178.729 224.401C181.177 222.684 182.697 219.171 182.697 214.294V107.811C182.714 98.322 176.943 87.2959 169.833 83.1911Z" fill="url(#paint24_linear_1_9454)"/>
<path d="M169.721 83.2599L30.5292 2.83109C27.7212 1.20809 25.1106 0.907532 22.9896 1.73191C22.7234 1.83496 18.8076 3.95603 18.5499 4.09343C20.7569 3.02001 23.5392 3.2347 26.5705 4.95216L165.745 85.3981C172.855 89.5029 178.626 100.529 178.626 110.018V216.501C178.626 222.417 176.385 226.342 172.959 227.458C173.358 227.442 173.745 227.314 174.075 227.089C174.238 227.003 178.463 224.581 178.618 224.513C181.065 222.795 182.585 219.274 182.585 214.397V107.914C182.602 98.3908 176.84 87.3646 169.721 83.2599Z" fill="url(#paint25_linear_1_9454)"/>
<path d="M169.609 83.3285L30.4262 2.90824C27.6096 1.27665 25.0076 0.984679 22.8865 1.80047C22.6117 1.90352 18.8076 3.95589 18.5499 4.09329C20.7569 3.01987 23.5392 3.23455 26.5705 4.95202L165.745 85.398C172.855 89.5027 178.626 100.529 178.626 110.018V216.501C178.626 222.417 176.385 226.342 172.958 227.458C173.358 227.442 173.745 227.314 174.075 227.089C174.238 227.003 178.368 224.659 178.506 224.513C180.953 222.795 182.482 219.274 182.482 214.397V107.914C182.499 98.4593 176.728 87.4418 169.609 83.3285Z" fill="url(#paint26_linear_1_9454)"/>
<path d="M169.506 83.4058L30.3146 2.95982C27.4979 1.33682 24.896 1.03626 22.7749 1.85206C22.5087 1.9551 18.8076 3.93878 18.5499 4.07617C20.7569 3.00276 23.5392 3.21744 26.5705 4.93491L165.745 85.3981C172.855 89.5028 178.626 100.529 178.626 110.018V216.501C178.626 222.417 176.385 226.342 172.958 227.458C173.358 227.442 173.745 227.314 174.075 227.089C174.238 227.003 178.248 224.727 178.368 224.616C180.816 222.898 182.336 219.386 182.336 214.508V108.026C182.387 98.5367 176.651 87.5105 169.506 83.4058Z" fill="url(#paint27_linear_1_9454)"/>
<path d="M169.395 83.4746L30.2115 3.04577C27.3949 1.42277 24.7843 1.12221 22.6719 1.9466C22.3971 2.04964 18.8076 3.95603 18.5499 4.09343C20.7569 3.02001 23.5392 3.23469 26.5705 4.95216L165.745 85.3981C172.855 89.5029 178.626 100.529 178.626 110.018V216.501C178.626 222.417 176.385 226.342 172.959 227.458C173.358 227.442 173.745 227.314 174.075 227.089C174.238 227.003 178.137 224.796 178.291 224.693C180.739 222.976 182.259 219.455 182.259 214.577V108.094C182.276 98.6054 176.514 87.5793 169.395 83.4746Z" fill="url(#paint28_linear_1_9454)"/>
<path d="M166.346 85.1062L27.1717 4.67735C24.2606 2.95989 21.5727 2.75379 19.4431 3.68981C21.6179 3.44582 23.8104 3.95831 25.6517 5.14107L164.818 85.5699C171.928 89.6746 177.699 100.701 177.699 110.19V216.672C177.699 222.271 175.681 226.058 172.546 227.407C176.514 226.771 179.21 222.692 179.21 216.243V109.76C179.227 100.237 173.474 89.2109 166.346 85.1062Z" fill="#F2F5FA"/>
<path opacity="0.95" d="M20.3625 127.167L17.7348 128.79L22.3548 131.46L24.9911 129.829L20.3625 127.167Z" fill="white"/>
<path opacity="0.95" d="M17.7347 148.893L22.3547 151.563V131.46L17.7347 128.79V148.893Z" fill="#FF8A00"/>
<path opacity="0.95" d="M22.3546 151.563L24.9909 149.94V129.829L22.3546 131.46V151.563Z" fill="#F2F5FA"/>
<path style="mix-blend-mode:color-dodge" d="M24.8709 129.889L22.3805 131.263L17.7348 128.79L22.2174 131.555L22.3548 151.563L22.5695 131.529L24.8709 129.889Z" fill="url(#paint29_radial_1_9454)"/>
<path opacity="0.95" d="M27.0171 136.407L24.3808 138.03L29.0007 140.7L31.6371 139.077L27.0171 136.407Z" fill="white"/>
<path opacity="0.95" d="M24.3805 152.757L29.0005 155.419V140.7L24.3805 138.03V152.757Z" fill="#00F4A3"/>
<path opacity="0.95" d="M29.0004 155.419L31.6367 153.796V139.077L29.0004 140.7V155.419Z" fill="#F2F5FA"/>
<path d="M31.5168 139.129L29.0265 140.512L24.3808 138.03L28.8633 140.804L29.0007 155.419L29.2154 140.769L31.5168 139.129Z" fill="#F2F5FA"/>
<path opacity="0.95" d="M33.6639 134.887L31.0276 136.51L35.6475 139.18L38.2839 137.549L33.6639 134.887Z" fill="white"/>
<path opacity="0.95" d="M31.0276 156.613L35.6475 159.283V139.18L31.0276 136.51V156.613Z" fill="#00F4A3"/>
<path opacity="0.95" d="M35.6474 159.283L38.2837 157.66V137.549L35.6474 139.18V159.283Z" fill="#F2F5FA"/>
<path style="mix-blend-mode:color-dodge" d="M38.1637 137.609L35.6733 138.983L31.0276 136.51L35.5102 139.275L35.6475 159.283L35.8708 139.249L38.1637 137.609Z" fill="url(#paint30_radial_1_9454)"/>
<path opacity="0.95" d="M40.3094 133.041L37.6731 134.672L42.2931 137.343L44.9293 135.711L40.3094 133.041Z" fill="white"/>
<path d="M37.6732 160.477L42.2932 163.139V137.334L37.6732 134.664V160.477Z" fill="#FF8A00"/>
<path opacity="0.95" d="M42.2932 163.139L44.9294 161.516V135.711L42.2932 137.334V163.139Z" fill="#F2F5FA"/>
<path style="mix-blend-mode:color-dodge" d="M44.8091 135.771L42.3188 137.145L37.6731 134.664L42.1557 137.437L42.2931 163.139L42.5163 137.403L44.8091 135.771Z" fill="url(#paint31_radial_1_9454)"/>
<path opacity="0.95" d="M46.9476 130.387L44.3199 132.01L48.9399 134.681L51.5762 133.058L46.9476 130.387Z" fill="white"/>
<path d="M44.3198 164.333L48.9398 167.003V134.681L44.3198 132.01V164.333Z" fill="#FF8A00"/>
<path opacity="0.95" d="M48.9396 167.003L51.5759 165.38V133.058L48.9396 134.681V167.003Z" fill="#F2F5FA"/>
<path style="mix-blend-mode:color-dodge" d="M51.456 133.118L48.9656 134.492L44.3199 132.01L48.8025 134.784L48.9399 167.003L49.1632 134.749L51.456 133.118Z" fill="url(#paint32_radial_1_9454)"/>
<path opacity="0.95" d="M53.5936 137.471L50.9659 139.103L55.5858 141.774L58.2221 140.142L53.5936 137.471Z" fill="white"/>
<path d="M50.9661 168.188L55.5861 170.859V141.765L50.9661 139.094V168.188Z" fill="#00F4A3"/>
<path opacity="0.95" d="M55.586 170.859L58.2223 169.236V140.142L55.586 141.765V170.859Z" fill="#F2F5FA"/>
<path style="mix-blend-mode:color-dodge" d="M58.1019 140.202L55.6116 141.576L50.9659 139.095L55.4484 141.868L55.5858 170.859L55.8005 141.834L58.1019 140.202Z" fill="url(#paint33_radial_1_9454)"/>
<path opacity="0.95" d="M60.2403 150.318L57.6126 151.95L62.2326 154.621L64.8689 152.989L60.2403 150.318Z" fill="white"/>
<path opacity="0.95" d="M57.6125 172.053L62.2324 174.723V154.612L57.6125 151.95V172.053Z" fill="#00F4A3"/>
<path opacity="0.95" d="M62.2324 174.723L64.8687 173.1V152.989L62.2324 154.612V174.723Z" fill="#F2F5FA"/>
<path style="mix-blend-mode:color-dodge" d="M64.7486 153.049L62.2583 154.423L57.6126 151.95L62.0952 154.715L62.2326 174.723L62.4472 154.689L64.7486 153.049Z" fill="url(#paint34_radial_1_9454)"/>
<path opacity="0.95" d="M66.8957 151.28L64.2594 152.912L68.8794 155.582L71.5157 153.951L66.8957 151.28Z" fill="white"/>
<path opacity="0.95" d="M64.2595 175.908L68.8795 178.579V155.574L64.2595 152.912V175.908Z" fill="#00F4A3"/>
<path opacity="0.95" d="M68.8794 178.579L71.5157 176.956V153.951L68.8794 155.574V178.579Z" fill="#F2F5FA"/>
<path style="mix-blend-mode:color-dodge" d="M71.3955 154.011L68.9052 155.385L64.2594 152.912L68.742 155.677L68.8794 178.579L69.0941 155.642L71.3955 154.011Z" fill="url(#paint35_radial_1_9454)"/>
<path opacity="0.95" d="M73.5426 149.717L70.9062 151.34L75.5262 154.011L78.1625 152.388L73.5426 149.717Z" fill="white"/>
<path opacity="0.95" d="M70.9061 179.773L75.5261 182.443V154.011L70.9061 151.34V179.773Z" fill="#FF8A00"/>
<path opacity="0.95" d="M75.526 182.443L78.1623 180.82V152.388L75.526 154.011V182.443Z" fill="#F2F5FA"/>
<path style="mix-blend-mode:color-dodge" d="M78.0423 152.439L75.552 153.822L70.9062 151.34L75.3888 154.114L75.5262 182.443L75.7495 154.08L78.0423 152.439Z" fill="url(#paint36_radial_1_9454)"/>
<path opacity="0.95" d="M80.1884 161.903L77.5521 163.526L82.1721 166.196L84.8084 164.573L80.1884 161.903Z" fill="white"/>
<path opacity="0.95" d="M77.5522 183.629L82.1722 186.299V166.196L77.5522 163.526V183.629Z" fill="#00F4A3"/>
<path opacity="0.95" d="M82.1722 186.299L84.8085 184.676V164.573L82.1722 166.196V186.299Z" fill="#F2F5FA"/>
<path style="mix-blend-mode:color-dodge" d="M84.6882 164.625L82.1978 166.007L77.5521 163.525L82.0347 166.299L82.1721 186.299L82.3953 166.265L84.6882 164.625Z" fill="url(#paint37_radial_1_9454)"/>
<path opacity="0.95" d="M86.8266 168.24L84.1989 169.871L88.8189 172.542L91.4552 170.911L86.8266 168.24Z" fill="white"/>
<path opacity="0.95" d="M84.1988 187.493L88.8188 190.163V172.534L84.1988 169.872V187.493Z" fill="#00F4A3"/>
<path opacity="0.95" d="M88.8186 190.163L91.4549 188.54V170.911L88.8186 172.534V190.163Z" fill="#F2F5FA"/>
<path style="mix-blend-mode:color-dodge" d="M91.335 170.971L88.8447 172.345L84.1989 169.872L88.6815 172.637L88.8189 190.163L89.0422 172.602L91.335 170.971Z" fill="url(#paint38_radial_1_9454)"/>
<path opacity="0.95" d="M93.4735 179.12L90.8458 180.743L95.4657 183.414L98.102 181.791L93.4735 179.12Z" fill="white"/>
<path opacity="0.95" d="M90.8459 191.349L95.4659 194.019V183.414L90.8459 180.743V191.349Z" fill="#FF8A00"/>
<path opacity="0.95" d="M95.4657 194.019L98.102 192.396V181.791L95.4657 183.414V194.019Z" fill="#F2F5FA"/>
<path style="mix-blend-mode:color-dodge" d="M97.9818 181.851L95.4915 183.225L90.8458 180.743L95.3283 183.517L95.4657 194.019L95.6804 183.482L97.9818 181.851Z" fill="url(#paint39_radial_1_9454)"/>
<path opacity="0.95" d="M100.12 177.549L97.4925 179.172L102.112 181.842L104.749 180.219L100.12 177.549Z" fill="white"/>
<path opacity="0.95" d="M97.4922 195.213L102.112 197.883V181.842L97.4922 179.172V195.213Z" fill="#FF8A00"/>
<path opacity="0.95" d="M102.112 197.883L104.748 196.26V180.219L102.112 181.842V197.883Z" fill="#F2F5FA"/>
<path style="mix-blend-mode:color-dodge" d="M104.629 180.271L102.138 181.645L97.4925 179.172L101.975 181.945L102.112 197.883L102.327 181.911L104.629 180.271Z" fill="url(#paint40_radial_1_9454)"/>
<path opacity="0.95" d="M106.775 177.343L104.138 178.966L108.758 181.636L111.395 180.013L106.775 177.343Z" fill="white"/>
<path opacity="0.95" d="M104.139 199.068L108.759 201.739V181.636L104.139 178.966V199.068Z" fill="#FF8A00"/>
<path opacity="0.95" d="M108.758 201.739L111.395 200.116V180.013L108.758 181.636V201.739Z" fill="#F2F5FA"/>
<path style="mix-blend-mode:color-dodge" d="M111.274 180.065L108.784 181.447L104.138 178.965L108.621 181.739L108.758 201.739L108.973 181.705L111.274 180.065Z" fill="url(#paint41_radial_1_9454)"/>
<path opacity="0.95" d="M113.422 184.925L110.785 186.548L115.405 189.219L118.042 187.596L113.422 184.925Z" fill="white"/>
<path opacity="0.95" d="M110.785 202.933L115.405 205.603V189.219L110.785 186.548V202.933Z" fill="#00F4A3"/>
<path opacity="0.95" d="M115.405 205.603L118.041 203.972V187.596L115.405 189.219V205.603Z" fill="#F2F5FA"/>
<path style="mix-blend-mode:color-dodge" d="M117.921 187.647L115.431 189.03L110.785 186.548L115.268 189.322L115.405 205.603L115.62 189.287L117.921 187.647Z" fill="url(#paint42_radial_1_9454)"/>
<path opacity="0.95" d="M120.068 175.831L117.432 177.454L122.052 180.125L124.688 178.502L120.068 175.831Z" fill="white"/>
<path opacity="0.95" d="M117.432 206.788L122.052 209.459V180.125L117.432 177.454V206.788Z" fill="#00F4A3"/>
<path opacity="0.95" d="M122.052 209.459L124.688 207.836V178.502L122.052 180.125V209.459Z" fill="#F2F5FA"/>
<path style="mix-blend-mode:color-dodge" d="M124.568 178.553L122.078 179.927L117.432 177.454L121.915 180.228L122.052 209.459L122.267 180.193L124.568 178.553Z" fill="url(#paint43_radial_1_9454)"/>
<path opacity="0.95" d="M126.715 188.918L124.079 190.55L128.699 193.221L131.335 191.589L126.715 188.918Z" fill="white"/>
<path opacity="0.95" d="M124.079 210.653L128.699 213.323V193.212L124.079 190.541V210.653Z" fill="#FF8A00"/>
<path opacity="0.95" d="M128.699 213.323L131.335 211.692V191.589L128.699 193.212V213.323Z" fill="#F2F5FA"/>
<path style="mix-blend-mode:color-dodge" d="M131.215 191.649L128.725 193.023L124.079 190.541L128.561 193.315L128.699 213.323L128.913 193.281L131.215 191.649Z" fill="url(#paint44_radial_1_9454)"/>
<path opacity="0.95" d="M133.361 199.094L130.725 200.717L135.345 203.388L137.981 201.765L133.361 199.094Z" fill="white"/>
<path opacity="0.95" d="M130.725 214.508L135.345 217.179V203.388L130.725 200.717V214.508Z" fill="#00F4A3"/>
<path opacity="0.95" d="M135.345 217.179L137.981 215.556V201.765L135.345 203.388V217.179Z" fill="#F2F5FA"/>
<path style="mix-blend-mode:color-dodge" d="M137.861 201.816L135.37 203.199L130.725 200.717L135.207 203.491L135.345 217.179L135.559 203.457L137.861 201.816Z" fill="url(#paint45_radial_1_9454)"/>
<path opacity="0.95" d="M140.008 186.205L137.371 187.828L141.991 190.498L144.628 188.875L140.008 186.205Z" fill="white"/>
<path opacity="0.95" d="M137.371 218.373L141.991 221.035V190.498L137.371 187.828V218.373Z" fill="#FF8A00"/>
<path opacity="0.95" d="M141.991 221.035L144.627 219.412V188.875L141.991 190.498V221.035Z" fill="#F2F5FA"/>
<path style="mix-blend-mode:color-dodge" d="M144.508 188.935L142.017 190.309L137.371 187.828L141.854 190.601L141.991 221.035L142.206 190.567L144.508 188.935Z" fill="url(#paint46_radial_1_9454)"/>
<path opacity="0.95" d="M146.655 196.939L144.018 198.562L148.638 201.233L151.275 199.61L146.655 196.939Z" fill="white"/>
<path opacity="0.95" d="M144.018 222.229L148.638 224.899V201.233L144.018 198.562V222.229Z" fill="#FF8A00"/>
<path opacity="0.95" d="M148.638 224.899L151.274 223.276V199.61L148.638 201.233V224.899Z" fill="#F2F5FA"/>
<path d="M151.154 199.67L148.664 201.044L144.018 198.562L148.501 201.335L148.638 224.899L148.853 201.301L151.154 199.67Z" fill="#F2F5FA"/>
<path opacity="0.95" d="M153.293 204.358L150.665 205.99L155.285 208.652L157.921 207.029L153.293 204.358Z" fill="white"/>
<path opacity="0.95" d="M150.665 226.093L155.285 228.755V208.652L150.665 205.981V226.093Z" fill="#00F4A3"/>
<path opacity="0.95" d="M155.285 228.755L157.922 227.132V207.029L155.285 208.652V228.755Z" fill="#F2F5FA"/>
<path style="mix-blend-mode:color-dodge" d="M157.801 207.089L155.311 208.463L150.665 205.981L155.148 208.755L155.285 228.755L155.508 208.72L157.801 207.089Z" fill="url(#paint47_radial_1_9454)"/>
<g opacity="0.95">
<path opacity="0.95" d="M159.94 210.902L157.312 212.525L161.932 215.195L164.568 213.572L159.94 210.902Z" fill="white"/>
<path opacity="0.95" d="M157.312 229.948L161.932 232.619V215.195L157.312 212.525V229.948Z" fill="#00F4A3"/>
<path opacity="0.95" d="M161.932 232.619L164.568 230.996V213.572L161.932 215.195V232.619Z" fill="#F2F5FA"/>
</g>
<path d="M164.448 213.624L161.958 215.007L157.312 212.525L161.794 215.298L161.932 232.619L162.155 215.264L164.448 213.624Z" fill="#F2F5FA"/>
<g style="mix-blend-mode:screen" opacity="0.7">
<path d="M167.325 112.448C167.423 112.442 167.517 112.406 167.593 112.344C167.669 112.282 167.724 112.199 167.75 112.104C167.777 112.01 167.773 111.91 167.74 111.817C167.707 111.725 167.646 111.646 167.566 111.589L21.4012 27.0044C21.2873 26.9418 21.1532 26.927 21.0284 26.9632C20.9036 26.9994 20.7983 27.0838 20.7356 27.1976C20.673 27.3115 20.6582 27.4456 20.6944 27.5704C20.7307 27.6952 20.815 27.8005 20.9289 27.8632L167.094 112.405C167.166 112.44 167.246 112.455 167.325 112.448Z" fill="#3C0862"/>
</g>
<g style="mix-blend-mode:screen" opacity="0.7">
<path d="M167.326 124.651C167.423 124.645 167.517 124.608 167.593 124.547C167.669 124.485 167.724 124.401 167.751 124.307C167.777 124.212 167.774 124.112 167.74 124.02C167.707 123.928 167.646 123.848 167.566 123.792L21.4014 39.2328C21.2943 39.1701 21.1668 39.1526 21.0468 39.184C20.9269 39.2154 20.8243 39.2932 20.7616 39.4002C20.699 39.5072 20.6815 39.6348 20.7129 39.7548C20.7443 39.8747 20.8221 39.9773 20.9291 40.04L167.094 124.591C167.164 124.631 167.244 124.652 167.326 124.651Z" fill="#3C0862"/>
</g>
<g style="mix-blend-mode:screen" opacity="0.7">
<path d="M167.325 137.171C167.423 137.165 167.517 137.128 167.593 137.067C167.669 137.005 167.724 136.921 167.75 136.827C167.777 136.733 167.773 136.632 167.74 136.54C167.707 136.448 167.646 136.368 167.566 136.312L21.4012 51.7443C21.2873 51.6817 21.1532 51.6669 21.0284 51.7031C20.9036 51.7393 20.7983 51.8237 20.7356 51.9375C20.673 52.0514 20.6582 52.1855 20.6944 52.3103C20.7307 52.4351 20.815 52.5404 20.9289 52.603L167.094 137.145C167.167 137.174 167.247 137.183 167.325 137.171Z" fill="#3C0862"/>
</g>
<g style="mix-blend-mode:screen" opacity="0.7">
<path d="M167.326 149.219C167.423 149.213 167.517 149.176 167.593 149.115C167.669 149.053 167.724 148.969 167.751 148.875C167.777 148.781 167.773 148.68 167.74 148.588C167.707 148.496 167.646 148.416 167.566 148.36L21.4013 63.7924C21.3476 63.7566 21.2871 63.7321 21.2236 63.7205C21.16 63.7089 21.0948 63.7105 21.0319 63.7251C20.969 63.7397 20.9098 63.7671 20.8578 63.8055C20.8059 63.8439 20.7625 63.8926 20.7301 63.9485C20.6977 64.0044 20.6772 64.0663 20.6697 64.1305C20.6622 64.1946 20.668 64.2596 20.6866 64.3214C20.7053 64.3833 20.7364 64.4406 20.7781 64.4899C20.8198 64.5393 20.8711 64.5795 20.929 64.6082L167.094 149.15C167.163 149.194 167.243 149.217 167.326 149.219Z" fill="#3C0862"/>
</g>
<g style="mix-blend-mode:screen" opacity="0.7">
<path d="M167.325 161.731C167.407 161.732 167.488 161.711 167.559 161.67C167.63 161.63 167.689 161.57 167.729 161.499C167.761 161.446 167.783 161.387 167.792 161.326C167.802 161.265 167.799 161.202 167.783 161.142C167.768 161.082 167.741 161.026 167.704 160.977C167.666 160.927 167.619 160.886 167.566 160.855L21.4012 76.3127C21.2873 76.2501 21.1532 76.2353 21.0284 76.2715C20.9036 76.3077 20.7983 76.3921 20.7356 76.5059C20.673 76.6198 20.6582 76.7539 20.6944 76.8787C20.7307 77.0035 20.815 77.1088 20.9289 77.1715L167.094 161.714C167.168 161.74 167.248 161.746 167.325 161.731Z" fill="#3C0862"/>
</g>
<g style="mix-blend-mode:screen" opacity="0.7">
<path d="M167.326 174.096C167.423 174.09 167.517 174.054 167.593 173.992C167.669 173.931 167.724 173.847 167.751 173.752C167.777 173.658 167.774 173.558 167.74 173.466C167.707 173.373 167.646 173.294 167.566 173.238L21.4014 88.6784C21.3484 88.6474 21.2898 88.6271 21.229 88.6187C21.1681 88.6104 21.1062 88.6141 21.0468 88.6296C20.9874 88.6452 20.9317 88.6723 20.8827 88.7094C20.8338 88.7465 20.7926 88.7928 20.7616 88.8458C20.7306 88.8988 20.7104 88.9574 20.702 89.0183C20.6936 89.0791 20.6973 89.141 20.7129 89.2004C20.7284 89.2598 20.7555 89.3156 20.7926 89.3645C20.8297 89.4134 20.8761 89.4546 20.9291 89.4856L167.094 174.036C167.164 174.077 167.244 174.098 167.326 174.096Z" fill="#3C0862"/>
</g>
<g style="mix-blend-mode:screen" opacity="0.7">
<path d="M167.326 187.063C167.423 187.057 167.517 187.021 167.593 186.959C167.669 186.897 167.724 186.814 167.751 186.719C167.777 186.625 167.774 186.525 167.74 186.433C167.707 186.34 167.646 186.261 167.566 186.205L21.4014 101.645C21.3484 101.614 21.2898 101.594 21.229 101.586C21.1681 101.577 21.1062 101.581 21.0468 101.597C20.9874 101.612 20.9317 101.639 20.8827 101.676C20.8338 101.713 20.7926 101.76 20.7616 101.813C20.7306 101.866 20.7104 101.924 20.702 101.985C20.6936 102.046 20.6973 102.108 20.7129 102.167C20.7284 102.227 20.7555 102.282 20.7926 102.331C20.8297 102.38 20.8761 102.421 20.9291 102.453L167.094 187.003C167.164 187.044 167.244 187.065 167.326 187.063Z" fill="#3C0862"/>
</g>
<g style="mix-blend-mode:screen" opacity="0.7">
<path d="M167.326 199.609C167.407 199.609 167.487 199.587 167.558 199.547C167.629 199.506 167.688 199.448 167.729 199.377C167.762 199.325 167.783 199.266 167.793 199.205C167.802 199.144 167.799 199.081 167.784 199.021C167.769 198.961 167.741 198.905 167.704 198.855C167.667 198.806 167.62 198.764 167.566 198.733L21.4016 114.157C21.2941 114.104 21.1703 114.093 21.0554 114.128C20.9405 114.162 20.8431 114.24 20.783 114.343C20.7229 114.447 20.7045 114.57 20.7317 114.687C20.7589 114.804 20.8295 114.906 20.9293 114.973L167.094 199.523C167.162 199.573 167.242 199.603 167.326 199.609Z" fill="#3C0862"/>
</g>
<path d="M162.86 125.535V119.979L162.139 119.567V125.123L160.173 123.981V127.416L162.139 128.558V138.863L162.86 139.284V128.979L164.835 130.121V126.686L162.86 125.535ZM156.308 113.006L155.587 112.594V114.544L153.612 113.41V121.851L155.587 122.985V130.713L156.308 131.134V123.406L158.283 124.539V116.098L156.308 114.964V113.006ZM136.652 132.817L135.931 132.397V136.828L133.955 135.686V148.635L135.931 149.769V160.967L136.652 161.379V150.189L138.618 151.323V138.382L136.652 137.24V132.817ZM123.539 116.501L122.826 116.089V120.872L120.834 119.747V145.999L122.809 147.141V157.016L123.522 157.437V147.562L125.497 148.704V122.452L123.522 121.31L123.539 116.501ZM116.987 106.892L116.274 106.48V116.982L114.299 115.84V125.57L116.274 126.703V131.804L116.987 132.216V127.124L118.962 128.257V118.562L116.987 117.42V106.892ZM90.7784 124.213L90.0657 123.792V130.43L88.0906 129.297V142.418L90.0657 143.56V145.363L90.7784 145.776V143.972L92.7535 145.114V131.984L90.7784 130.851V124.213ZM84.2263 100.314L83.5049 99.8936V105.304L81.5384 104.161V128.335L83.5049 129.477V136.269L84.2263 136.682V129.889L86.2014 131.031V106.866L84.2263 105.724V100.314ZM71.122 73.376L70.4007 72.9638V78.8289L68.4514 77.6696V96.3041L70.4264 97.4462V103.62L71.1478 104.033V97.8584L73.1229 99.0005V80.366L71.1478 79.2325L71.122 73.376ZM64.5699 55.4199L63.8486 55.0077V59.4817L61.8735 58.3481V76.9053L63.8486 78.0475V94.5609L64.5699 94.973V78.4425L66.545 79.5846V61.0188L64.5699 59.8853V55.4199ZM58.0178 36.794L57.2965 36.3818V40.6754L55.3214 39.5419V71.7186L57.2965 72.8607V80.8383L58.0178 81.2505V73.2729L59.9929 74.415V42.2383L58.0178 41.0962V36.794ZM38.3958 34.9219L37.683 34.5098V41.1478L35.7079 40.0056V44.6428L37.683 45.7763V51.65L38.3958 52.0622V46.1971L40.3708 47.3306V42.7021L38.3958 41.6029V34.9219ZM31.8436 30.5338L31.1309 30.1131V32.1568L29.1558 31.0147V57.9188L31.1309 59.0609V65.8019L31.8436 66.2141V59.4731L33.8187 60.6152V33.6768L31.8436 32.5347V30.5338Z" fill="#00F4A3"/>
<path d="M149.755 115.754V111.899L149.034 111.486V115.342L147.059 114.209V137.042L149.034 138.184V146.566L149.755 146.978V138.639L151.731 139.782V116.939L149.755 115.754ZM143.203 124.101L142.482 123.68V133.126L140.507 131.984V144.187L142.482 145.329V156.544L143.203 156.956V145.767L145.17 146.909V134.706L143.203 133.564V124.101ZM130.099 131.77L129.378 131.357V137.223L127.403 136.08V144.882L129.378 146.025V160.073L130.099 160.486V146.368L132.066 147.51V138.743L130.099 137.6V131.77ZM110.434 114.501L109.721 114.088V122.117L107.746 120.975V132.328L109.721 133.461V139.335L110.434 139.747V133.882L112.409 135.016V123.637L110.434 122.495V114.501ZM103.882 116.896L103.169 116.476V128.06L101.194 126.918V152.963L103.169 154.105V170.069L103.882 170.481V154.483L105.857 155.625V129.58L103.882 128.438V116.896ZM97.3299 131.332L96.6171 130.911V137.557L94.6421 136.415V165.999L96.6171 167.141V175.015L97.3299 175.428V167.553L99.305 168.695V139.077L97.3299 137.935V131.332ZM77.6735 97.4204L76.9522 96.9996V99.009L74.9857 97.8669V109.03L76.9522 110.173V116.656L77.6735 117.068V110.585L79.6486 111.727V100.555L77.6735 99.4126V97.4204ZM51.465 37.0859L50.7437 36.6737V43.3203L48.7686 42.1867V49.6491L50.7437 50.7826V56.6564L51.465 57.0685V51.2034L53.4315 52.3369V44.8746L51.465 43.7325V37.0859ZM44.9129 37.8501L44.1916 37.4294V44.0759L42.2165 42.9338V59.765L44.1916 60.9071V64.1445L44.9129 64.5567V61.3536L46.8794 62.4872V45.6217L44.9129 44.4795V37.8501ZM25.248 33.8742L24.5352 33.4534V37.6269L22.5601 36.4848V50.6882L24.5352 51.8303V62.0234L25.248 62.4356V52.2253L27.223 53.3674V39.164L25.248 38.0219V33.8742Z" fill="#FF8A00"/>
<path d="M189.129 238.105L190.514 238.893L190.356 240.155L187.991 238.808L189.129 238.105Z" fill="#B5BBE8"/>
<path style="mix-blend-mode:multiply" d="M174.538 237.481C171.562 242.709 171.235 248.134 173.806 249.597C176.378 251.061 180.875 248.01 183.851 242.782C186.826 237.554 187.154 232.129 184.583 230.665C182.011 229.201 177.514 232.253 174.538 237.481Z" fill="url(#paint48_radial_1_9454)"/>
<path d="M178.734 249.89L178.7 249.871C178.712 249.878 178.723 249.884 178.738 249.883L179.781 247.982C179.641 247.826 179.517 247.656 179.41 247.477L177.872 248.747C177.578 248.155 177.386 247.524 177.305 246.88L178.81 245.521C178.799 245.394 178.784 245.265 178.782 245.131C178.779 244.996 178.782 244.857 178.787 244.72L177.251 245.047C177.312 244.225 177.459 243.415 177.691 242.629L179.247 242.19C179.344 241.89 179.451 241.592 179.575 241.298L178.45 240.594C178.824 239.778 179.268 238.998 179.778 238.26L180.965 238.857C181.157 238.599 181.36 238.356 181.568 238.119L181.149 236.569C181.711 235.969 182.337 235.428 183.016 234.953L183.522 236.427C183.639 236.354 183.755 236.278 183.874 236.212C183.993 236.147 184.109 236.093 184.227 236.037L184.629 234.059C185.226 233.798 185.868 233.638 186.529 233.586L186.214 235.542C186.423 235.54 186.633 235.559 186.84 235.599L187.956 233.724C188.199 233.795 188.434 233.892 188.657 234.011L188.811 234.074L185.046 231.931L184.888 231.868C184.676 231.757 184.454 231.667 184.225 231.6L183.926 232.1L182.82 231.47C182.159 231.523 181.517 231.683 180.92 231.943L182.897 234.882L179.306 232.838C178.627 233.312 178.002 233.853 177.439 234.453L177.859 236.003C177.649 236.239 177.447 236.483 177.256 236.741L176.069 236.145C175.559 236.883 175.115 237.663 174.741 238.478L175.866 239.183C175.741 239.477 175.635 239.775 175.537 240.075L173.98 240.513C173.75 241.299 173.603 242.109 173.541 242.931L177.121 244.969L173.588 244.76C173.669 245.404 173.861 246.035 174.155 246.627L175.284 247.27L175.011 247.767C175.23 247.968 175.474 248.141 175.736 248.282L179.309 250.316C179.103 250.194 178.91 250.051 178.734 249.89Z" fill="#CED3F4"/>
<path d="M181.584 250.834L180.164 250.026L180.48 248.069L181.899 248.876L181.584 250.834Z" fill="#AFB6E5"/>
<path d="M185.098 249.468L183.679 248.66L183.174 247.185L184.593 247.993L185.098 249.468Z" fill="#AFB6E5"/>
<path d="M190.869 239.377L189.448 238.568L187.913 238.895L189.332 239.703L190.869 239.377Z" fill="#CED3F4"/>
<path d="M190.246 235.684L188.827 234.877L187.296 236.148L188.715 236.956L190.246 235.684Z" fill="url(#paint49_linear_1_9454)"/>
<path d="M181.159 236.582L177.431 234.46L177.851 236.011L181.579 238.133L181.159 236.582Z" fill="#AFB6E5"/>
<path d="M178.457 240.603L174.729 238.481L175.854 239.185L179.582 241.307L178.457 240.603Z" fill="#AFB6E5"/>
<path d="M179.789 238.274L176.061 236.152L177.248 236.749L180.976 238.871L179.789 238.274Z" fill="#AFB6E5"/>
<path d="M177.698 242.639L173.968 240.516L175.526 240.078L179.254 242.2L177.698 242.639Z" fill="#AFB6E5"/>
<path d="M178.817 245.531L177.547 244.808L177.258 245.057L174.808 243.662L173.584 244.767L177.312 246.889L178.817 245.531Z" fill="#AFB6E5"/>
<path d="M183.026 234.967L182.913 235.299L184.237 236.052L184.64 234.073L180.912 231.951L180.58 233.575L183.026 234.967Z" fill="#AFB6E5"/>
<path d="M186.541 233.6L185.641 234.924L186.852 235.614L187.966 233.742L184.238 231.62L183.94 232.12L186.541 233.6Z" fill="#AFB6E5"/>
<path d="M185.435 234.803L185.432 234.807L185.434 234.808L185.435 234.803Z" fill="url(#paint50_linear_1_9454)"/>
<path d="M179.853 248.013L178.362 247.174L177.879 248.751L175.279 247.271L175.006 247.768L178.734 249.89L179.853 248.013Z" fill="#AFB6E5"/>
<path d="M184.181 244.735C185.393 244.063 186.342 242.402 186.294 241.022C186.258 239.79 185.439 239.206 184.397 239.579C184.419 239.701 182.409 238.675 182.413 238.812C182.455 240.188 181.5 241.847 180.299 242.525C180.171 242.595 182.076 243.803 181.952 243.852C182.162 244.935 183.09 245.338 184.181 244.735Z" fill="url(#paint51_linear_1_9454)"/>
<path d="M178.788 245.14C178.791 245.275 178.806 245.403 178.816 245.531L177.306 246.885C177.387 247.53 177.579 248.161 177.873 248.753L179.411 247.483C179.517 247.662 179.642 247.831 179.782 247.988L178.732 249.9C179.137 250.275 179.626 250.551 180.157 250.702L181.273 248.827C181.48 248.864 181.689 248.882 181.897 248.879L181.58 250.832C182.241 250.779 182.883 250.619 183.481 250.358L183.883 248.38C184.001 248.323 184.118 248.271 184.237 248.205C184.356 248.14 184.471 248.062 184.588 247.99L185.094 249.465C185.773 248.991 186.398 248.45 186.961 247.85L186.542 246.298C186.751 246.062 186.953 245.818 187.144 245.562L188.332 246.157C188.842 245.419 189.286 244.638 189.66 243.823L188.535 243.119C188.659 242.825 188.766 242.526 188.862 242.228L190.421 241.789C190.65 241.002 190.797 240.192 190.86 239.37L189.323 239.696C189.328 239.56 189.333 239.422 189.33 239.287C189.327 239.152 189.312 239.026 189.299 238.897L190.814 237.542C190.734 236.898 190.542 236.267 190.247 235.675L188.71 236.943C188.604 236.764 188.479 236.595 188.339 236.439L189.389 234.526C188.985 234.15 188.497 233.873 187.968 233.717L186.852 235.592C186.645 235.552 186.435 235.533 186.226 235.535L186.541 233.579C185.88 233.631 185.238 233.791 184.641 234.052L184.239 236.03C184.121 236.086 184.005 236.14 183.886 236.206C183.767 236.271 183.65 236.348 183.534 236.42L183.028 234.946C182.349 235.421 181.723 235.962 181.16 236.562L181.58 238.112C181.372 238.349 181.168 238.592 180.977 238.85L179.79 238.253C179.28 238.991 178.836 239.772 178.462 240.587L179.587 241.291C179.463 241.585 179.356 241.883 179.259 242.183L177.703 242.622C177.471 243.408 177.324 244.218 177.263 245.041L178.799 244.713C178.789 244.866 178.783 245.006 178.788 245.14ZM184.032 239.749C185.245 239.078 186.26 239.65 186.301 241.025C186.342 242.4 185.388 244.06 184.187 244.738C182.986 245.415 181.958 244.838 181.918 243.462C181.878 242.085 182.819 240.422 184.032 239.749Z" fill="url(#paint52_linear_1_9454)"/>
<g style="mix-blend-mode:color-dodge">
<path style="mix-blend-mode:color-dodge" d="M189.41 239.748L190.815 239.449L190.824 239.352L189.412 239.652L189.41 239.748Z" fill="url(#paint53_radial_1_9454)"/>
<path style="mix-blend-mode:color-dodge" d="M181.844 248.919L181.54 250.81L181.675 250.798L181.974 248.924C181.933 248.921 181.889 248.919 181.844 248.919Z" fill="url(#paint54_radial_1_9454)"/>
<path style="mix-blend-mode:color-dodge" d="M188.792 237L190.263 235.781C190.243 235.74 190.224 235.699 190.203 235.66L188.722 236.89C188.747 236.926 188.771 236.959 188.792 237Z" fill="url(#paint55_radial_1_9454)"/>
<path style="mix-blend-mode:color-dodge" d="M184.587 248.093L185.052 249.449L185.13 249.391L184.673 248.046L184.587 248.093Z" fill="url(#paint56_radial_1_9454)"/>
<path style="mix-blend-mode:color-dodge" d="M177.39 246.934L178.895 245.576C178.883 245.447 178.87 245.32 178.865 245.184C178.861 245.049 178.868 244.911 178.871 244.774L178.747 244.802C178.744 244.907 178.741 245.013 178.744 245.115C178.748 245.251 178.761 245.378 178.774 245.507L177.269 246.865C177.35 247.509 177.542 248.14 177.836 248.732L177.898 248.681C177.639 248.123 177.467 247.534 177.39 246.934Z" fill="url(#paint57_radial_1_9454)"/>
<path style="mix-blend-mode:color-dodge" d="M186.314 235.535L186.305 235.601C186.514 235.599 186.723 235.618 186.93 235.658L188.045 233.783C188.291 233.854 188.529 233.952 188.755 234.075C188.494 233.92 188.215 233.799 187.925 233.714L186.809 235.589C186.645 235.557 186.479 235.539 186.314 235.535Z" fill="url(#paint58_radial_1_9454)"/>
<path style="mix-blend-mode:color-dodge" d="M178.811 249.934L179.861 248.022C179.721 247.866 179.597 247.697 179.491 247.518L179.441 247.561C179.529 247.699 179.628 247.83 179.739 247.953L178.691 249.866C178.907 250.065 179.148 250.237 179.407 250.376C179.193 250.251 178.993 250.102 178.811 249.934Z" fill="url(#paint59_radial_1_9454)"/>
<path style="mix-blend-mode:color-dodge" d="M177.775 242.683L179.336 242.247C179.434 241.948 179.541 241.649 179.666 241.355L178.54 240.651C178.914 239.836 179.359 239.055 179.868 238.318L181.055 238.914C181.245 238.655 181.449 238.412 181.657 238.175L181.237 236.625C181.78 236.05 182.379 235.528 183.027 235.066L182.984 234.942C182.305 235.415 181.68 235.956 181.117 236.557L181.537 238.107C181.327 238.343 181.125 238.587 180.934 238.845L179.747 238.248C179.237 238.986 178.793 239.767 178.419 240.582L179.544 241.286C179.42 241.58 179.313 241.878 179.216 242.178L177.658 242.616C177.428 243.402 177.281 244.213 177.219 245.035L177.35 245.007C177.413 244.218 177.556 243.439 177.775 242.683Z" fill="url(#paint60_radial_1_9454)"/>
<path style="mix-blend-mode:color-dodge" d="M183.84 236.201C183.749 236.251 183.659 236.308 183.569 236.365L183.611 236.486C183.726 236.412 183.843 236.336 183.962 236.27C184.081 236.205 184.198 236.152 184.315 236.094L184.719 234.117C185.276 233.876 185.872 233.72 186.485 233.656L186.497 233.575C185.836 233.628 185.194 233.788 184.597 234.048L184.195 236.026C184.069 236.078 183.959 236.135 183.84 236.201Z" fill="url(#paint61_radial_1_9454)"/>
</g>
<g style="mix-blend-mode:color-dodge">
<path style="mix-blend-mode:color-dodge" d="M184.334 244.821C185.546 244.15 186.495 242.489 186.448 241.108C186.426 240.37 186.121 239.866 185.659 239.659C186.011 239.91 186.234 240.373 186.255 240.999C186.297 242.375 185.343 244.034 184.142 244.712C183.579 245.023 183.062 245.063 182.661 244.885C183.081 245.182 183.678 245.186 184.334 244.821Z" fill="url(#paint62_radial_1_9454)"/>
</g>
<path d="M186.599 247.308C186.191 247.076 185.201 247.82 185.201 247.82C185.201 247.82 185.342 248.549 185.758 248.785C186.006 248.926 186.396 248.71 186.627 248.303C186.859 247.896 186.847 247.449 186.599 247.308Z" fill="white"/>
<defs>
<radialGradient id="paint0_radial_1_9454" cx="0" cy="0" r="1" gradientUnits="userSpaceOnUse" gradientTransform="translate(10385.1 7063.58) scale(435.957 453.893)">
<stop stop-color="#836DF3"/>
<stop offset="0.11" stop-color="#6655BD"/>
<stop offset="0.23" stop-color="#4B3E8B"/>
<stop offset="0.36" stop-color="#342B60"/>
<stop offset="0.48" stop-color="#211C3E"/>
<stop offset="0.61" stop-color="#130F23"/>
<stop offset="0.73" stop-color="#08070F"/>
<stop offset="0.86" stop-color="#020204"/>
<stop offset="1"/>
</radialGradient>
<linearGradient id="paint1_linear_1_9454" x1="73386.1" y1="27477.9" x2="117200" y2="27477.9" gradientUnits="userSpaceOnUse">
<stop stop-color="#E4E8FF"/>
<stop offset="0.26" stop-color="#BAC1EB"/>
<stop offset="0.49" stop-color="#C5CBF0"/>
<stop offset="0.7" stop-color="#D7DCF8"/>
<stop offset="0.83" stop-color="#E5E9FF"/>
<stop offset="0.84" stop-color="#E5E9FF"/>
<stop offset="0.87" stop-color="#D1D6F6"/>
<stop offset="0.92" stop-color="#8797A6"/>
<stop offset="1" stop-color="#C0C3DA"/>
</linearGradient>
<linearGradient id="paint2_linear_1_9454" x1="100847" y1="16514.7" x2="97864.4" y2="30460.5" gradientUnits="userSpaceOnUse">
<stop offset="0.02" stop-color="white"/>
<stop offset="0.66" stop-color="#F0F2FF"/>
<stop offset="1" stop-color="white"/>
</linearGradient>
<radialGradient id="paint3_radial_1_9454" cx="0" cy="0" r="1" gradientUnits="userSpaceOnUse" gradientTransform="translate(95278.4 22855.7) scale(17331.5 8498.81)">
<stop stop-color="white"/>
<stop offset="1"/>
</radialGradient>
<linearGradient id="paint4_linear_1_9454" x1="-19.2767" y1="233.002" x2="114.533" y2="14.6458" gradientUnits="userSpaceOnUse">
<stop offset="0.06" stop-color="white"/>
<stop offset="0.26" stop-color="#9EA1C0"/>
<stop offset="0.36" stop-color="#9EA1C0"/>
<stop offset="0.43" stop-color="#CED1E4"/>
<stop offset="0.49" stop-color="#CED1E4"/>
<stop offset="0.51" stop-color="#DBDCF2"/>
<stop offset="0.52" stop-color="#E5E8F8"/>
<stop offset="0.53" stop-color="#E6E8F4"/>
<stop offset="0.55" stop-color="#EFE7F4"/>
<stop offset="0.56" stop-color="white"/>
<stop offset="0.57" stop-color="#ECE0F3"/>
<stop offset="0.58" stop-color="#E5E8F8"/>
<stop offset="0.59" stop-color="#DBDCF2"/>
<stop offset="0.6" stop-color="#DBDCF2"/>
<stop offset="0.61" stop-color="#CED1E4"/>
<stop offset="0.76" stop-color="white"/>
<stop offset="0.89" stop-color="white"/>
<stop offset="1" stop-color="#E8E8E8"/>
</linearGradient>
<linearGradient id="paint5_linear_1_9454" x1="77.7965" y1="248.138" x2="106.491" y2="-20.137" gradientUnits="userSpaceOnUse">
<stop stop-color="#33CDFF"/>
<stop offset="0.29" stop-color="#00A9E0"/>
<stop offset="0.48" stop-color="#6161E1"/>
<stop offset="0.71" stop-color="#7262D1"/>
<stop offset="1" stop-color="#007CA5"/>
</linearGradient>
<linearGradient id="paint6_linear_1_9454" x1="77.7965" y1="248.138" x2="106.491" y2="-20.137" gradientUnits="userSpaceOnUse">
<stop stop-color="#33CDFF"/>
<stop offset="0.29" stop-color="#00A9E0"/>
<stop offset="0.48" stop-color="#6161E1"/>
<stop offset="0.71" stop-color="#7262D1"/>
<stop offset="1" stop-color="#007CA5"/>
</linearGradient>
<linearGradient id="paint7_linear_1_9454" x1="-72216.3" y1="145712" x2="-160923" y2="145712" gradientUnits="userSpaceOnUse">
<stop stop-color="#E6E8F4"/>
<stop offset="0.18" stop-color="#9EA1C0"/>
<stop offset="0.56" stop-color="#7E829C"/>
<stop offset="1" stop-color="#75799E"/>
</linearGradient>
<linearGradient id="paint8_linear_1_9454" x1="-72164" y1="145665" x2="-160806" y2="145665" gradientUnits="userSpaceOnUse">
<stop stop-color="#E6E8F4"/>
<stop offset="0.18" stop-color="#9EA1C0"/>
<stop offset="0.56" stop-color="#7E829C"/>
<stop offset="1" stop-color="#75799E"/>
</linearGradient>
<linearGradient id="paint9_linear_1_9454" x1="-72123" y1="145620" x2="-160715" y2="145620" gradientUnits="userSpaceOnUse">
<stop stop-color="#E6E8F4"/>
<stop offset="0.18" stop-color="#9EA1C0"/>
<stop offset="0.56" stop-color="#7E829C"/>
<stop offset="1" stop-color="#75799E"/>
</linearGradient>
<linearGradient id="paint10_linear_1_9454" x1="-72074.3" y1="145575" x2="-160606" y2="145575" gradientUnits="userSpaceOnUse">
<stop stop-color="#E6E8F4"/>
<stop offset="0.18" stop-color="#9EA1C0"/>
<stop offset="0.56" stop-color="#7E829C"/>
<stop offset="1" stop-color="#75799E"/>
</linearGradient>
<linearGradient id="paint11_linear_1_9454" x1="-72025.7" y1="145528" x2="-160498" y2="145528" gradientUnits="userSpaceOnUse">
<stop stop-color="#E6E8F4"/>
<stop offset="0.18" stop-color="#9EA1C0"/>
<stop offset="0.56" stop-color="#7E829C"/>
<stop offset="1" stop-color="#75799E"/>
</linearGradient>
<linearGradient id="paint12_linear_1_9454" x1="-71980.8" y1="145483" x2="-160398" y2="145483" gradientUnits="userSpaceOnUse">
<stop stop-color="#E6E8F4"/>
<stop offset="0.18" stop-color="#9EA1C0"/>
<stop offset="0.56" stop-color="#7E829C"/>
<stop offset="1" stop-color="#75799E"/>
</linearGradient>
<linearGradient id="paint13_linear_1_9454" x1="-71932.3" y1="145437" x2="-160290" y2="145437" gradientUnits="userSpaceOnUse">
<stop stop-color="#E6E8F4"/>
<stop offset="0.18" stop-color="#9EA1C0"/>
<stop offset="0.56" stop-color="#7E829C"/>
<stop offset="1" stop-color="#75799E"/>
</linearGradient>
<linearGradient id="paint14_linear_1_9454" x1="-71883.7" y1="145391" x2="-160182" y2="145391" gradientUnits="userSpaceOnUse">
<stop stop-color="#E6E8F4"/>
<stop offset="0.18" stop-color="#9EA1C0"/>
<stop offset="0.56" stop-color="#7E829C"/>
<stop offset="1" stop-color="#75799E"/>
</linearGradient>
<linearGradient id="paint15_linear_1_9454" x1="-71838.8" y1="145356" x2="-160082" y2="145356" gradientUnits="userSpaceOnUse">
<stop stop-color="#E6E8F4"/>
<stop offset="0.18" stop-color="#9EA1C0"/>
<stop offset="0.56" stop-color="#7E829C"/>
<stop offset="1" stop-color="#75799E"/>
</linearGradient>
<linearGradient id="paint16_linear_1_9454" x1="-71782.8" y1="145300" x2="-159957" y2="145300" gradientUnits="userSpaceOnUse">
<stop stop-color="#E6E8F4"/>
<stop offset="0.18" stop-color="#9EA1C0"/>
<stop offset="0.56" stop-color="#7E829C"/>
<stop offset="1" stop-color="#75799E"/>
</linearGradient>
<linearGradient id="paint17_linear_1_9454" x1="-71741.7" y1="145253" x2="-159865" y2="145253" gradientUnits="userSpaceOnUse">
<stop stop-color="#E6E8F4"/>
<stop offset="0.18" stop-color="#9EA1C0"/>
<stop offset="0.56" stop-color="#7E829C"/>
<stop offset="1" stop-color="#75799E"/>
</linearGradient>
<linearGradient id="paint18_linear_1_9454" x1="-71678.1" y1="145212" x2="-159724" y2="145212" gradientUnits="userSpaceOnUse">
<stop stop-color="#E6E8F4"/>
<stop offset="0.18" stop-color="#9EA1C0"/>
<stop offset="0.56" stop-color="#7E829C"/>
<stop offset="1" stop-color="#75799E"/>
</linearGradient>
<linearGradient id="paint19_linear_1_9454" x1="-71648.3" y1="145163" x2="-159657" y2="145163" gradientUnits="userSpaceOnUse">
<stop stop-color="#E6E8F4"/>
<stop offset="0.18" stop-color="#9EA1C0"/>
<stop offset="0.56" stop-color="#7E829C"/>
<stop offset="1" stop-color="#75799E"/>
</linearGradient>
<linearGradient id="paint20_linear_1_9454" x1="-71603.4" y1="145116" x2="-159557" y2="145116" gradientUnits="userSpaceOnUse">
<stop stop-color="#E6E8F4"/>
<stop offset="0.18" stop-color="#9EA1C0"/>
<stop offset="0.56" stop-color="#7E829C"/>
<stop offset="1" stop-color="#75799E"/>
</linearGradient>
<linearGradient id="paint21_linear_1_9454" x1="-71554.8" y1="145071" x2="-159449" y2="145071" gradientUnits="userSpaceOnUse">
<stop stop-color="#E6E8F4"/>
<stop offset="0.18" stop-color="#9EA1C0"/>
<stop offset="0.56" stop-color="#7E829C"/>
<stop offset="1" stop-color="#75799E"/>
</linearGradient>
<linearGradient id="paint22_linear_1_9454" x1="-71506.3" y1="145025" x2="-159341" y2="145025" gradientUnits="userSpaceOnUse">
<stop stop-color="#E6E8F4"/>
<stop offset="0.18" stop-color="#9EA1C0"/>
<stop offset="0.56" stop-color="#7E829C"/>
<stop offset="1" stop-color="#75799E"/>
</linearGradient>
<linearGradient id="paint23_linear_1_9454" x1="-71461.4" y1="144979" x2="-159241" y2="144979" gradientUnits="userSpaceOnUse">
<stop stop-color="#E6E8F4"/>
<stop offset="0.18" stop-color="#9EA1C0"/>
<stop offset="0.56" stop-color="#7E829C"/>
<stop offset="1" stop-color="#75799E"/>
</linearGradient>
<linearGradient id="paint24_linear_1_9454" x1="-71401.6" y1="144933" x2="-159108" y2="144933" gradientUnits="userSpaceOnUse">
<stop stop-color="#E6E8F4"/>
<stop offset="0.18" stop-color="#9EA1C0"/>
<stop offset="0.56" stop-color="#7E829C"/>
<stop offset="1" stop-color="#75799E"/>
</linearGradient>
<linearGradient id="paint25_linear_1_9454" x1="-71364.3" y1="144888" x2="-159025" y2="144888" gradientUnits="userSpaceOnUse">
<stop stop-color="#E6E8F4"/>
<stop offset="0.18" stop-color="#9EA1C0"/>
<stop offset="0.56" stop-color="#7E829C"/>
<stop offset="1" stop-color="#75799E"/>
</linearGradient>
<linearGradient id="paint26_linear_1_9454" x1="-71319.4" y1="144841" x2="-158925" y2="144841" gradientUnits="userSpaceOnUse">
<stop stop-color="#E6E8F4"/>
<stop offset="0.18" stop-color="#9EA1C0"/>
<stop offset="0.56" stop-color="#7E829C"/>
<stop offset="1" stop-color="#75799E"/>
</linearGradient>
<linearGradient id="paint27_linear_1_9454" x1="-71256" y1="144807" x2="-158783" y2="144807" gradientUnits="userSpaceOnUse">
<stop stop-color="#E6E8F4"/>
<stop offset="0.18" stop-color="#9EA1C0"/>
<stop offset="0.56" stop-color="#7E829C"/>
<stop offset="1" stop-color="#75799E"/>
</linearGradient>
<linearGradient id="paint28_linear_1_9454" x1="-71222.3" y1="144751" x2="-158708" y2="144751" gradientUnits="userSpaceOnUse">
<stop stop-color="#E6E8F4"/>
<stop offset="0.253125" stop-color="#75799E"/>
<stop offset="0.492708" stop-color="#9EA1C0"/>
<stop offset="1" stop-color="#7E829C"/>
</linearGradient>
<radialGradient id="paint29_radial_1_9454" cx="0" cy="0" r="1" gradientUnits="userSpaceOnUse" gradientTransform="translate(-59853.8 5162.89) rotate(180) scale(70.4329 224.775)">
<stop stop-color="white"/>
<stop offset="1"/>
</radialGradient>
<radialGradient id="paint30_radial_1_9454" cx="0" cy="0" r="1" gradientUnits="userSpaceOnUse" gradientTransform="translate(-59756.6 5375.34) rotate(180) scale(70.4329 224.775)">
<stop stop-color="white"/>
<stop offset="1"/>
</radialGradient>
<radialGradient id="paint31_radial_1_9454" cx="0" cy="0" r="1" gradientUnits="userSpaceOnUse" gradientTransform="translate(-59708 6670.66) rotate(180) scale(86.0609 343.415)">
<stop stop-color="white"/>
<stop offset="1"/>
</radialGradient>
<radialGradient id="paint32_radial_1_9454" cx="0" cy="0" r="1" gradientUnits="userSpaceOnUse" gradientTransform="translate(-59659.5 8120.98) rotate(180) scale(104.186 510.902)">
<stop stop-color="white"/>
<stop offset="1"/>
</radialGradient>
<radialGradient id="paint33_radial_1_9454" cx="0" cy="0" r="1" gradientUnits="userSpaceOnUse" gradientTransform="translate(-59610.9 7623.76) rotate(180) scale(95.1237 423.42)">
<stop stop-color="white"/>
<stop offset="1"/>
</radialGradient>
<radialGradient id="paint34_radial_1_9454" cx="0" cy="0" r="1" gradientUnits="userSpaceOnUse" gradientTransform="translate(-59562.3 5800.25) rotate(180) scale(70.4329 224.775)">
<stop stop-color="white"/>
<stop offset="1"/>
</radialGradient>
<radialGradient id="paint35_radial_1_9454" cx="0" cy="0" r="1" gradientUnits="userSpaceOnUse" gradientTransform="translate(-59513.7 6569.02) rotate(180) scale(78.2826 281.572)">
<stop stop-color="white"/>
<stop offset="1"/>
</radialGradient>
<radialGradient id="paint36_radial_1_9454" cx="0" cy="0" r="1" gradientUnits="userSpaceOnUse" gradientTransform="translate(-59465.3 7917.52) rotate(180) scale(93.34 406.831)">
<stop stop-color="white"/>
<stop offset="1"/>
</radialGradient>
<radialGradient id="paint37_radial_1_9454" cx="0" cy="0" r="1" gradientUnits="userSpaceOnUse" gradientTransform="translate(-59416.5 6118.81) rotate(180) scale(70.4329 224.775)">
<stop stop-color="white"/>
<stop offset="1"/>
</radialGradient>
<radialGradient id="paint38_radial_1_9454" cx="0" cy="0" r="1" gradientUnits="userSpaceOnUse" gradientTransform="translate(-59367.9 5611.74) rotate(180) scale(63.7964 181.409)">
<stop stop-color="white"/>
<stop offset="1"/>
</radialGradient>
<radialGradient id="paint39_radial_1_9454" cx="0" cy="0" r="1" gradientUnits="userSpaceOnUse" gradientTransform="translate(-59319.6 3882.49) rotate(180) scale(45.8137 85.2318)">
<stop stop-color="white"/>
<stop offset="1"/>
</radialGradient>
<radialGradient id="paint40_radial_1_9454" cx="0" cy="0" r="1" gradientUnits="userSpaceOnUse" gradientTransform="translate(-59270.8 5391.51) rotate(180) scale(59.5861 156.243)">
<stop stop-color="white"/>
<stop offset="1"/>
</radialGradient>
<radialGradient id="paint41_radial_1_9454" cx="0" cy="0" r="1" gradientUnits="userSpaceOnUse" gradientTransform="translate(-59222.2 6543.73) rotate(180) scale(70.4329 224.775)">
<stop stop-color="white"/>
<stop offset="1"/>
</radialGradient>
<radialGradient id="paint42_radial_1_9454" cx="0" cy="0" r="1" gradientUnits="userSpaceOnUse" gradientTransform="translate(-59173.6 5659.98) rotate(180) scale(60.5138 161.589)">
<stop stop-color="white"/>
<stop offset="1"/>
</radialGradient>
<radialGradient id="paint43_radial_1_9454" cx="0" cy="0" r="1" gradientUnits="userSpaceOnUse" gradientTransform="translate(-59125 9150.35) rotate(180) scale(95.8373 429.826)">
<stop stop-color="white"/>
<stop offset="1"/>
</radialGradient>
<radialGradient id="paint44_radial_1_9454" cx="0" cy="0" r="1" gradientUnits="userSpaceOnUse" gradientTransform="translate(-59076.4 6864.8) rotate(180) scale(70.4329 224.86)">
<stop stop-color="white"/>
<stop offset="1"/>
</radialGradient>
<radialGradient id="paint45_radial_1_9454" cx="0" cy="0" r="1" gradientUnits="userSpaceOnUse" gradientTransform="translate(-59027.8 5188.66) rotate(180) scale(53.8059 124.123)">
<stop stop-color="white"/>
<stop offset="1"/>
</radialGradient>
<radialGradient id="paint46_radial_1_9454" cx="0" cy="0" r="1" gradientUnits="userSpaceOnUse" gradientTransform="translate(-58979.2 9910.55) rotate(180) scale(99.1912 461.58)">
<stop stop-color="white"/>
<stop offset="1"/>
</radialGradient>
<radialGradient id="paint47_radial_1_9454" cx="0" cy="0" r="1" gradientUnits="userSpaceOnUse" gradientTransform="translate(-58882.1 7287.19) rotate(180) scale(70.4329 224.775)">
<stop stop-color="white"/>
<stop offset="1"/>
</radialGradient>
<radialGradient id="paint48_radial_1_9454" cx="0" cy="0" r="1" gradientUnits="userSpaceOnUse" gradientTransform="translate(177.057 239.875) rotate(119.649) scale(10.9244 5.3146)">
<stop offset="0.19" stop-color="#AFB6E5"/>
<stop offset="1" stop-color="white"/>
</radialGradient>
<linearGradient id="paint49_linear_1_9454" x1="-756.393" y1="346.038" x2="-787.8" y2="300.018" gradientUnits="userSpaceOnUse">
<stop stop-color="#AFB6E5"/>
<stop offset="0.14" stop-color="#B6BCE8"/>
<stop offset="0.35" stop-color="#C8CDF1"/>
<stop offset="0.58" stop-color="#E5E9FF"/>
<stop offset="0.86" stop-color="#F5F6FF"/>
<stop offset="1" stop-color="white"/>
</linearGradient>
<linearGradient id="paint50_linear_1_9454" x1="184.16" y1="235.555" x2="184.16" y2="235.555" gradientUnits="userSpaceOnUse">
<stop stop-color="#AFB6E5"/>
<stop offset="0.14" stop-color="#B6BCE8"/>
<stop offset="0.35" stop-color="#C8CDF1"/>
<stop offset="0.58" stop-color="#E5E9FF"/>
<stop offset="0.86" stop-color="#F5F6FF"/>
<stop offset="1" stop-color="white"/>
</linearGradient>
<linearGradient id="paint51_linear_1_9454" x1="182.001" y1="244.597" x2="185.071" y2="239.204" gradientUnits="userSpaceOnUse">
<stop stop-color="#B9BFEA"/>
<stop offset="0.25" stop-color="#E5E9FF"/>
<stop offset="0.7" stop-color="#AFB6E5"/>
<stop offset="0.95" stop-color="#BAC0EA"/>
<stop offset="1" stop-color="#BDC3EC"/>
</linearGradient>
<linearGradient id="paint52_linear_1_9454" x1="176.09" y1="235.649" x2="188.41" y2="246.198" gradientUnits="userSpaceOnUse">
<stop offset="0.02" stop-color="#E5E9FF"/>
<stop offset="0.66" stop-color="#F5F6FF"/>
<stop offset="1" stop-color="white"/>
</linearGradient>
<radialGradient id="paint53_radial_1_9454" cx="0" cy="0" r="1" gradientUnits="userSpaceOnUse" gradientTransform="translate(-279.583 351.646) rotate(119.649) scale(3.26697 3.5035)">
<stop stop-color="white"/>
<stop offset="1"/>
</radialGradient>
<radialGradient id="paint54_radial_1_9454" cx="0" cy="0" r="1" gradientUnits="userSpaceOnUse" gradientTransform="translate(-402.373 758.059) rotate(119.649) scale(7.80647 3.29568)">
<stop stop-color="white"/>
<stop offset="1"/>
</radialGradient>
<radialGradient id="paint55_radial_1_9454" cx="0" cy="0" r="1" gradientUnits="userSpaceOnUse" gradientTransform="translate(-312.547 595.898) rotate(119.649) scale(7.87906 3.34131)">
<stop stop-color="white"/>
<stop offset="1"/>
</radialGradient>
<radialGradient id="paint56_radial_1_9454" cx="0" cy="0" r="1" gradientUnits="userSpaceOnUse" gradientTransform="translate(-313.861 414.959) rotate(119.649) scale(3.20956 3.4646)">
<stop stop-color="white"/>
<stop offset="1"/>
</radialGradient>
<radialGradient id="paint57_radial_1_9454" cx="0" cy="0" r="1" gradientUnits="userSpaceOnUse" gradientTransform="translate(-1024.36 1326.11) rotate(119.649) scale(34.7763 12.7179)">
<stop stop-color="white"/>
<stop offset="1"/>
</radialGradient>
<radialGradient id="paint58_radial_1_9454" cx="0" cy="0" r="1" gradientUnits="userSpaceOnUse" gradientTransform="translate(-603.031 659.049) rotate(119.649) scale(15.3129 8.43696)">
<stop stop-color="white"/>
<stop offset="1"/>
</radialGradient>
<radialGradient id="paint59_radial_1_9454" cx="0" cy="0" r="1" gradientUnits="userSpaceOnUse" gradientTransform="translate(-720.102 888.39) rotate(119.649) scale(15.0836 8.14156)">
<stop stop-color="white"/>
<stop offset="1"/>
</radialGradient>
<radialGradient id="paint60_radial_1_9454" cx="0" cy="0" r="1" gradientUnits="userSpaceOnUse" gradientTransform="translate(-2354 3448.77) rotate(119.649) scale(287.345 41.5943)">
<stop stop-color="white"/>
<stop offset="1"/>
</radialGradient>
<radialGradient id="paint61_radial_1_9454" cx="0" cy="0" r="1" gradientUnits="userSpaceOnUse" gradientTransform="translate(-861.476 1039.24) rotate(119.649) scale(34.9394 12.7769)">
<stop stop-color="white"/>
<stop offset="1"/>
</radialGradient>
<radialGradient id="paint62_radial_1_9454" cx="0" cy="0" r="1" gradientUnits="userSpaceOnUse" gradientTransform="translate(-1418.23 1744.08) rotate(119.649) scale(80.3274 26.1428)">
<stop stop-color="white"/>
<stop offset="1"/>
</radialGradient>
</defs>
</svg>
