<svg width="9" height="9" viewBox="0 0 9 9" fill="none" xmlns="http://www.w3.org/2000/svg">
<path d="M2.99995 1.03136H1.87497C1.40898 1.03136 1.03123 1.40911 1.03123 1.8751V3.00008C1.03123 3.46607 1.40898 3.84382 1.87497 3.84382H2.99995C3.46594 3.84382 3.84369 3.46607 3.84369 3.00008V1.8751C3.84369 1.40911 3.46594 1.03136 2.99995 1.03136Z" fill="#0EA271"/>
<path d="M7.1249 1.03136H5.99991C5.53393 1.03136 5.15617 1.40911 5.15617 1.8751V3.00008C5.15617 3.46607 5.53393 3.84382 5.99991 3.84382H7.1249C7.59088 3.84382 7.96864 3.46607 7.96864 3.00008V1.8751C7.96864 1.40911 7.59088 1.03136 7.1249 1.03136Z" fill="#0EA271"/>
<path d="M7.1249 5.15627H5.99991C5.53393 5.15627 5.15617 5.53403 5.15617 6.00001V7.125C5.15617 7.59098 5.53393 7.96873 5.99991 7.96873H7.1249C7.59088 7.96873 7.96864 7.59098 7.96864 7.125V6.00001C7.96864 5.53403 7.59088 5.15627 7.1249 5.15627Z" fill="#0EA271"/>
<path d="M2.99995 5.15627H1.87497C1.40898 5.15627 1.03123 5.53403 1.03123 6.00001V7.125C1.03123 7.59098 1.40898 7.96873 1.87497 7.96873H2.99995C3.46594 7.96873 3.84369 7.59098 3.84369 7.125V6.00001C3.84369 5.53403 3.46594 5.15627 2.99995 5.15627Z" fill="#0EA271"/>
</svg>
