<svg width="32" height="32" viewBox="0 0 32 32" fill="none" xmlns="http://www.w3.org/2000/svg">
<path d="M11.2804 27.0087C10.8377 26.7136 10.4446 26.3502 10.1157 25.9321C9.75716 25.4986 9.42481 25.0427 9.11961 24.5708C8.40288 23.5225 7.84159 22.3759 7.45317 21.1668C6.98507 19.7606 6.75757 18.4144 6.75757 17.0971C6.75757 15.6273 7.07588 14.3447 7.69564 13.2681C8.15778 12.4245 8.83642 11.7194 9.66167 11.2253C10.4613 10.7293 11.3797 10.4576 12.3205 10.4389C12.6482 10.4389 13.0039 10.4857 13.3784 10.5793C13.6499 10.6542 13.9776 10.7759 14.3801 10.9257C14.895 11.1223 15.1759 11.244 15.2695 11.2721C15.5691 11.3844 15.8219 11.4312 16.0185 11.4312C16.1683 11.4312 16.3836 11.3844 16.6223 11.3095C16.7581 11.2627 17.0155 11.1785 17.3807 11.0193C17.742 10.8882 18.0285 10.7759 18.256 10.6916C18.6024 10.5887 18.9376 10.495 19.239 10.4482C19.6041 10.3921 19.9665 10.3733 20.3138 10.4014C20.9785 10.4482 21.587 10.5887 22.13 10.7946C23.0849 11.1785 23.8554 11.7776 24.4303 12.6296C24.1869 12.7794 23.9622 12.9535 23.7515 13.1445C23.2956 13.5471 22.9089 14.0245 22.6 14.5535C22.1985 15.2746 21.9908 16.0874 21.9971 16.9127C22.0111 17.9266 22.2686 18.8179 22.7835 19.5902C23.1585 20.163 23.6473 20.6525 24.2196 21.0283C24.5098 21.2249 24.7645 21.3606 25.006 21.4495C24.8937 21.8006 24.7701 22.1423 24.6269 22.4794C24.302 23.2349 23.9154 23.9586 23.4566 24.642C23.0522 25.2318 22.7339 25.6718 22.4923 25.962C22.116 26.4114 21.7527 26.7484 21.3876 26.9891C20.985 27.2559 20.5123 27.3972 20.0282 27.3972C19.7006 27.4113 19.3729 27.3692 19.0602 27.2783C18.7887 27.1894 18.521 27.0892 18.2588 26.9759C17.9841 26.8503 17.701 26.7439 17.4116 26.6576C17.0558 26.5646 16.6895 26.5184 16.3218 26.52C15.9473 26.52 15.5822 26.5668 15.2358 26.6558C14.9456 26.7382 14.6647 26.8393 14.3867 26.96C13.9935 27.1239 13.736 27.2315 13.5862 27.2783C13.2844 27.3676 12.9735 27.4226 12.6594 27.4422C12.1726 27.4422 11.7194 27.3017 11.2682 27.0209L11.2804 27.0087ZM17.6971 9.72641C17.0605 10.0447 16.4557 10.1795 15.85 10.1346C15.7563 9.52981 15.85 8.90817 16.1027 8.22755C16.3274 7.64711 16.627 7.12283 17.0389 6.65473C17.4696 6.16791 17.9845 5.76534 18.565 5.47512C19.1828 5.15681 19.7727 4.98829 20.3344 4.96021C20.4093 5.59682 20.3344 6.22408 20.1003 6.89814C19.8849 7.49692 19.5682 8.05425 19.1641 8.54586C18.7569 9.03269 18.2513 9.43525 17.6793 9.72548L17.6971 9.72641Z" fill="black"/>
</svg>
