<svg width="209" height="129" viewBox="0 0 209 129" fill="none" xmlns="http://www.w3.org/2000/svg">
<g style="mix-blend-mode:multiply" opacity="0.5">
<g style="mix-blend-mode:multiply" opacity="0.02">
<path d="M159.692 126.544L3.92775 35.6789C-1.89023 32.3923 -1.16085 26.5143 5.55816 22.5412L26.5904 11.2914C33.3094 7.31835 43.4781 6.76057 49.3046 10.0386L205.069 100.947C210.895 104.233 210.157 110.111 203.438 114.084L182.406 125.334C175.687 129.264 165.518 129.822 159.692 126.544Z" fill="#A7ADDA"/>
</g>
<g style="mix-blend-mode:multiply" opacity="0.05">
<path d="M159.683 126.261L4.3654 35.636C-1.4011 32.3837 -0.680304 26.5572 5.98721 22.6184L26.5819 11.6089C33.2494 7.67016 43.3322 7.11239 49.0987 10.3646L204.417 100.99C210.183 104.242 209.462 110.077 202.795 114.016L182.2 125.017C175.533 128.955 165.458 129.513 159.683 126.261Z" fill="#9EA5CF"/>
</g>
<g style="mix-blend-mode:multiply" opacity="0.07">
<path d="M159.675 125.986L4.77754 35.6017C-0.946058 32.3838 -0.225232 26.6001 6.37363 22.73L26.5993 11.9607C33.2067 8.05633 43.1951 7.50713 48.9102 10.7336L203.816 101.075C209.531 104.302 208.819 110.077 202.212 113.947L181.986 124.716C175.378 128.655 165.39 129.204 159.675 125.986Z" fill="#969CC4"/>
</g>
<g style="mix-blend-mode:multiply" opacity="0.1">
<path d="M159.658 125.703L5.19794 35.6016C-0.474172 32.4095 0.238065 26.6859 6.78545 22.8158L26.6078 12.2782C33.1551 8.41671 43.0578 7.86752 48.7213 11.0597L203.181 101.161C208.845 104.353 208.132 110.077 201.594 113.947L181.763 124.485C175.232 128.355 165.33 128.895 159.658 125.703Z" fill="#8E93B9"/>
</g>
<g style="mix-blend-mode:multiply" opacity="0.12">
<path d="M159.649 125.429L5.61832 35.533C0.00627744 32.3666 0.709925 26.6945 7.19724 22.8587L26.6163 12.5614C33.1036 8.72566 42.9204 8.18505 48.5324 11.3515L202.555 101.247C208.175 104.414 207.472 110.086 200.984 113.921L181.565 124.219C175.078 128.046 165.27 128.586 159.649 125.429Z" fill="#858BAE"/>
</g>
<g style="mix-blend-mode:multiply" opacity="0.14">
<path d="M159.641 125.145L6.03877 35.4987C0.47822 32.3666 1.1733 26.7374 7.60054 22.9445L26.6249 12.8875C33.0521 9.08606 42.7659 8.54545 48.335 11.6861L201.937 101.333C207.506 104.465 206.802 110.086 200.384 113.887L181.351 123.944C174.923 127.746 165.201 128.278 159.641 125.145Z" fill="#7D82A4"/>
</g>
<g style="mix-blend-mode:multiply" opacity="0.17">
<path d="M159.624 124.862L6.4681 35.4644C0.950453 32.358 1.64554 26.7889 8.01271 23.0218L26.6251 13.205C32.9923 9.43787 42.6289 8.91442 48.138 12.0122L201.302 101.419C206.82 104.525 206.125 110.094 199.757 113.853L181.136 123.678C174.769 127.445 165.15 127.969 159.624 124.862Z" fill="#757999"/>
</g>
<g style="mix-blend-mode:multiply" opacity="0.19">
<path d="M159.615 124.588L6.87132 35.43C1.40516 32.3494 2.09165 26.8489 8.39876 23.1076L26.6164 13.5225C32.9236 9.78969 42.4657 9.23192 47.9319 12.3469L200.676 101.496C206.142 104.577 205.455 110.077 199.148 113.827L180.93 123.412C174.589 127.136 165.081 127.668 159.615 124.588Z" fill="#6C718E"/>
</g>
<g style="mix-blend-mode:multiply" opacity="0.21">
<path d="M159.606 124.305L7.30883 35.3957C1.90273 32.3494 2.58063 26.8747 8.82767 23.1848L26.6421 13.84C32.8891 10.1415 42.3455 9.62667 47.7516 12.673L200.049 101.582C205.455 104.637 204.777 110.103 198.53 113.793L180.716 123.137C174.469 126.836 165.012 127.359 159.606 124.305Z" fill="#646883"/>
</g>
<g style="mix-blend-mode:multiply" opacity="0.24">
<path d="M159.589 124.03L7.70372 35.3614C2.34911 32.3409 3.01844 26.9262 9.20541 23.2706L26.6251 14.1575C32.812 10.5019 42.174 9.9785 47.5372 12.999L199.423 101.668C204.777 104.688 204.108 110.103 197.921 113.758L180.501 122.871C174.314 126.527 164.952 127.05 159.589 124.03Z" fill="#5C5F78"/>
</g>
<g style="mix-blend-mode:multiply" opacity="0.26">
<path d="M159.58 123.747L8.15812 35.3614C2.84642 32.3666 3.51576 27.0034 9.64266 23.3479L26.659 14.475C32.7859 10.8538 42.0621 10.3389 47.3652 13.3337L198.796 101.719C204.099 104.714 203.438 110.077 197.303 113.733L180.295 122.605C174.16 126.227 164.892 126.742 159.58 123.747Z" fill="#53576D"/>
</g>
<g style="mix-blend-mode:multiply" opacity="0.29">
<path d="M159.572 123.464L8.54464 35.2928C3.28443 32.3237 3.94517 27.0206 10.0206 23.4251L26.625 14.7925C32.7005 11.2056 41.8822 10.6993 47.1424 13.6598L198.161 101.805C203.421 104.765 202.761 110.077 196.694 113.664L180.081 122.331C174.014 125.926 164.824 126.433 159.572 123.464Z" fill="#4B4E62"/>
</g>
<g style="mix-blend-mode:multiply" opacity="0.31">
<path d="M159.555 123.189L8.9734 35.2584C3.77325 32.3237 4.42542 27.0634 10.4322 23.5109L26.6676 15.1357C32.6744 11.5831 41.7704 11.0854 46.9791 14.0202L197.535 101.925C202.743 104.86 202.091 110.111 196.076 113.672L179.866 122.065C173.859 125.617 164.763 126.124 159.555 123.189Z" fill="#434557"/>
</g>
<g style="mix-blend-mode:multiply" opacity="0.33">
<path d="M159.546 122.906L9.37704 35.2241C4.22838 32.3151 4.87197 27.1064 10.8273 23.5881L26.6336 15.4275C32.5889 11.9092 41.5905 11.4115 46.7392 14.3205L196.9 102.011C202.049 104.911 201.405 110.12 195.458 113.638L179.652 121.799C173.731 125.317 164.704 125.832 159.546 122.906Z" fill="#3A3D4C"/>
</g>
<g style="mix-blend-mode:multiply" opacity="0.36">
<path d="M159.537 122.631L9.83151 35.1812C4.72575 32.3065 5.36934 27.1578 11.256 23.6739L26.702 15.745C32.5886 12.261 41.5043 11.7719 46.6101 14.6466L196.299 102.088C201.447 104.971 200.761 110.12 194.866 113.604L179.42 121.533C173.55 124.974 164.635 125.506 159.537 122.631Z" fill="#323441"/>
</g>
<g style="mix-blend-mode:multiply" opacity="0.38">
<path d="M159.52 122.348L10.2692 35.1469C5.21489 32.3065 5.84988 27.2008 11.685 23.7512L26.6934 16.0282C32.5199 12.5957 41.3499 12.098 46.4299 14.947L195.655 102.174C200.71 105.023 200.075 110.129 194.239 113.578L179.231 121.258C173.396 124.708 164.575 125.197 159.52 122.348Z" fill="#2A2B37"/>
</g>
<g style="mix-blend-mode:multiply" opacity="0.4">
<path d="M159.512 122.073L10.69 35.1126C5.68724 32.2979 6.32225 27.2437 12.0887 23.837L26.6766 16.3886C32.4517 12.9562 41.1873 12.4928 46.19 15.3074L195.029 102.26C200.023 105.083 199.397 110.129 193.622 113.544L179.034 120.992C173.25 124.407 164.515 124.888 159.512 122.073Z" fill="#21232C"/>
</g>
<g style="mix-blend-mode:multiply" opacity="0.43">
<path d="M159.503 121.79L11.1101 35.0782C6.16735 32.2894 6.81951 27.2952 12.5002 23.9228L26.7019 16.7147C32.417 13.3337 41.0667 12.8532 46.0094 15.642L194.402 102.311C199.345 105.1 198.693 110.103 193.012 113.467L178.811 120.683C173.095 124.116 164.446 124.579 159.503 121.79Z" fill="#191A21"/>
</g>
<g style="mix-blend-mode:multiply" opacity="0.45">
<path d="M159.486 121.541L11.548 35.0439C6.64815 32.2808 7.25741 27.3209 12.9209 23.9915L26.7193 17.0236C32.3743 13.677 40.9297 13.205 45.8295 15.9681L193.768 102.431C198.667 105.194 198.058 110.154 192.403 113.484L178.596 120.452C172.941 123.798 164.386 124.27 159.486 121.541Z" fill="#111116"/>
</g>
<g style="mix-blend-mode:multiply" opacity="0.48">
<path d="M159.477 121.232L11.9597 35.0096C7.11134 32.2808 7.72059 27.381 13.3155 24.0773L26.7191 17.3411C32.314 14.0288 40.775 13.5654 45.5976 16.2942L193.141 102.517C197.989 105.246 197.38 110.146 191.785 113.449L178.382 120.186C172.787 123.498 164.291 123.961 159.477 121.232Z" fill="#08090B"/>
</g>
<g style="mix-blend-mode:multiply" opacity="0.5">
<path d="M159.469 120.949L12.406 34.9752C7.60919 32.2722 8.21846 27.4324 13.7533 24.1545L26.7536 17.6586C32.2884 14.3806 40.6636 13.9258 45.4604 16.6203L192.54 102.603C197.337 105.306 196.737 110.146 191.202 113.415L178.202 119.92C172.641 123.189 164.292 123.652 159.469 120.949Z" fill="black"/>
</g>
</g>
<path d="M198.778 99.7968H197.671C197.02 99.005 196.221 98.3465 195.32 97.8575L45.4341 10.3302C40.2854 7.43841 31.3525 7.93612 25.4401 11.4372L9.83111 19.4262C8.45017 20.2081 7.23475 21.2516 6.25278 22.4982H4.93987V30.8133C5.10291 32.5296 6.21845 34.1342 8.37231 35.3356L158.284 122.931C163.433 125.823 172.357 125.326 178.278 121.833L193.887 113.818C196.693 112.154 198.298 110.12 198.675 108.12H198.778V99.7968Z" fill="url(#paint0_linear_1_9425)"/>
<path d="M158.284 115.449L8.39819 27.9216C3.24953 25.0298 3.91028 19.8554 9.83124 16.3543L25.4403 8.27091C31.3526 4.7784 40.3113 4.2807 45.4342 7.17253L195.32 94.6998C200.469 97.583 199.8 102.766 193.887 106.267L178.295 114.29C172.374 117.843 163.433 118.341 158.284 115.449Z" fill="url(#paint1_linear_1_9425)"/>
<path style="mix-blend-mode:color-dodge" d="M193.887 105.418L178.295 113.449C172.374 116.951 163.424 117.44 158.301 114.556L8.4152 27.0292C6.35574 25.8707 5.24878 24.3347 4.98276 22.6957C4.66526 24.8324 5.77222 26.9005 8.4152 28.3678L158.284 115.895C163.433 118.787 172.357 118.289 178.278 114.788L193.87 106.765C197.414 104.662 199.019 101.968 198.701 99.5223C198.418 101.582 196.788 103.701 193.887 105.418Z" fill="url(#paint2_radial_1_9425)"/>
<path opacity="0.95" d="M198.778 91.3445H197.671C197.017 90.5551 196.22 89.897 195.32 89.4052L45.4341 1.87797C40.2854 -1.00528 31.3525 -0.516164 25.4401 2.98493L9.83111 10.9997C8.44825 11.7789 7.23234 12.8227 6.25278 14.0717H4.93987V22.3782C5.10291 24.0944 6.21845 25.6991 8.37231 26.909L158.284 114.479C163.433 117.362 172.357 116.873 178.278 113.372L193.87 105.34C196.676 103.684 198.281 101.642 198.658 99.651H198.761L198.778 91.3445Z" fill="url(#paint3_linear_1_9425)"/>
<g style="mix-blend-mode:overlay" opacity="0.95">
<path d="M198.778 91.3445H197.671C197.017 90.5551 196.22 89.897 195.32 89.4052L45.4341 1.87797C40.2854 -1.00528 31.3525 -0.516164 25.4401 2.98493L9.83111 10.9997C8.44825 11.7789 7.23234 12.8227 6.25278 14.0717H4.93987V22.3782C5.10291 24.0944 6.21845 25.6991 8.37231 26.909L158.284 114.479C163.433 117.362 172.357 116.873 178.278 113.372L193.87 105.34C196.676 103.684 198.281 101.642 198.658 99.651H198.761L198.778 91.3445Z" fill="url(#paint4_linear_1_9425)"/>
</g>
<defs>
<linearGradient id="paint0_linear_1_9425" x1="4.95703" y1="69.2024" x2="202.362" y2="69.8286" gradientUnits="userSpaceOnUse">
<stop stop-color="#E4E8FF"/>
<stop offset="0.26" stop-color="#F7F1FA"/>
<stop offset="0.49" stop-color="#E4E8FF"/>
<stop offset="0.7" stop-color="#D7DCF8"/>
<stop offset="0.83" stop-color="#FDFDFE"/>
<stop offset="0.859446" stop-color="#E1E3F1"/>
<stop offset="0.89035" stop-color="#E6E8EF"/>
<stop offset="0.973318" stop-color="white"/>
<stop offset="1" stop-color="#C0C3DB"/>
</linearGradient>
<linearGradient id="paint1_linear_1_9425" x1="126.423" y1="-0.703806" x2="89.5372" y2="97.0241" gradientUnits="userSpaceOnUse">
<stop stop-color="#AFB6E5"/>
<stop offset="0.14" stop-color="#B6BCE8"/>
<stop offset="0.35" stop-color="#C8CDF1"/>
<stop offset="0.58" stop-color="#E5E9FF"/>
<stop offset="0.86" stop-color="#F5F6FF"/>
<stop offset="1" stop-color="white"/>
</linearGradient>
<radialGradient id="paint2_radial_1_9425" cx="0" cy="0" r="1" gradientUnits="userSpaceOnUse" gradientTransform="translate(101.863 71.6059) rotate(-0.572939) scale(76.6845 76.6769)">
<stop stop-color="white"/>
<stop offset="1"/>
</radialGradient>
<linearGradient id="paint3_linear_1_9425" x1="64937" y1="26955.9" x2="108721" y2="26955.9" gradientUnits="userSpaceOnUse">
<stop offset="0.01" stop-color="#33CDFF"/>
<stop offset="0.29" stop-color="#07CDBF"/>
<stop offset="0.34" stop-color="#00C7C5"/>
<stop offset="0.4" stop-color="#09C7CA"/>
<stop offset="0.49" stop-color="#21C9D8"/>
<stop offset="0.6" stop-color="#48CBEE"/>
<stop offset="0.68" stop-color="#66CCFF"/>
<stop offset="0.99" stop-color="#5277F7"/>
</linearGradient>
<linearGradient id="paint4_linear_1_9425" x1="64937" y1="26955.9" x2="108721" y2="26955.9" gradientUnits="userSpaceOnUse">
<stop offset="0.01" stop-color="#33CDFF"/>
<stop offset="0.29" stop-color="#07CDBF"/>
<stop offset="0.34" stop-color="#00C7C5"/>
<stop offset="0.4" stop-color="#09C7CA"/>
<stop offset="0.49" stop-color="#21C9D8"/>
<stop offset="0.6" stop-color="#48CBEE"/>
<stop offset="0.68" stop-color="#66CCFF"/>
<stop offset="0.99" stop-color="#5277F7"/>
</linearGradient>
</defs>
</svg>
