<svg width="303" height="309" viewBox="0 0 303 309" fill="none" xmlns="http://www.w3.org/2000/svg">
<path d="M75.6357 308.632C87.8749 309.32 100.109 307.186 111.392 302.395C122.676 297.604 132.707 290.284 140.712 281C140.634 280.935 140.565 280.866 140.491 280.796C132.517 290.044 122.525 297.336 111.287 302.111C100.049 306.885 87.8642 309.015 75.6726 308.336C31.7091 305.869 -2.04425 268.115 0.427425 224.174C1.20644 210.406 5.53864 197.074 13.0019 185.477C20.4652 173.881 30.8051 164.415 43.0142 158.003L42.7693 157.767C30.5461 164.224 20.1978 173.728 12.727 185.36C5.2561 196.991 0.916002 210.354 0.127128 224.156C-2.34455 268.262 31.5243 306.16 75.6357 308.632Z" fill="white"/>
<path d="M114.078 270.078C113.797 269.912 113.519 269.736 113.251 269.547C106.929 276.901 98.0025 281.517 88.3473 282.426C78.6921 283.335 69.0605 280.465 61.4773 274.42C53.894 268.375 48.9498 259.625 47.6838 250.01C46.4179 240.395 48.9288 230.664 54.6889 222.862C55.643 221.566 56.6784 220.331 57.7888 219.166C57.5301 218.972 57.276 218.769 57.0312 218.547C53.5144 222.27 50.7768 226.658 48.9791 231.453C47.1814 236.248 46.3599 241.354 46.5626 246.471C46.7654 251.589 47.9884 256.614 50.1599 261.252C52.3314 265.89 55.4076 270.047 59.2078 273.48C63.0081 276.913 67.4559 279.552 72.2901 281.242C77.1243 282.932 82.2474 283.64 87.3588 283.323C92.4701 283.006 97.4667 281.671 102.055 279.397C106.643 277.122 110.731 273.954 114.078 270.078Z" fill="url(#paint0_radial_1_9661)"/>
<path d="M92.9143 261.63C92.7332 261.547 92.5549 261.459 92.3827 261.365C88.318 265.032 82.5786 267.335 76.3709 267.788C70.1633 268.241 63.9708 266.81 59.0953 263.795C54.2197 260.781 51.0409 256.417 50.227 251.622C49.4131 246.827 51.0274 241.975 54.7308 238.084C55.3442 237.437 56.0099 236.822 56.7239 236.241C56.5575 236.144 56.3942 236.043 56.2367 235.932C53.9757 237.788 52.2156 239.977 51.0598 242.368C49.904 244.759 49.3758 247.306 49.5061 249.858C49.6365 252.409 50.4228 254.915 51.8189 257.228C53.2151 259.541 55.1928 261.614 57.6362 263.326C60.0795 265.038 62.9391 266.354 66.0472 267.197C69.1553 268.04 72.4491 268.393 75.7354 268.235C79.0217 268.077 82.2341 267.411 85.1841 266.277C88.1342 265.143 90.7623 263.563 92.9143 261.63Z" fill="url(#paint1_radial_1_9661)"/>
<g opacity="0.2">
<path opacity="0.09" d="M185.207 133.937L43.8038 215.576C38.9482 218.381 36.4349 222.825 36.7629 227.644C36.8515 228.795 37.0779 229.932 37.4375 231.03C38.574 234.671 42.1822 238.561 46.3309 240.958L125.628 286.738C130.22 289.389 136.004 290.812 141.798 290.748C144.03 290.717 146.253 290.444 148.427 289.935C150.737 289.368 152.959 288.492 155.034 287.329L295.896 206.018C300.743 203.218 303.288 198.783 302.974 193.969C302.879 192.627 302.592 191.306 302.119 190.047C300.89 186.614 297.407 182.96 293.452 180.677L214.326 134.991C213.21 134.349 212.054 133.778 210.866 133.281C206.902 131.674 202.669 130.839 198.392 130.819C193.379 130.791 188.792 131.867 185.207 133.937Z" fill="black"/>
<path opacity="0.18" d="M185.563 134.547L44.1549 216.186C39.3086 218.986 37.0725 223.426 37.687 228.129C37.8639 229.233 38.1518 230.316 38.5463 231.363C39.6782 234.597 43.8638 238.755 47.5921 240.894L125.947 286.132C130.525 288.775 136.337 290.152 142.061 290.022C146.667 289.938 151.177 288.695 155.177 286.41L295.527 205.389C300.35 202.617 302.614 198.192 302.022 193.498C301.827 192.213 301.473 190.958 300.969 189.76C299.768 186.706 295.758 182.83 292.191 180.77L214.234 135.753C213.133 135.124 211.998 134.556 210.834 134.053C206.936 132.44 202.767 131.585 198.549 131.535C193.62 131.479 189.088 132.514 185.563 134.547Z" fill="black"/>
<path opacity="0.27" d="M185.913 135.161L44.5151 216.801C39.6826 219.573 37.7053 224.017 38.6755 228.609C38.9429 229.661 39.2935 230.69 39.7242 231.686C40.8284 234.527 45.6054 238.912 48.9225 240.829L126.325 285.518C130.894 288.156 136.734 289.491 142.398 289.292C144.603 289.188 146.789 288.839 148.917 288.253C151.16 287.546 153.326 286.618 155.385 285.481L295.171 204.78C299.971 202.008 301.985 197.619 301.089 193.04C300.798 191.815 300.378 190.624 299.837 189.487C298.682 186.808 294.127 182.696 290.962 180.871L214.141 136.515C213.333 136.053 211.688 135.198 210.801 134.82C206.974 133.202 202.874 132.328 198.72 132.246C193.874 132.163 189.378 133.161 185.913 135.161Z" fill="black"/>
<path opacity="0.36" d="M186.27 135.771L44.8666 217.411C40.048 220.182 38.3294 224.608 39.6369 229.09C39.9905 230.085 40.4024 231.058 40.8704 232.005C41.9237 234.458 47.3383 239.083 50.2258 240.76L126.681 284.899C131.237 287.532 137.104 288.821 142.703 288.562C144.896 288.418 147.065 288.031 149.171 287.407C150.71 286.982 154.323 285.278 155.575 284.557L294.816 204.17C299.597 201.398 301.362 197.05 300.152 192.588C299.767 191.425 299.283 190.299 298.706 189.22C297.62 186.91 292.496 182.576 289.729 180.982L214.049 137.277C213.343 136.871 211.541 135.924 210.765 135.586C207.009 133.965 202.98 133.073 198.891 132.958C194.124 132.851 189.684 133.812 186.27 135.771Z" fill="black"/>
<path opacity="0.45" d="M186.621 136.386L45.2222 218.025C40.4128 220.797 38.939 225.2 40.6022 229.575C40.9533 230.499 41.5586 231.354 42.0205 232.347C42.9954 234.417 49.0383 239.277 51.5284 240.714L127.032 284.308C131.578 286.932 137.473 288.179 143.013 287.851C145.191 287.668 147.341 287.243 149.425 286.585C150.737 286.202 154.687 284.275 155.759 283.651L294.464 203.555C299.218 200.783 300.752 196.473 299.218 192.126C298.835 191.04 298.146 190.065 297.573 188.942C296.576 186.993 290.865 182.447 288.495 181.088L213.957 138.04C213.347 137.693 211.397 136.654 210.723 136.358C207.041 134.729 203.081 133.818 199.057 133.674C194.373 133.54 189.965 134.459 186.621 136.386Z" fill="black"/>
<path opacity="0.55" d="M186.976 137L45.5733 218.639C40.7777 221.411 39.535 225.796 41.5631 230.055C41.9887 230.985 42.5271 231.858 43.1663 232.656C43.6791 234.504 50.7568 239.429 52.8312 240.63L127.388 283.675C131.92 286.289 137.843 287.495 143.318 287.107C145.482 286.887 147.615 286.422 149.675 285.721C150.77 285.389 155.052 283.226 155.944 282.709L294.095 202.941C298.825 200.206 300.137 195.895 298.253 191.668C297.782 190.585 297.16 189.574 296.405 188.665C295.836 186.933 289.202 182.322 287.225 181.185L213.86 138.825C213.356 138.534 211.249 137.393 210.7 137.148C207.088 135.516 203.198 134.586 199.238 134.408C194.627 134.205 190.256 135.129 186.976 137Z" fill="black"/>
<path opacity="0.64" d="M187.327 137.61L45.9291 219.249C41.1429 222.021 40.1218 226.392 42.5242 230.54C43.0246 231.421 43.6262 232.239 44.3168 232.98C44.7279 234.449 52.4756 239.605 54.1342 240.566L127.744 283.069C132.262 285.68 138.213 286.844 143.627 286.386C145.786 286.128 147.908 285.623 149.952 284.88C150.821 284.599 155.436 282.196 156.152 281.785L293.781 202.322C298.488 199.605 299.583 195.313 297.37 191.206C296.823 190.177 296.136 189.228 295.328 188.388C294.866 187.002 287.631 182.197 286.047 181.282L213.791 139.564C213.389 139.329 211.13 138.086 210.686 137.887C207.144 136.258 203.325 135.317 199.432 135.115C194.877 134.912 190.552 135.753 187.327 137.61Z" fill="black"/>
<path opacity="0.73" d="M187.683 138.224L46.2847 219.864C41.5077 222.636 40.6992 227.002 43.485 231.021C44.0554 231.854 44.7188 232.62 45.4623 233.303C45.7719 234.407 54.1894 239.771 55.4322 240.501L128.095 282.45C132.604 285.051 138.582 286.146 143.932 285.647C146.242 285.421 148.284 284.682 150.183 284.04C150.83 283.818 155.778 281.171 156.318 280.861L293.402 201.717C298.086 199.009 298.982 194.731 296.414 190.753C295.789 189.778 295.036 188.892 294.173 188.12C293.836 187.081 285.977 182.077 284.79 181.393L213.675 140.331C213.37 140.156 210.958 138.811 210.63 138.659C207.16 137.019 203.41 136.053 199.579 135.813C195.13 135.591 190.843 136.4 187.683 138.224Z" fill="black"/>
<path opacity="0.82" d="M188.039 138.825L46.6358 220.474C41.8773 223.246 41.2674 227.625 44.446 231.501C45.0885 232.288 45.8151 233.002 46.6127 233.631C46.816 234.366 55.9081 239.956 56.7351 240.432L128.451 281.836C132.946 284.432 138.952 285.504 144.237 284.922C146.547 284.663 148.557 283.859 150.437 283.194C150.867 283.042 156.143 280.14 156.503 279.96L293.046 201.102C297.712 198.409 298.41 194.131 295.476 190.296C294.776 189.376 293.957 188.553 293.041 187.847C292.815 187.154 284.346 181.952 283.556 181.495L213.583 141.093C213.379 140.978 210.811 139.532 210.598 139.43C207.201 137.779 203.522 136.79 199.755 136.515C195.38 136.284 191.134 137.051 188.039 138.825Z" fill="black"/>
<path opacity="0.91" d="M188.39 139.449L46.9914 221.088C42.2421 223.832 41.831 228.258 45.4068 231.987C46.1193 232.723 46.9076 233.383 47.7584 233.955C47.86 234.32 57.622 240.127 58.0378 240.367L128.802 281.226C133.288 283.813 139.321 284.843 144.546 284.192C146.829 283.906 148.829 283.042 150.686 282.344C150.904 282.265 156.508 279.11 156.692 279.004L292.708 200.488C297.328 197.808 297.855 193.521 294.556 189.839C293.776 188.977 292.892 188.217 291.923 187.575C291.812 187.228 282.729 181.828 282.337 181.601L213.499 141.87C213.398 141.81 210.681 140.262 210.575 140.211C207.252 138.563 203.646 137.56 199.949 137.254C195.629 136.977 191.43 137.698 188.39 139.449Z" fill="black"/>
<path opacity="0.2" d="M150.941 281.512L292.339 199.878C297.924 196.644 297.227 191.021 290.777 187.298L210.529 140.964C204.061 137.245 194.327 136.839 188.746 140.063L47.3426 221.698C41.7617 224.932 42.4594 230.554 48.9088 234.278L129.162 280.612C135.602 284.354 145.355 284.742 150.941 281.512Z" fill="black"/>
</g>
<path d="M150.941 281.383L292.339 199.748C294.829 198.312 296.072 196.394 296.109 194.385V187.381C296.067 184.937 294.261 189.178 290.777 187.168L210.529 140.839C204.061 137.116 194.327 136.709 188.746 139.915L47.3427 221.573C45.4948 222.645 44.1088 218.08 43.6468 219.531C43.4897 219.993 43.5913 226.424 43.5821 226.923C43.5267 229.422 45.3331 232.079 48.9135 234.144L129.162 280.482C135.602 284.201 145.355 284.608 150.941 281.383Z" fill="url(#paint2_linear_1_9661)"/>
<path d="M150.941 274.509L292.339 192.879C297.925 189.645 297.227 184.027 290.778 180.303L210.529 133.965C204.061 130.241 194.327 129.835 188.746 133.041L47.3431 214.699C41.7622 217.933 42.4598 223.55 48.9093 227.279L129.163 273.608C135.603 277.327 145.356 277.733 150.941 274.509Z" fill="url(#paint3_linear_1_9661)"/>
<path d="M141.479 273.862C144.662 273.862 147.518 273.224 149.527 272.06L290.93 190.43C291.813 189.917 293.286 188.85 293.286 187.413C293.286 185.898 291.822 184.179 289.364 182.738L209.115 136.409C206.145 134.69 202.185 133.711 198.203 133.711C195.025 133.711 192.165 134.344 190.155 135.503L48.7752 217.143C47.8928 217.655 46.4191 218.718 46.4191 220.159C46.4191 221.601 47.8836 223.393 50.3368 224.835L130.548 271.159C133.542 272.878 137.52 273.862 141.479 273.862Z" fill="url(#paint4_linear_1_9661)"/>
<path d="M48.9093 226.11L129.163 272.434C135.607 276.163 145.36 276.564 150.946 273.358L292.339 191.705C294.649 190.365 295.878 188.614 296.068 186.753C296.359 189.062 295.144 191.257 292.339 192.869L150.941 274.509C145.355 277.743 135.603 277.327 129.158 273.585L48.9093 227.279C45.1348 225.098 43.3653 222.266 43.6194 219.647C43.9059 221.915 45.6938 224.248 48.9093 226.11Z" fill="white"/>
<path style="mix-blend-mode:color-dodge" d="M180.338 151.844C176.596 162.733 188.501 176.695 206.94 183.038C225.378 189.381 243.349 185.695 247.096 174.81C250.843 163.925 238.933 149.959 220.499 143.621C202.065 137.282 184.08 140.959 180.338 151.844Z" fill="url(#paint5_radial_1_9661)"/>
<path d="M125.813 244.437L240.637 178.141C242.947 176.815 242.647 174.5 239.99 172.967L196.882 148.065C194.225 146.531 190.21 146.365 187.914 147.695L73.0853 213.996C70.7754 215.322 71.0757 217.642 73.7321 219.175L116.841 244.068C119.497 245.597 123.512 245.763 125.813 244.437Z" fill="url(#paint6_linear_1_9661)"/>
<path d="M194.382 150.966C193.858 150.701 193.279 150.563 192.692 150.563C192.104 150.563 191.525 150.701 191.001 150.966L183.641 155.212C182.717 155.757 182.717 156.626 183.641 157.162C184.164 157.428 184.743 157.567 185.33 157.567C185.917 157.567 186.495 157.428 187.018 157.162L194.378 152.911C195.306 152.38 195.306 151.502 194.382 150.966ZM181.784 158.229C181.26 157.963 180.68 157.825 180.093 157.825C179.505 157.825 178.926 157.963 178.402 158.229L174.9 160.257C173.976 160.802 173.976 161.675 174.9 162.207C175.422 162.474 176 162.614 176.586 162.614C177.173 162.614 177.751 162.474 178.273 162.207L181.761 160.197C182.708 159.652 182.712 158.779 181.784 158.229ZM173.052 163.279C172.529 163.013 171.95 162.875 171.364 162.875C170.777 162.875 170.198 163.013 169.675 163.279L166.187 165.288C165.263 165.829 165.263 166.702 166.187 167.238C166.71 167.503 167.289 167.642 167.875 167.642C168.462 167.642 169.041 167.503 169.564 167.238L173.048 165.228C173.976 164.697 173.976 163.814 173.052 163.279ZM164.325 168.319C163.802 168.052 163.223 167.913 162.636 167.913C162.049 167.913 161.471 168.052 160.948 168.319L157.46 170.329C156.536 170.869 156.536 171.742 157.46 172.283C157.984 172.548 158.563 172.687 159.151 172.687C159.738 172.687 160.317 172.548 160.842 172.283L164.325 170.269C165.254 169.728 165.263 168.855 164.33 168.319H164.325ZM155.598 173.355C155.074 173.09 154.496 172.953 153.909 172.953C153.323 172.953 152.744 173.09 152.221 173.355L148.737 175.364C147.813 175.909 147.813 176.783 148.737 177.319C149.26 177.585 149.839 177.724 150.426 177.724C151.013 177.724 151.592 177.585 152.114 177.319L155.598 175.304C156.531 174.768 156.531 173.891 155.603 173.355H155.598ZM146.875 178.39C146.351 178.125 145.772 177.987 145.185 177.987C144.597 177.987 144.018 178.125 143.494 178.39L140.015 180.405C139.091 180.95 139.091 181.823 140.015 182.354C140.537 182.623 141.116 182.763 141.703 182.763C142.291 182.763 142.87 182.623 143.392 182.354L146.875 180.345C147.804 179.804 147.809 178.931 146.88 178.39H146.875ZM138.148 183.431C137.625 183.166 137.046 183.029 136.46 183.029C135.873 183.029 135.295 183.166 134.771 183.431L131.288 185.445C130.364 185.986 130.364 186.859 131.288 187.395C131.811 187.661 132.389 187.8 132.976 187.8C133.563 187.8 134.142 187.661 134.665 187.395L138.153 185.385C139.077 184.84 139.086 183.967 138.153 183.431H138.148ZM129.421 188.471C128.898 188.206 128.319 188.067 127.733 188.067C127.146 188.067 126.567 188.206 126.044 188.471L122.561 190.481C121.637 191.021 121.637 191.895 122.561 192.43C123.084 192.696 123.662 192.834 124.249 192.834C124.836 192.834 125.414 192.696 125.938 192.43L129.421 190.416C130.354 189.88 130.359 189.007 129.426 188.471H129.421ZM120.699 193.507C120.175 193.241 119.595 193.103 119.008 193.103C118.42 193.103 117.841 193.241 117.317 193.507L113.834 195.521C112.91 196.057 112.91 196.907 113.834 197.471C114.357 197.735 114.936 197.873 115.522 197.873C116.109 197.873 116.687 197.735 117.211 197.471L120.694 195.457C121.627 194.916 121.632 194.043 120.703 193.507H120.699ZM111.972 198.543C111.448 198.278 110.87 198.141 110.283 198.141C109.697 198.141 109.118 198.278 108.594 198.543L105.106 200.557C104.182 201.093 104.182 201.971 105.106 202.507C105.63 202.772 106.208 202.91 106.795 202.91C107.382 202.91 107.96 202.772 108.484 202.507L111.972 200.497C112.9 199.956 112.905 199.079 111.976 198.543H111.972ZM103.245 203.583C102.722 203.317 102.143 203.178 101.556 203.178C100.969 203.178 100.39 203.317 99.8674 203.583L96.384 205.597C95.46 206.138 95.46 207.006 96.384 207.547C96.9084 207.811 97.4875 207.949 98.0749 207.949C98.6622 207.949 99.2413 207.811 99.7658 207.547L103.249 205.533C104.173 204.992 104.182 204.119 103.249 203.583H103.245ZM94.5129 208.619C93.9904 208.353 93.4126 208.215 92.8266 208.215C92.2406 208.215 91.6628 208.353 91.1403 208.619L87.6522 210.633C86.7282 211.174 86.7282 212.047 87.6522 212.583C88.1755 212.848 88.7541 212.986 89.3408 212.986C89.9276 212.986 90.5061 212.848 91.0294 212.583L94.5129 210.568C95.4369 210.028 95.4369 209.159 94.5129 208.619ZM85.6195 213.761C85.095 213.496 84.5159 213.359 83.9285 213.359C83.3412 213.359 82.7621 213.496 82.2376 213.761L78.7542 215.775C77.8302 216.316 77.8302 217.189 78.7542 217.725C79.2775 217.99 79.856 218.128 80.4428 218.128C81.0296 218.128 81.6081 217.99 82.1314 217.725L85.6148 215.706C86.5434 215.17 86.5481 214.301 85.6195 213.761ZM202.227 155.499L199.229 153.766C198.633 153.464 197.975 153.307 197.307 153.307C196.639 153.307 195.981 153.464 195.385 153.766L192.368 155.508C191.301 156.122 191.296 157.12 192.368 157.73L195.367 159.458C195.962 159.763 196.622 159.922 197.291 159.922C197.96 159.922 198.619 159.763 199.215 159.458L202.232 157.721C203.281 157.102 203.285 156.113 202.227 155.499ZM190.474 164.503L193.491 162.756C194.553 162.142 194.563 161.149 193.491 160.539L190.492 158.806C189.897 158.502 189.239 158.344 188.571 158.344C187.902 158.344 187.244 158.502 186.649 158.806L183.641 160.539C182.578 161.153 182.574 162.147 183.641 162.756L186.644 164.489C187.237 164.791 187.892 164.949 188.557 164.952C189.223 164.954 189.879 164.8 190.474 164.503ZM184.778 165.575L181.779 163.847C181.184 163.544 180.525 163.386 179.857 163.386C179.189 163.386 178.531 163.544 177.935 163.847L174.9 165.593C173.833 166.208 173.828 167.201 174.9 167.815L177.898 169.543C178.494 169.845 179.153 170.003 179.82 170.003C180.488 170.003 181.147 169.845 181.742 169.543L184.759 167.801C185.831 167.178 185.836 166.184 184.778 165.575ZM176.055 170.615L173.052 168.883C172.456 168.581 171.798 168.423 171.13 168.423C170.462 168.423 169.804 168.581 169.208 168.883L166.191 170.629C165.124 171.239 165.124 172.237 166.191 172.846L169.185 174.574C169.781 174.877 170.441 175.035 171.109 175.035C171.778 175.035 172.437 174.877 173.034 174.574L176.046 172.833C177.108 172.218 177.113 171.225 176.055 170.615ZM157.455 177.887L160.454 179.619C161.05 179.92 161.708 180.076 162.375 180.076C163.043 180.076 163.701 179.92 164.297 179.619L167.314 177.873C168.381 177.259 168.386 176.265 167.314 175.655L164.33 173.937C163.734 173.635 163.076 173.477 162.408 173.477C161.74 173.477 161.081 173.635 160.486 173.937L157.464 175.683C156.42 176.284 156.42 177.277 157.455 177.887ZM148.728 182.923L151.726 184.655C152.322 184.958 152.98 185.116 153.648 185.116C154.316 185.116 154.975 184.958 155.57 184.655L158.592 182.913C159.654 182.299 159.659 181.301 158.592 180.696L155.593 178.963C154.998 178.66 154.339 178.502 153.671 178.502C153.003 178.502 152.345 178.66 151.75 178.963L148.733 180.705C147.675 181.329 147.67 182.313 148.728 182.923ZM140.001 187.968L142.999 189.695C143.595 189.999 144.255 190.156 144.924 190.156C145.592 190.156 146.252 189.999 146.848 189.695L149.865 187.958C150.927 187.339 150.932 186.346 149.865 185.732L146.866 184.004C146.271 183.699 145.613 183.541 144.944 183.541C144.276 183.541 143.617 183.699 143.022 184.004L140.006 185.745C138.948 186.36 138.943 187.335 140.001 187.968ZM131.278 193.003L134.277 194.731C134.872 195.034 135.531 195.192 136.199 195.192C136.867 195.192 137.525 195.034 138.121 194.731L141.137 192.989C142.2 192.375 142.209 191.382 141.137 190.772L138.139 189.039C137.543 188.737 136.885 188.58 136.217 188.58C135.549 188.58 134.891 188.737 134.295 189.039L131.278 190.781C130.225 191.396 130.221 192.417 131.278 193.003ZM122.551 198.039L125.55 199.772C126.146 200.072 126.804 200.229 127.472 200.229C128.139 200.229 128.797 200.072 129.394 199.772L132.41 198.025C133.478 197.415 133.482 196.417 132.41 195.808L129.412 194.075C128.817 193.772 128.158 193.614 127.49 193.614C126.822 193.614 126.164 193.772 125.568 194.075L122.551 195.817C121.498 196.436 121.493 197.429 122.551 198.039ZM113.824 203.079L116.827 204.807C117.423 205.108 118.082 205.264 118.749 205.264C119.417 205.264 120.075 205.108 120.671 204.807L123.688 203.066C124.75 202.451 124.76 201.453 123.688 200.843L120.69 199.111C120.094 198.809 119.435 198.652 118.768 198.652C118.1 198.652 117.441 198.809 116.846 199.111L113.829 200.853C112.776 201.472 112.766 202.465 113.824 203.079ZM114.975 205.879L111.976 204.147C111.38 203.845 110.721 203.688 110.052 203.688C109.384 203.688 108.724 203.845 108.128 204.147L105.111 205.888C104.048 206.507 104.044 207.496 105.111 208.111L108.114 209.838C108.709 210.143 109.368 210.301 110.036 210.301C110.704 210.301 111.363 210.143 111.958 209.838L114.975 208.097C116.023 207.482 116.033 206.489 114.975 205.879ZM96.3609 213.151L99.3592 214.883C99.9542 215.188 100.613 215.346 101.281 215.346C101.949 215.346 102.608 215.188 103.203 214.883L106.22 213.142C107.287 212.527 107.292 211.534 106.22 210.924L103.221 209.192C102.626 208.89 101.967 208.732 101.3 208.732C100.632 208.732 99.9733 208.89 99.3777 209.192L96.3562 210.929C95.3214 211.548 95.3167 212.536 96.3609 213.151ZM83.5821 220.543L86.5804 222.275C87.1765 222.576 87.8347 222.732 88.5023 222.732C89.1699 222.732 89.8281 222.576 90.4242 222.275L97.3264 218.288C98.3936 217.669 98.3983 216.681 97.3264 216.071L94.3281 214.334C93.7324 214.032 93.074 213.874 92.4062 213.874C91.7383 213.874 91.0799 214.032 90.4843 214.334L83.5913 218.311C82.5426 218.926 82.5379 219.919 83.5959 220.534L83.5821 220.543ZM210.312 160.169L207.314 158.437C206.718 158.134 206.058 157.976 205.39 157.976C204.721 157.976 204.061 158.134 203.465 158.437L196.577 162.415C195.514 163.029 195.505 164.022 196.577 164.637L199.58 166.369C200.176 166.671 200.834 166.829 201.502 166.829C202.17 166.829 202.828 166.671 203.424 166.369L210.298 162.387C211.361 161.768 211.37 160.779 210.312 160.169ZM197.713 167.441L194.715 165.709C194.119 165.407 193.459 165.25 192.791 165.25C192.122 165.25 191.463 165.407 190.867 165.709L187.836 167.469C186.769 168.083 186.764 169.077 187.836 169.686L190.834 171.419C191.43 171.722 192.088 171.88 192.756 171.88C193.424 171.88 194.083 171.722 194.678 171.419L197.695 169.682C198.767 169.044 198.771 168.051 197.713 167.441ZM188.972 174.699C190.04 174.08 190.044 173.087 188.972 172.477L185.988 170.744C185.393 170.441 184.734 170.283 184.066 170.283C183.398 170.283 182.74 170.441 182.144 170.744L179.127 172.486C178.06 173.101 178.056 174.094 179.127 174.704L182.126 176.436C182.721 176.739 183.38 176.897 184.048 176.897C184.716 176.897 185.374 176.739 185.97 176.436L188.972 174.699ZM180.25 179.735C181.317 179.12 181.317 178.122 180.25 177.513L177.266 175.785C176.669 175.483 176.01 175.326 175.341 175.326C174.673 175.326 174.014 175.483 173.417 175.785L170.4 177.526C169.338 178.141 169.333 179.13 170.4 179.744L173.399 181.477C173.993 181.778 174.651 181.936 175.318 181.936C175.985 181.936 176.643 181.778 177.238 181.477L180.25 179.735ZM164.695 180.83L161.673 182.571C160.611 183.186 160.606 184.175 161.673 184.789L164.672 186.522C165.267 186.823 165.926 186.981 166.593 186.981C167.261 186.981 167.92 186.823 168.515 186.522L171.532 184.78C172.599 184.161 172.604 183.172 171.532 182.562L168.538 180.825C167.943 180.523 167.284 180.366 166.616 180.366C165.948 180.367 165.29 180.526 164.695 180.83ZM156.152 185.759L152.766 187.718C151.8 188.272 151.796 189.169 152.766 189.719L156.134 191.664C156.672 191.936 157.268 192.077 157.871 192.077C158.474 192.077 159.069 191.936 159.608 191.664L162.999 189.7C163.96 189.146 163.965 188.249 162.999 187.7L159.631 185.755C159.092 185.481 158.496 185.339 157.891 185.34C157.287 185.341 156.691 185.484 156.152 185.759ZM147.425 190.795L144.039 192.754C143.073 193.308 143.069 194.205 144.039 194.759L147.407 196.704C147.944 196.976 148.539 197.118 149.142 197.118C149.744 197.118 150.339 196.976 150.876 196.704L154.267 194.745C155.228 194.186 155.233 193.29 154.267 192.74L150.899 190.795C150.361 190.521 149.766 190.379 149.162 190.379C148.559 190.379 147.963 190.521 147.425 190.795ZM138.703 195.835L135.312 197.79C134.351 198.349 134.346 199.245 135.312 199.795L138.68 201.74C139.218 202.012 139.813 202.153 140.417 202.153C141.02 202.153 141.615 202.012 142.154 201.74L145.54 199.781C146.506 199.226 146.51 198.33 145.54 197.776L142.172 195.831C141.634 195.56 141.04 195.42 140.437 195.42C139.834 195.421 139.24 195.563 138.703 195.835ZM129.976 200.871L126.589 202.825C125.624 203.384 125.619 204.281 126.589 204.835L129.957 206.78C130.495 207.055 131.09 207.198 131.694 207.198C132.298 207.198 132.893 207.055 133.431 206.78L136.822 204.826C137.783 204.271 137.788 203.371 136.822 202.816L133.454 200.876C132.916 200.601 132.32 200.457 131.716 200.456C131.111 200.455 130.515 200.598 129.976 200.871ZM121.249 205.911L117.862 207.866C116.897 208.42 116.897 209.321 117.862 209.871L121.216 211.82C121.754 212.094 122.35 212.236 122.953 212.236C123.557 212.236 124.152 212.094 124.69 211.82L128.081 209.866C129.042 209.307 129.047 208.411 128.081 207.856L124.718 205.916C124.181 205.642 123.587 205.499 122.984 205.498C122.381 205.498 121.786 205.639 121.249 205.911ZM115.963 216.847L119.354 214.893C120.32 214.338 120.32 213.442 119.354 212.888L115.991 210.943C115.453 210.669 114.858 210.527 114.254 210.527C113.65 210.527 113.055 210.669 112.517 210.943L109.126 212.897C108.165 213.451 108.16 214.348 109.126 214.897L112.494 216.842C113.03 217.118 113.625 217.261 114.228 217.262C114.831 217.263 115.426 217.121 115.963 216.847ZM107.241 221.887L110.632 219.928C111.593 219.374 111.597 218.478 110.632 217.923L107.273 215.978C106.735 215.706 106.14 215.565 105.536 215.565C104.933 215.565 104.338 215.706 103.799 215.978L100.408 217.937C99.447 218.492 99.4424 219.393 100.408 219.942L103.753 221.892C104.293 222.167 104.891 222.31 105.497 222.309C106.104 222.308 106.701 222.164 107.241 221.887ZM91.4914 225.089L94.8594 227.034C95.3976 227.307 95.9928 227.45 96.5965 227.45C97.2002 227.45 97.7954 227.307 98.3336 227.034L101.725 225.075C102.686 224.521 102.69 223.624 101.725 223.07L98.3567 221.125C97.8185 220.852 97.2233 220.709 96.6196 220.709C96.0159 220.709 95.4207 220.852 94.8825 221.125L91.4914 223.079C90.5397 223.638 90.5351 224.539 91.4914 225.089ZM218.577 164.937L215.209 162.992C214.671 162.72 214.076 162.578 213.472 162.578C212.869 162.578 212.274 162.72 211.735 162.992L200.795 169.317C199.834 169.871 199.825 170.772 200.795 171.322L204.168 173.267C204.706 173.54 205.301 173.683 205.905 173.683C206.508 173.683 207.104 173.54 207.642 173.267L218.582 166.951C219.529 166.388 219.534 165.491 218.577 164.937ZM202.301 174.334L198.924 172.389C198.386 172.116 197.79 171.973 197.187 171.973C196.583 171.973 195.988 172.116 195.45 172.389L192.059 174.343C191.098 174.898 191.093 175.799 192.059 176.353L195.427 178.293C195.965 178.565 196.56 178.707 197.164 178.707C197.767 178.707 198.362 178.565 198.901 178.293L202.287 176.339C203.253 175.785 203.257 174.888 202.301 174.334ZM193.574 179.374L190.206 177.429C189.668 177.155 189.073 177.012 188.469 177.012C187.865 177.012 187.27 177.155 186.732 177.429L183.341 179.384C182.38 179.938 182.375 180.834 183.341 181.389L186.709 183.334C187.247 183.607 187.842 183.75 188.446 183.75C189.05 183.75 189.645 183.607 190.183 183.334L193.574 181.38C194.526 180.82 194.53 179.943 193.574 179.374ZM184.847 184.415L181.479 182.47C180.942 182.196 180.347 182.054 179.744 182.054C179.141 182.054 178.547 182.196 178.009 182.47L174.618 184.424C173.657 184.983 173.653 185.879 174.618 186.429L177.982 188.374C178.52 188.649 179.116 188.792 179.721 188.792C180.326 188.792 180.922 188.649 181.46 188.374L184.847 186.415C185.799 185.861 185.803 184.965 184.847 184.415ZM172.724 193.41L176.111 191.456C177.076 190.901 177.081 190 176.111 189.451L172.743 187.506C172.204 187.232 171.609 187.09 171.005 187.09C170.402 187.09 169.807 187.232 169.268 187.506L165.877 189.464C164.916 190.019 164.912 190.92 165.877 191.469L169.245 193.414C169.784 193.688 170.381 193.83 170.985 193.829C171.59 193.829 172.186 193.685 172.724 193.41ZM163.997 198.45L167.388 196.491C168.349 195.937 168.354 195.041 167.388 194.486L164.02 192.546C163.482 192.272 162.887 192.13 162.283 192.13C161.679 192.13 161.084 192.272 160.546 192.546L157.159 194.505C156.194 195.059 156.189 195.96 157.159 196.51L160.527 198.455C161.066 198.725 161.66 198.866 162.263 198.865C162.865 198.864 163.459 198.722 163.997 198.45ZM155.27 203.504L158.661 201.55C159.622 200.991 159.627 200.095 158.661 199.541L155.298 197.596C154.759 197.324 154.164 197.182 153.561 197.182C152.957 197.182 152.362 197.324 151.823 197.596L148.432 199.55C147.467 200.104 147.462 201.005 148.432 201.559L151.8 203.504C152.337 203.779 152.932 203.922 153.535 203.922C154.138 203.922 154.733 203.779 155.27 203.504ZM146.547 208.545L149.934 206.591C150.899 206.032 150.904 205.131 149.934 204.581L146.566 202.636C146.028 202.362 145.433 202.22 144.829 202.22C144.225 202.22 143.63 202.362 143.092 202.636L139.701 204.59C138.74 205.145 138.735 206.045 139.701 206.595L143.069 208.54C143.609 208.81 144.206 208.949 144.81 208.947C145.414 208.944 146.009 208.8 146.547 208.526V208.545ZM137.82 213.581L141.211 211.626C142.172 211.072 142.177 210.171 141.211 209.617L137.843 207.676C137.305 207.403 136.71 207.26 136.106 207.26C135.503 207.26 134.907 207.403 134.369 207.676L131.011 209.617C130.05 210.176 130.045 211.072 131.011 211.622L134.378 213.567C134.913 213.834 135.502 213.973 136.1 213.972C136.698 213.971 137.287 213.831 137.82 213.562V213.581ZM129.093 218.621L132.484 216.662C133.445 216.108 133.454 215.211 132.484 214.657L129.121 212.712C128.582 212.439 127.986 212.297 127.382 212.297C126.777 212.297 126.181 212.439 125.642 212.712L122.256 214.671C121.295 215.225 121.286 216.126 122.256 216.676L125.624 218.621C126.163 218.891 126.758 219.03 127.361 219.027C127.963 219.023 128.557 218.878 129.093 218.602V218.621ZM123.771 219.674L120.385 217.729C119.846 217.457 119.251 217.316 118.648 217.316C118.044 217.316 117.449 217.457 116.91 217.729L113.524 219.693C112.558 220.243 112.554 221.139 113.524 221.693L116.892 223.638C117.43 223.912 118.025 224.054 118.629 224.054C119.233 224.054 119.828 223.912 120.366 223.638L123.753 221.679C124.718 221.125 124.727 220.229 123.771 219.674ZM99.5948 229.755L102.958 231.7C103.497 231.973 104.093 232.116 104.698 232.116C105.302 232.116 105.898 231.973 106.437 231.7L115.053 226.72C116.014 226.17 116.019 225.269 115.053 224.719L111.685 222.77C111.147 222.498 110.552 222.356 109.948 222.356C109.345 222.356 108.75 222.498 108.211 222.77L99.5948 227.755C98.62 228.304 98.62 229.205 99.5948 229.755ZM226.644 169.585L223.724 167.903C223.116 167.594 222.444 167.433 221.763 167.433C221.081 167.433 220.409 167.594 219.801 167.903L204.278 176.861C203.193 177.494 203.183 178.506 204.278 179.13L207.194 180.816C207.802 181.124 208.475 181.285 209.157 181.285C209.839 181.285 210.512 181.124 211.121 180.816L226.644 171.853C227.702 171.225 227.706 170.208 226.644 169.585ZM205.336 181.888L202.417 180.206C201.808 179.898 201.135 179.737 200.453 179.737C199.771 179.737 199.098 179.898 198.49 180.206L195.556 181.902C194.466 182.53 194.461 183.542 195.556 184.17L198.471 185.856C199.08 186.165 199.752 186.325 200.435 186.325C201.117 186.325 201.79 186.165 202.398 185.856L205.332 184.161C206.39 183.528 206.394 182.516 205.318 181.888H205.336ZM196.614 186.928L193.694 185.242C193.086 184.934 192.414 184.774 191.733 184.774C191.052 184.774 190.38 184.934 189.772 185.242L186.833 186.942C185.748 187.57 185.739 188.587 186.833 189.206L189.753 190.892C190.361 191.201 191.033 191.362 191.714 191.362C192.396 191.362 193.068 191.201 193.676 190.892L196.614 189.201C197.663 188.564 197.667 187.556 196.614 186.928ZM187.864 191.955L184.949 190.268C184.339 189.96 183.666 189.799 182.983 189.799C182.3 189.799 181.626 189.96 181.017 190.268L178.083 191.968C176.998 192.592 176.993 193.609 178.083 194.232L181.003 195.919C181.611 196.227 182.283 196.388 182.964 196.388C183.646 196.388 184.318 196.227 184.925 195.919L187.868 194.223C188.94 193.604 188.945 192.592 187.864 191.955ZM179.137 196.99L176.221 195.299C175.613 194.992 174.94 194.832 174.258 194.832C173.576 194.832 172.903 194.992 172.294 195.299L169.356 197.037C168.27 197.66 168.266 198.677 169.356 199.3L172.271 200.987C172.88 201.295 173.553 201.456 174.235 201.456C174.917 201.456 175.59 201.295 176.198 200.987L179.137 199.291C180.213 198.64 180.218 197.628 179.137 197.004V196.99ZM170.414 202.026L167.508 200.358C166.9 200.05 166.227 199.889 165.545 199.889C164.862 199.889 164.19 200.05 163.581 200.358L160.648 202.054C159.557 202.682 159.553 203.694 160.648 204.318L163.567 206.004C164.175 206.313 164.847 206.474 165.529 206.474C166.21 206.474 166.882 206.313 167.49 206.004L170.428 204.308C171.486 203.68 171.495 202.664 170.414 202.04V202.026ZM161.687 207.08L158.767 205.394C158.159 205.087 157.487 204.927 156.806 204.927C156.125 204.927 155.453 205.087 154.845 205.394L151.907 207.09C150.821 207.718 150.816 208.734 151.907 209.358L154.826 211.04C155.434 211.351 156.107 211.513 156.79 211.513C157.473 211.513 158.146 211.351 158.753 211.04L161.687 209.344C162.759 208.716 162.768 207.704 161.687 207.08ZM152.96 212.116L150.045 210.434C149.437 210.125 148.764 209.963 148.081 209.963C147.399 209.963 146.726 210.125 146.118 210.434L143.179 212.125C142.094 212.754 142.089 213.765 143.179 214.389L146.099 216.075C146.707 216.384 147.379 216.545 148.06 216.545C148.742 216.545 149.414 216.384 150.022 216.075L152.96 214.38C154.036 213.756 154.041 212.744 152.96 212.116ZM144.237 217.156L141.318 215.47C140.71 215.16 140.037 214.999 139.354 214.999C138.672 214.999 137.999 215.16 137.391 215.47L134.452 217.161C133.371 217.794 133.362 218.806 134.452 219.429L137.372 221.111C137.98 221.42 138.652 221.581 139.333 221.581C140.015 221.581 140.687 221.42 141.295 221.111L144.233 219.416C145.332 218.792 145.332 217.78 144.237 217.156ZM135.51 222.192L132.591 220.506C131.983 220.197 131.311 220.036 130.629 220.036C129.948 220.036 129.276 220.197 128.668 220.506L125.73 222.201C124.644 222.83 124.635 223.846 125.73 224.47L128.65 226.152C129.257 226.46 129.929 226.621 130.611 226.621C131.292 226.621 131.964 226.46 132.572 226.152L135.51 224.456C136.587 223.832 136.591 222.816 135.51 222.192ZM126.783 227.233L123.868 225.546C123.26 225.236 122.587 225.075 121.905 225.075C121.222 225.075 120.549 225.236 119.941 225.546L117.007 227.242C115.917 227.87 115.913 228.887 117.007 229.51L119.923 231.224C120.531 231.533 121.204 231.693 121.886 231.693C122.568 231.693 123.241 231.533 123.85 231.224L126.788 229.529C127.86 228.868 127.864 227.852 126.783 227.233ZM108.072 234.666L110.992 236.348C111.6 236.655 112.272 236.815 112.953 236.815C113.635 236.815 114.307 236.655 114.915 236.348L117.853 234.648C118.939 234.024 118.943 233.008 117.853 232.384L114.933 230.698C114.324 230.39 113.652 230.23 112.97 230.23C112.288 230.23 111.615 230.39 111.006 230.698L108.068 232.398C106.987 233.026 106.987 234.042 108.072 234.666ZM221.044 178.765L223.959 180.446C224.568 180.756 225.24 180.918 225.923 180.918C226.605 180.918 227.278 180.756 227.886 180.446L234.696 176.519C235.782 175.891 235.787 174.879 234.696 174.251L231.79 172.551C231.183 172.242 230.511 172.081 229.829 172.081C229.147 172.081 228.476 172.242 227.868 172.551L221.053 176.482C219.968 177.134 219.963 178.15 221.044 178.774V178.765ZM212.322 183.81L215.242 185.496C215.849 185.805 216.521 185.966 217.203 185.966C217.884 185.966 218.556 185.805 219.164 185.496L222.102 183.8C223.188 183.177 223.193 182.16 222.102 181.532L219.182 179.85C218.574 179.543 217.901 179.383 217.219 179.383C216.537 179.383 215.864 179.543 215.255 179.85L212.322 181.541C211.245 182.17 211.236 183.177 212.322 183.81ZM203.599 188.845L206.514 190.532C207.123 190.84 207.796 191.001 208.478 191.001C209.16 191.001 209.833 190.84 210.441 190.532L213.375 188.836C214.465 188.208 214.47 187.196 213.375 186.568L210.474 184.877C209.865 184.569 209.192 184.409 208.51 184.409C207.828 184.409 207.156 184.569 206.547 184.877L203.609 186.577C202.518 187.205 202.514 188.222 203.595 188.845H203.599ZM142.514 224.109L145.429 225.796C146.038 226.106 146.71 226.267 147.393 226.267C148.075 226.267 148.748 226.106 149.356 225.796L204.648 193.876C205.734 193.248 205.743 192.236 204.648 191.613L201.733 189.926C201.124 189.618 200.452 189.457 199.769 189.457C199.087 189.457 198.414 189.618 197.806 189.926L142.523 221.846C141.438 222.474 141.433 223.486 142.514 224.109ZM133.782 229.15L136.702 230.836C137.31 231.145 137.982 231.306 138.663 231.306C139.345 231.306 140.017 231.145 140.625 230.836L143.563 229.141C144.649 228.512 144.658 227.501 143.563 226.872L140.643 225.191C140.035 224.881 139.362 224.719 138.68 224.719C137.997 224.719 137.324 224.881 136.716 225.191L133.782 226.881C132.711 227.528 132.706 228.522 133.782 229.15ZM125.055 234.19L127.975 235.872C128.584 236.179 129.257 236.339 129.939 236.339C130.621 236.339 131.293 236.179 131.902 235.872L134.836 234.172C135.922 233.548 135.931 232.532 134.836 231.908L131.935 230.222C131.328 229.911 130.655 229.749 129.973 229.749C129.291 229.749 128.619 229.911 128.012 230.222L125.074 231.917C123.988 232.546 123.984 233.567 125.06 234.19H125.055ZM116.153 239.328L119.068 241.014C119.677 241.321 120.349 241.481 121.031 241.481C121.713 241.481 122.386 241.321 122.995 241.014L125.929 239.309C127.019 238.685 127.024 237.669 125.929 237.045L123.027 235.382C122.419 235.075 121.747 234.915 121.066 234.915C120.385 234.915 119.713 235.075 119.105 235.382L116.167 237.078C115.076 237.692 115.076 238.704 116.157 239.328H116.153Z" fill="#00A9E0"/>
<path d="M49.5837 213.608L185.826 134.907C191.098 131.863 195.376 123.695 195.376 116.659V9.78045C195.376 2.74887 191.098 -0.485093 185.826 2.56408L49.5837 81.265C44.3123 84.3142 40.0342 92.4823 40.0342 99.5139V206.392C40.0342 213.424 44.3123 216.657 49.5837 213.608Z" fill="url(#paint7_linear_1_9661)"/>
<path d="M48.3547 208.124L183.142 130.264C187.374 127.566 190.012 122.193 190.012 116.649V9.26303C190.011 8.9651 189.932 8.67264 189.782 8.41509C189.632 8.15755 189.417 7.94401 189.159 7.796C188.9 7.64798 188.607 7.57071 188.309 7.57196C188.011 7.57321 187.719 7.65294 187.462 7.80313L187.161 7.97869L52.2585 85.9081C47.2043 88.8233 45.3887 93.9977 45.3887 99.5139V206.66C45.3949 206.978 45.483 207.288 45.6443 207.562C45.8057 207.836 46.0349 208.063 46.3099 208.223C46.5848 208.382 46.8962 208.468 47.2139 208.471C47.5316 208.475 47.845 208.397 48.1237 208.245L48.3547 208.124Z" fill="url(#paint8_linear_1_9661)"/>
<g style="mix-blend-mode:overlay">
<path d="M48.3547 208.125L183.142 130.265C187.374 127.566 190.012 122.193 190.012 116.65V9.26325C190.011 8.96532 189.932 8.67285 189.782 8.41531C189.632 8.15776 189.417 7.94423 189.159 7.79621C188.9 7.6482 188.607 7.57092 188.309 7.57217C188.011 7.57342 187.719 7.65315 187.462 7.80334L187.161 7.9789L52.2585 85.9083C47.2043 88.8235 45.3887 93.9979 45.3887 99.5141V206.66C45.3949 206.978 45.483 207.289 45.6443 207.562C45.8057 207.836 46.0349 208.063 46.3099 208.223C46.5848 208.382 46.8962 208.468 47.2139 208.472C47.5316 208.475 47.845 208.397 48.1237 208.245L48.3547 208.125Z" fill="url(#paint9_linear_1_9661)"/>
</g>
<rect width="1.76095" height="72.499" rx="0.880473" transform="matrix(0.867046 -0.500589 2.20565e-08 1.00118 178.581 36.8227)" fill="#F2F5FA"/>
<rect width="1.76074" height="6.42773" rx="0.880368" transform="matrix(0.867046 -0.500589 2.20565e-08 1.00118 178.581 102.971)" fill="#FF8A00"/>
<rect width="1.76095" height="13.2141" rx="0.880473" transform="matrix(0.867046 -0.500589 -2.20565e-08 -1.00118 178.581 102.971)" fill="#00A9E0"/>
<rect width="1.76095" height="41.0709" rx="0.880473" transform="matrix(0.867046 -0.500589 2.20565e-08 1.00118 178.581 48.6222)" fill="#00C281"/>
<rect width="1.76095" height="72.499" rx="0.880473" transform="matrix(0.867046 -0.500589 2.20565e-08 1.00118 173.128 39.97)" fill="#F2F5FA"/>
<rect width="1.76074" height="6.42773" rx="0.880368" transform="matrix(0.867046 -0.500589 2.20565e-08 1.00118 173.128 106.118)" fill="#FF8A00"/>
<rect width="1.76095" height="13.2141" rx="0.880473" transform="matrix(0.867046 -0.500589 -2.20565e-08 -1.00118 173.128 106.118)" fill="#00A9E0"/>
<rect width="1.76095" height="41.0709" rx="0.880473" transform="matrix(0.867046 -0.500589 2.20565e-08 1.00118 173.128 51.7694)" fill="#00C281"/>
<rect width="1.76095" height="72.499" rx="0.880473" transform="matrix(0.867046 -0.500589 2.20565e-08 1.00118 167.457 43.2447)" fill="#F2F5FA"/>
<rect width="1.76095" height="26.0711" rx="0.880473" transform="matrix(0.867046 -0.500589 2.20565e-08 1.00118 167.457 89.7274)" fill="#FF8A00"/>
<rect width="1.76095" height="22.1426" rx="0.880473" transform="matrix(0.867046 -0.500589 -2.20565e-08 -1.00118 167.457 89.7274)" fill="#00A9E0"/>
<rect width="1.76074" height="6.07062" rx="0.880368" transform="matrix(0.867046 -0.500589 2.20565e-08 1.00118 167.457 61.4802)" fill="#00C281"/>
<rect width="1.76095" height="72.499" rx="0.880473" transform="matrix(0.867046 -0.500589 2.20565e-08 1.00118 162.004 46.3929)" fill="#F2F5FA"/>
<rect width="1.76095" height="26.0711" rx="0.880473" transform="matrix(0.867046 -0.500589 2.20565e-08 1.00118 162.004 92.8755)" fill="#FF8A00"/>
<rect width="1.76095" height="22.1426" rx="0.880473" transform="matrix(0.867046 -0.500589 -2.20565e-08 -1.00118 162.004 92.8755)" fill="#00A9E0"/>
<rect width="1.76074" height="6.07062" rx="0.880368" transform="matrix(0.867046 -0.500589 2.20565e-08 1.00118 162.004 64.6284)" fill="#00C281"/>
<rect width="1.76095" height="72.499" rx="0.880473" transform="matrix(0.867046 -0.500589 2.20565e-08 1.00118 156.551 49.5411)" fill="#F2F5FA"/>
<rect width="1.76074" height="6.42773" rx="0.880368" transform="matrix(0.867046 -0.500589 2.20565e-08 1.00118 156.551 115.689)" fill="#FF8A00"/>
<rect width="1.76095" height="13.2141" rx="0.880473" transform="matrix(0.867046 -0.500589 -2.20565e-08 -1.00118 156.551 115.689)" fill="#00A9E0"/>
<rect width="1.76095" height="41.0709" rx="0.880473" transform="matrix(0.867046 -0.500589 2.20565e-08 1.00118 156.551 61.3405)" fill="#00C281"/>
<rect width="1.76095" height="72.499" rx="0.880473" transform="matrix(0.867046 -0.500589 2.20565e-08 1.00118 151.098 52.6902)" fill="#F2F5FA"/>
<rect width="1.76095" height="26.0711" rx="0.880473" transform="matrix(0.867046 -0.500589 2.20565e-08 1.00118 151.098 99.1728)" fill="#FF8A00"/>
<rect width="1.76095" height="22.1426" rx="0.880473" transform="matrix(0.867046 -0.500589 -2.20565e-08 -1.00118 151.098 99.1728)" fill="#00A9E0"/>
<rect width="1.76074" height="6.07062" rx="0.880368" transform="matrix(0.867046 -0.500589 2.20565e-08 1.00118 151.098 70.9257)" fill="#00C281"/>
<rect width="1.76095" height="72.499" rx="0.880473" transform="matrix(0.867046 -0.500589 2.20565e-08 1.00118 145.645 55.8383)" fill="#F2F5FA"/>
<rect width="1.76095" height="44.6422" rx="0.880473" transform="matrix(0.867046 -0.500589 2.20565e-08 1.00118 145.645 83.7279)" fill="#FF8A00"/>
<rect width="1.76095" height="19.2855" rx="0.880473" transform="matrix(0.867046 -0.500589 -2.20565e-08 -1.00118 145.645 83.7279)" fill="#00A9E0"/>
<rect width="1.76095" height="72.499" rx="0.880473" transform="matrix(0.867046 -0.500589 2.20565e-08 1.00118 140.192 58.9856)" fill="#F2F5FA"/>
<rect width="1.76095" height="34.6424" rx="0.880473" transform="matrix(0.867046 -0.500589 2.20565e-08 1.00118 140.192 96.8868)" fill="#FF8A00"/>
<rect width="1.76074" height="4.64225" rx="0.880368" transform="matrix(0.867046 -0.500589 -2.20565e-08 -1.00118 140.192 96.8868)" fill="#00A9E0"/>
<rect width="1.76095" height="28.2139" rx="0.880473" transform="matrix(0.867046 -0.500589 2.20565e-08 1.00118 140.192 63.9914)" fill="#00C281"/>
<rect width="1.76095" height="72.499" rx="0.880473" transform="matrix(0.867046 -0.500589 2.20565e-08 1.00118 134.521 62.2613)" fill="#F2F5FA"/>
<rect width="1.76095" height="44.6422" rx="0.880473" transform="matrix(0.867046 -0.500589 2.20565e-08 1.00118 134.521 90.1508)" fill="#FF8A00"/>
<rect width="1.76095" height="19.2855" rx="0.880473" transform="matrix(0.867046 -0.500589 -2.20565e-08 -1.00118 134.521 90.1508)" fill="#00A9E0"/>
<rect width="1.76095" height="72.499" rx="0.880473" transform="matrix(0.867046 -0.500589 2.20565e-08 1.00118 129.068 65.4094)" fill="#F2F5FA"/>
<rect width="1.76095" height="34.6424" rx="0.880473" transform="matrix(0.867046 -0.500589 2.20565e-08 1.00118 129.068 103.311)" fill="#FF8A00"/>
<rect width="1.76074" height="4.64225" rx="0.880368" transform="matrix(0.867046 -0.500589 -2.20565e-08 -1.00118 129.068 103.311)" fill="#00A9E0"/>
<rect width="1.76095" height="28.2139" rx="0.880473" transform="matrix(0.867046 -0.500589 2.20565e-08 1.00118 129.068 70.4152)" fill="#00C281"/>
<rect width="1.76095" height="72.499" rx="0.880473" transform="matrix(0.867046 -0.500589 2.20565e-08 1.00118 123.616 68.5567)" fill="#F2F5FA"/>
<rect width="1.76095" height="34.6424" rx="0.880473" transform="matrix(0.867046 -0.500589 2.20565e-08 1.00118 123.616 106.458)" fill="#FF8A00"/>
<rect width="1.76074" height="4.64225" rx="0.880368" transform="matrix(0.867046 -0.500589 -2.20565e-08 -1.00118 123.616 106.458)" fill="#00A9E0"/>
<rect width="1.76095" height="28.2139" rx="0.880473" transform="matrix(0.867046 -0.500589 2.20565e-08 1.00118 123.616 73.5625)" fill="#00C281"/>
<rect width="1.76095" height="72.499" rx="0.880473" transform="matrix(0.867046 -0.500589 2.20565e-08 1.00118 118.162 71.706)" fill="#F2F5FA"/>
<rect width="1.76095" height="26.0711" rx="0.880473" transform="matrix(0.867046 -0.500589 2.20565e-08 1.00118 118.162 118.188)" fill="#FF8A00"/>
<rect width="1.76095" height="22.1426" rx="0.880473" transform="matrix(0.867046 -0.500589 -2.20565e-08 -1.00118 118.162 118.188)" fill="#00A9E0"/>
<rect width="1.76074" height="6.07062" rx="0.880368" transform="matrix(0.867046 -0.500589 2.20565e-08 1.00118 118.162 89.9413)" fill="#00C281"/>
<path style="mix-blend-mode:color-dodge" opacity="0.8" d="M107.486 176.301C94.4508 192.185 72.1398 188.738 57.6713 168.599C43.2027 148.461 42.0258 119.261 55.0672 103.383C68.1086 87.5054 90.4196 90.9527 104.894 111.085C119.369 131.218 120.534 160.417 107.486 176.301Z" fill="url(#paint10_radial_1_9661)"/>
<g style="mix-blend-mode:multiply">
<path d="M45.3979 99.5139V206.66C45.4041 206.978 45.4922 207.288 45.6536 207.562C45.8149 207.836 46.0441 208.063 46.3191 208.223C46.594 208.382 46.9054 208.468 47.2231 208.471C47.5408 208.475 47.8542 208.397 48.1329 208.245L48.3547 208.12L183.142 130.264C187.374 127.566 190.012 122.193 190.012 116.649V9.26303C190.011 8.9651 189.932 8.67264 189.782 8.41509C189.632 8.15755 189.417 7.94401 189.159 7.796C188.9 7.64798 188.607 7.57071 188.309 7.57196C188.011 7.57321 187.719 7.65294 187.462 7.80313L187.161 7.97869L52.2585 85.9081C47.2135 88.8233 45.3979 94.0115 45.3979 99.5139ZM46.4697 99.5139C46.4697 95.3975 47.5693 89.8536 52.8037 86.8413L188.007 8.73174C188.1 8.67398 188.207 8.64356 188.316 8.64396C188.481 8.64396 188.639 8.70903 188.756 8.825C188.872 8.94097 188.939 9.09842 188.94 9.26303V116.649C188.94 121.907 186.436 126.887 182.606 129.322L47.6016 207.316C47.4882 207.383 47.359 207.418 47.2274 207.418C47.0265 207.418 46.8337 207.338 46.6916 207.196C46.5496 207.054 46.4697 206.861 46.4697 206.66V99.5139Z" fill="#BCBEC0"/>
</g>
<path d="M46.8764 79.8282L183.119 1.15039C185.203 -0.0600348 187.138 -0.281792 188.709 0.328042C188.908 0.406581 191.569 1.81567 191.758 1.92193C190.127 1.13191 188.062 1.27976 185.817 2.58258L49.5837 81.2651C44.3078 84.3142 40.0343 92.4823 40.0343 99.5139V206.392C40.0343 210.781 41.7021 213.692 44.2338 214.518C43.9337 214.504 43.6438 214.404 43.3976 214.232C43.2775 214.163 40.3854 212.532 40.2699 212.449C38.4543 211.178 37.327 208.568 37.327 204.955V98.0771C37.327 91.0455 41.6051 82.8728 46.8764 79.8282Z" fill="url(#paint11_linear_1_9661)"/>
<path style="mix-blend-mode:screen" d="M49.1265 81.0387L185.364 2.3331C187.531 1.08572 189.522 0.905539 191.121 1.59853C189.735 1.38139 188.183 1.71403 186.501 2.6796L50.2722 81.3805C45.0009 84.4251 40.7228 92.5978 40.7228 99.6294V206.512C40.7228 210.67 42.215 213.47 44.5204 214.463C41.5728 214.001 39.577 210.97 39.577 206.147V99.2875C39.577 92.2513 43.8551 84.0832 49.1265 81.0387Z" fill="url(#paint12_radial_1_9661)"/>
<defs>
<radialGradient id="paint0_radial_1_9661" cx="0" cy="0" r="1" gradientUnits="userSpaceOnUse" gradientTransform="translate(76.5905 277.615) rotate(126.44) scale(55.19 55.19)">
<stop offset="0.17" stop-color="#D9576E"/>
<stop offset="1" stop-color="#A3293F"/>
</radialGradient>
<radialGradient id="paint1_radial_1_9661" cx="0" cy="0" r="1" gradientUnits="userSpaceOnUse" gradientTransform="translate(68.8121 265.388) rotate(133.589) scale(30.569 31.9475)">
<stop offset="0.17" stop-color="#D9576E"/>
<stop offset="1" stop-color="#A3293F"/>
</radialGradient>
<linearGradient id="paint2_linear_1_9661" x1="290.528" y1="210.661" x2="28.0267" y2="210.661" gradientUnits="userSpaceOnUse">
<stop offset="0.06" stop-color="#7E829C"/>
<stop offset="0.26" stop-color="#9EA1C0"/>
<stop offset="0.36" stop-color="#CED1E4"/>
<stop offset="0.43" stop-color="#9EA1C0"/>
<stop offset="0.49" stop-color="#CED1E4"/>
<stop offset="0.51" stop-color="#CED1E4"/>
<stop offset="0.52" stop-color="#CED1E4"/>
<stop offset="0.53" stop-color="#E5E8F8"/>
<stop offset="0.55" stop-color="#F2F5FA"/>
<stop offset="0.56" stop-color="white"/>
<stop offset="0.57" stop-color="#F2F5FA"/>
<stop offset="0.58" stop-color="#E5E8F8"/>
<stop offset="0.59" stop-color="#DBDCF2"/>
<stop offset="0.6" stop-color="#CED1E4"/>
<stop offset="0.66" stop-color="#CED1E4"/>
<stop offset="0.72" stop-color="#9EA1C0"/>
<stop offset="0.77" stop-color="#CED1E4"/>
<stop offset="0.81" stop-color="#9EA1C0"/>
<stop offset="1" stop-color="#7E829C"/>
</linearGradient>
<linearGradient id="paint3_linear_1_9661" x1="296.109" y1="203.782" x2="43.5733" y2="203.782" gradientUnits="userSpaceOnUse">
<stop stop-color="#7E829C"/>
<stop offset="0.14" stop-color="#979AAF"/>
<stop offset="0.328171" stop-color="#B8BAD1"/>
<stop offset="0.55" stop-color="#CED1E4"/>
<stop offset="0.76" stop-color="#E5E8F8"/>
<stop offset="1" stop-color="#E6E8F4"/>
</linearGradient>
<linearGradient id="paint4_linear_1_9661" x1="-107382" y1="89915.8" x2="-239308" y2="89915.8" gradientUnits="userSpaceOnUse">
<stop stop-color="#E6E8F4"/>
<stop offset="0.18" stop-color="#9EA1C0"/>
<stop offset="0.56" stop-color="#7E829C"/>
<stop offset="1" stop-color="#75799E"/>
</linearGradient>
<radialGradient id="paint5_radial_1_9661" cx="0" cy="0" r="1" gradientUnits="userSpaceOnUse" gradientTransform="translate(208.965 158.727) rotate(-160.844) scale(35.4971 20.8722)">
<stop stop-color="#972A74"/>
<stop offset="0.04" stop-color="#8A266A"/>
<stop offset="0.19" stop-color="#601B4A"/>
<stop offset="0.35" stop-color="#3D112F"/>
<stop offset="0.51" stop-color="#230A1B"/>
<stop offset="0.67" stop-color="#0F040C"/>
<stop offset="0.83" stop-color="#040103"/>
<stop offset="1"/>
</radialGradient>
<linearGradient id="paint6_linear_1_9661" x1="71.5377" y1="196.071" x2="242.19" y2="196.071" gradientUnits="userSpaceOnUse">
<stop stop-color="#F2F5FA"/>
<stop offset="0.654167" stop-color="#E6E8F4"/>
<stop offset="1" stop-color="#F2F5FA"/>
</linearGradient>
<linearGradient id="paint7_linear_1_9661" x1="282.928" y1="-35.4304" x2="20.21" y2="192.772" gradientUnits="userSpaceOnUse">
<stop stop-color="#7E829C"/>
<stop offset="0.14" stop-color="#7E829C"/>
<stop offset="0.27" stop-color="#9EA1C0"/>
<stop offset="0.4" stop-color="#CED1E4"/>
<stop offset="0.52" stop-color="#DBDCF2"/>
<stop offset="0.65" stop-color="#E5E8F8"/>
<stop offset="0.9" stop-color="#F4EDF8"/>
<stop offset="1" stop-color="white"/>
</linearGradient>
<linearGradient id="paint8_linear_1_9661" x1="100.647" y1="232.523" x2="127.793" y2="-19.421" gradientUnits="userSpaceOnUse">
<stop stop-color="#33CDFF"/>
<stop offset="0.29" stop-color="#00A9E0"/>
<stop offset="0.48" stop-color="#6161E1"/>
<stop offset="0.71" stop-color="#7262D1"/>
<stop offset="1" stop-color="#007CA5"/>
</linearGradient>
<linearGradient id="paint9_linear_1_9661" x1="100.647" y1="232.523" x2="127.793" y2="-19.4208" gradientUnits="userSpaceOnUse">
<stop stop-color="#33CDFF"/>
<stop offset="0.29" stop-color="#00A9E0"/>
<stop offset="0.48" stop-color="#6161E1"/>
<stop offset="0.71" stop-color="#7262D1"/>
<stop offset="1" stop-color="#007CA5"/>
</linearGradient>
<radialGradient id="paint10_radial_1_9661" cx="0" cy="0" r="1" gradientUnits="userSpaceOnUse" gradientTransform="translate(83.4628 139.282) rotate(54.0857) scale(38.4531 30.6245)">
<stop stop-color="#01FFFF"/>
<stop offset="0.09" stop-color="#01F2F4" stop-opacity="0.95"/>
<stop offset="0.26" stop-color="#01D0D9" stop-opacity="0.81"/>
<stop offset="0.48" stop-color="#0198AC" stop-opacity="0.59"/>
<stop offset="0.76" stop-color="#014C6E" stop-opacity="0.29"/>
<stop offset="1" stop-color="#010333" stop-opacity="0"/>
</radialGradient>
<linearGradient id="paint11_linear_1_9661" x1="6.47955" y1="219.517" x2="186.742" y2="1.51174" gradientUnits="userSpaceOnUse">
<stop offset="0.06" stop-color="#75799E"/>
<stop offset="0.26" stop-color="#9EA1C0"/>
<stop offset="0.36" stop-color="#9EA1C0"/>
<stop offset="0.43" stop-color="#CED1E4"/>
<stop offset="0.49" stop-color="#CED1E4"/>
<stop offset="0.51" stop-color="#DBDCF2"/>
<stop offset="0.52" stop-color="#E5E8F8"/>
<stop offset="0.53" stop-color="#E6E8F4"/>
<stop offset="0.55" stop-color="#EFE7F4"/>
<stop offset="0.56" stop-color="white"/>
<stop offset="0.57" stop-color="#ECE0F3"/>
<stop offset="0.58" stop-color="#E5E8F8"/>
<stop offset="0.59" stop-color="#DBDCF2"/>
<stop offset="0.6" stop-color="#DBDCF2"/>
<stop offset="0.61" stop-color="#CED1E4"/>
<stop offset="0.95625" stop-color="#9EA1C0"/>
<stop offset="1" stop-color="#75799E"/>
</linearGradient>
<radialGradient id="paint12_radial_1_9661" cx="0" cy="0" r="1" gradientUnits="userSpaceOnUse" gradientTransform="translate(43.333 92.741) rotate(180) scale(21.9494 21.9494)">
<stop stop-color="white"/>
<stop offset="1"/>
</radialGradient>
</defs>
</svg>
