<svg width="9" height="9" viewBox="0 0 9 9" fill="none" xmlns="http://www.w3.org/2000/svg">
<g clip-path="url(#clip0_1_30530)">
<path d="M1.08758 2.90994L1.41758 2.33837C1.61257 2.00063 2.04986 1.88071 2.39086 2.07759C2.97866 2.41696 3.45898 2.14001 3.45782 1.45953C3.4577 1.06975 3.77776 0.74791 4.17075 0.749661L4.91823 0.752522C5.26289 0.748011 5.54166 1.03019 5.54616 1.37487L5.54627 1.4572C5.54417 2.13581 6.0248 2.41331 6.61471 2.07406L6.68603 2.03299C6.98682 1.86455 7.37055 1.96487 7.539 2.26563L7.91519 2.91151C8.11323 3.251 7.99454 3.68909 7.6569 3.88387C7.06699 4.22313 7.06733 4.77756 7.65513 5.11693C7.99289 5.31192 8.11281 5.74921 7.91594 6.09019L7.58595 6.66176C7.39095 6.99951 6.95363 7.11944 6.61265 6.92257C6.02484 6.58319 5.54451 6.86013 5.54567 7.54059C5.54395 7.93363 5.22577 8.25222 4.83273 8.2505L4.08529 8.24761C3.74061 8.25215 3.46186 7.96996 3.45735 7.62527L3.45724 7.54296C3.45934 6.86433 2.9787 6.58683 2.3888 6.92609L2.31745 6.96715C2.0167 7.1356 1.63295 7.03529 1.46451 6.7345L1.08831 6.08865C0.890281 5.74913 1.00898 5.31106 1.3466 5.11625C1.9365 4.77703 1.93618 4.2226 1.34837 3.88323C1.00738 3.68635 0.892583 3.24769 1.08758 2.90994Z" stroke="#D3D6DE" stroke-width="0.529412" stroke-miterlimit="10" stroke-linecap="round" stroke-linejoin="round"/>
<path d="M5.71866 4.49983C5.71866 3.82674 5.17302 3.2811 4.49993 3.2811C3.82684 3.2811 3.2812 3.82674 3.2812 4.49983C3.2812 5.17292 3.82684 5.71857 4.49993 5.71857C5.17302 5.71857 5.71866 5.17292 5.71866 4.49983Z" stroke="#D3D6DE" stroke-width="0.529412"/>
</g>
<defs>
<clipPath id="clip0_1_30530">
<rect width="8.47059" height="8.47059" fill="white" transform="scale(1.06249)"/>
</clipPath>
</defs>
</svg>
