<svg width="25" height="25" viewBox="0 0 25 25" fill="none" xmlns="http://www.w3.org/2000/svg">
<path d="M21.2988 21.304H17.5967V15.503C17.5967 14.1197 17.5686 12.3395 15.6676 12.3395C13.7374 12.3395 13.4426 13.8447 13.4426 15.4009V21.304H9.74053V9.37491H13.2967V11.0009H13.3447C13.8415 10.0634 15.0499 9.07387 16.855 9.07387C20.6061 9.07387 21.2998 11.5426 21.2998 14.7561V21.304H21.2988ZM5.55932 7.74263C5.2769 7.74277 4.99723 7.68721 4.73631 7.57914C4.4754 7.47106 4.23835 7.31259 4.03875 7.11279C3.83915 6.913 3.68091 6.6758 3.57308 6.41478C3.46526 6.15375 3.40997 5.87403 3.41038 5.59161C3.41059 5.16639 3.53689 4.75077 3.7733 4.39732C4.00971 4.04388 4.34563 3.76847 4.73856 3.60593C5.1315 3.4434 5.56381 3.40103 5.98082 3.48419C6.39784 3.56735 6.78083 3.7723 7.08136 4.07313C7.3819 4.37395 7.58648 4.75714 7.66923 5.17424C7.75199 5.59133 7.7092 6.0236 7.54629 6.41638C7.38337 6.80916 7.10764 7.1448 6.75396 7.38088C6.40028 7.61695 5.98455 7.74284 5.55932 7.74263ZM7.41555 21.304H3.70309V9.37491H7.41555V21.304ZM23.1508 0H1.84477C0.824992 0 0 0.806242 0 1.80102V23.1987C0 24.1946 0.824992 24.9998 1.84477 24.9998H23.1477C24.1664 24.9998 24.9998 24.1946 24.9998 23.1987V1.80102C24.9998 0.806242 24.1664 0 23.1477 0H23.1508Z" fill="#666F89"/>
</svg>
