<svg width="444" height="447" viewBox="0 0 444 447" fill="none" xmlns="http://www.w3.org/2000/svg">
<g opacity="0.2">
<path d="M123.335 95.0462H119.961V107.279H123.335C128.388 107.279 129.96 104.998 129.96 100.961C129.96 96.9253 128.388 95.0462 123.335 95.0462Z" stroke="black" stroke-width="0.604701" stroke-miterlimit="10"/>
<path d="M121.571 48.9994C113.08 48.9975 104.779 51.5138 97.7176 56.23C90.6564 60.9461 85.1524 67.6503 81.9016 75.4948C78.6508 83.3392 77.7992 91.9715 79.4546 100.3C81.11 108.628 85.1981 116.279 91.2017 122.284C97.2053 128.289 104.855 132.378 113.183 134.036C121.511 135.693 130.143 134.843 137.989 131.594C145.834 128.345 152.539 122.843 157.257 115.783C161.975 108.722 164.493 100.422 164.493 91.9304C164.493 80.546 159.971 69.6278 151.922 61.577C143.873 53.5262 132.956 49.002 121.571 48.9994V48.9994ZM121.571 128.572C114.329 128.574 107.249 126.428 101.227 122.406C95.2042 118.383 90.51 112.665 87.7376 105.975C84.9653 99.2842 84.2394 91.9218 85.6518 84.8186C87.0642 77.7155 90.5515 71.1908 95.6725 66.0698C100.793 60.9488 107.318 57.4615 114.421 56.0491C121.524 54.6367 128.887 55.3626 135.577 58.1349C142.268 60.9073 147.986 65.6015 152.008 71.624C156.031 77.6465 158.177 84.7265 158.175 91.9687C158.152 101.666 154.287 110.959 147.426 117.812C140.566 124.666 131.269 128.521 121.571 128.534V128.572Z" stroke="black" stroke-width="0.604701" stroke-miterlimit="10"/>
<path d="M128.992 83.5417C128.992 79.9849 127.429 78.2401 122.971 78.2401H119.961V88.968H122.971C127.372 88.968 128.992 87.0985 128.992 83.5417Z" stroke="black" stroke-width="0.604701" stroke-miterlimit="10"/>
<path d="M121.571 57.8388C114.828 57.8369 108.236 59.8347 102.628 63.5796C97.0209 67.3245 92.6498 72.6482 90.068 78.8775C87.4862 85.1068 86.8097 91.9617 88.1241 98.5755C89.4384 105.189 92.6846 111.265 97.452 116.033C102.219 120.802 108.294 124.05 114.907 125.366C121.521 126.683 128.376 126.008 134.606 123.428C140.836 120.848 146.161 116.478 149.907 110.872C153.654 105.265 155.653 98.6735 155.653 91.9304C155.643 82.8935 152.05 74.2295 145.66 67.8386C139.271 61.4476 130.608 57.8515 121.571 57.8388V57.8388ZM128.397 111.91V119.58H124.064V112.236H120.037V119.57H115.704V112.226H106.031V106.474H107.948C108.365 106.411 108.75 106.213 109.043 105.91C109.336 105.607 109.52 105.215 109.568 104.796V80.4451C109.52 80.0262 109.336 79.6349 109.043 79.3316C108.75 79.0283 108.365 78.83 107.948 78.7674H106.031V73.0151H115.685V65.6331H120.018V73.0151H124.045V65.681H128.378V73.3507C135.214 74.3094 138.819 77.5115 138.819 83.0912C138.819 88.0189 136.019 90.4253 130.871 91.4894V91.7099C136.853 92.6111 140.161 95.5448 140.161 100.837C140.161 107.222 135.732 110.884 128.378 111.91H128.397Z" stroke="black" stroke-width="0.604701" stroke-miterlimit="10"/>
</g>
<g opacity="0.2">
<path d="M404.332 79.2469V8.2833L437.053 61.4053L404.332 79.2469Z" stroke="black" stroke-width="0.604701" stroke-miterlimit="10"/>
<path d="M404.332 79.2469L372.465 60.9739L404.332 8.2833" stroke="black" stroke-width="0.604701" stroke-miterlimit="10"/>
<path d="M372.465 60.9739L403.911 46.9576L437.053 61.4053" stroke="black" stroke-width="0.604701" stroke-miterlimit="10"/>
<path d="M373.405 66.6014L404.735 84.6635L436.727 66.1604L404.524 109.906L373.405 66.6014Z" stroke="black" stroke-width="0.604701" stroke-miterlimit="10"/>
<path d="M404.735 84.6636V109.906" stroke="black" stroke-width="0.604701" stroke-miterlimit="10"/>
<path d="M374.239 60.9739C374.239 60.6208 374.134 60.2756 373.937 59.9822C373.741 59.6887 373.462 59.4602 373.136 59.3255C372.809 59.1908 372.45 59.1561 372.104 59.2257C371.758 59.2952 371.44 59.466 371.191 59.7164C370.942 59.9667 370.773 60.2853 370.705 60.6319C370.638 60.9784 370.674 61.3373 370.811 61.6629C370.947 61.9886 371.177 62.2664 371.472 62.4612C371.766 62.656 372.112 62.759 372.465 62.7571C372.699 62.7571 372.93 62.7109 373.146 62.6211C373.362 62.5314 373.558 62.3999 373.723 62.2342C373.887 62.0685 374.018 61.8718 374.106 61.6555C374.195 61.4392 374.24 61.2076 374.239 60.9739V60.9739Z" stroke="black" stroke-width="0.604701" stroke-miterlimit="10"/>
<path d="M406.077 78.5661C406.076 78.2158 405.97 77.8738 405.774 77.5834C405.578 77.293 405.3 77.0671 404.976 76.9344C404.652 76.8016 404.295 76.7679 403.952 76.8374C403.609 76.9069 403.293 77.0765 403.046 77.325C402.799 77.5734 402.631 77.8894 402.564 78.2332C402.496 78.577 402.532 78.9331 402.666 79.2566C402.801 79.5802 403.028 79.8566 403.319 80.0511C403.611 80.2455 403.953 80.3493 404.304 80.3493C404.538 80.3493 404.769 80.3031 404.985 80.2134C405.201 80.1237 405.397 79.9922 405.561 79.8265C405.726 79.6607 405.857 79.4641 405.945 79.2478C406.034 79.0315 406.079 78.7998 406.077 78.5661V78.5661Z" stroke="black" stroke-width="0.604701" stroke-miterlimit="10"/>
<path d="M438.827 61.4053C438.829 61.0518 438.726 60.7057 438.53 60.411C438.335 60.1163 438.057 59.8863 437.731 59.7501C437.404 59.614 437.045 59.5778 436.698 59.6463C436.351 59.7148 436.033 59.8849 435.783 60.1348C435.533 60.3848 435.363 60.7034 435.294 61.0502C435.226 61.397 435.262 61.7563 435.398 62.0826C435.534 62.4088 435.764 62.6872 436.059 62.8824C436.354 63.0776 436.7 63.1808 437.053 63.1789C437.524 63.1789 437.975 62.9921 438.307 62.6594C438.64 62.3268 438.827 61.8757 438.827 61.4053V61.4053Z" stroke="black" stroke-width="0.604701" stroke-miterlimit="10"/>
<path d="M405.972 8.74348C405.974 8.39039 405.871 8.04469 405.676 7.75019C405.481 7.45569 405.204 7.22564 404.878 7.0892C404.552 6.95276 404.193 6.91608 403.847 6.9838C403.5 7.05152 403.182 7.22059 402.931 7.46959C402.681 7.71859 402.51 8.0363 402.441 8.38247C402.371 8.72863 402.406 9.08766 402.541 9.41406C402.675 9.74046 402.904 10.0195 403.197 10.2159C403.491 10.4123 403.836 10.5171 404.189 10.5171C404.66 10.5171 405.112 10.3305 405.446 9.9982C405.781 9.66585 405.97 9.21475 405.972 8.74348V8.74348Z" stroke="black" stroke-width="0.604701" stroke-miterlimit="10"/>
<path d="M405.972 83.5705C405.972 83.2179 405.867 82.8731 405.671 82.5799C405.475 82.2866 405.197 82.0581 404.871 81.9231C404.545 81.7881 404.187 81.7528 403.841 81.8216C403.495 81.8904 403.177 82.0602 402.928 82.3096C402.678 82.559 402.508 82.8768 402.44 83.2227C402.371 83.5686 402.406 83.9271 402.541 84.2529C402.676 84.5788 402.905 84.8573 403.198 85.0532C403.491 85.2492 403.836 85.3537 404.189 85.3537C404.423 85.355 404.656 85.3098 404.872 85.2206C405.089 85.1314 405.286 85.0001 405.452 84.8343C405.618 84.6685 405.749 84.4714 405.839 84.2544C405.928 84.0375 405.973 83.8051 405.972 83.5705V83.5705Z" stroke="black" stroke-width="0.604701" stroke-miterlimit="10"/>
<path d="M405.972 47.0918C405.972 46.7391 405.867 46.3943 405.671 46.1011C405.475 45.8078 405.197 45.5793 404.871 45.4443C404.545 45.3094 404.187 45.274 403.841 45.3429C403.495 45.4117 403.177 45.5815 402.928 45.8309C402.678 46.0803 402.508 46.398 402.44 46.7439C402.371 47.0898 402.406 47.4483 402.541 47.7742C402.676 48.1 402.905 48.3785 403.198 48.5745C403.491 48.7704 403.836 48.875 404.189 48.875C404.423 48.8763 404.656 48.831 404.872 48.7418C405.089 48.6527 405.286 48.5214 405.452 48.3555C405.618 48.1897 405.749 47.9926 405.839 47.7757C405.928 47.5588 405.973 47.3263 405.972 47.0918V47.0918Z" stroke="black" stroke-width="0.604701" stroke-miterlimit="10"/>
<path d="M438.472 65.9495C438.47 65.5973 438.364 65.2535 438.167 64.9615C437.97 64.6695 437.691 64.4424 437.365 64.3089C437.039 64.1754 436.681 64.1415 436.335 64.2114C435.99 64.2813 435.673 64.4518 435.425 64.7016C435.176 64.9514 435.007 65.2691 434.939 65.6148C434.871 65.9604 434.907 66.3184 435.042 66.6437C435.178 66.969 435.406 67.2469 435.699 67.4425C435.992 67.638 436.337 67.7423 436.689 67.7423C436.924 67.7423 437.157 67.6959 437.374 67.6057C437.591 67.5155 437.788 67.3833 437.953 67.2167C438.119 67.0501 438.25 66.8523 438.339 66.6349C438.428 66.4174 438.473 66.1845 438.472 65.9495Z" stroke="black" stroke-width="0.604701" stroke-miterlimit="10"/>
<path d="M406.307 109.925C406.309 109.572 406.206 109.226 406.011 108.931C405.816 108.637 405.537 108.406 405.211 108.27C404.885 108.134 404.526 108.098 404.179 108.167C403.832 108.235 403.513 108.405 403.263 108.655C403.013 108.905 402.843 109.224 402.775 109.57C402.706 109.917 402.743 110.277 402.879 110.603C403.015 110.929 403.245 111.207 403.54 111.403C403.834 111.598 404.18 111.701 404.534 111.699C405.004 111.699 405.455 111.512 405.788 111.18C406.121 110.847 406.307 110.396 406.307 109.925V109.925Z" stroke="black" stroke-width="0.604701" stroke-miterlimit="10"/>
<path d="M374.958 66.1605C374.956 65.8101 374.85 65.4681 374.654 65.1777C374.458 64.8873 374.181 64.6615 373.856 64.5287C373.532 64.3959 373.176 64.3622 372.832 64.4317C372.489 64.5012 372.174 64.6709 371.927 64.9193C371.68 65.1677 371.512 65.4838 371.444 65.8276C371.376 66.1713 371.412 66.5275 371.547 66.851C371.681 67.1745 371.908 67.4509 372.2 67.6454C372.491 67.8399 372.834 67.9437 373.184 67.9437C373.418 67.9437 373.649 67.8975 373.865 67.8077C374.081 67.718 374.277 67.5865 374.442 67.4208C374.607 67.2551 374.737 67.0584 374.826 66.8421C374.914 66.6258 374.959 66.3942 374.958 66.1605V66.1605Z" stroke="black" stroke-width="0.604701" stroke-miterlimit="10"/>
</g>
<g opacity="0.2">
<path d="M23.7352 359.324V316.843L43.3216 348.644L23.7352 359.324Z" stroke="black" stroke-width="0.604701" stroke-miterlimit="10"/>
<path d="M23.7352 359.324L4.64733 348.385L23.7352 316.843" stroke="black" stroke-width="0.604701" stroke-miterlimit="10"/>
<path d="M4.64733 348.385L23.4763 339.986L43.3216 348.644" stroke="black" stroke-width="0.604701" stroke-miterlimit="10"/>
<path d="M5.2129 351.75L23.9748 362.564L43.1202 351.491L23.8406 377.673L5.2129 351.75Z" stroke="black" stroke-width="0.604701" stroke-miterlimit="10"/>
<path d="M23.9747 362.564V377.673" stroke="black" stroke-width="0.604701" stroke-miterlimit="10"/>
<path d="M5.71155 348.385C5.71142 348.176 5.64986 347.972 5.53453 347.798C5.41921 347.624 5.25522 347.487 5.06299 347.406C4.87077 347.324 4.6588 347.301 4.45348 347.339C4.24817 347.377 4.05859 347.475 3.90835 347.62C3.7581 347.765 3.65385 347.951 3.60856 348.155C3.56327 348.359 3.57895 348.571 3.65364 348.766C3.72834 348.961 3.85875 349.13 4.02863 349.251C4.19852 349.373 4.40037 349.441 4.60904 349.449C4.75198 349.454 4.8945 349.43 5.02807 349.379C5.16164 349.328 5.28352 349.251 5.38643 349.151C5.48935 349.052 5.57118 348.933 5.62704 348.801C5.6829 348.669 5.71165 348.528 5.71155 348.385Z" stroke="black" stroke-width="0.604701" stroke-miterlimit="10"/>
<path d="M23.7161 359.985C24.3039 359.985 24.7803 359.509 24.7803 358.921C24.7803 358.333 24.3039 357.857 23.7161 357.857C23.1284 357.857 22.652 358.333 22.652 358.921C22.652 359.509 23.1284 359.985 23.7161 359.985Z" stroke="black" stroke-width="0.604701" stroke-miterlimit="10"/>
<path d="M44.3857 348.644C44.3857 348.433 44.3233 348.227 44.2063 348.052C44.0894 347.877 43.9232 347.741 43.7288 347.661C43.5343 347.58 43.3203 347.559 43.1139 347.6C42.9075 347.641 42.7179 347.742 42.569 347.891C42.4202 348.04 42.3189 348.23 42.2778 348.436C42.2367 348.643 42.2578 348.856 42.3384 349.051C42.4189 349.245 42.5553 349.412 42.7303 349.529C42.9053 349.645 43.1111 349.708 43.3215 349.708C43.6038 349.708 43.8744 349.596 44.074 349.396C44.2736 349.197 44.3857 348.926 44.3857 348.644V348.644Z" stroke="black" stroke-width="0.604701" stroke-miterlimit="10"/>
<path d="M24.7419 317.112C24.7419 316.901 24.6795 316.696 24.5626 316.521C24.4456 316.346 24.2794 316.209 24.085 316.129C23.8905 316.048 23.6766 316.027 23.4701 316.068C23.2637 316.109 23.0741 316.21 22.9253 316.359C22.7764 316.508 22.6751 316.698 22.634 316.904C22.593 317.111 22.614 317.325 22.6946 317.519C22.7751 317.714 22.9115 317.88 23.0865 317.997C23.2615 318.114 23.4673 318.176 23.6777 318.176C23.96 318.176 24.2306 318.064 24.4302 317.864C24.6298 317.665 24.7419 317.394 24.7419 317.112V317.112Z" stroke="black" stroke-width="0.604701" stroke-miterlimit="10"/>
<path d="M24.742 361.912C24.7326 361.705 24.663 361.505 24.5417 361.338C24.4205 361.17 24.2528 361.041 24.0594 360.967C23.8659 360.893 23.6551 360.877 23.4527 360.921C23.2502 360.965 23.0651 361.067 22.9199 361.215C22.7747 361.362 22.6758 361.549 22.6353 361.752C22.5948 361.955 22.6144 362.166 22.6918 362.358C22.7693 362.55 22.9011 362.716 23.0711 362.834C23.2411 362.952 23.442 363.018 23.649 363.024C23.7953 363.028 23.9409 363.002 24.0766 362.948C24.2123 362.893 24.3353 362.811 24.4379 362.706C24.5405 362.602 24.6204 362.478 24.6727 362.341C24.725 362.204 24.7486 362.058 24.742 361.912V361.912Z" stroke="black" stroke-width="0.604701" stroke-miterlimit="10"/>
<path d="M24.7419 340.073C24.7419 339.933 24.7144 339.795 24.6609 339.666C24.6074 339.536 24.529 339.419 24.4302 339.32C24.3314 339.222 24.2141 339.143 24.085 339.09C23.9559 339.036 23.8175 339.009 23.6777 339.009C23.538 339.009 23.3996 339.036 23.2705 339.09C23.1414 339.143 23.0241 339.222 22.9253 339.32C22.8264 339.419 22.7481 339.536 22.6946 339.666C22.6411 339.795 22.6136 339.933 22.6136 340.073C22.6136 340.213 22.6411 340.351 22.6946 340.48C22.7481 340.609 22.8264 340.726 22.9253 340.825C23.0241 340.924 23.1414 341.002 23.2705 341.056C23.3996 341.109 23.538 341.137 23.6777 341.137C23.8175 341.137 23.9559 341.109 24.085 341.056C24.2141 341.002 24.3314 340.924 24.4302 340.825C24.529 340.726 24.6074 340.609 24.6609 340.48C24.7144 340.351 24.7419 340.213 24.7419 340.073V340.073Z" stroke="black" stroke-width="0.604701" stroke-miterlimit="10"/>
<path d="M44.1654 351.357C44.1654 351.146 44.1029 350.941 43.986 350.766C43.8691 350.591 43.7029 350.454 43.5084 350.374C43.314 350.293 43.1 350.272 42.8936 350.313C42.6872 350.354 42.4975 350.456 42.3487 350.604C42.1999 350.753 42.0985 350.943 42.0575 351.149C42.0164 351.356 42.0375 351.57 42.118 351.764C42.1986 351.959 42.335 352.125 42.51 352.242C42.685 352.359 42.8907 352.421 43.1012 352.421C43.2409 352.421 43.3793 352.393 43.5084 352.34C43.6375 352.287 43.7549 352.208 43.8537 352.109C43.9525 352.011 44.0309 351.893 44.0844 351.764C44.1378 351.635 44.1654 351.497 44.1654 351.357V351.357Z" stroke="black" stroke-width="0.604701" stroke-miterlimit="10"/>
<path d="M23.8407 378.737C24.4285 378.737 24.9049 378.261 24.9049 377.673C24.9049 377.086 24.4285 376.609 23.8407 376.609C23.253 376.609 22.7766 377.086 22.7766 377.673C22.7766 378.261 23.253 378.737 23.8407 378.737Z" stroke="black" stroke-width="0.604701" stroke-miterlimit="10"/>
<path d="M6.143 351.52C6.143 351.309 6.08059 351.104 5.96365 350.929C5.84672 350.754 5.68052 350.617 5.48607 350.537C5.29162 350.456 5.07765 350.435 4.87122 350.476C4.6648 350.517 4.47518 350.618 4.32635 350.767C4.17753 350.916 4.07618 351.106 4.03511 351.312C3.99405 351.519 4.01513 351.733 4.09567 351.927C4.17621 352.121 4.31261 352.288 4.48761 352.405C4.66262 352.522 4.86836 352.584 5.07883 352.584C5.36107 352.584 5.63174 352.472 5.83131 352.272C6.03088 352.073 6.143 351.802 6.143 351.52Z" stroke="black" stroke-width="0.604701" stroke-miterlimit="10"/>
</g>
<path opacity="0.2" d="M421.033 184.618C419.116 184.465 417.199 184.244 415.741 183.113C414.996 182.537 414.412 181.778 414.046 180.909C413.68 180.041 413.544 179.093 413.651 178.157C413.779 177.223 414.141 176.336 414.702 175.578C415.263 174.821 416.007 174.217 416.863 173.823C418.455 173.104 420.257 173.171 421.983 172.941C425.034 172.541 427.888 171.208 430.153 169.125C432.419 167.041 433.986 164.31 434.641 161.302C435.296 158.295 435.007 155.159 433.812 152.322C432.618 149.486 430.577 147.087 427.968 145.454C425.359 143.82 422.31 143.032 419.237 143.197C416.163 143.362 413.216 144.472 410.797 146.375C408.378 148.277 406.605 150.881 405.721 153.829C404.837 156.777 404.884 159.926 405.857 162.846C406.499 164.763 407.535 166.585 408.081 168.598C408.628 170.612 408.57 172.865 407.247 174.418C405.157 176.834 401.102 176.143 398.552 174.216C396.002 172.289 394.247 169.471 391.707 167.505C389.905 166.195 387.819 165.332 385.619 164.985C383.419 164.638 381.168 164.819 379.052 165.511C367.423 169.279 364.729 185.462 375.159 192.355C378.067 194.171 381.5 194.961 384.91 194.598C388.319 194.235 391.509 192.74 393.969 190.351C395.609 188.683 396.845 186.632 398.59 185.069C400.335 183.506 402.856 182.452 405.013 183.353C407.477 184.369 408.417 187.466 408.158 190.121C407.899 192.777 406.768 195.279 406.384 197.916C406.047 200.494 406.402 203.116 407.413 205.512C408.424 207.907 410.054 209.991 412.137 211.548C414.258 213.053 416.73 213.989 419.315 214.27C421.901 214.55 424.516 214.164 426.91 213.149C429.809 211.832 432.23 209.651 433.843 206.905C435.456 204.16 436.182 200.984 435.922 197.81C435.519 194.646 434.115 191.694 431.916 189.383C429.718 187.072 426.839 185.524 423.699 184.963C422.855 184.753 421.944 184.705 421.033 184.618Z" stroke="black" stroke-width="0.604701" stroke-miterlimit="10"/>
<path opacity="0.2" d="M55.1329 37.0636C53.8212 37.0707 52.5345 36.705 51.4227 36.009C50.9019 35.6046 50.4943 35.0728 50.239 34.4649C49.9837 33.8569 49.8895 33.1935 49.9655 32.5385C50.0576 31.8842 50.312 31.2633 50.7055 30.7325C51.099 30.2017 51.6191 29.7778 52.2184 29.4994C53.3783 29.125 54.5857 28.9184 55.804 28.8858C57.9252 28.5655 59.9018 27.6171 61.479 26.1629C63.0562 24.7088 64.1617 22.8155 64.6529 20.7272C64.9975 19.1531 64.9737 17.5207 64.5835 15.9573C64.1932 14.3939 63.447 12.9418 62.4031 11.7143C61.3592 10.4868 60.0457 9.51706 58.5653 8.8808C57.0848 8.24455 55.4774 7.95895 53.8684 8.0463C52.2594 8.13365 50.6923 8.59157 49.2894 9.38435C47.8865 10.1771 46.6858 11.2833 45.7809 12.6166C44.876 13.9499 44.2914 15.4743 44.0726 17.0707C43.8539 18.6672 44.007 20.2926 44.52 21.8202C44.9706 23.1719 45.6992 24.4279 46.0827 25.8084C46.3175 26.4849 46.3869 27.2078 46.2851 27.9167C46.1834 28.6255 45.9135 29.2997 45.4979 29.8829C44.0407 31.5798 41.1933 31.0909 39.4101 29.7487C37.6269 28.4065 36.3902 26.422 34.6166 25.0702C33.3521 24.1381 31.883 23.5221 30.332 23.2736C28.7809 23.0251 27.1929 23.1513 25.7006 23.6417C17.5612 26.2782 15.6725 37.6101 22.9778 42.4228C25.0164 43.6899 27.4199 44.2394 29.8066 43.9841C32.1932 43.7287 34.4261 42.6832 36.1505 41.0135C37.3009 39.8439 38.1638 38.4154 39.3813 37.3129C40.5989 36.2104 42.4013 35.4722 43.916 36.1049C45.6417 36.8239 46.3032 38.981 46.1211 40.8985C45.9389 42.8159 45.1623 44.5032 44.8747 46.3535C44.6328 48.1671 44.8804 50.0124 45.5918 51.6981C46.3031 53.3838 47.4524 54.8486 48.9205 55.9406C50.4134 56.9766 52.1457 57.6154 53.9538 57.7965C55.762 57.9777 57.5865 57.6953 59.2553 56.976C61.293 56.0549 62.9953 54.5252 64.1283 52.5974C65.2614 50.6695 65.7695 48.438 65.5828 46.2097C65.2991 43.9946 64.3157 41.9278 62.7759 40.3104C61.236 38.6929 59.2201 37.6092 57.0216 37.217C56.3792 37.1211 55.7656 37.0636 55.1329 37.0636Z" stroke="black" stroke-width="0.604701" stroke-miterlimit="10"/>
<path d="M354.154 0H131.494V416.559H354.154V0Z" fill="#22252E"/>
<path d="M349.14 118.314H136.518V234.164H349.14V118.314Z" fill="#22252E"/>
<path opacity="0.15" d="M349.14 118.314H136.518V234.164H349.14V118.314Z" fill="white"/>
<path d="M349.14 244.02H136.518V291.677H349.14V244.02Z" fill="#22252E"/>
<path opacity="0.15" d="M349.14 244.02H136.518V291.677H349.14V244.02Z" fill="white"/>
<path d="M349.14 301.533H136.518V349.19H349.14V301.533Z" fill="#22252E"/>
<path opacity="0.15" d="M349.14 301.533H136.518V349.19H349.14V301.533Z" fill="white"/>
<path d="M349.14 359.046H136.518V406.703H349.14V359.046Z" fill="#22252E"/>
<path opacity="0.15" d="M349.14 359.046H136.518V406.703H349.14V359.046Z" fill="white"/>
<path d="M354.154 0H131.494V111.737H354.154V0Z" fill="#10B981"/>
<path d="M234.948 182.787L229.685 182.231C229.836 180.801 229.909 179.364 229.905 177.927C229.893 166.974 225.536 156.474 217.792 148.729C210.047 140.985 199.547 136.629 188.595 136.616C186.899 136.615 185.205 136.721 183.523 136.932L182.871 131.679C184.78 131.444 186.701 131.326 188.623 131.324C200.979 131.336 212.826 136.25 221.563 144.987C230.3 153.724 235.214 165.571 235.226 177.927C235.216 179.55 235.123 181.173 234.948 182.787Z" fill="white"/>
<path d="M222.821 209.506L218.938 205.921C225.01 199.394 228.784 191.062 229.685 182.193L234.948 182.73C233.936 192.74 229.677 202.144 222.821 209.506Z" fill="#90949E"/>
<path d="M188.595 224.481C182.167 224.473 175.809 223.139 169.92 220.562C164.031 217.986 158.737 214.222 154.369 209.506L158.261 205.921C162.13 210.105 166.822 213.443 172.043 215.726C177.264 218.01 182.901 219.188 188.599 219.188C194.298 219.188 199.935 218.01 205.156 215.726C210.377 213.443 215.069 210.105 218.938 205.921L222.82 209.506C218.453 214.223 213.159 217.988 207.27 220.565C201.381 223.141 195.023 224.475 188.595 224.481Z" fill="#22252E"/>
<path d="M154.369 209.506C148.555 203.209 144.59 195.43 142.909 187.025C141.229 178.621 141.899 169.915 144.844 161.867C147.79 153.818 152.898 146.737 159.607 141.403C166.316 136.068 174.366 132.687 182.871 131.631L183.523 136.884C175.983 137.819 168.847 140.816 162.9 145.544C156.952 150.272 152.424 156.548 149.813 163.683C147.202 170.818 146.609 178.535 148.099 185.985C149.59 193.435 153.106 200.33 158.261 205.911L154.369 209.506Z" fill="#10B981"/>
<path d="M279.097 136.856C279.098 136.07 278.867 135.302 278.432 134.648C277.997 133.994 277.378 133.484 276.653 133.182C275.928 132.88 275.13 132.8 274.359 132.952C273.589 133.104 272.88 133.481 272.324 134.036C271.768 134.591 271.389 135.298 271.235 136.068C271.082 136.838 271.16 137.637 271.46 138.363C271.76 139.088 272.269 139.709 272.921 140.145C273.574 140.582 274.342 140.815 275.128 140.815C276.179 140.815 277.187 140.398 277.931 139.656C278.675 138.914 279.094 137.907 279.097 136.856Z" fill="#10B981"/>
<path d="M291.617 135.293V136.405H288.904V140.355H292.221V141.476H287.658V130.375H292.221V131.506H288.895V135.341L291.617 135.293Z" fill="white"/>
<path d="M295.002 141.476V131.506H292.95V130.375H298.28V131.506H296.238V141.476H295.002Z" fill="white"/>
<path d="M300.38 136.482V141.476H299.143V130.375H300.38V135.369H303.112V130.375H304.349V141.476H303.112V136.482H300.38Z" fill="white"/>
<path d="M184.913 266.693V267.805H182.2V271.755H185.527V272.906H181.011V261.775H185.575V262.897H182.248V266.732L184.913 266.693Z" fill="white"/>
<path d="M188.278 272.906V262.897H186.227V261.775H191.557V262.897H189.505V272.906H188.278Z" fill="white"/>
<path d="M193.628 267.882V272.906H192.391V261.775H193.628V266.77H196.351V261.775H197.578V272.906H196.351V267.911L193.628 267.882Z" fill="white"/>
<path d="M202.812 266.693V267.805H200.099V271.755H203.436V272.906H198.862V261.775H203.436V262.897H200.099V266.732L202.812 266.693Z" fill="white"/>
<path d="M207.05 261.775C208.804 261.775 209.533 262.657 209.533 264.306V265.265C209.533 266.482 209.101 267.249 208.152 267.546C209.168 267.853 209.542 268.678 209.542 269.867V271.592C209.515 272.042 209.594 272.492 209.772 272.906H208.526C208.348 272.479 208.276 272.015 208.315 271.554V269.809C208.315 268.563 207.73 268.16 206.695 268.16H205.823V272.954H204.586V261.775H207.05ZM206.733 267.01C207.692 267.01 208.306 266.693 208.306 265.485V264.421C208.306 263.462 207.941 262.897 207.021 262.897H205.813V267.01H206.733Z" fill="white"/>
<path d="M214.787 266.693V267.805H212.073V271.755H215.4V272.906H210.837V261.775H215.4V262.897H212.073V266.732L214.787 266.693Z" fill="white"/>
<path d="M217.72 270.26C217.72 271.218 218.123 271.861 219.024 271.861C219.925 271.861 220.309 271.257 220.309 270.26V261.775H221.469V270.193C221.469 271.88 220.692 273.002 218.976 273.002C217.26 273.002 216.503 271.88 216.503 270.193V261.775H217.72V270.26Z" fill="white"/>
<path d="M226.78 272.906H225.591L223.75 264.076V272.906H222.677V261.775H224.402L226.224 270.643L227.988 261.775H229.723V272.906H228.544V263.98L226.78 272.906Z" fill="white"/>
<path d="M286.786 261.823C288.137 262.015 288.751 263.06 288.751 264.546V264.853H287.6V264.469C287.6 263.51 287.198 262.887 286.316 262.887C285.434 262.887 285.041 263.491 285.041 264.469C285.041 266.962 288.77 266.971 288.77 270.106C288.77 271.592 288.137 272.656 286.786 272.848V273.682H285.769V272.848C284.389 272.656 283.775 271.611 283.775 270.106V269.416H284.935V270.183C284.935 271.142 285.348 271.755 286.23 271.755C287.112 271.755 287.533 271.18 287.533 270.183C287.533 267.71 283.823 267.671 283.823 264.546C283.823 263.021 284.437 262.024 285.741 261.823V260.931H286.757L286.786 261.823Z" fill="white"/>
<path d="M294.704 263.788C294.238 264.067 293.712 264.231 293.171 264.268V263.251C293.611 263.263 294.042 263.123 294.392 262.854C294.741 262.585 294.987 262.204 295.088 261.775H295.941V272.906H294.714L294.704 263.788Z" fill="white"/>
<path d="M299.047 266.291C299.204 265.992 299.442 265.743 299.734 265.574C300.025 265.404 300.359 265.32 300.696 265.332C302.125 265.332 302.757 266.387 302.757 267.968V270.145C302.757 271.842 301.943 272.954 300.246 272.954C298.549 272.954 297.753 271.842 297.753 270.145V269.397H298.932V270.221C298.932 271.18 299.344 271.822 300.236 271.822C301.128 271.822 301.54 271.218 301.54 270.221V268.112C301.54 267.153 301.128 266.511 300.236 266.511C300.075 266.505 299.914 266.531 299.763 266.587C299.613 266.644 299.475 266.73 299.358 266.841C299.241 266.952 299.147 267.085 299.082 267.232C299.017 267.38 298.983 267.539 298.98 267.7V267.959H297.82L298.127 261.785H302.508V262.897H299.22L299.047 266.291Z" fill="white"/>
<path d="M304.493 272.906H304.033V271.372H305.221V272.8L304.598 274.305H304.09L304.493 272.906Z" fill="white"/>
<path d="M311.472 264.44V264.642H310.312V264.354C310.312 263.395 309.9 262.772 308.999 262.772C308.098 262.772 307.647 263.376 307.647 264.565V267.058C307.774 266.69 308.019 266.375 308.343 266.16C308.666 265.946 309.052 265.843 309.44 265.869C310.868 265.869 311.501 266.895 311.501 268.496V270.183C311.501 271.88 310.657 272.992 308.96 272.992C307.264 272.992 306.41 271.88 306.41 270.183V264.517C306.41 262.753 307.206 261.641 308.96 261.641C310.715 261.641 311.472 262.743 311.472 264.44ZM307.637 268.591V270.26C307.637 271.218 308.05 271.861 308.951 271.861C309.852 271.861 310.274 271.257 310.274 270.26V268.591C310.274 267.633 309.842 266.99 308.951 266.99C308.059 266.99 307.647 267.594 307.647 268.591H307.637Z" fill="white"/>
<path d="M313.898 266.291C314.056 265.993 314.295 265.746 314.586 265.577C314.877 265.407 315.21 265.323 315.547 265.332C316.975 265.332 317.618 266.387 317.618 267.968V270.145C317.618 271.842 316.803 272.954 315.106 272.954C313.409 272.954 312.613 271.842 312.613 270.145V269.397H313.773V270.221C313.773 271.18 314.185 271.822 315.077 271.822C315.969 271.822 316.381 271.218 316.381 270.221V268.112C316.381 267.153 315.969 266.511 315.077 266.511C314.916 266.505 314.755 266.531 314.605 266.587C314.454 266.644 314.316 266.73 314.199 266.841C314.082 266.952 313.988 267.085 313.923 267.232C313.858 267.38 313.824 267.539 313.821 267.7V267.959H312.661L312.968 261.785H317.34V262.897H314.08L313.898 266.291Z" fill="white"/>
<path d="M323.801 264.469C323.801 267.815 320.043 269.023 320.024 271.573V271.755H323.677V272.906H318.806V271.947C318.806 268.362 322.565 267.662 322.565 264.536C322.565 263.395 322.181 262.791 321.27 262.791C320.359 262.791 319.966 263.443 319.966 264.421V265.38H318.806V264.479C318.806 262.782 319.583 261.603 321.299 261.603C323.015 261.603 323.801 262.772 323.801 264.469Z" fill="white"/>
<path d="M326.14 271.343V272.906H324.951V271.372L326.14 271.343Z" fill="white"/>
<path d="M332.343 264.45V264.738C332.398 265.213 332.295 265.694 332.051 266.106C331.807 266.517 331.435 266.838 330.992 267.019C331.436 267.204 331.809 267.528 332.053 267.943C332.297 268.358 332.399 268.842 332.343 269.32V270.183C332.343 271.88 331.548 272.992 329.841 272.992C328.135 272.992 327.348 271.88 327.348 270.183V269.416H328.508V270.26C328.508 271.218 328.921 271.861 329.803 271.861C330.685 271.861 331.107 271.276 331.107 270.154V269.291C331.107 268.198 330.646 267.671 329.707 267.642H329.045V266.53H329.774C329.966 266.532 330.157 266.493 330.332 266.414C330.508 266.335 330.664 266.22 330.791 266.075C330.918 265.93 331.011 265.759 331.066 265.575C331.12 265.39 331.134 265.196 331.107 265.006V264.498C331.107 263.357 330.713 262.772 329.803 262.772C328.892 262.772 328.508 263.395 328.508 264.392V264.958H327.348V264.45C327.348 262.753 328.135 261.66 329.841 261.66C331.548 261.66 332.343 262.753 332.343 264.45Z" fill="white"/>
<path d="M338.546 264.469C338.546 267.815 334.788 269.023 334.778 271.573V271.755H338.421V272.906H333.551V271.947C333.551 268.362 337.309 267.662 337.309 264.536C337.309 263.395 336.935 262.791 336.015 262.791C335.095 262.791 334.711 263.443 334.711 264.421V265.38H333.551V264.479C333.551 262.782 334.328 261.603 336.044 261.603C337.76 261.603 338.546 262.772 338.546 264.469Z" fill="white"/>
<path d="M321.702 133.059V133.347C321.754 133.822 321.651 134.302 321.407 134.713C321.163 135.125 320.792 135.446 320.35 135.628C320.796 135.811 321.169 136.136 321.413 136.551C321.658 136.967 321.759 137.451 321.702 137.929V138.782C321.702 140.479 320.906 141.591 319.2 141.591C317.493 141.591 316.707 140.479 316.707 138.782V138.025H317.867V138.859C317.867 139.818 318.279 140.47 319.161 140.47C320.043 140.47 320.465 139.875 320.465 138.754V137.891C320.465 136.798 320.005 136.28 319.065 136.242H318.404V135.139H319.132C319.325 135.141 319.515 135.102 319.691 135.023C319.866 134.944 320.023 134.829 320.15 134.684C320.276 134.539 320.37 134.369 320.424 134.184C320.479 134 320.493 133.805 320.465 133.615V133.107C320.465 131.966 320.072 131.372 319.161 131.372C318.25 131.372 317.867 131.995 317.867 132.992V133.567H316.707V133.059C316.707 131.362 317.493 130.26 319.2 130.26C320.906 130.26 321.702 131.362 321.702 133.059Z" fill="white"/>
<path d="M327.905 133.069C327.905 136.424 324.146 137.623 324.137 140.182V140.355H327.78V141.477H322.9V140.518C322.9 136.932 326.658 136.232 326.658 133.107C326.658 131.966 326.284 131.362 325.364 131.362C324.444 131.362 324.06 132.014 324.06 133.002V133.96H322.9V133.059C322.9 131.362 323.677 130.231 325.393 130.231C327.109 130.231 327.905 131.372 327.905 133.069Z" fill="white"/>
<path d="M332.161 132.1V135.609C332.161 136.693 331.653 137.402 330.579 137.402C329.506 137.402 328.988 136.693 328.988 135.609V132.1C328.988 131.046 329.496 130.308 330.579 130.308C331.663 130.308 332.161 131.017 332.161 132.1ZM329.784 132.1V135.724C329.784 136.328 330.004 136.683 330.579 136.683C331.155 136.683 331.365 136.29 331.365 135.724V132.1C331.365 131.506 331.135 131.094 330.579 131.094C330.023 131.094 329.784 131.458 329.784 132.052V132.1ZM335.823 130.423L331.452 141.524H330.704L335.085 130.423H335.823ZM337.626 136.29V139.78C337.626 140.863 337.127 141.572 336.034 141.572C334.941 141.572 334.452 140.863 334.452 139.78V136.29C334.452 135.226 334.961 134.516 336.034 134.516C337.108 134.516 337.626 135.178 337.626 136.242V136.29ZM335.239 136.29V139.895C335.239 140.499 335.478 140.911 336.034 140.911C336.59 140.911 336.83 140.499 336.83 139.895V136.194C336.83 135.6 336.59 135.235 336.034 135.235C335.478 135.235 335.239 135.6 335.239 136.194V136.29Z" fill="white"/>
<path d="M190.464 50.4856C193.34 50.8978 194.682 53.1412 194.682 56.3433V56.9856H192.19V56.1707C192.19 54.0616 191.346 52.7673 189.438 52.7673C187.53 52.7673 186.763 54.0136 186.763 56.1228C186.763 61.4628 194.759 61.5012 194.759 68.2025C194.759 71.4046 193.398 73.6863 190.512 74.089V75.8914H188.326V74.089C185.373 73.6863 184.041 71.4334 184.041 68.2025V66.7836H186.524V68.4134C186.524 70.5609 187.406 71.7785 189.314 71.7785C191.221 71.7785 192.103 70.5609 192.103 68.4134C192.103 63.1022 184.146 63.0351 184.146 56.3337C184.146 53.0645 185.469 50.917 188.326 50.476V48.5682H190.512L190.464 50.4856Z" fill="white"/>
<path d="M213.301 56.1228C213.301 63.3035 205.228 65.892 205.2 71.3663V71.7402H213.023V74.1561H202.582V72.1141C202.582 64.4444 210.645 62.9296 210.645 56.2283C210.645 53.774 209.83 52.4797 207.855 52.4797C205.88 52.4797 205.065 53.8794 205.065 55.9886V58.0977H202.582V56.1803C202.582 52.5372 204.241 50.1213 207.922 50.1213C211.604 50.1213 213.301 52.4797 213.301 56.1228Z" fill="white"/>
<path d="M215.525 56.0939C215.525 52.4508 217.327 50.102 220.97 50.102C224.613 50.102 226.454 52.4508 226.454 56.0939V68.375C226.454 72.0181 224.651 74.3957 220.97 74.3957C217.289 74.3957 215.525 72.0181 215.525 68.375V56.0939ZM218.142 68.5571C218.142 70.6951 219.101 71.9893 220.97 71.9893C222.84 71.9893 223.846 70.6951 223.846 68.5571V55.9501C223.846 53.7739 222.955 52.4796 220.97 52.4796C218.986 52.4796 218.142 53.7739 218.142 55.9501V68.5571Z" fill="white"/>
<path d="M230.145 74.1561H229.186V70.8581H231.746V73.926L230.413 77.1568H229.33L230.145 74.1561Z" fill="white"/>
<path d="M245.12 56.0939V68.2408C245.12 72.0181 243.423 74.3957 239.608 74.3957C235.964 74.3957 234.229 72.0468 234.229 68.4133V67.9627H236.712V68.5763C236.712 70.7238 237.671 71.9797 239.54 71.9797C241.41 71.9797 242.464 70.6855 242.464 68.1449V62.8241C242.183 63.6017 241.657 64.2674 240.966 64.7218C240.275 65.1762 239.455 65.395 238.63 65.3455C235.571 65.3455 234.21 63.1692 234.21 59.7274V56.0939C234.21 52.4508 235.974 50.102 239.655 50.102C243.337 50.102 245.12 52.4508 245.12 56.0939ZM236.818 55.9501V59.5261C236.818 61.6736 237.776 62.9679 239.694 62.9679C241.611 62.9679 242.512 61.6736 242.512 59.5261V55.9501C242.512 53.7739 241.63 52.518 239.694 52.518C237.757 52.518 236.818 53.7739 236.818 55.9501Z" fill="white"/>
<path d="M252.54 54.6559C251.542 55.2646 250.41 55.617 249.242 55.6817V53.5054C251.831 53.4 252.713 52.0098 253.326 50.3417H255.167V74.156H252.54V54.6559Z" fill="white"/>
<path d="M269.864 56.0556V56.4966H267.381V55.8831C267.381 53.7452 266.499 52.4797 264.563 52.4797C262.626 52.4797 261.687 53.7739 261.687 56.3145V61.6641C261.962 60.8793 262.485 60.2052 263.176 59.7435C263.868 59.2818 264.691 59.0575 265.521 59.1043C268.58 59.1043 269.941 61.3189 269.941 64.7607V68.3655C269.941 72.0085 268.139 74.3861 264.496 74.3861C260.852 74.3861 259.021 72.0085 259.021 68.3655V56.2378C259.021 52.4605 260.718 50.1117 264.496 50.1117C268.273 50.1117 269.864 52.403 269.864 56.0556ZM261.667 64.9716V68.5476C261.667 70.6855 262.549 71.9798 264.486 71.9798C266.423 71.9798 267.295 70.6855 267.295 68.5476V64.9716C267.295 62.8241 266.336 61.5395 264.467 61.5395C262.597 61.5395 261.667 62.8241 261.667 64.9716Z" fill="white"/>
<path d="M274.965 70.8581V74.1561H272.415V70.8581H274.965Z" fill="white"/>
<path d="M288.386 56.0939V68.2408C288.386 72.0181 286.68 74.3957 282.874 74.3957C279.231 74.3957 277.496 72.0468 277.496 68.4133V67.9627H279.979V68.5763C279.979 70.7238 280.937 71.9797 282.797 71.9797C284.657 71.9797 285.731 70.6855 285.731 68.1449V62.8241C285.449 63.6017 284.923 64.2674 284.232 64.7218C283.541 65.1762 282.722 65.395 281.896 65.3455C278.828 65.3455 277.467 63.1692 277.467 59.7274V56.0939C277.467 52.4508 279.24 50.102 282.912 50.102C286.584 50.102 288.386 52.4508 288.386 56.0939ZM280.074 55.9501V59.5261C280.074 61.6736 281.033 62.9679 282.903 62.9679C284.772 62.9679 285.779 61.6736 285.779 59.5261V55.9501C285.779 53.7739 284.887 52.518 282.903 52.518C280.918 52.518 280.074 53.7739 280.074 55.9501Z" fill="white"/>
<path d="M301.655 56.1228C301.655 63.3035 293.592 65.892 293.554 71.3663V71.7402H301.386V74.1561H290.937V72.1141C290.937 64.4444 298.999 62.9296 298.999 56.2283C298.999 53.774 298.184 52.4797 296.209 52.4797C294.235 52.4797 293.42 53.8794 293.42 55.9886V58.0977H290.937V56.1803C290.937 52.5372 292.605 50.1213 296.277 50.1213C299.948 50.1213 301.655 52.4797 301.655 56.1228Z" fill="white"/>
<path d="M224.316 25.3195C226.042 25.3195 226.722 26.144 226.722 27.7738V28.3011C226.722 29.4707 226.387 30.2185 225.419 30.4965C226.502 30.8033 226.914 31.6566 226.914 32.8741V33.8328C226.964 34.1805 226.933 34.535 226.823 34.8687C226.714 35.2025 226.53 35.5067 226.284 35.7578C226.038 36.0089 225.739 36.2002 225.407 36.3169C225.076 36.4336 224.722 36.4726 224.374 36.4309H221.824V25.3195H224.316ZM224.009 30.0268C224.968 30.0268 225.505 29.7104 225.505 28.5503V27.8984C225.505 26.9397 225.169 26.4412 224.278 26.4412H223.06V30.0268H224.009ZM224.374 35.2805C225.332 35.2805 225.687 34.8107 225.687 33.7753V32.8166C225.687 31.5799 225.198 31.1676 224.134 31.1676H223.06V35.2997L224.374 35.2805Z" fill="white"/>
<path d="M229.292 34.1875L228.86 36.4213H227.719L229.848 25.329H231.631L233.74 36.4117H232.503L232.091 34.1875H229.292ZM229.445 33.1233H231.919L230.672 26.7192L229.445 33.1233Z" fill="white"/>
<path d="M234.699 36.4118V25.3195H235.936V35.2805H239.099V36.4118H234.699Z" fill="white"/>
<path d="M241.324 34.1875L240.892 36.4213H239.751L241.87 25.329H243.663L245.791 36.4213H244.555L244.123 34.1875H241.324ZM241.477 33.1233H243.951L242.695 26.7192L241.477 33.1233Z" fill="white"/>
<path d="M247.852 36.4118H246.74V25.3195H248.312L250.872 33.3343V25.3195H251.956V36.4118H250.681L247.804 27.4382L247.852 36.4118Z" fill="white"/>
<path d="M258.139 27.9942V28.9529H256.96V27.8983C256.96 26.9396 256.567 26.2973 255.666 26.2973C254.765 26.2973 254.362 26.8917 254.362 27.8983V33.756C254.362 34.7148 254.774 35.3571 255.666 35.3571C256.557 35.3571 256.96 34.7531 256.96 33.756V32.318H258.139V33.6889C258.139 35.3763 257.344 36.4788 255.627 36.4788C253.911 36.4788 253.144 35.3763 253.144 33.6889V27.9367C253.144 26.259 253.94 25.1469 255.627 25.1469C257.315 25.1469 258.139 26.3165 258.139 27.9942Z" fill="white"/>
<path d="M263.211 30.2281V31.3114H260.498V35.2517H263.825V36.383H259.261V25.3195H263.825V26.4412H260.498V30.2281H263.211Z" fill="white"/>
<path d="M223.693 91.4991V93.7329H222.811V91.4991H220.625V90.6075H222.811V88.4025H223.693V90.6075H225.879V91.4991H223.693Z" fill="white"/>
<path d="M234.44 88.2011C234.44 91.547 230.682 92.7454 230.672 95.2955V95.4681H234.315V96.5994H229.445V95.6407C229.445 92.0551 233.203 91.3552 233.203 88.2394C233.203 87.0986 232.82 86.4946 231.909 86.4946C230.998 86.4946 230.605 87.1465 230.605 88.1244V89.0831H229.445V88.1244C229.445 86.4371 230.222 85.3058 231.938 85.3058C233.654 85.3058 234.44 86.5042 234.44 88.2011Z" fill="white"/>
<path d="M236.818 90.0226C236.973 89.7224 237.21 89.4726 237.502 89.3028C237.795 89.1329 238.129 89.0501 238.467 89.0639C239.895 89.0639 240.528 90.1089 240.528 91.6908V93.8671C240.528 95.564 239.723 96.6665 238.026 96.6665C236.329 96.6665 235.533 95.564 235.533 93.8671V93.1193H236.693V93.9438C236.693 94.9025 237.105 95.5448 237.987 95.5448C238.869 95.5448 239.291 94.9408 239.291 93.9438V91.7867C239.291 90.828 238.879 90.1856 237.987 90.1856C237.826 90.1778 237.666 90.2028 237.515 90.2591C237.364 90.3153 237.226 90.4016 237.109 90.5128C236.993 90.624 236.9 90.7577 236.837 90.9058C236.773 91.0539 236.741 91.2134 236.741 91.3744V91.71H235.581L235.888 85.5455H240.259V86.648H236.99L236.818 90.0226Z" fill="white"/>
<path d="M242.905 95.0559V96.5994H241.717V95.0559H242.905Z" fill="white"/>
<path d="M249.147 88.1819V93.8383C249.147 95.6023 248.361 96.7144 246.577 96.7144C244.794 96.7144 244.075 95.6215 244.075 93.9246V93.7232H245.245V94.0108C245.245 94.9696 245.676 95.5927 246.558 95.5927C247.44 95.5927 247.92 94.9887 247.92 93.8191V91.3265C247.792 91.6928 247.547 92.0068 247.223 92.22C246.899 92.4332 246.514 92.5336 246.127 92.5057C244.708 92.5057 244.075 91.4894 244.075 89.8884V88.1915C244.075 86.4946 244.9 85.4016 246.606 85.4016C248.313 85.4016 249.147 86.485 249.147 88.1819ZM245.312 88.1244V89.7925C245.312 90.7512 245.734 91.3936 246.625 91.3936C247.517 91.3936 247.939 90.7896 247.939 89.7925V88.134C247.939 87.1177 247.526 86.5329 246.625 86.5329C245.724 86.5329 245.245 87.1082 245.245 88.1244H245.312Z" fill="white"/>
<path d="M255.263 88.182V88.4696C255.315 88.9437 255.212 89.4219 254.97 89.8331C254.729 90.2442 254.36 90.5662 253.921 90.7513C254.365 90.936 254.736 91.2608 254.979 91.6762C255.221 92.0916 255.321 92.5748 255.263 93.0522V93.9054C255.263 95.6024 254.477 96.7049 252.761 96.7049C251.045 96.7049 250.278 95.6024 250.278 93.9054V93.1385H251.428V93.9821C251.428 94.9409 251.841 95.5832 252.732 95.5832C253.624 95.5832 254.036 94.9984 254.036 93.8671V93.0138C254.036 91.9209 253.576 91.4032 252.636 91.3649H251.956V90.2624H252.684C252.877 90.2644 253.067 90.2247 253.243 90.1461C253.418 90.0674 253.575 89.9517 253.701 89.8069C253.828 89.6621 253.922 89.4915 253.976 89.307C254.031 89.1225 254.044 88.9284 254.017 88.738V88.2299C254.017 87.089 253.614 86.5042 252.713 86.5042C251.812 86.5042 251.409 87.1178 251.409 88.1244V88.6901H250.259V88.182C250.259 86.485 251.045 85.3921 252.742 85.3921C254.439 85.3921 255.263 86.485 255.263 88.182Z" fill="white"/>
<path d="M259.625 87.2328V90.7512C259.625 91.8346 259.117 92.544 258.043 92.544C256.97 92.544 256.462 91.8346 256.462 90.7512V87.2519C256.462 86.1878 256.96 85.4592 258.043 85.4592C259.127 85.4592 259.625 86.1686 259.625 87.2328ZM257.248 87.2328V90.8471C257.248 91.4511 257.468 91.8058 258.043 91.8058C258.619 91.8058 258.83 91.4127 258.83 90.8471V87.2328C258.83 86.6288 258.6 86.2165 258.043 86.2165C257.487 86.2165 257.2 86.5808 257.2 87.1848L257.248 87.2328ZM263.288 85.555L258.916 96.6473H258.168L262.501 85.5071L263.288 85.555ZM265.08 91.4127V94.9024C265.08 95.9762 264.582 96.6952 263.489 96.6952C262.396 96.6952 261.907 95.9762 261.907 94.9024V91.4127C261.907 90.3582 262.415 89.6391 263.489 89.6391C264.563 89.6391 265.032 90.3102 265.032 91.3648L265.08 91.4127ZM262.703 91.4127V95.0175C262.703 95.6119 262.933 96.0241 263.489 96.0241C264.045 96.0241 264.285 95.6119 264.285 95.0175V91.4127C264.285 90.8183 264.045 90.454 263.489 90.454C262.933 90.454 262.655 90.7512 262.655 91.3169L262.703 91.4127Z" fill="white"/>
<path d="M145.012 8.12021C145.012 10.9005 141.886 11.8975 141.877 14.0163V14.1697H144.906V15.1284H140.861V14.3422C140.861 11.3606 143.986 10.7854 143.986 8.18732C143.986 7.22861 143.67 6.73967 142.903 6.73967C142.136 6.73967 141.819 7.27655 141.819 8.10104V8.91594H140.861V8.15856C140.861 6.75885 141.513 5.81931 142.931 5.81931C144.35 5.81931 145.012 6.71091 145.012 8.12021Z" fill="white"/>
<path d="M150.055 8.11069V8.30243C150.104 8.70079 150.021 9.10422 149.818 9.45066C149.615 9.7971 149.304 10.0674 148.933 10.2198C149.303 10.3737 149.613 10.6442 149.816 10.9903C150.018 11.3364 150.102 11.7391 150.055 12.1373V12.8563C150.055 14.2656 149.393 15.186 147.974 15.186C146.555 15.186 145.904 14.2272 145.904 12.8563V12.2331H146.862V12.9234C146.862 13.7575 147.198 14.256 147.936 14.256C148.674 14.256 149.019 13.7671 149.019 12.8371V12.1373C149.019 11.2265 148.636 10.7951 147.859 10.7663H147.303V9.8076H147.917C148.076 9.80936 148.234 9.77645 148.38 9.71115C148.526 9.64585 148.655 9.54971 148.76 9.42938C148.865 9.30905 148.942 9.1674 148.987 9.01421C149.032 8.86102 149.043 8.69995 149.019 8.54211V8.12028C149.019 7.16157 148.693 6.68222 147.936 6.68222C147.179 6.68222 146.862 7.19992 146.862 8.02441V8.50376H145.904V8.11069C145.904 6.70139 146.565 5.79062 147.974 5.79062C149.384 5.79062 150.055 6.70139 150.055 8.11069Z" fill="white"/>
<path d="M152.049 8.81053V10.0856H151.09V8.81053H152.049ZM152.049 13.8246V15.0997H151.09V13.8246H152.049Z" fill="white"/>
<path d="M154.167 9.63495C154.301 9.3918 154.501 9.19106 154.743 9.0555C154.986 8.91994 155.261 8.85498 155.538 8.86799C156.718 8.86799 157.245 9.74041 157.245 11.0538V12.8658C157.245 14.2751 156.574 15.1955 155.164 15.1955C153.755 15.1955 153.103 14.2367 153.103 12.8658V12.2426H154.062V12.9233C154.062 13.7574 154.397 14.2559 155.136 14.2559C155.874 14.2559 156.219 13.7574 156.219 12.9233V11.1785C156.219 10.3444 155.874 9.84587 155.136 9.84587C155.003 9.83526 154.871 9.85219 154.745 9.89559C154.62 9.939 154.505 10.0079 154.408 10.098C154.31 10.1881 154.233 10.2975 154.18 10.4191C154.127 10.5407 154.1 10.672 154.1 10.8046V11.0155H153.142L153.391 5.89599H157.024V6.8547H154.311L154.167 9.63495Z" fill="white"/>
<path d="M162.336 8.09152V8.30243H161.377V8.07234C161.377 7.23827 161.041 6.74933 160.284 6.74933C159.527 6.74933 159.172 7.24786 159.172 8.23532V10.3061C159.283 10.0073 159.488 9.75249 159.755 9.57968C160.023 9.40688 160.34 9.3254 160.658 9.34743C161.837 9.34743 162.364 10.2007 162.364 11.5333V12.933C162.364 14.3423 161.674 15.2626 160.265 15.2626C158.855 15.2626 158.136 14.3039 158.136 12.933V8.15863C158.136 6.70139 158.798 5.79062 160.265 5.79062C161.732 5.79062 162.336 6.68222 162.336 8.09152ZM159.162 11.5429V12.9234C159.162 13.7575 159.498 14.256 160.255 14.256C161.013 14.256 161.348 13.7575 161.348 12.9234V11.5429C161.348 10.7184 160.993 10.2198 160.255 10.2198C159.517 10.2198 159.162 10.7184 159.162 11.5429Z" fill="white"/>
<path d="M279.097 159.999C279.097 159.214 278.864 158.446 278.428 157.794C277.992 157.141 277.372 156.632 276.646 156.332C275.921 156.031 275.123 155.953 274.353 156.106C273.583 156.259 272.876 156.637 272.321 157.192C271.766 157.747 271.388 158.455 271.235 159.224C271.082 159.994 271.16 160.792 271.461 161.518C271.761 162.243 272.27 162.863 272.922 163.299C273.575 163.735 274.343 163.968 275.128 163.968C276.18 163.968 277.19 163.55 277.934 162.805C278.678 162.061 279.097 161.051 279.097 159.999Z" fill="#22252E"/>
<path d="M290.16 153.527C291.886 153.527 292.567 154.352 292.567 155.982V156.509C292.567 157.679 292.231 158.426 291.272 158.714C292.346 159.011 292.758 159.874 292.758 161.092V162.05C292.81 162.398 292.78 162.754 292.672 163.088C292.563 163.423 292.379 163.728 292.133 163.98C291.887 164.231 291.586 164.422 291.254 164.538C290.921 164.655 290.567 164.692 290.218 164.648H287.668V153.527H290.16ZM289.853 158.235C290.812 158.235 291.349 157.918 291.349 156.758V156.106C291.349 155.148 291.013 154.649 290.122 154.649H288.904V158.235H289.853ZM290.218 163.508C291.129 163.508 291.541 163.028 291.541 161.993V161.034C291.541 159.797 291.042 159.385 289.978 159.385H288.904V163.527L290.218 163.508Z" fill="white"/>
<path d="M295.51 164.629V154.649H293.458V153.527H298.789V154.649H296.747V164.629H295.51Z" fill="white"/>
<path d="M304.55 156.202V157.161H303.381V156.097C303.381 155.09 302.978 154.496 302.077 154.496C301.176 154.496 300.773 155.09 300.773 156.097V161.964C300.773 162.923 301.185 163.565 302.077 163.565C302.968 163.565 303.381 162.961 303.381 161.964V160.516H304.55V161.897C304.55 163.584 303.755 164.696 302.048 164.696C300.342 164.696 299.555 163.584 299.555 161.897V156.145C299.555 154.467 300.351 153.355 302.048 153.355C303.745 153.355 304.55 154.525 304.55 156.202Z" fill="white"/>
<path d="M321.769 156.221C321.769 159.567 318.001 160.775 317.991 163.325V163.508H321.634V164.629H316.764V163.671C316.764 160.085 320.532 159.385 320.532 156.26C320.532 155.119 320.148 154.515 319.228 154.515C318.308 154.515 317.924 155.167 317.924 156.145V157.103H316.764V156.202C316.764 154.505 317.541 153.374 319.257 153.374C320.973 153.374 321.769 154.524 321.769 156.221Z" fill="white"/>
<path d="M328 156.154V156.509C328.069 156.979 327.983 157.459 327.755 157.876C327.526 158.293 327.168 158.624 326.735 158.819C327.168 159.025 327.525 159.364 327.753 159.786C327.98 160.209 328.067 160.693 328 161.168V161.993C328 163.709 327.118 164.773 325.383 164.773C323.648 164.773 322.766 163.709 322.766 161.993V161.168C322.701 160.691 322.79 160.205 323.021 159.782C323.253 159.36 323.613 159.022 324.05 158.819C323.617 158.631 323.256 158.307 323.024 157.895C322.792 157.483 322.702 157.006 322.766 156.538V156.183C322.766 155.489 323.041 154.823 323.532 154.332C324.023 153.841 324.689 153.566 325.383 153.566C326.077 153.566 326.743 153.841 327.234 154.332C327.725 154.823 328 155.489 328 156.183V156.154ZM323.993 156.154V156.691C323.993 157.765 324.511 158.244 325.383 158.244C326.255 158.244 326.783 157.765 326.783 156.691V156.154C326.783 155.013 326.255 154.486 325.383 154.486C324.511 154.486 323.993 155.052 323.993 156.193V156.154ZM323.993 160.948V161.907C323.993 163.047 324.501 163.584 325.383 163.584C326.265 163.584 326.764 163.047 326.783 161.907V160.948C326.783 159.864 326.303 159.347 325.383 159.347C324.463 159.347 323.993 159.912 323.993 160.996V160.948Z" fill="white"/>
<path d="M332.238 155.253V158.762C332.238 159.836 331.73 160.555 330.656 160.555C329.582 160.555 329.074 159.836 329.074 158.762V155.253C329.074 154.189 329.573 153.46 330.656 153.46C331.739 153.46 332.238 154.189 332.238 155.253ZM329.86 155.205V158.82C329.86 159.424 330.081 159.826 330.656 159.826C331.231 159.826 331.452 159.424 331.452 158.82V155.205C331.452 154.601 331.212 154.189 330.656 154.189C330.1 154.189 329.86 154.601 329.86 155.205ZM335.91 153.527L331.528 164.629H330.781L335.162 153.527H335.91ZM337.702 159.395V162.884C337.702 163.968 337.204 164.677 336.111 164.677C335.018 164.677 334.529 163.968 334.529 162.884V159.395C334.529 158.331 335.037 157.621 336.111 157.621C337.185 157.621 337.702 158.331 337.702 159.395ZM335.325 159.395V163C335.325 163.604 335.555 164.016 336.111 164.016C336.667 164.016 336.907 163.604 336.907 163V159.395C336.907 158.791 336.667 158.436 336.111 158.436C335.555 158.436 335.363 158.743 335.363 159.347L335.325 159.395Z" fill="white"/>
<path d="M275.128 187.121C277.32 187.121 279.097 185.344 279.097 183.151C279.097 180.959 277.32 179.182 275.128 179.182C272.935 179.182 271.158 180.959 271.158 183.151C271.158 185.344 272.935 187.121 275.128 187.121Z" fill="#90949E"/>
<path d="M290.429 182.988L288.569 187.782H287.428L289.662 182.03L287.572 176.651H288.856L290.563 181.1L292.298 176.651H293.458L291.378 182.03L293.592 187.782H292.298L290.429 182.988Z" fill="white"/>
<path d="M297.015 176.671C298.76 176.671 299.488 177.562 299.488 179.211V180.112C299.488 181.34 299.067 182.097 298.108 182.404C299.124 182.701 299.508 183.525 299.508 184.714V186.45C299.474 186.905 299.55 187.362 299.728 187.782H298.472C298.305 187.352 298.236 186.89 298.271 186.43V184.705C298.271 183.449 297.686 183.056 296.651 183.056H295.778V187.849H294.541V176.671H297.015ZM296.699 181.905C297.657 181.905 298.271 181.589 298.271 180.381V179.326C298.271 178.368 297.907 177.802 296.986 177.802H295.778V181.905H296.699Z" fill="white"/>
<path d="M303.256 176.671C305.001 176.671 305.739 177.706 305.739 179.384V180.716C305.739 182.48 304.914 183.401 303.16 183.401H302.067V187.782H300.85V176.671H303.256ZM303.16 182.289C304.119 182.289 304.521 181.857 304.521 180.793V179.326C304.521 178.31 304.157 177.802 303.256 177.802H302.067V182.289H303.16Z" fill="white"/>
<path d="M319.065 178.684C318.6 178.972 318.069 179.137 317.522 179.163V178.147C317.962 178.159 318.393 178.019 318.743 177.75C319.092 177.481 319.338 177.1 319.439 176.671H320.292V187.782H319.065V178.684Z" fill="white"/>
<path d="M327.128 179.374C327.128 182.72 323.37 183.928 323.351 186.478V186.622H327.003V187.753H322.133V186.795C322.133 183.209 325.891 182.519 325.891 179.393C325.891 178.243 325.508 177.649 324.587 177.649C323.667 177.649 323.293 178.291 323.293 179.278V180.237H322.133V179.278C322.133 177.581 322.91 176.46 324.626 176.46C326.342 176.46 327.128 177.677 327.128 179.374Z" fill="white"/>
<path d="M331.385 178.406V181.905C331.385 182.988 330.876 183.698 329.803 183.698C328.729 183.698 328.211 182.988 328.211 181.905V178.406C328.211 177.342 328.719 176.613 329.803 176.613C330.886 176.613 331.385 177.342 331.385 178.406ZM329.007 178.358V181.972C329.007 182.576 329.227 182.931 329.803 182.931C330.378 182.931 330.589 182.538 330.589 181.972V178.358C330.589 177.754 330.359 177.342 329.803 177.342C329.247 177.342 329.007 177.754 329.007 178.358ZM335.047 176.671L330.675 187.782H329.927L334.309 176.671H335.047ZM336.84 182.547V186.037C336.84 187.111 336.351 187.83 335.258 187.83C334.165 187.83 333.666 187.111 333.666 186.037V182.547C333.666 181.483 334.174 180.764 335.258 180.764C336.341 180.764 336.84 181.483 336.84 182.547ZM334.462 182.5V186.095C334.462 186.699 334.702 187.111 335.258 187.111C335.814 187.111 336.053 186.699 336.053 186.095V182.5C336.053 181.896 335.814 181.541 335.258 181.541C334.702 181.541 334.462 181.896 334.462 182.5Z" fill="white"/>
<path d="M275.128 210.264C277.32 210.264 279.097 208.487 279.097 206.295C279.097 204.103 277.32 202.326 275.128 202.326C272.935 202.326 271.158 204.103 271.158 206.295C271.158 208.487 272.935 210.264 275.128 210.264Z" fill="white"/>
<path d="M287.668 210.925V199.823H288.904V209.804H292.078V210.925H287.668Z" fill="white"/>
<path d="M293.841 210.925V200.945H291.79V199.823H297.12V200.945H295.097V210.925H293.841Z" fill="white"/>
<path d="M302.882 202.508V203.466H301.713V202.441C301.713 201.482 301.32 200.84 300.409 200.84C299.498 200.84 299.115 201.444 299.115 202.441V208.308C299.115 209.267 299.527 209.909 300.409 209.909C301.291 209.909 301.713 209.305 301.713 208.308V206.87H302.882V208.25C302.882 209.928 302.096 211.04 300.38 211.04C298.664 211.04 297.887 209.928 297.887 208.25V202.498C297.887 200.811 298.683 199.699 300.38 199.699C302.077 199.699 302.882 200.82 302.882 202.508Z" fill="white"/>
<path d="M321.769 202.517C321.769 205.863 318.001 207.071 317.991 209.631V209.804H321.634V210.925H316.764V209.967C316.764 206.381 320.532 205.681 320.532 202.556C320.532 201.415 320.148 200.811 319.228 200.811C318.308 200.811 317.924 201.463 317.924 202.45V203.409H316.764V202.508C316.764 200.811 317.541 199.68 319.257 199.68C320.973 199.68 321.769 200.821 321.769 202.517Z" fill="white"/>
<path d="M328 202.46V202.805C328.064 203.271 327.976 203.745 327.747 204.157C327.519 204.568 327.164 204.894 326.735 205.087C327.168 205.292 327.525 205.631 327.753 206.054C327.98 206.476 328.067 206.96 328 207.436V208.26C328 209.976 327.118 211.04 325.383 211.04C323.648 211.04 322.766 209.976 322.766 208.26V207.436C322.701 206.958 322.79 206.472 323.021 206.05C323.253 205.627 323.613 205.289 324.05 205.087C323.617 204.899 323.256 204.574 323.024 204.162C322.792 203.75 322.702 203.273 322.766 202.805V202.46C322.766 201.766 323.041 201.1 323.532 200.609C324.023 200.118 324.689 199.843 325.383 199.843C326.077 199.843 326.743 200.118 327.234 200.609C327.725 201.1 328 201.766 328 202.46ZM323.993 202.46V202.997C323.993 204.08 324.511 204.55 325.383 204.55C326.255 204.55 326.783 204.08 326.783 202.997V202.46C326.783 201.319 326.255 200.792 325.383 200.792C324.511 200.792 323.993 201.348 323.993 202.489V202.46ZM323.993 207.253V208.212C323.993 209.353 324.501 209.89 325.383 209.89C326.265 209.89 326.764 209.353 326.783 208.212V207.253C326.783 206.18 326.303 205.652 325.383 205.652C324.463 205.652 323.993 206.218 323.993 207.292V207.253Z" fill="white"/>
<path d="M332.238 201.549V205.058C332.238 206.132 331.73 206.851 330.656 206.851C329.582 206.851 329.074 206.132 329.074 205.058V201.549C329.074 200.485 329.573 199.756 330.656 199.756C331.739 199.756 332.238 200.485 332.238 201.549ZM329.86 201.549V205.173C329.86 205.767 330.081 206.132 330.656 206.132C331.231 206.132 331.452 205.729 331.452 205.173V201.549C331.452 200.945 331.212 200.533 330.656 200.533C330.1 200.533 329.86 200.897 329.86 201.501V201.549ZM335.91 199.871L331.528 210.925H330.781L335.162 199.823L335.91 199.871ZM337.702 205.739V209.228C337.702 210.312 337.204 211.021 336.111 211.021C335.018 211.021 334.529 210.312 334.529 209.228V205.739C334.529 204.674 335.037 203.965 336.111 203.965C337.185 203.965 337.702 204.627 337.702 205.691V205.739ZM335.325 205.739V209.343C335.325 209.947 335.555 210.36 336.111 210.36C336.667 210.36 336.907 209.947 336.907 209.343V205.739C336.907 205.135 336.667 204.78 336.111 204.78C335.555 204.78 335.363 205.039 335.363 205.643L335.325 205.739Z" fill="white"/>
<path d="M301.31 8.50369H298.712V15.0133H301.31V8.50369Z" fill="white"/>
<path d="M304.78 7.1999H302.182V15.0134H304.78V7.1999Z" fill="white"/>
<path d="M308.251 6.26999H305.653V15.0038H308.251V6.26999Z" fill="white"/>
<path d="M311.722 4.65936H309.123V15.0038H311.722V4.65936Z" fill="white"/>
<path d="M343.992 14.8313H328.326V5.24422H343.992V14.8313ZM329.237 13.9589H343.033V6.15499H329.189L329.237 13.9589Z" fill="white"/>
<path d="M338.738 7.09441H330.493V13.0192H338.738V7.09441Z" fill="white"/>
<path d="M345.362 8.9352H343.397V11.1882H345.362V8.9352Z" fill="white"/>
<path d="M322.593 12.7508C322.49 12.7482 322.388 12.722 322.296 12.6741C319.123 10.7567 317.023 12.5303 316.937 12.607C316.82 12.7086 316.667 12.7596 316.513 12.7489C316.358 12.7381 316.214 12.6664 316.112 12.5495C316.061 12.4929 316.022 12.4266 315.997 12.3545C315.972 12.2823 315.962 12.2059 315.967 12.1298C315.973 12.0536 315.993 11.9794 316.028 11.9115C316.063 11.8435 316.111 11.7834 316.17 11.7346C316.275 11.6291 318.96 9.32824 322.881 11.6675C322.99 11.7341 323.074 11.8345 323.12 11.9532C323.166 12.072 323.173 12.2027 323.138 12.3254C323.103 12.448 323.029 12.556 322.927 12.6328C322.826 12.7096 322.702 12.7511 322.574 12.7508H322.593Z" fill="white"/>
<path d="M323.772 10.7951C323.667 10.7936 323.565 10.7637 323.475 10.7088C318.883 7.97651 315.805 10.6225 315.758 10.6417C315.642 10.7445 315.49 10.7971 315.335 10.7882C315.181 10.7792 315.036 10.7093 314.933 10.5938C314.831 10.4768 314.78 10.3242 314.791 10.1696C314.802 10.015 314.874 9.87105 314.991 9.76929C314.991 9.76929 318.749 6.54803 324.07 9.71176C324.178 9.77798 324.261 9.87748 324.308 9.9953C324.354 10.1131 324.361 10.2429 324.328 10.3651C324.294 10.4873 324.222 10.5953 324.122 10.6728C324.022 10.7504 323.899 10.7933 323.772 10.7951Z" fill="white"/>
<path d="M324.817 8.5229C324.712 8.52135 324.61 8.49154 324.52 8.43662C318.701 4.97568 314.837 8.23529 314.674 8.37909C314.557 8.4807 314.405 8.53171 314.25 8.52093C314.096 8.51014 313.952 8.43844 313.85 8.32157C313.748 8.20457 313.697 8.05202 313.708 7.89743C313.719 7.74284 313.79 7.59885 313.907 7.49708C313.907 7.49708 318.547 3.52803 325.124 7.43956C325.255 7.51919 325.35 7.64729 325.388 7.79617C325.426 7.94506 325.403 8.10279 325.325 8.23529C325.272 8.32227 325.197 8.39427 325.108 8.44457C325.02 8.49487 324.919 8.52182 324.817 8.5229Z" fill="white"/>
<path d="M319.382 15.1956C320.192 15.1956 320.848 14.5389 320.848 13.7288C320.848 12.9187 320.192 12.2619 319.382 12.2619C318.572 12.2619 317.915 12.9187 317.915 13.7288C317.915 14.5389 318.572 15.1956 319.382 15.1956Z" fill="white"/>
<path d="M158.501 277.067C163.372 277.067 167.321 273.118 167.321 268.246C167.321 263.375 163.372 259.426 158.501 259.426C153.629 259.426 149.681 263.375 149.681 268.246C149.681 273.118 153.629 277.067 158.501 277.067Z" fill="#10B981"/>
<path d="M183.446 320.841C185.182 320.841 185.862 321.666 185.862 323.295V323.823C185.862 324.992 185.527 325.74 184.558 326.028C185.642 326.325 186.054 327.188 186.054 328.405V329.364C186.103 329.712 186.072 330.066 185.963 330.4C185.854 330.734 185.669 331.038 185.424 331.289C185.178 331.54 184.878 331.731 184.547 331.848C184.216 331.965 183.862 332.004 183.513 331.962H181.011V320.841H183.446ZM183.149 325.548C184.108 325.548 184.645 325.232 184.645 324.072V323.43C184.645 322.471 184.309 321.963 183.417 321.963H182.2V325.548H183.149ZM183.513 330.821C184.424 330.821 184.827 330.342 184.827 329.306V328.348C184.827 327.111 184.338 326.699 183.274 326.699H182.2V330.84L183.513 330.821Z" fill="white"/>
<path d="M188.422 320.841V331.962H187.185V320.841H188.422Z" fill="white"/>
<path d="M191.289 331.962V321.982H189.247V320.841H194.558V321.963H192.516V331.962H191.289Z" fill="white"/>
<path d="M200.31 323.535V324.542H199.131V323.478C199.131 322.519 198.738 321.877 197.837 321.877C196.935 321.877 196.533 322.481 196.533 323.478V329.345C196.533 330.304 196.945 330.946 197.837 330.946C198.728 330.946 199.131 330.342 199.131 329.345V327.897H200.31V329.278C200.31 330.965 199.514 332.077 197.798 332.077C196.082 332.077 195.315 330.965 195.315 329.278V323.526C195.315 321.848 196.101 320.736 197.798 320.736C199.495 320.736 200.31 321.857 200.31 323.535Z" fill="white"/>
<path d="M201.345 323.535C201.345 321.838 202.179 320.745 203.876 320.745C205.573 320.745 206.436 321.838 206.436 323.535V329.287C206.436 330.975 205.592 332.087 203.876 332.087C202.16 332.087 201.345 330.975 201.345 329.287V323.535ZM202.563 329.345C202.563 330.361 202.994 330.946 203.876 330.946C204.758 330.946 205.199 330.361 205.199 329.345V323.478C205.199 322.519 204.787 321.876 203.876 321.876C202.966 321.876 202.563 322.48 202.563 323.478V329.345Z" fill="white"/>
<path d="M208.814 320.841V331.962H207.577V320.841H208.814Z" fill="white"/>
<path d="M211.21 331.962H210.098V320.841H211.69L214.259 328.865V320.841H215.362V331.962H214.077L211.201 322.989L211.21 331.962Z" fill="white"/>
<path d="M286.469 320.908C287.811 321.1 288.387 322.145 288.387 323.631V323.938H287.227V323.554C287.227 322.595 286.834 321.972 285.942 321.972C285.05 321.972 284.676 322.576 284.676 323.554C284.676 326.047 288.396 326.056 288.396 329.191C288.396 330.677 287.764 331.741 286.421 331.933V332.767H285.511V331.933C284.13 331.741 283.507 330.696 283.507 329.191V328.511H284.667V329.278C284.667 330.236 285.079 330.85 285.971 330.85C286.862 330.85 287.265 330.275 287.265 329.278C287.265 326.804 283.555 326.766 283.555 323.64C283.555 322.116 284.178 321.119 285.472 320.918V320.026H286.469V320.908Z" fill="white"/>
<path d="M297.149 323.554C297.149 326.9 293.391 328.108 293.381 330.658V330.84H297.015V331.962H292.145V331.003C292.145 327.418 295.903 326.718 295.903 323.593C295.903 322.452 295.529 321.848 294.608 321.848C293.688 321.848 293.305 322.5 293.305 323.478V324.436H292.145V323.535C292.145 321.838 292.921 320.659 294.637 320.659C296.353 320.659 297.149 321.857 297.149 323.554Z" fill="white"/>
<path d="M303.237 323.535V323.823C303.291 324.298 303.189 324.779 302.945 325.191C302.701 325.603 302.329 325.924 301.885 326.104C302.329 326.29 302.701 326.615 302.945 327.03C303.188 327.445 303.291 327.927 303.237 328.405V329.268C303.237 330.965 302.441 332.077 300.725 332.077C299.009 332.077 298.233 330.965 298.233 329.268V328.511H299.393V329.355C299.393 330.313 299.805 330.956 300.696 330.956C301.588 330.956 301.991 330.371 301.991 329.249V328.386C301.991 327.293 301.531 326.766 300.601 326.737H299.891V325.635H300.62C300.812 325.637 301.003 325.597 301.178 325.518C301.354 325.44 301.51 325.324 301.637 325.179C301.764 325.034 301.857 324.864 301.912 324.679C301.966 324.495 301.98 324.301 301.952 324.11V323.602C301.952 322.461 301.559 321.877 300.658 321.877C299.757 321.877 299.354 322.5 299.354 323.497V324.062H298.194V323.554C298.194 321.857 298.99 320.765 300.687 320.765C302.384 320.765 303.237 321.8 303.237 323.535Z" fill="white"/>
<path d="M304.982 331.962H304.522V330.428H305.71V331.857L305.097 333.362H304.589L304.982 331.962Z" fill="white"/>
<path d="M311.491 329.728V331.962H310.283V329.728H306.698V328.597L310.14 320.86H311.491V328.597H312.354V329.728H311.491ZM307.839 328.597H310.283V323.171L307.839 328.597Z" fill="white"/>
<path d="M318.423 323.487V323.842C318.485 324.308 318.396 324.781 318.168 325.192C317.94 325.603 317.586 325.93 317.157 326.124C317.591 326.329 317.948 326.668 318.175 327.091C318.403 327.513 318.49 327.997 318.423 328.473V329.297C318.423 331.013 317.531 332.077 315.806 332.077C314.08 332.077 313.188 331.013 313.188 329.297V328.511C313.122 328.033 313.21 327.547 313.442 327.124C313.673 326.701 314.035 326.363 314.473 326.162C314.039 325.974 313.679 325.649 313.447 325.237C313.215 324.825 313.124 324.349 313.188 323.88V323.526C313.188 323.182 313.256 322.842 313.388 322.524C313.519 322.206 313.712 321.918 313.955 321.675C314.198 321.432 314.486 321.239 314.804 321.108C315.122 320.976 315.462 320.908 315.806 320.908C316.149 320.908 316.49 320.976 316.807 321.108C317.125 321.239 317.413 321.432 317.656 321.675C317.899 321.918 318.092 322.206 318.224 322.524C318.355 322.842 318.423 323.182 318.423 323.526V323.487ZM314.406 323.487V324.024C314.406 325.107 314.933 325.577 315.806 325.577C316.678 325.577 317.205 325.107 317.205 324.024V323.487C317.205 322.346 316.678 321.819 315.806 321.819C314.933 321.819 314.406 322.385 314.406 323.526V323.487ZM314.406 328.281V329.24C314.406 330.38 314.914 330.917 315.806 330.917C316.697 330.917 317.186 330.38 317.205 329.24V328.281C317.205 327.207 316.726 326.68 315.806 326.68C314.885 326.68 314.406 327.255 314.406 328.329V328.281Z" fill="white"/>
<path d="M324.539 323.525V323.717H323.379V323.439C323.379 322.432 322.967 321.848 322.056 321.848C321.146 321.848 320.714 322.452 320.714 323.64V326.133C320.841 325.766 321.086 325.451 321.41 325.236C321.734 325.021 322.119 324.919 322.507 324.944C323.935 324.944 324.568 325.97 324.568 327.571V329.258C324.568 330.955 323.725 332.068 322.028 332.068C320.331 332.068 319.477 330.955 319.477 329.258V323.593C319.477 321.829 320.264 320.716 322.028 320.716C323.792 320.716 324.539 321.8 324.539 323.525ZM320.705 327.677V329.345C320.705 330.303 321.117 330.946 322.018 330.946C322.919 330.946 323.331 330.342 323.331 329.345V327.677C323.331 326.718 322.91 326.076 322.018 326.076C321.126 326.076 320.714 326.68 320.714 327.677H320.705Z" fill="white"/>
<path d="M326.917 330.428V331.962H325.776V330.428H326.917Z" fill="white"/>
<path d="M329.429 325.376C329.586 325.077 329.824 324.829 330.115 324.659C330.407 324.489 330.741 324.406 331.078 324.417C332.506 324.417 333.139 325.472 333.139 327.054V329.23C333.139 330.927 332.324 332.039 330.627 332.039C328.93 332.039 328.135 330.927 328.135 329.23V328.511H329.295V329.335C329.295 330.294 329.707 330.936 330.599 330.936C331.49 330.936 331.902 330.332 331.902 329.335V327.178C331.902 326.219 331.49 325.577 330.599 325.577C330.437 325.571 330.277 325.597 330.126 325.653C329.975 325.71 329.837 325.796 329.72 325.907C329.603 326.018 329.509 326.151 329.445 326.298C329.38 326.446 329.345 326.605 329.343 326.766V327.025H328.183L328.489 320.851H332.871V321.963H329.611L329.429 325.376Z" fill="white"/>
<path d="M336.6 322.874C336.131 323.153 335.602 323.318 335.057 323.353V322.337C335.497 322.348 335.928 322.208 336.278 321.939C336.627 321.67 336.873 321.289 336.974 320.86H337.827V331.962H336.61L336.6 322.874Z" fill="white"/>
<path d="M159.897 336.057C164.705 335.275 167.968 330.743 167.186 325.935C166.404 321.127 161.872 317.863 157.064 318.645C152.256 319.428 148.993 323.959 149.775 328.767C150.557 333.575 155.089 336.839 159.897 336.057Z" fill="#22252E"/>
<path d="M292.787 379.993C294.139 380.185 294.752 381.23 294.752 382.716V383.023H293.602V382.639C293.602 381.681 293.199 381.057 292.317 381.057C291.435 381.057 291.042 381.661 291.042 382.639C291.042 385.132 294.771 385.151 294.771 388.277C294.771 389.763 294.139 390.827 292.787 391.018V391.862H291.771V391.018C290.39 390.827 289.776 389.782 289.776 388.277V387.586H290.937V388.353C290.937 389.312 291.349 389.926 292.231 389.926C293.113 389.926 293.535 389.35 293.535 388.353C293.535 385.88 289.824 385.841 289.824 382.716C289.824 381.192 290.438 380.195 291.742 379.993V379.102H292.758L292.787 379.993Z" fill="white"/>
<path d="M303.534 382.582V382.927C303.597 383.393 303.507 383.866 303.279 384.277C303.051 384.688 302.697 385.015 302.269 385.209C302.702 385.414 303.059 385.753 303.287 386.176C303.514 386.598 303.601 387.082 303.534 387.557V388.382C303.534 390.098 302.643 391.162 300.917 391.162C299.191 391.162 298.3 390.098 298.3 388.382V387.557C298.233 387.08 298.322 386.593 298.553 386.17C298.785 385.747 299.146 385.41 299.584 385.209C299.151 385.021 298.79 384.696 298.558 384.284C298.326 383.872 298.236 383.395 298.3 382.927V382.582C298.3 381.888 298.575 381.222 299.066 380.731C299.557 380.24 300.223 379.964 300.917 379.964C301.611 379.964 302.277 380.24 302.768 380.731C303.259 381.222 303.534 381.888 303.534 382.582ZM299.517 382.582V383.157C299.517 384.24 300.045 384.71 300.917 384.71C301.789 384.71 302.317 384.24 302.317 383.157V382.62C302.317 381.479 301.789 380.952 300.917 380.952C300.045 380.952 299.517 381.47 299.517 382.61V382.582ZM299.517 387.375V388.334C299.517 389.475 300.025 390.012 300.917 390.012C301.809 390.012 302.298 389.475 302.317 388.334V387.375C302.317 386.302 301.837 385.774 300.917 385.774C299.997 385.774 299.517 386.34 299.517 387.414V387.375Z" fill="white"/>
<path d="M305.202 391.047H304.742V389.513H305.931V390.942L305.317 392.447H304.809L305.202 391.047Z" fill="white"/>
<path d="M307.11 382.62C307.11 380.923 307.944 379.83 309.651 379.83C311.357 379.83 312.201 380.923 312.201 382.62V388.373C312.201 390.069 311.357 391.182 309.651 391.182C307.944 391.182 307.11 390.069 307.11 388.373V382.62ZM308.328 388.43C308.328 389.389 308.759 390.031 309.651 390.031C310.542 390.031 310.964 389.427 310.964 388.43V382.563C310.964 381.547 310.552 380.943 309.651 380.943C308.75 380.943 308.328 381.547 308.328 382.563V388.43Z" fill="white"/>
<path d="M313.313 382.62C313.313 380.923 314.156 379.83 315.853 379.83C317.55 379.83 318.404 380.923 318.404 382.62V388.373C318.404 390.069 317.56 391.182 315.853 391.182C314.147 391.182 313.313 390.069 313.313 388.373V382.62ZM314.53 388.43C314.53 389.389 314.962 390.031 315.853 390.031C316.745 390.031 317.167 389.427 317.167 388.43V382.563C317.167 381.547 316.755 380.943 315.853 380.943C314.952 380.943 314.53 381.547 314.53 382.563V388.43Z" fill="white"/>
<path d="M319.458 382.62C319.458 380.923 320.302 379.83 321.999 379.83C323.696 379.83 324.549 380.923 324.549 382.62V388.373C324.549 390.069 323.705 391.182 321.999 391.182C320.292 391.182 319.458 390.069 319.458 388.373V382.62ZM320.676 388.43C320.676 389.389 321.107 390.031 321.999 390.031C322.89 390.031 323.312 389.427 323.312 388.43V382.563C323.312 381.547 322.9 380.943 321.999 380.943C321.098 380.943 320.676 381.547 320.676 382.563V388.43Z" fill="white"/>
<path d="M326.917 389.513V391.047H325.776V389.513H326.917Z" fill="white"/>
<path d="M333.187 382.639C333.187 385.985 329.429 387.193 329.41 389.743V389.926H333.062V391.047H328.182V390.089C328.182 386.503 331.95 385.803 331.95 382.678C331.95 381.537 331.567 380.933 330.646 380.933C329.726 380.933 329.343 381.585 329.343 382.572V383.531H328.182V382.63C328.182 380.933 328.969 379.754 330.675 379.754C332.382 379.754 333.187 380.943 333.187 382.639Z" fill="white"/>
<path d="M336.6 381.959C336.131 382.238 335.602 382.403 335.057 382.438V381.422C335.497 381.434 335.928 381.293 336.278 381.024C336.627 380.755 336.873 380.374 336.974 379.945H337.827V391.047H336.61L336.6 381.959Z" fill="white"/>
<path d="M158.501 395.237C163.372 395.237 167.321 391.288 167.321 386.417C167.321 381.546 163.372 377.597 158.501 377.597C153.629 377.597 149.681 381.546 149.681 386.417C149.681 391.288 153.629 395.237 158.501 395.237Z" fill="#90949E"/>
<path d="M182.468 380.281C184.232 380.281 184.971 381.182 184.971 382.85V383.809C185.046 384.296 184.947 384.794 184.691 385.215C184.435 385.636 184.038 385.953 183.571 386.11C184.597 386.417 184.98 387.251 184.98 388.449V390.194C184.944 390.654 185.023 391.115 185.21 391.536H183.945C183.765 391.106 183.693 390.639 183.734 390.175V388.42C183.734 387.155 183.139 386.752 182.104 386.752H181.222V391.546H179.976V380.281H182.468ZM182.152 385.563C183.111 385.563 183.734 385.247 183.734 384.03V382.956C183.734 381.949 183.37 381.422 182.44 381.422H181.222V385.563H182.152Z" fill="white"/>
<path d="M187.53 380.281V391.488H186.284V380.281H187.53Z" fill="white"/>
<path d="M191.26 380.281C193.024 380.281 193.772 381.326 193.772 383.023V384.365C193.772 386.139 192.938 387.069 191.164 387.069H190.062V391.488H188.815V380.281H191.26ZM191.164 385.947C192.123 385.947 192.545 385.516 192.545 384.451V382.956C192.545 381.93 192.171 381.422 191.26 381.422H190.062V385.947H191.164Z" fill="white"/>
<path d="M197.204 380.281C198.958 380.281 199.716 381.326 199.716 383.023V384.365C199.716 386.139 198.882 387.069 197.108 387.069H195.996V391.488H194.75V380.281H197.204ZM197.108 385.947C198.067 385.947 198.479 385.516 198.479 384.451V382.956C198.479 381.93 198.115 381.422 197.204 381.422H195.996V385.947H197.108Z" fill="white"/>
<path d="M200.694 391.46V380.281H201.94V390.347H205.142V391.488L200.694 391.46Z" fill="white"/>
<path d="M210.07 385.218V386.34H207.337V390.319H210.731V391.46H206.129V380.281H210.731V381.422H207.376V385.257L210.07 385.218Z" fill="white"/>
<path d="M376.588 425.34H443.698" stroke="#263238" stroke-width="0.604701" stroke-linecap="round" stroke-linejoin="round"/>
<path d="M6.52664 425.34H367.001" stroke="#263238" stroke-width="0.604701" stroke-linecap="round" stroke-linejoin="round"/>
<path opacity="0.2" d="M80.8267 444.514C111.272 444.514 135.952 440.222 135.952 434.927C135.952 429.633 111.272 425.34 80.8267 425.34C50.3816 425.34 25.701 429.633 25.701 434.927C25.701 440.222 50.3816 444.514 80.8267 444.514Z" fill="black"/>
<path d="M41.0403 170.228C40.6292 172.028 40.577 173.892 40.8869 175.712C41.4333 178.435 39.8323 186.181 39.8323 186.181L34.0225 222.391L27.024 221.759C27.024 221.759 27.8101 223.503 26.3624 226.015C24.9148 228.527 15.8167 232.928 15.8167 232.928C15.8167 232.928 24.445 241.489 28.7113 243.895C32.9775 246.302 37.215 246.234 39.9186 244.192C42.6221 242.15 47.2143 234.356 47.2143 234.356C47.2143 234.356 49.4769 194.723 48.3264 186.277C47.6426 181.17 46.2955 176.175 44.319 171.417C44.041 170.669 41.0403 170.228 41.0403 170.228Z" fill="white" stroke="#263238" stroke-width="0.604701" stroke-linecap="round" stroke-linejoin="round"/>
<path d="M57.0889 409.196C57.0889 409.196 52.7459 416.741 50.0424 418.534C47.3388 420.326 41.9317 424.41 38.7104 425.245C35.4892 426.079 32.7856 427.843 35.0578 429.789C37.3299 431.735 38.8351 432.214 47.0608 432.559C55.2865 432.905 58.4694 430.364 64.1929 430.259C69.9164 430.153 75.4289 431.793 76.8766 429.031C78.3242 426.27 75.6207 414.795 75.6207 414.795C75.6207 414.795 63.541 407.585 57.0889 409.196Z" fill="white" stroke="#263238" stroke-width="0.604701" stroke-linecap="round" stroke-linejoin="round"/>
<path d="M76.8766 429.003C77.2701 427.871 77.4076 426.666 77.2792 425.475C73.8279 427.325 69.0919 426.299 63.4738 426.299C57.3285 426.299 56.2739 429.463 45.5748 429.808C37.6175 430.076 35.192 428.399 34.4633 427.517C34.0415 428.197 34.1374 428.964 35.0577 429.76C37.3395 431.677 38.8351 432.185 47.0608 432.531C55.2865 432.876 58.4694 430.335 64.1929 430.23C69.9164 430.124 75.4289 431.764 76.8766 429.003Z" fill="white" stroke="#263238" stroke-width="0.604701" stroke-linecap="round" stroke-linejoin="round"/>
<path d="M92.8679 418.505C92.3922 421.145 91.6897 423.74 90.7684 426.261C89.57 429.022 86.2049 435.848 83.9999 437.832C81.7949 439.817 80.0788 444.476 83.8944 445.31C95.7536 447.889 101.535 443.239 104.986 441.475C108.437 439.711 108.61 435.435 108.821 433.441C109.032 431.447 111.524 431.649 110.94 426.682C110.355 421.716 109.981 416.491 109.981 416.491C109.981 416.491 97.3834 420.412 92.8679 418.505Z" fill="white" stroke="#263238" stroke-width="0.604701" stroke-linecap="round" stroke-linejoin="round"/>
<path d="M104.708 438.935C102.072 441.216 96.2809 443.326 90.1452 443.326C85.4667 443.326 82.8303 442.003 81.8332 441.408C81.3443 443.163 81.7182 444.869 83.8944 445.348C95.7536 447.927 101.535 443.278 104.986 441.514C108.437 439.75 108.61 435.474 108.821 433.48C109.032 431.486 111.524 431.687 110.94 426.721C110.882 426.28 110.834 425.848 110.786 425.417C110.125 426.577 109.329 428.005 108.744 429.185C107.517 431.562 107.335 436.653 104.708 438.935Z" fill="white" stroke="#263238" stroke-width="0.604701" stroke-linecap="round" stroke-linejoin="round"/>
<path d="M48.1345 245.285C48.1345 245.285 50.6847 303.249 51.0107 310.219C51.3366 317.189 54.3566 357.195 55.1427 359.439C55.9288 361.682 58.8912 401.44 58.9104 402.437C58.9296 403.434 58.9679 405.179 58.9679 405.179C58.9679 405.179 55.9959 406.224 56.0055 406.971C56.0151 407.719 55.5741 410.471 55.5741 410.471C55.5741 410.471 56.1302 413.443 63.1479 416.06C70.1656 418.677 77.5956 416.539 77.5956 416.539C77.5956 416.539 77.7778 412.8 77.749 411.305C77.7203 409.809 76.867 403.856 76.8478 403.108C76.8287 402.36 80.3088 374.414 80.0883 362.219C79.8678 350.024 78.5256 341.837 78.4297 336.113C78.3338 330.39 78.3242 289.309 78.3242 289.309L81.1045 291.495C81.1045 291.495 87.2211 354.396 88.0839 361.107C88.9467 367.818 93.3664 405.083 93.4047 407.317C93.4431 409.55 93.2513 412.551 93.2513 412.551L90.5574 415.092L90.6436 419.569C90.6436 419.569 94.9003 421.237 100.164 422.876C105.427 424.516 110.566 419.703 110.566 419.703C110.935 418.399 111.161 417.059 111.237 415.705C111.237 414.219 111.131 409.733 111.131 409.733C111.131 409.733 114.793 378.546 114.142 370.09C113.49 361.634 111.515 335.04 111.515 335.04L115.513 281.189L113.087 243.636C113.087 243.636 102.627 243.579 86.4541 243.876C70.2807 244.173 48.2592 238.594 48.2592 238.594L48.1345 245.285Z" fill="#263238" stroke="#263238" stroke-width="0.604701" stroke-linecap="round" stroke-linejoin="round"/>
<path d="M60.7607 253.885C60.7607 253.885 72.1118 261.651 95.8973 255.486L95.8111 251.009C88.5181 251.691 81.1725 251.575 73.9046 250.664C63.4163 249.111 58.92 248.19 58.92 248.19L60.7607 253.885Z" fill="#828282" stroke="#263238" stroke-width="0.604701" stroke-linecap="round" stroke-linejoin="round"/>
<path d="M79.0566 252.886L71.4703 252.389L71.1443 257.364L78.7306 257.861L79.0566 252.886Z" fill="white" stroke="#263238" stroke-width="0.604701" stroke-linecap="round" stroke-linejoin="round"/>
<path d="M63.4356 250.357C63.4356 250.357 68.2292 256.243 97.5752 251.728L99.5214 156.471C99.5214 156.471 81.4977 150.824 80.2418 150.594C78.9859 150.364 59.8117 163.162 59.8117 163.162L57.8943 248.957L63.4356 250.357Z" fill="#10B981" stroke="#263238" stroke-width="0.604701" stroke-linecap="round" stroke-linejoin="round"/>
<path d="M72.5528 162.28L75.9275 168.445L68.0181 229.495L74.9879 243.061L82.4659 230.224L78.5639 168.292L85.1694 159.721L76.3589 157.008L72.5528 162.28Z" fill="#737373" stroke="#263238" stroke-width="0.604701" stroke-linecap="round" stroke-linejoin="round"/>
<path d="M75.9277 168.445L75.5059 171.695L78.66 169.778L78.5642 168.292L85.1697 159.721L83.2618 159.126L73.924 164.792L75.9277 168.445Z" fill="#263238"/>
<path d="M81.8906 221.087L68.1044 228.795L68.0181 229.495L70.8271 234.97L82.3604 228.527L81.8906 221.087Z" fill="#263238"/>
<path d="M79.7624 187.351L79.283 179.777L74.0389 182.96L72.9364 191.483L79.7624 187.351Z" fill="#263238"/>
<path d="M70.1275 213.178L80.9513 206.103L80.4624 198.385L71.2683 204.406L70.1275 213.178Z" fill="#263238"/>
<path d="M68.2291 159.03V185.424C68.2291 185.424 66.5514 230.013 66.7143 238.977C66.8773 247.941 66.3788 261.641 64.7394 267.393C63.1 273.145 52.8035 281.774 49.8507 283.595C46.8978 285.417 41.6825 286.471 41.6825 286.471C41.6825 286.471 45.5173 251.795 45.6132 242.083C45.709 232.372 44.3764 188.079 44.2806 182.845C44.1847 177.61 39.5733 171.503 41.0401 168.982C42.507 166.46 57.3382 160.229 58.5557 160.2C59.7733 160.171 67.443 156.058 67.443 156.058L68.2291 159.03Z" fill="white" stroke="#263238" stroke-width="0.604701" stroke-linecap="round" stroke-linejoin="round"/>
<path d="M67.4238 156.058C64.7087 157.554 61.9148 158.901 59.0542 160.095L57.4628 169.432L62.0358 174.581L57.9038 180.132C57.9038 180.132 60.1663 194.781 62.5248 201.223C63.7903 204.674 65.6789 210.992 67.1649 216.093C67.6155 201.367 68.2099 185.414 68.2099 185.414V159.021L67.4238 156.058Z" fill="white" stroke="#263238" stroke-width="0.604701" stroke-linecap="round" stroke-linejoin="round"/>
<path d="M88.9179 143.95L95.4755 151.313C95.4755 151.313 95.3413 157.544 90.9216 161.111C88.5056 163.09 85.9416 164.882 83.252 166.47L78.1421 159.347L74.7866 159.088L72.0447 165.933L69.1686 158.762C69.1686 158.762 66.5609 152.051 71.9584 147.756C77.3559 143.461 81.325 142.608 82.8206 142.579C84.3161 142.55 88.9179 143.95 88.9179 143.95Z" fill="#10B981" stroke="#263238" stroke-width="0.604701" stroke-linecap="round" stroke-linejoin="round"/>
<path d="M52.0941 126.003C52.0941 126.003 53.0528 136.769 54.0115 138.466C54.9702 140.163 56.8013 143.557 56.8013 143.557C56.8013 143.557 56.8972 148.945 58.6517 150.872C60.4061 152.799 64.2505 162.28 67.4334 162.223C70.6163 162.165 74.7196 158.906 74.7196 158.906L76.2343 161.581C77.6835 159.928 79.2888 158.419 81.0279 157.075C82.9453 155.819 87.4896 148.878 88.1894 146.903C88.5736 145.961 88.8035 144.964 88.8701 143.95C88.8701 143.95 88.477 135.628 87.6717 131.976C86.8664 128.323 86.713 120.97 83.1946 114.661C79.6761 108.353 69.1303 109.043 63.2918 111.354C57.4533 113.664 51.4805 119.407 51.2888 122.389C51.097 125.37 52.0941 126.003 52.0941 126.003Z" fill="#BABABA" stroke="#263238" stroke-width="0.604701" stroke-linecap="round" stroke-linejoin="round"/>
<path d="M72.1407 123.932C74.3745 125.6 72.2269 128.582 74.4416 129.032C76.359 129.416 82.8207 127.019 86.2912 123.232C85.7151 120.237 84.6872 117.347 83.2425 114.661C79.6953 108.363 69.1783 109.043 63.3397 111.354C57.5012 113.664 51.4805 119.407 51.2888 122.389C51.097 125.37 52.0941 126.041 52.0941 126.041C54.5728 126.737 57.132 127.104 59.7062 127.134C63.3781 127.029 69.9069 122.254 72.1407 123.932Z" fill="#263238" stroke="#263238" stroke-width="0.604701" stroke-linecap="round" stroke-linejoin="round"/>
<path d="M81.6608 135.513C81.6608 135.513 81.3252 130.375 84.2589 130.317C87.1925 130.26 87.7869 135.887 86.857 138.6C86.6218 139.361 86.183 140.042 85.5882 140.571C84.9933 141.1 84.2651 141.456 83.4823 141.601C83.4823 141.601 84.0384 145.263 83.3385 147.238" stroke="#263238" stroke-width="0.604701" stroke-linecap="round" stroke-linejoin="round"/>
<path d="M73.6363 149.626C71.1724 148.667 67.2608 149.252 67.2608 149.252C67.0308 150.21 65.0846 151.006 65.0846 151.006L60.4349 150.843C60.4349 150.843 60.3869 151.955 60.3486 153.412C62.3235 156.893 65.1421 162.271 67.5005 162.223C70.6834 162.165 74.7867 158.906 74.7867 158.906L74.8826 159.088C75.5474 158.387 76.3334 157.812 77.2027 157.391C78.1326 157.132 76.0522 150.555 73.6363 149.626Z" fill="#263238" stroke="#263238" stroke-width="0.604701" stroke-linecap="round" stroke-linejoin="round"/>
<path d="M63.1386 154.467C63.1386 154.467 69.025 154.85 71.4218 151.869" stroke="#808080" stroke-width="0.604701" stroke-linecap="round" stroke-linejoin="round"/>
<path d="M56.2548 140.94C58.4982 139.665 60.7128 142.013 60.7128 142.013C60.7128 142.013 60.1184 149.625 60.3869 150.843C60.6553 152.061 64.308 151.016 65.0366 151.006C65.7652 150.996 67.232 150.191 67.2129 149.232L67.443 148.274" fill="#BABABA"/>
<path d="M56.2548 140.94C58.4982 139.665 60.7128 142.013 60.7128 142.013C60.7128 142.013 60.1184 149.625 60.3869 150.843C60.6553 152.061 64.308 151.016 65.0366 151.006C65.7652 150.996 67.232 150.191 67.2129 149.232L67.443 148.274" stroke="#263238" stroke-width="0.604701" stroke-linecap="round" stroke-linejoin="round"/>
<path d="M68.6224 142.982C68.8141 143.691 68.6224 144.372 68.0951 144.496C67.5678 144.621 67.0788 144.151 66.9255 143.48C66.7721 142.809 66.9734 142.1 67.4527 141.975C67.9321 141.85 68.4402 142.282 68.6224 142.982Z" fill="#263238"/>
<path d="M59.8789 143.308C60.0611 144.017 59.8214 144.698 59.342 144.822C58.8627 144.947 58.2971 144.439 58.1437 143.768C57.9903 143.097 58.1437 142.387 58.6709 142.263C59.1982 142.138 59.6872 142.608 59.8789 143.308Z" fill="#263238"/>
<path d="M63.9726 140.384C63.9726 140.384 65.6695 137.575 71.441 138.092" stroke="#263238" stroke-width="0.604701" stroke-linecap="round" stroke-linejoin="round"/>
<path d="M95.4757 151.313C95.4757 151.313 91.2574 165.828 87.4226 187.562C83.5878 209.296 84.7478 259.561 85.3614 265.773C85.9749 271.985 90.5288 276.635 94.565 279.3C98.6011 281.966 115.657 286.385 121.831 286.27C121.831 286.27 119.117 233.043 119.06 229.563C119.002 226.082 128.925 170.123 128.877 167.39C128.829 164.658 105.504 155.368 102.493 154.17C99.4831 152.971 95.4757 151.313 95.4757 151.313Z" fill="white" stroke="#263238" stroke-width="0.604701" stroke-linecap="round" stroke-linejoin="round"/>
<path d="M95.6291 173.469L103.519 169.097L102.493 154.17C99.4927 152.981 95.4758 151.294 95.4758 151.294C95.4758 151.294 91.2574 165.809 87.4226 187.542C86.0325 195.375 85.3039 206.908 84.9587 218.758C84.9587 217.799 101.928 179.604 101.928 179.604L95.6291 173.469Z" fill="white" stroke="#263238" stroke-width="0.604701" stroke-linecap="round" stroke-linejoin="round"/>
<path d="M15.7975 232.928C15.7975 232.928 15.7975 231.087 19.2201 225.546C22.6427 220.004 27.0335 221.759 27.0335 221.759C27.0335 221.759 30.3411 225.2 25.6914 229.265C22.9641 231.675 19.4363 232.981 15.7975 232.928Z" fill="#263238" stroke="#263238" stroke-width="0.604701" stroke-linecap="round" stroke-linejoin="round"/>
<path d="M20.8115 231.681C22.2688 230.723 28.2511 229.582 28.0019 223.417C27.5609 222.66 27.0431 221.787 26.535 220.992C25.2504 219.074 24.4834 217.55 24.4834 217.55C24.4834 217.55 18.271 214.827 16.8137 217.837C17.3281 221.131 18.029 224.393 18.9133 227.607C19.4107 229.024 20.0465 230.389 20.8115 231.681Z" fill="#BABABA" stroke="#263238" stroke-width="0.604701" stroke-linecap="round" stroke-linejoin="round"/>
<path d="M19.268 204.732L12.9118 183.688L26.3624 184.187L32.5269 208.481L19.268 204.732Z" fill="#263238" stroke="#263238" stroke-width="0.604701" stroke-linecap="round" stroke-linejoin="round"/>
<path d="M20.6198 224.625C21.8264 224.337 22.9923 223.899 24.0903 223.321C25.3175 222.554 26.2474 218.796 26.2474 218.796C28.1352 218.206 29.9569 217.422 31.6833 216.457C34.3868 214.913 36.8603 213.581 36.5823 212.382C36.3043 211.184 34.0896 212.181 34.0896 212.181L34.7895 209.679L34.2526 207.196C34.2526 207.196 34.2526 206.237 34.2047 204.962C34.1568 203.687 32.4119 202.259 32.4119 202.259C32.5712 201.688 32.6455 201.097 32.6324 200.504C32.6324 199.545 32.0955 198.529 31.1081 198.587C30.1206 198.644 18.4819 202.546 18.4819 202.546L16.8808 196.602C16.8808 196.602 15.2702 203.85 15.3373 207.579C15.4044 211.309 18.0313 222.248 18.0313 222.995" fill="#BABABA"/>
<path d="M20.6198 224.625C21.8264 224.337 22.9923 223.899 24.0903 223.321C25.3175 222.554 26.2474 218.796 26.2474 218.796C28.1352 218.206 29.9569 217.422 31.6833 216.457C34.3868 214.913 36.8603 213.581 36.5823 212.382C36.3043 211.184 34.0896 212.181 34.0896 212.181L34.7895 209.679L34.2526 207.196C34.2526 207.196 34.2526 206.237 34.2047 204.962C34.1568 203.687 32.4119 202.259 32.4119 202.259C32.5712 201.688 32.6455 201.097 32.6324 200.504C32.6324 199.545 32.0955 198.529 31.1081 198.587C30.1206 198.644 18.4819 202.546 18.4819 202.546L16.8808 196.602C16.8808 196.602 15.2702 203.85 15.3373 207.579C15.4044 211.309 18.0313 222.248 18.0313 222.995" stroke="#263238" stroke-width="0.604701" stroke-linecap="round" stroke-linejoin="round"/>
<path d="M32.4119 202.259L22.2783 205.921" stroke="#263238" stroke-width="0.604701" stroke-linecap="round" stroke-linejoin="round"/>
<path d="M34.2526 207.196L23.3617 210.638" stroke="#263238" stroke-width="0.604701" stroke-linecap="round" stroke-linejoin="round"/>
<path d="M25.1833 215.335L34.0897 212.181" stroke="#263238" stroke-width="0.604701" stroke-linecap="round" stroke-linejoin="round"/>
<path d="M34.0322 222.391C34.0322 222.391 38.0396 223.81 39.3339 226.773" stroke="#263238" stroke-width="0.604701" stroke-linecap="round" stroke-linejoin="round"/>
<path d="M124.371 266.013C124.371 266.013 117.9 272.724 117.929 274.372C117.93 277.133 117.744 279.891 117.373 282.627C116.96 285.503 114.861 286.912 116.299 288.063C116.783 288.384 117.344 288.569 117.924 288.599C118.504 288.63 119.082 288.504 119.597 288.235C119.597 288.235 116.558 289.194 117.056 291.112C117.555 293.029 124.86 292.856 124.86 292.856L132.3 287.305C133.93 286.097 133.565 279.032 133.498 275.264C133.431 271.496 133.373 268.908 133.373 268.908L124.371 266.013Z" fill="#BABABA" stroke="#263238" stroke-width="0.604701" stroke-linecap="round" stroke-linejoin="round"/>
<path d="M119.597 288.235L121.313 283.327L121.706 278.648" stroke="#263238" stroke-width="0.604701" stroke-linecap="round" stroke-linejoin="round"/>
<path d="M119.405 180.256C119.405 180.256 115.752 198.75 115.8 201.233C115.848 203.716 123.844 232.956 123.844 232.956L120.009 268.879C122.216 269.957 124.479 270.917 126.787 271.755C128.532 272.215 135.301 274.334 135.301 274.334C135.301 274.334 142.194 243.09 143.382 240.08C144.571 237.069 143.124 225.392 143.085 223.657C143.047 221.922 132.712 173.056 132.693 172.309C132.674 171.561 131.83 165.847 130.325 165.128C128.82 164.409 123.077 163.517 123.077 163.517" fill="white"/>
<path d="M119.405 180.256C119.405 180.256 115.752 198.75 115.8 201.233C115.848 203.716 123.844 232.956 123.844 232.956L120.009 268.879C122.216 269.957 124.479 270.917 126.787 271.755C128.532 272.215 135.301 274.334 135.301 274.334C135.301 274.334 142.194 243.09 143.382 240.08C144.571 237.069 143.124 225.392 143.085 223.657C143.047 221.922 132.712 173.056 132.693 172.309C132.674 171.561 131.83 165.847 130.325 165.128C128.82 164.409 123.077 163.517 123.077 163.517" stroke="#263238" stroke-width="0.604701" stroke-linecap="round" stroke-linejoin="round"/>
</svg>
