<svg width="9" height="9" viewBox="0 0 9 9" fill="none" xmlns="http://www.w3.org/2000/svg">
<path d="M3.78026 7.2895L3.78026 7.28951C3.92894 7.53173 4.19574 7.69261 4.49998 7.69261C4.80418 7.69261 5.07099 7.53174 5.2197 7.2895C5.22591 7.27939 5.22551 7.2747 5.22545 7.27406C5.22545 7.27404 5.22545 7.27402 5.22545 7.27401C5.22536 7.27259 5.22467 7.26775 5.2191 7.26017C5.2068 7.24345 5.17734 7.22387 5.13593 7.22387C5.0893 7.22387 5.0307 7.25633 4.93251 7.3424L3.78026 7.2895ZM3.78026 7.2895C3.77405 7.27939 3.77445 7.27469 3.7745 7.27406C3.77451 7.27404 3.77451 7.27402 3.77451 7.27401C3.7746 7.27259 3.77529 7.26775 3.78086 7.26017C3.79316 7.24345 3.82261 7.22387 3.86403 7.22387C3.91063 7.22387 3.96929 7.25635 4.06744 7.34242L4.06745 7.34243M3.78026 7.2895L4.06745 7.34243M4.06745 7.34243C4.18283 7.4436 4.33444 7.50512 4.49998 7.50512C4.66545 7.50512 4.81709 7.44363 4.93246 7.34244L4.06745 7.34243Z" fill="#D3D6DE" stroke="#D3D6DE" stroke-width="0.352941"/>
<mask id="mask0_1_30518" style="mask-type:alpha" maskUnits="userSpaceOnUse" x="1" y="0" width="7" height="7">
<path fill-rule="evenodd" clip-rule="evenodd" d="M7.3124 4.06884C7.3124 2.94823 6.75617 1.90069 5.82783 1.27301L5.34011 0.943228C4.83256 0.600048 4.16731 0.600048 3.65976 0.943228L3.17203 1.273C2.2437 1.90069 1.68747 2.94822 1.68747 4.06884V4.78654C1.45732 4.99253 1.31248 5.29189 1.31248 5.62507C1.31248 6.2464 1.81615 6.75005 2.43746 6.75005H6.56241C7.18374 6.75005 7.68739 6.2464 7.68739 5.62507C7.68739 5.29189 7.54253 4.99253 7.3124 4.78654V4.06884Z" fill="white"/>
</mask>
<g mask="url(#mask0_1_30518)">
<path d="M1.12497 4.9739H1.60365L1.81357 5.20844C1.76727 5.2776 1.73227 5.35476 1.71103 5.43743H0.949103C0.969613 5.27322 1.0167 5.11721 1.08584 4.9739H1.12497ZM2.06246 4.2562V4.59891H1.77128L1.46455 4.2562H1.68747H2.06246ZM1.68747 3.88121H1.31715C1.37267 2.76976 1.91964 1.73966 2.80927 1.07111L3.0167 1.37789L3.23002 1.69338C2.54587 2.22104 2.12221 3.0189 2.06831 3.88121H1.68747ZM3.32735 1.16784L3.1173 0.857195L3.29438 0.737463L3.50442 1.04811L3.50443 1.04811L3.71447 1.35876L3.53739 1.47849L3.32735 1.16784ZM4.03391 1.16171L3.61027 0.535172C4.16509 0.23589 4.83476 0.235891 5.38959 0.535172L5.18478 0.838067L4.96595 1.16171C4.67019 1.02703 4.32966 1.02703 4.03391 1.16171ZM5.49543 1.04811L5.70547 0.737464L5.88255 0.857192L5.6725 1.16784L5.46245 1.47849L5.28538 1.35876L5.49543 1.04811ZM5.98315 1.37789L6.19057 1.07111C7.08022 1.73966 7.62718 2.76976 7.68271 3.88121H7.31239H6.93154C6.87764 3.01889 6.45398 2.22104 5.76982 1.69338L5.98315 1.37789ZM7.31239 4.2562H7.53532L7.22858 4.59891H6.93739V4.2562H7.31239ZM7.18628 5.20844L7.3962 4.9739H7.87488H7.91402C7.98316 5.11721 8.03024 5.27322 8.05075 5.43743H7.28883C7.26758 5.35476 7.23258 5.27759 7.18628 5.20844ZM7.28876 5.81243H8.05077C7.96617 6.49093 7.4284 7.0287 6.7499 7.11331V6.35129C7.01344 6.28346 7.22093 6.07597 7.28876 5.81243ZM6.3749 6.37492V7.12491H2.62495V6.37492H6.3749ZM2.24996 6.35129V7.11331C1.57146 7.0287 1.03369 6.49093 0.949081 5.81243H1.71109C1.77893 6.07597 1.98641 6.28346 2.24996 6.35129Z" fill="#D3D6DE" stroke="#D3D6DE" stroke-width="0.352941"/>
</g>
</svg>
