<svg width="25" height="17" viewBox="0 0 25 17" fill="none" xmlns="http://www.w3.org/2000/svg">
<path d="M23.8165 2.62498C23.6755 2.11982 23.4066 1.65957 23.0357 1.28872C22.6649 0.917868 22.2047 0.648956 21.6995 0.507973C19.8035 1.45642e-05 12.173 1.43826e-05 12.173 1.43826e-05C12.173 1.43826e-05 4.56171 -0.0101243 2.64647 0.507973C2.14131 0.648956 1.68107 0.917868 1.31022 1.28872C0.939364 1.65957 0.670452 2.11982 0.52947 2.62498C0.170066 4.56608 -0.00712102 6.53653 0.000218993 8.51061C-0.00573342 10.4772 0.171448 12.4402 0.52947 14.3739C0.670452 14.8791 0.939364 15.3393 1.31022 15.7102C1.68107 16.081 2.14131 16.35 2.64647 16.4909C4.54042 16.9999 12.173 16.9999 12.173 16.9999C12.173 16.9999 19.7832 16.9999 21.6995 16.4909C22.2047 16.35 22.6649 16.081 23.0357 15.7102C23.4066 15.3393 23.6755 14.8791 23.8165 14.3739C24.167 12.4395 24.3368 10.4765 24.3234 8.51061C24.3381 6.53722 24.1684 4.56678 23.8165 2.62498ZM9.73762 12.1515V4.85858L16.0886 8.51061L9.73762 12.1515Z" fill="#666F89"/>
</svg>
