<svg width="32" height="32" viewBox="0 0 32 32" fill="none" xmlns="http://www.w3.org/2000/svg">
<path d="M16.5804 3.45923C16.4171 3.45923 16.2486 3.46765 16.0759 3.48135C11.6239 3.83207 12.8045 8.54423 12.7371 10.1146C12.656 11.2658 12.4212 12.1726 11.6302 13.2964C10.6981 14.4033 9.38997 16.1928 8.76962 18.0581C8.47682 18.9343 8.33779 19.8317 8.46734 20.6796C8.41892 20.7183 8.3791 20.7667 8.35043 20.8217C8.07659 21.104 7.87753 21.4547 7.65319 21.7054C7.4436 21.915 7.14238 21.9866 6.81377 22.1267C6.48411 22.2699 6.12074 22.41 5.90378 22.8439C5.80899 23.0419 5.76054 23.2579 5.76475 23.4769C5.76475 23.6865 5.79319 23.8993 5.82268 24.0415C5.88377 24.4617 5.94485 24.8093 5.86375 25.0631C5.60255 25.7793 5.5699 26.2701 5.75316 26.6271C5.93643 26.9789 6.31664 27.1211 6.74215 27.2601C7.59632 27.4708 8.75382 27.4023 9.66486 27.891C10.6402 28.3829 11.6302 28.5977 12.4201 28.386C12.9741 28.2649 13.4417 27.8984 13.6924 27.3907C14.3107 27.3876 14.9879 27.1074 16.0727 27.039C16.8089 26.9779 17.7305 27.3202 18.7879 27.2486C18.8143 27.3907 18.8543 27.4581 18.908 27.6003L18.9112 27.6035C19.323 28.4229 20.0834 28.7957 20.8955 28.7315C21.7075 28.6683 22.5722 28.167 23.2726 27.356C23.9372 26.5503 25.0452 26.2143 25.7772 25.773C26.1437 25.5634 26.4397 25.279 26.4607 24.8746C26.485 24.4533 26.2511 24.0193 25.7087 23.4243V23.3221L25.7056 23.3189C25.5265 23.1083 25.4423 22.7555 25.3496 22.3437C25.2601 21.9213 25.1579 21.5158 24.8314 21.242H24.8282C24.7661 21.1851 24.6987 21.1714 24.6302 21.0998C24.5713 21.0587 24.5019 21.0353 24.4301 21.0324C24.884 19.6864 24.7082 18.3466 24.2479 17.1417C23.6865 15.6567 22.7049 14.3633 21.9571 13.4733C21.1187 12.4149 20.2972 11.4122 20.313 9.92501C20.3415 7.65846 20.5626 3.46555 16.5804 3.45923V3.45923ZM17.1375 7.04548H17.1512C17.3756 7.04548 17.5683 7.11078 17.7663 7.25402C17.9675 7.3962 18.1139 7.60369 18.2287 7.81539C18.3393 8.08818 18.3951 8.29882 18.4035 8.57793C18.4035 8.55687 18.4098 8.5358 18.4098 8.51579V8.62533C18.4075 8.61816 18.4061 8.61073 18.4056 8.60321L18.4014 8.57793C18.3993 8.83389 18.3456 9.0868 18.2434 9.32151C18.1942 9.45357 18.1178 9.57378 18.0191 9.67434C17.9892 9.65749 17.9583 9.64271 17.9264 9.63011C17.8158 9.58271 17.7168 9.5627 17.6262 9.49003C17.5515 9.46019 17.4743 9.43693 17.3956 9.42051C17.4472 9.35837 17.5483 9.28043 17.5873 9.21197C17.6431 9.07716 17.6736 8.93392 17.6799 8.78858V8.76856C17.6823 8.62552 17.6606 8.4831 17.6157 8.34727C17.5683 8.20509 17.5093 8.13557 17.423 7.99549C17.3345 7.92598 17.2471 7.85647 17.1417 7.85647H17.1249C17.0269 7.85647 16.9395 7.88806 16.849 7.99549C16.7489 8.09304 16.6747 8.21393 16.633 8.34727C16.5771 8.4811 16.545 8.62368 16.5382 8.76856V8.78858C16.5404 8.88231 16.5467 8.9771 16.5593 9.06979C16.356 8.99922 16.098 8.9276 15.92 8.85704C15.9094 8.78762 15.9031 8.71763 15.901 8.64744V8.62638C15.8926 8.34799 15.9466 8.07125 16.059 7.81644C16.1454 7.58579 16.3034 7.38883 16.5119 7.25507C16.6921 7.11899 16.9117 7.0454 17.1375 7.04548ZM14.0179 7.10762H14.0558C14.2053 7.10762 14.3402 7.15817 14.476 7.24981C14.6298 7.38567 14.7541 7.55314 14.8383 7.73956C14.9331 7.94915 14.9868 8.1619 14.9995 8.44206V8.44628C15.0069 8.58741 15.0058 8.65798 14.9974 8.72644V8.81069C14.9658 8.81807 14.9384 8.82965 14.91 8.83597C14.7499 8.8939 14.6214 8.97816 14.496 9.04662C14.5087 8.95288 14.5097 8.85809 14.4992 8.76541V8.74961C14.4866 8.60953 14.4581 8.54001 14.4128 8.39888C14.38 8.29154 14.3197 8.19461 14.238 8.11767C14.212 8.09406 14.1816 8.07593 14.1485 8.06435C14.1154 8.05277 14.0803 8.04798 14.0452 8.05026H14.0231C13.9484 8.05658 13.8862 8.09344 13.8272 8.18929C13.76 8.27083 13.7164 8.36915 13.7008 8.47366C13.6722 8.58753 13.664 8.70555 13.6766 8.82228V8.83702C13.6893 8.97921 13.7156 9.04872 13.7619 9.1888C13.8093 9.32994 13.8641 9.39945 13.9357 9.47107C13.9473 9.48055 13.9578 9.49003 13.9715 9.49635C13.8978 9.55638 13.8483 9.57007 13.7862 9.63959C13.7467 9.6744 13.6993 9.69899 13.6482 9.71121C13.5387 9.57937 13.4417 9.43762 13.3585 9.28781C13.259 9.06648 13.2035 8.82786 13.1953 8.5853C13.1779 8.34755 13.2065 8.10866 13.2796 7.88174C13.3376 7.6748 13.4392 7.48267 13.5776 7.31827C13.7124 7.17819 13.8515 7.10762 14.0179 7.10762ZM15.4618 8.90443C15.8105 8.90443 16.2328 8.97289 16.7415 9.32467C17.0501 9.53532 17.2924 9.60799 17.8506 9.81758H17.8537C18.1223 9.96082 18.2803 10.0977 18.3572 10.2378V10.0998C18.395 10.1764 18.416 10.2602 18.4189 10.3455C18.4218 10.4309 18.4065 10.5159 18.374 10.5949C18.2445 10.9224 17.8306 11.2731 17.2534 11.4827V11.4848C16.9711 11.627 16.7257 11.8356 16.4371 11.9746C16.1464 12.1168 15.8178 12.2821 15.3713 12.2558C15.2108 12.2641 15.0504 12.2401 14.8994 12.1852C14.7828 12.1218 14.6696 12.0522 14.5603 11.9767C14.3549 11.8345 14.178 11.627 13.9157 11.487V11.4817H13.9104C13.4891 11.2226 13.2616 10.9424 13.1879 10.7328C13.1152 10.4506 13.1827 10.2389 13.3912 10.1009C13.6271 9.95872 13.7914 9.81548 13.8999 9.74702C14.0094 9.66908 14.0505 9.63959 14.0853 9.60904H14.0874V9.60588C14.2654 9.39313 14.5466 9.11192 14.971 8.97289C15.1174 8.93498 15.2807 8.90443 15.4618 8.90443ZM18.4098 11.1615C18.7879 12.6539 19.6706 14.8215 20.2382 15.8726C20.5395 16.435 21.1388 17.6199 21.3989 19.0576C21.5632 19.0523 21.7454 19.0765 21.9392 19.125C22.6196 17.365 21.3642 15.4734 20.7922 14.9479C20.5595 14.7362 20.5479 14.595 20.6627 14.595C21.2831 15.1575 22.1004 16.2507 22.3963 17.4988C22.5322 18.0623 22.5638 18.6616 22.4184 19.2577C22.489 19.2872 22.5606 19.3219 22.6343 19.3283C23.7213 19.8907 24.1226 20.3162 23.9298 20.9471V20.9018C23.8656 20.8986 23.8034 20.9018 23.7392 20.9018H23.7234C23.8824 20.4099 23.5317 20.0329 22.6017 19.6126C21.638 19.1913 20.8681 19.2587 20.7364 20.1024C20.7291 20.1477 20.7238 20.1719 20.7185 20.2446C20.6469 20.2688 20.5721 20.3004 20.4984 20.312C20.0455 20.5942 19.8012 21.0166 19.6632 21.5622C19.5263 22.1235 19.4841 22.7797 19.4473 23.5306V23.5338C19.4252 23.8856 19.2672 24.4164 19.1113 24.9567C17.5314 26.0858 15.3407 26.5766 13.4776 25.3085C13.3607 25.1042 13.2184 24.9156 13.0542 24.7471C12.9757 24.616 12.8781 24.4975 12.7645 24.3953C12.9562 24.3953 13.1205 24.3648 13.2543 24.3248C13.4057 24.2545 13.5242 24.1285 13.585 23.973C13.6987 23.6918 13.585 23.2389 13.2216 22.7481C12.8583 22.2562 12.2411 21.7001 11.3384 21.1461C10.6749 20.7259 10.3 20.2298 10.1272 19.6758C9.95345 19.1134 9.97662 18.5331 10.1114 17.9433C10.3695 16.8163 11.0309 15.7209 11.4532 15.0332C11.5659 14.9647 11.4922 15.1754 11.0235 16.059C10.6065 16.85 9.82179 18.6889 10.895 20.1182C10.9356 19.0754 11.1665 18.0488 11.5765 17.0891C12.1705 15.7431 13.4123 13.3986 13.5102 11.5407C13.5608 11.5786 13.7388 11.6829 13.8146 11.7534C14.0442 11.8935 14.2148 12.1041 14.436 12.2432C14.6582 12.4549 14.9384 12.596 15.3586 12.596C15.3997 12.5992 15.4376 12.6023 15.4755 12.6023C15.9084 12.6023 16.2433 12.4612 16.5246 12.3201C16.83 12.1789 17.0733 11.9683 17.3039 11.8988H17.3092C17.8011 11.7566 18.1897 11.4754 18.4098 11.1615ZM20.7122 20.5963C20.7512 21.2293 21.0735 21.9076 21.6412 22.0466C22.2605 22.1878 23.1515 21.6959 23.5275 21.2409L23.7497 21.2314C24.0815 21.223 24.3574 21.242 24.6418 21.5127L24.645 21.5158C24.864 21.7254 24.9662 22.0751 25.0568 22.4384C25.1463 22.8608 25.219 23.26 25.4875 23.5612C25.9994 24.1162 26.1669 24.5154 26.1574 24.7619L26.1606 24.7556V24.7745L26.1574 24.7619C26.1416 25.0378 25.9626 25.179 25.6329 25.3885C24.9694 25.8109 23.794 26.1384 23.0451 27.0421C22.3942 27.8183 21.6011 28.2417 20.9007 28.2965C20.2014 28.3523 19.5979 28.0859 19.2429 27.3507L19.2377 27.3476C19.0165 26.9252 19.1113 26.268 19.2967 25.5676C19.482 24.864 19.7474 24.151 19.7843 23.5686C19.8233 22.8166 19.8644 22.1625 19.9897 21.658C20.1161 21.1682 20.3141 20.8186 20.6648 20.6216L20.7122 20.5985V20.5963ZM9.32151 20.648H9.33204C9.38786 20.648 9.44263 20.6532 9.4974 20.6627C9.89341 20.7206 10.241 21.0134 10.5749 21.4547L11.5333 23.2073L11.5365 23.2105C11.7924 23.7718 12.3306 24.3311 12.7887 24.9357C13.2458 25.5655 13.5997 26.1269 13.5566 26.5892V26.5955C13.4965 27.3792 13.0521 27.8047 12.3717 27.9584C11.6923 28.1006 10.7708 27.9605 9.84918 27.4697C8.82965 26.9052 7.61844 26.9758 6.8401 26.8357C6.45146 26.7662 6.19657 26.624 6.07861 26.4133C5.9617 26.2037 5.9596 25.7803 6.20816 25.1179V25.1147L6.21027 25.1115C6.33349 24.7598 6.24186 24.3185 6.18183 23.933C6.1239 23.5106 6.09441 23.1862 6.22712 22.9429C6.39564 22.5912 6.6442 22.5227 6.95279 22.3816C7.2635 22.2394 7.62792 22.1688 7.91755 21.8876H7.91966V21.8844C8.18929 21.6022 8.38835 21.2515 8.62322 21.0018C8.82333 20.7901 9.02345 20.648 9.32151 20.648ZM16.8616 11.0909C16.4034 11.3026 15.8663 11.6544 15.2944 11.6544C14.7235 11.6544 14.2727 11.3732 13.9473 11.1636C13.784 11.0225 13.6524 10.8813 13.5534 10.8108C13.3807 10.6696 13.4017 10.459 13.4755 10.459C13.5903 10.4759 13.6113 10.6012 13.685 10.6707C13.7862 10.7402 13.9115 10.8803 14.0653 11.0214C14.3718 11.2321 14.7815 11.5133 15.2933 11.5133C15.8041 11.5133 16.4024 11.2321 16.7657 11.0225C16.9711 10.8803 17.2344 10.6707 17.4482 10.5306C17.6125 10.3863 17.6052 10.2484 17.7421 10.2484C17.878 10.2652 17.7779 10.3895 17.5873 10.5991C17.3536 10.7758 17.1111 10.9403 16.8605 11.092V11.0909H16.8616ZM15.722 9.42262V9.39945C15.7157 9.37944 15.7357 9.35521 15.7525 9.34679C15.8305 9.3015 15.9421 9.31835 16.0264 9.351C16.0927 9.351 16.1949 9.42157 16.1844 9.49319C16.178 9.5448 16.0948 9.5627 16.0422 9.5627C15.9842 9.5627 15.9453 9.51741 15.8937 9.49108C15.8389 9.47212 15.7399 9.48266 15.722 9.42262ZM15.1417 9.42262C15.1206 9.48371 15.0226 9.47423 14.9668 9.49213C14.9173 9.51847 14.8762 9.56375 14.8204 9.56375C14.7667 9.56375 14.6825 9.54374 14.6761 9.49213C14.6667 9.42262 14.7688 9.35205 14.8341 9.35205C14.9194 9.3194 15.0279 9.30255 15.1069 9.34679C15.1269 9.35627 15.1448 9.37839 15.1385 9.39945V9.42157H15.1417V9.42262Z" fill="#111217"/>
</svg>
