<svg width="9" height="9" viewBox="0 0 9 9" fill="none" xmlns="http://www.w3.org/2000/svg">
<path d="M4.12493 2.24991C4.12493 2.45701 4.29283 2.6249 4.49993 2.6249C4.70703 2.6249 4.87492 2.45701 4.87492 2.24991C4.87492 2.0428 4.70703 1.87491 4.49993 1.87491C4.29283 1.87491 4.12493 2.0428 4.12493 2.24991Z" fill="white"/>
<path d="M4.12493 4.49991C4.12493 4.70701 4.29283 4.8749 4.49993 4.8749C4.70703 4.8749 4.87492 4.70701 4.87492 4.49991C4.87492 4.2928 4.70703 4.12491 4.49993 4.12491C4.29283 4.12491 4.12493 4.2928 4.12493 4.49991Z" fill="white"/>
<path d="M4.12493 6.74991C4.12493 6.95701 4.29283 7.1249 4.49993 7.1249C4.70703 7.1249 4.87492 6.95701 4.87492 6.74991C4.87492 6.5428 4.70703 6.37491 4.49993 6.37491C4.29283 6.37491 4.12493 6.5428 4.12493 6.74991Z" fill="white"/>
</svg>
