<svg width="25" height="24" viewBox="0 0 25 24" fill="none" xmlns="http://www.w3.org/2000/svg">
<path d="M24.1459 12.074C24.1459 5.40512 18.7408 0 12.073 0C5.40512 0 0 5.40512 0 12.074C0 18.0989 4.41505 23.0935 10.1864 23.999V15.5634H7.12163V12.073H10.1864V9.41367C10.1864 6.38713 11.9895 4.71589 14.7463 4.71589C16.0674 4.71589 17.4489 4.95134 17.4489 4.95134V7.92254H15.9276C14.4284 7.92254 13.9605 8.85324 13.9605 9.80809V12.074H17.309L16.7738 15.5644H13.9605V24C19.7319 23.0945 24.1469 18.0999 24.1469 12.074H24.1459Z" fill="#666F89"/>
</svg>
