<svg width="202" height="29" viewBox="0 0 202 29" fill="none" xmlns="http://www.w3.org/2000/svg">
<g opacity="0.4">
<rect y="25.0732" width="1.76573" height="3.17832" fill="#0EA271"/>
<rect x="2.11894" y="23.6607" width="1.76573" height="4.59091" fill="#0EA271"/>
<rect x="4.23785" y="17.304" width="1.76573" height="10.9475" fill="#0EA271"/>
<rect x="6.35678" y="15.5383" width="1.76573" height="12.7133" fill="#0EA271"/>
<rect x="8.47569" y="13.7731" width="1.76573" height="14.479" fill="#0EA271"/>
<rect x="10.5946" width="1.76573" height="28.2517" fill="#0EA271"/>
<rect x="12.7134" y="8.82886" width="1.76573" height="19.4231" fill="#EF4444"/>
<rect x="14.8323" y="8.82886" width="1.76573" height="19.4231" fill="#EF4444"/>
<rect x="16.9512" y="6.70996" width="1.76573" height="21.5419" fill="#EF4444"/>
<rect x="19.0699" y="17.304" width="1.76573" height="10.9475" fill="#EF4444"/>
<rect x="21.1888" y="21.8951" width="1.76573" height="6.35664" fill="#EF4444"/>
<rect x="23.3077" y="17.304" width="1.76573" height="10.9475" fill="#EF4444"/>
<rect x="25.4267" y="23.6607" width="1.76573" height="4.59091" fill="#EF4444"/>
<rect x="27.5456" y="25.0732" width="1.76573" height="3.17832" fill="#EF4444"/>
<rect x="29.6645" y="26.8393" width="1.76573" height="1.41259" fill="#EF4444"/>
</g>
<g opacity="0.4">
<rect x="34.1141" y="17.3045" width="1.76573" height="10.9475" fill="#0EA271"/>
<rect x="36.233" y="23.6612" width="1.76573" height="4.59091" fill="#0EA271"/>
<rect x="38.3518" y="17.3045" width="1.76573" height="10.9475" fill="#0EA271"/>
<rect x="40.4707" y="26.1334" width="1.76573" height="2.11888" fill="#EF4444"/>
<rect x="42.5896" y="23.6612" width="1.76573" height="4.59091" fill="#EF4444"/>
<rect x="44.7085" y="5.65075" width="1.76573" height="22.6014" fill="#0EA271"/>
<rect x="46.8273" y="8.82886" width="1.76573" height="19.4231" fill="#0EA271"/>
<rect x="48.9462" y="8.82886" width="1.76573" height="19.4231" fill="#0EA271"/>
<rect x="51.0651" y="15.5388" width="1.76573" height="12.7133" fill="#EF4444"/>
<rect x="53.184" y="17.3045" width="1.76573" height="10.9475" fill="#EF4444"/>
<rect x="55.3027" y="21.8955" width="1.76573" height="6.35664" fill="#EF4444"/>
<rect x="57.4218" y="12.3607" width="1.76573" height="15.8916" fill="#0EA271"/>
<rect x="59.5406" y="23.6612" width="1.76573" height="4.59091" fill="#EF4444"/>
<rect x="61.6595" y="25.0737" width="1.76573" height="3.17832" fill="#EF4444"/>
<rect x="63.7784" y="26.8393" width="1.76573" height="1.41259" fill="#EF4444"/>
</g>
<g opacity="0.4">
<rect x="68.2279" y="25.0732" width="1.76573" height="3.17832" fill="#0EA271"/>
<rect x="70.347" y="23.6607" width="1.76573" height="4.59091" fill="#0EA271"/>
<rect x="72.4658" y="17.304" width="1.76573" height="10.9475" fill="#0EA271"/>
<rect x="74.5847" y="26.1329" width="1.76573" height="2.11888" fill="#EF4444"/>
<rect x="76.7037" y="12.007" width="1.76573" height="16.2447" fill="#0EA271"/>
<rect x="78.8226" y="20.1294" width="1.76573" height="8.12237" fill="#EF4444"/>
<rect x="80.9414" y="18.0105" width="1.76573" height="10.2412" fill="#EF4444"/>
<rect x="83.0602" y="17.304" width="1.76573" height="10.9475" fill="#EF4444"/>
<rect x="85.1791" y="15.5383" width="1.76573" height="12.7133" fill="#EF4444"/>
<rect x="87.298" y="17.304" width="1.76573" height="10.9475" fill="#EF4444"/>
<rect x="89.4167" y="21.8951" width="1.76573" height="6.35664" fill="#EF4444"/>
<rect x="91.5357" y="12.3602" width="1.76573" height="15.8916" fill="#0EA271"/>
<rect x="93.6546" y="23.6607" width="1.76573" height="4.59091" fill="#EF4444"/>
<rect x="95.7735" y="25.0732" width="1.76573" height="3.17832" fill="#EF4444"/>
<rect x="97.8924" y="26.8393" width="1.76573" height="1.41259" fill="#EF4444"/>
</g>
<g opacity="0.4">
<rect x="102.342" y="18.3637" width="1.76573" height="9.8881" fill="#0EA271"/>
<rect x="104.461" y="20.4826" width="1.76573" height="7.76922" fill="#0EA271"/>
<rect x="106.58" y="23.6612" width="1.76573" height="4.59091" fill="#0EA271"/>
<rect x="108.699" y="26.1334" width="1.76573" height="2.11888" fill="#EF4444"/>
<rect x="110.818" y="26.8393" width="1.76573" height="1.41259" fill="#EF4444"/>
<rect x="112.936" y="25.0737" width="1.76573" height="3.17832" fill="#EF4444"/>
<rect x="115.055" y="23.6612" width="1.76573" height="4.59091" fill="#EF4444"/>
<rect x="117.174" y="16.9513" width="1.76573" height="11.3007" fill="#0EA271"/>
<rect x="119.293" y="23.6612" width="1.76573" height="4.59091" fill="#EF4444"/>
<rect x="121.412" y="20.4826" width="1.76573" height="7.76922" fill="#10B981"/>
<rect x="123.531" y="21.8955" width="1.76573" height="6.35664" fill="#EF4444"/>
<rect x="125.65" y="18.3637" width="1.76573" height="9.8881" fill="#0EA271"/>
<rect x="127.769" y="23.6612" width="1.76573" height="4.59091" fill="#EF4444"/>
<rect x="129.887" y="25.0737" width="1.76573" height="3.17832" fill="#EF4444"/>
<rect x="132.006" y="26.8393" width="1.76573" height="1.41259" fill="#EF4444"/>
</g>
<g opacity="0.4">
<rect x="136.456" y="7.76965" width="1.76573" height="20.4825" fill="#0EA271"/>
<rect x="138.575" y="20.4831" width="1.76573" height="7.76922" fill="#0EA271"/>
<rect x="140.694" y="23.6612" width="1.76573" height="4.59091" fill="#0EA271"/>
<rect x="142.812" y="26.1334" width="1.76573" height="2.11888" fill="#EF4444"/>
<rect x="144.931" y="26.8393" width="1.76573" height="1.41259" fill="#EF4444"/>
<rect x="147.05" y="25.0737" width="1.76573" height="3.17832" fill="#EF4444"/>
<rect x="149.169" y="23.6612" width="1.76573" height="4.59091" fill="#EF4444"/>
<rect x="151.288" y="12.3607" width="1.76573" height="15.8916" fill="#0EA271"/>
<rect x="153.407" y="15.5388" width="1.76573" height="12.7133" fill="#EF4444"/>
<rect x="155.526" y="17.3045" width="1.76573" height="10.9475" fill="#EF4444"/>
<rect x="157.644" y="21.8955" width="1.76573" height="6.35664" fill="#EF4444"/>
<rect x="159.764" y="18.3642" width="1.76573" height="9.8881" fill="#0EA271"/>
<rect x="161.882" y="23.6612" width="1.76573" height="4.59091" fill="#EF4444"/>
<rect x="164.001" y="25.0737" width="1.76573" height="3.17832" fill="#EF4444"/>
<rect x="166.12" y="26.8393" width="1.76573" height="1.41259" fill="#EF4444"/>
</g>
<g opacity="0.4">
<rect x="170.57" y="1.41244" width="1.76573" height="26.8391" fill="#0EA271"/>
<rect x="172.689" y="11.3005" width="1.76573" height="16.951" fill="#0EA271"/>
<rect x="174.808" y="15.5383" width="1.76573" height="12.7133" fill="#0EA271"/>
<rect x="176.927" y="17.6572" width="1.76573" height="10.5944" fill="#EF4444"/>
<rect x="179.045" y="20.8358" width="1.76573" height="7.41608" fill="#EF4444"/>
<rect x="181.164" y="21.8951" width="1.76573" height="6.35664" fill="#EF4444"/>
<rect x="183.283" y="23.6607" width="1.76573" height="4.59091" fill="#EF4444"/>
<rect x="185.402" y="9.53484" width="1.76573" height="18.7168" fill="#0EA271"/>
<rect x="187.521" y="15.5383" width="1.76573" height="12.7133" fill="#EF4444"/>
<rect x="189.64" y="16.5975" width="1.76573" height="11.6538" fill="#EF4444"/>
<rect x="191.759" y="21.8951" width="1.76573" height="6.35664" fill="#EF4444"/>
<rect x="193.877" y="18.3632" width="1.76573" height="9.8881" fill="#0EA271"/>
<rect x="195.996" y="23.6607" width="1.76573" height="4.59091" fill="#EF4444"/>
<rect x="198.115" y="25.0737" width="1.76573" height="3.17832" fill="#EF4444"/>
<rect x="200.234" y="26.8393" width="1.76573" height="1.41259" fill="#EF4444"/>
</g>
</svg>
