<svg width="25" height="25" viewBox="0 0 25 25" fill="none" xmlns="http://www.w3.org/2000/svg">
<path d="M12.4999 0C9.10408 0 8.68013 0.0156248 7.3468 0.0749993C6.01557 0.137499 5.10933 0.346872 4.31246 0.656244C3.49059 0.974991 2.79268 1.40311 2.0979 2.0979C1.40311 2.79268 0.973949 3.48955 0.656244 4.31246C0.346872 5.10933 0.136457 6.01557 0.0749993 7.3468C0.0124999 8.68013 0 9.10408 0 12.4999C0 15.8957 0.0156248 16.3196 0.0749993 17.653C0.137499 18.9832 0.346872 19.8904 0.656244 20.6873C0.970086 21.5215 1.46207 22.2773 2.0979 22.9019C2.72214 23.5381 3.47799 24.0302 4.31246 24.3435C5.11037 24.6518 6.01661 24.8633 7.3468 24.9248C8.68013 24.9873 9.10408 24.9998 12.4999 24.9998C15.8957 24.9998 16.3196 24.9841 17.653 24.9248C18.9832 24.8623 19.8904 24.6518 20.6873 24.3435C21.5213 24.0293 22.277 23.5374 22.9019 22.9019C23.5383 22.2778 24.0304 21.5219 24.3435 20.6873C24.6518 19.8904 24.8633 18.9832 24.9248 17.653C24.9873 16.3196 24.9998 15.8957 24.9998 12.4999C24.9998 9.10408 24.9841 8.68013 24.9248 7.3468C24.8623 6.01661 24.6518 5.10828 24.3435 4.31246C24.0295 3.47832 23.5376 2.72261 22.9019 2.0979C22.2781 1.46107 21.5221 0.968938 20.6873 0.656244C19.8904 0.346872 18.9832 0.136457 17.653 0.0749993C16.3196 0.0124999 15.8957 0 12.4999 0ZM12.4999 2.24998C15.8363 2.24998 16.2342 2.26664 17.5519 2.32394C18.7707 2.38123 19.4321 2.58331 19.8717 2.75622C20.4571 2.98226 20.8717 3.25309 21.3113 3.68955C21.7477 4.12704 22.0185 4.54266 22.2446 5.12808C22.4154 5.56765 22.6196 6.22911 22.6748 7.44785C22.7342 8.76658 22.7477 9.16241 22.7477 12.4999C22.7477 15.8373 22.7321 16.2342 22.6706 17.5519C22.6071 18.7707 22.404 19.4321 22.2321 19.8717C22.0287 20.4141 21.7091 20.9055 21.2956 21.3113C20.8916 21.7251 20.4006 22.0439 19.8581 22.2446C19.4206 22.4154 18.7488 22.6196 17.53 22.6748C16.203 22.7342 15.8123 22.7477 12.4686 22.7477C9.12387 22.7477 8.73325 22.7321 7.40722 22.6706C6.18744 22.6071 5.51557 22.404 5.07808 22.2321C4.53527 22.0312 4.04442 21.7112 3.64163 21.2956C3.22349 20.8943 2.9028 20.4026 2.70414 19.8581C2.53227 19.4206 2.33019 18.7488 2.26664 17.53C2.21977 16.2176 2.2031 15.8123 2.2031 12.4843C2.2031 9.15512 2.21977 8.74887 2.26664 7.42076C2.33019 6.20202 2.53227 5.5312 2.70414 5.0937C2.92289 4.49996 3.20309 4.09371 3.64163 3.65517C4.07809 3.21872 4.48537 2.93747 5.07808 2.71977C5.51557 2.54685 6.17286 2.34373 7.3916 2.28123C8.71971 2.23435 9.11033 2.21873 12.453 2.21873L12.4999 2.24998ZM12.4999 6.08119C11.657 6.08119 10.8223 6.24722 10.0436 6.56979C9.2648 6.89235 8.55721 7.36515 7.96118 7.96118C7.36515 8.55721 6.89235 9.2648 6.56978 10.0436C6.24722 10.8223 6.08119 11.657 6.08119 12.4999C6.08119 13.3428 6.24722 14.1775 6.56978 14.9562C6.89235 15.735 7.36515 16.4425 7.96118 17.0386C8.55721 17.6346 9.2648 18.1074 10.0436 18.43C10.8223 18.7525 11.657 18.9186 12.4999 18.9186C14.2022 18.9186 15.8348 18.2423 17.0386 17.0386C18.2423 15.8348 18.9186 14.2022 18.9186 12.4999C18.9186 10.7975 18.2423 9.16492 17.0386 7.96118C15.8348 6.75744 14.2022 6.08119 12.4999 6.08119ZM12.4999 16.6665C10.1978 16.6665 8.33325 14.8019 8.33325 12.4999C8.33325 10.1978 10.1978 8.33325 12.4999 8.33325C14.8019 8.33325 16.6665 10.1978 16.6665 12.4999C16.6665 14.8019 14.8019 16.6665 12.4999 16.6665ZM20.6727 5.82807C20.6583 6.21622 20.4939 6.58364 20.2142 6.85313C19.9344 7.12262 19.5611 7.27319 19.1727 7.27319C18.7843 7.27319 18.411 7.12262 18.1313 6.85313C17.8516 6.58364 17.6872 6.21622 17.6727 5.82807C17.6727 5.43025 17.8308 5.04872 18.1121 4.76742C18.3934 4.48612 18.7749 4.32808 19.1727 4.32808C19.5706 4.32808 19.9521 4.48612 20.2334 4.76742C20.5147 5.04872 20.6727 5.43025 20.6727 5.82807Z" fill="#666F89"/>
</svg>
