<svg width="25" height="20" viewBox="0 0 25 20" fill="none" xmlns="http://www.w3.org/2000/svg">
<path d="M24.5585 2.38214C23.6373 2.78772 22.6614 3.05545 21.6622 3.17669C22.7142 2.54438 23.5019 1.55277 23.8797 0.384981C22.9048 0.953985 21.8242 1.36818 20.6738 1.59886C19.9149 0.787313 18.9093 0.249056 17.8131 0.0676722C16.7169 -0.113712 15.5914 0.0719259 14.6116 0.595759C13.6317 1.11959 12.8522 1.95231 12.3941 2.9646C11.936 3.97688 11.825 5.1121 12.0783 6.19396C7.88507 5.99609 4.1686 3.98253 1.68138 0.938607C1.22904 1.70734 0.993107 2.58413 0.998578 3.47606C0.998578 5.22921 1.89053 6.77014 3.24179 7.67542C2.44094 7.64993 1.65777 7.4334 0.957568 7.04388V7.10641C0.957114 8.27148 1.35974 9.40083 2.09712 10.3028C2.83451 11.2049 3.86125 11.824 5.00314 12.0552C4.26323 12.2535 3.48827 12.2833 2.73532 12.1424C3.05956 13.145 3.68862 14.0214 4.53476 14.6494C5.38091 15.2774 6.40196 15.6256 7.4555 15.6456C5.67107 17.0459 3.46782 17.806 1.19952 17.8037C0.799682 17.8037 0.400866 17.7801 0 17.735C2.31263 19.2158 5.00162 20.0018 7.74769 19.9998C17.0302 19.9998 22.0999 12.3146 22.0999 5.66083C22.0999 5.44656 22.0999 5.23024 22.0846 5.01494C23.0749 4.30224 23.9292 3.41742 24.6066 2.40264L24.5585 2.38214Z" fill="#666F89"/>
</svg>
